999
dxfrw 0.6.3
  0
SECTION
  2
HEADER
  9
$ACADVER
  1
AC1021
  9
$DWGCODEPAGE
  3
ANSI_1252
  9
$INSBASE
 10
0
 20
0
 30
0
  9
$EXTMIN
 10
-105
 20
-148.5
 30
0
  9
$EXTMAX
 10
105
 20
148.5
 30
0
  9
$LIMMIN
 10
0
 20
0
  9
$LIMMAX
 10
420
 20
297
  9
$ORTHOMODE
 70
    0
  9
$REGENMODE
 70
    1
  9
$FILLMODE
 70
    1
  9
$QTEXTMODE
 70
    0
  9
$MIRRTEXT
 70
    0
  9
$LTSCALE
 40
1
  9
$ATTMODE
 70
    0
  9
$TEXTSIZE
 40
2.5
  9
$TRACEWID
 40
15.68
  9
$TEXTSTYLE
  7
STANDARD
  9
$CLAYER
  8
A4_Rotulación
  9
$CELTYPE
  6
BYLAYER
  9
$CECOLOR
 62
  256
  9
$CELTSCALE
 40
1
  9
$DISPSILH
 70
    0
  9
$DIMSCALE
 40
2.5
  9
$DIMASZ
 40
2.5
  9
$DIMEXO
 40
0.625
  9
$DIMDLI
 40
3.75
  9
$DIMRND
 40
0
  9
$DIMDLE
 40
0
  9
$DIMEXE
 40
1.25
  9
$DIMTP
 40
0
  9
$DIMTM
 40
0
  9
$DIMTXT
 40
2.5
  9
$DIMCEN
 40
2.5
  9
$DIMTSZ
 40
0
  9
$DIMTOL
 70
    0
  9
$DIMLIM
 70
    0
  9
$DIMTIH
 70
    0
  9
$DIMTOH
 70
    0
  9
$DIMSE1
 70
    0
  9
$DIMSE2
 70
    0
  9
$DIMTAD
 70
    1
  9
$DIMZIN
 70
    8
  9
$DIMBLK
  1

  9
$DIMASO
 70
    1
  9
$DIMSHO
 70
    1
  9
$DIMPOST
  1

  9
$DIMAPOST
  1

  9
$DIMALT
 70
    0
  9
$DIMALTD
 70
    3
  9
$DIMALTF
 40
0.03937
  9
$DIMLFAC
 40
1
  9
$DIMTOFL
 70
    1
  9
$DIMTVP
 40
0
  9
$DIMTIX
 70
    0
  9
$DIMSOXD
 70
    0
  9
$DIMSAH
 70
    0
  9
$DIMBLK1
  1

  9
$DIMBLK2
  1

  9
$DIMSTYLE
  2
STANDARD
  9
$DIMCLRD
 70
    0
  9
$DIMCLRE
 70
    0
  9
$DIMCLRT
 70
    0
  9
$DIMTFAC
 40
1
  9
$DIMGAP
 40
0.625
  9
$DIMJUST
 70
    0
  9
$DIMSD1
 70
    0
  9
$DIMSD2
 70
    0
  9
$DIMTOLJ
 70
    0
  9
$DIMTZIN
 70
    8
  9
$DIMALTZ
 70
    0
  9
$DIMALTTZ
 70
    0
  9
$DIMUPT
 70
    0
  9
$DIMDEC
 70
    2
  9
$DIMTDEC
 70
    2
  9
$DIMALTU
 70
    2
  9
$DIMALTTD
 70
    3
  9
$DIMTXSTY
  7
standard
  9
$DIMAUNIT
 70
    0
  9
$DIMADEC
 70
    0
  9
$DIMALTRND
 40
0
  9
$DIMAZIN
 70
    0
  9
$DIMDSEP
 70
   44
  9
$DIMATFIT
 70
    3
  9
$DIMFRAC
 70
    0
  9
$DIMLDRBLK
  1
STANDARD
  9
$DIMLUNIT
 70
    2
  9
$DIMLWD
 70
   -2
  9
$DIMLWE
 70
   -2
  9
$DIMTMOVE
 70
    0
  9
$DIMFXL
 40
1
  9
$DIMFXLON
 70
    0
  9
$DIMJOGANG
 40
0.7854
  9
$DIMTFILL
 70
    0
  9
$DIMTFILLCLR
 70
    0
  9
$DIMARCSYM
 70
    0
  9
$DIMLTYPE
  6

  9
$DIMLTEX1
  6

  9
$DIMLTEX2
  6

  9
$LUNITS
 70
    2
  9
$LUPREC
 70
    4
  9
$SKETCHINC
 40
1
  9
$FILLETRAD
 40
0
  9
$AUNITS
 70
    0
  9
$AUPREC
 70
    2
  9
$MENU
  1
.
  9
$ELEVATION
 40
0
  9
$PELEVATION
 40
0
  9
$THICKNESS
 40
0
  9
$LIMCHECK
 70
    0
  9
$CHAMFERA
 40
0
  9
$CHAMFERB
 40
0
  9
$CHAMFERC
 40
0
  9
$CHAMFERD
 40
0
  9
$SKPOLY
 70
    0
  9
$USRTIMER
 70
    1
  9
$ANGBASE
 50
0
  9
$ANGDIR
 70
    0
  9
$PDMODE
 70
   34
  9
$PDSIZE
 40
0
  9
$PLINEWID
 40
0
  9
$SPLFRAME
 70
    0
  9
$SPLINETYPE
 70
    2
  9
$SPLINESEGS
 70
    8
  9
$HANDSEED
  5
20000
  9
$SURFTAB1
 70
    6
  9
$SURFTAB2
 70
    6
  9
$SURFTYPE
 70
    6
  9
$SURFU
 70
    6
  9
$SURFV
 70
    6
  9
$UCSBASE
  2

  9
$UCSNAME
  2

  9
$UCSORG
 10
0
 20
0
 30
0
  9
$UCSXDIR
 10
1
 20
0
 30
0
  9
$UCSYDIR
 10
0
 20
1
 30
0
  9
$UCSORTHOREF
  2

  9
$UCSORTHOVIEW
 70
    0
  9
$UCSORGTOP
 10
0
 20
0
 30
0
  9
$UCSORGBOTTOM
 10
0
 20
0
 30
0
  9
$UCSORGLEFT
 10
0
 20
0
 30
0
  9
$UCSORGRIGHT
 10
0
 20
0
 30
0
  9
$UCSORGFRONT
 10
0
 20
0
 30
0
  9
$UCSORGBACK
 10
0
 20
0
 30
0
  9
$PUCSBASE
  2

  9
$PUCSNAME
  2

  9
$PUCSORG
 10
0
 20
0
 30
0
  9
$PUCSXDIR
 10
1
 20
0
 30
0
  9
$PUCSYDIR
 10
0
 20
1
 30
0
  9
$PUCSORTHOREF
  2

  9
$PUCSORTHOVIEW
 70
    0
  9
$PUCSORGTOP
 10
0
 20
0
 30
0
  9
$PUCSORGBOTTOM
 10
0
 20
0
 30
0
  9
$PUCSORGLEFT
 10
0
 20
0
 30
0
  9
$PUCSORGRIGHT
 10
0
 20
0
 30
0
  9
$PUCSORGFRONT
 10
0
 20
0
 30
0
  9
$PUCSORGBACK
 10
0
 20
0
 30
0
  9
$USERI1
 70
    0
  9
$USERI2
 70
    0
  9
$USERI3
 70
    0
  9
$USERI4
 70
    0
  9
$USERI5
 70
    0
  9
$USERR1
 40
0
  9
$USERR2
 40
0
  9
$USERR3
 40
0
  9
$USERR4
 40
0
  9
$USERR5
 40
0
  9
$WORLDVIEW
 70
    1
  9
$SHADEDGE
 70
    3
  9
$SHADEDIF
 70
   70
  9
$TILEMODE
 70
    1
  9
$MAXACTVP
 70
   64
  9
$PINSBASE
 10
105
 20
148.5
 30
0
  9
$PLIMCHECK
 70
    0
  9
$PEXTMIN
 10
0
 20
0
 30
0
  9
$PEXTMAX
 10
0
 20
0
 30
0
  9
$GRIDMODE
 70
    0
  9
$SNAPSTYLE
 70
    0
  9
$GRIDUNIT
 10
0
 20
0
  9
$PLIMMIN
 10
0
 20
0
  9
$PLIMMAX
 10
210
 20
297
  9
$UNITMODE
 70
    0
  9
$VISRETAIN
 70
    1
  9
$PLINEGEN
 70
    0
  9
$PSLTSCALE
 70
    1
  9
$TREEDEPTH
 70
 3020
  9
$CMLSTYLE
  2
Standard
  9
$CMLJUST
 70
    0
  9
$CMLSCALE
 40
20
  9
$PROXYGRAPHICS
 70
    1
  9
$MEASUREMENT
 70
    1
  9
$CELWEIGHT
370
   -1
  9
$ENDCAPS
280
    0
  9
$JOINSTYLE
280
    0
  9
$LWDISPLAY
290
    0
  9
$INSUNITS
 70
    0
  9
$HYPERLINKBASE
  1

  9
$STYLESHEET
  1

  9
$XEDIT
290
    1
  9
$CEPSNTYPE
380
    0
  9
$PSTYLEMODE
290
    1
  9
$EXTNAMES
290
    1
  9
$PSVPSCALE
 40
1
  9
$OLESTARTUP
290
    0
  9
$SORTENTS
280
  127
  9
$INDEXCTL
280
    0
  9
$HIDETEXT
280
    1
  9
$XCLIPFRAME
290
    0
  9
$HALOGAP
280
    0
  9
$OBSCOLOR
 70
  257
  9
$OBSLTYPE
280
    0
  9
$INTERSECTIONDISPLAY
280
    0
  9
$INTERSECTIONCOLOR
 70
  257
  9
$DIMASSOC
280
    1
  9
$PROJECTNAME
  1

  9
$CAMERADISPLAY
290
    0
  9
$LENSLENGTH
 40
50
  9
$CAMERAHEIGHT
 40
0
  9
$STEPSPERSEC
 40
2
  9
$STEPSIZE
 40
50
  9
$3DDWFPREC
 40
2
  9
$PSOLWIDTH
 40
5
  9
$PSOLHEIGHT
 40
80
  9
$LOFTANG1
 40
1.570796326794897
  9
$LOFTANG2
 40
1.570796326794897
  9
$LOFTMAG1
 40
0
  9
$LOFTMAG2
 40
0
  9
$LOFTPARAM
 70
    7
  9
$LOFTNORMALS
280
    1
  9
$LATITUDE
 40
1
  9
$LONGITUDE
 40
1
  9
$NORTHDIRECTION
 40
0
  9
$TIMEZONE
 70
-8000
  9
$LIGHTGLYPHDISPLAY
280
    1
  9
$TILEMODELIGHTSYNCH
280
    1
  9
$SOLIDHIST
280
    1
  9
$SHOWHIST
280
    1
  9
$DWFFRAME
280
    2
  9
$DGNFRAME
280
    0
  9
$REALWORLDSCALE
290
    1
  9
$INTERFERECOLOR
 62
    1
  9
$CSHADOW
280
    0
  9
$SHADOWPLANELOCATION
 40
0
  0
ENDSEC
  0
SECTION
  2
CLASSES
  0
ENDSEC
  0
SECTION
  2
TABLES
  0
TABLE
  2
VPORT
  5
8
330
0
100
AcDbSymbolTable
 70
    1
  0
VPORT
  5
31
330
2
100
AcDbSymbolTableRecord
100
AcDbViewportTableRecord
  2
*ACTIVE
 70
    0
 10
0
 20
0
 11
1
 21
1
 12
42.86764201052718
 22
-22.09130017720419
 13
0
 23
0
 14
10
 24
10
 15
10
 25
10
 16
0
 26
0
 36
1
 17
0
 27
0
 37
0
 40
95.90429521373565
 41
1.789762340036563
 42
50
 43
0
 44
0
 50
0
 51
0
 71
    0
 72
  100
 73
    1
 74
    3
 75
    0
 76
    0
 77
    0
 78
    0
281
    0
 65
    1
110
0
120
0
130
0
111
1
121
0
131
0
112
0
122
1
132
0
 79
    0
146
0
348
10020
 60
    7
 61
    5
292
1
282
    1
141
0
142
0
 63
  250
421
3358443
  0
ENDTAB
  0
TABLE
  2
LTYPE
  5
5
330
0
100
AcDbSymbolTable
 70
    4
  0
LTYPE
  5
14
330
5
100
AcDbSymbolTableRecord
100
AcDbLinetypeTableRecord
  2
ByBlock
 70
    0
  3

 72
   65
 73
    0
 40
0
  0
LTYPE
  5
15
330
5
100
AcDbSymbolTableRecord
100
AcDbLinetypeTableRecord
  2
ByLayer
 70
    0
  3

 72
   65
 73
    0
 40
0
  0
LTYPE
  5
16
330
5
100
AcDbSymbolTableRecord
100
AcDbLinetypeTableRecord
  2
Continuous
 70
    0
  3
Solid line
 72
   65
 73
    0
 40
0
  0
LTYPE
  5
32
330
5
100
AcDbSymbolTableRecord
100
AcDbLinetypeTableRecord
  2
DOT
 70
    0
  3
Dot . . . . . . . . . . . . . . . . . . . . . .
 72
   65
 73
    2
 40
6.35
 49
0
 74
    0
 49
-6.35
 74
    0
  0
LTYPE
  5
33
330
5
100
AcDbSymbolTableRecord
100
AcDbLinetypeTableRecord
  2
DOTTINY
 70
    0
  3
Dot (.15x) .....................................
 72
   65
 73
    2
 40
0.9525
 49
0
 74
    0
 49
-0.9525
 74
    0
  0
LTYPE
  5
34
330
5
100
AcDbSymbolTableRecord
100
AcDbLinetypeTableRecord
  2
DOT2
 70
    0
  3
Dot (.5x) .....................................
 72
   65
 73
    2
 40
3.175
 49
0
 74
    0
 49
-3.175
 74
    0
  0
LTYPE
  5
35
330
5
100
AcDbSymbolTableRecord
100
AcDbLinetypeTableRecord
  2
DOTX2
 70
    0
  3
Dot (2x) .  .  .  .  .  .  .  .  .  .  .  .  .
 72
   65
 73
    2
 40
12.7
 49
0
 74
    0
 49
-12.7
 74
    0
  0
LTYPE
  5
36
330
5
100
AcDbSymbolTableRecord
100
AcDbLinetypeTableRecord
  2
DASHED
 70
    0
  3
Dashed _ _ _ _ _ _ _ _ _ _ _ _ _ _ _ _ _
 72
   65
 73
    2
 40
19.05
 49
12.7
 74
    0
 49
-6.35
 74
    0
  0
LTYPE
  5
37
330
5
100
AcDbSymbolTableRecord
100
AcDbLinetypeTableRecord
  2
DASHEDTINY
 70
    0
  3
Dashed (.15x) _ _ _ _ _ _ _ _ _ _ _ _ _ _ _ _ _
 72
   65
 73
    2
 40
2.8575
 49
1.905
 74
    0
 49
-0.9525
 74
    0
  0
LTYPE
  5
38
330
5
100
AcDbSymbolTableRecord
100
AcDbLinetypeTableRecord
  2
DASHED2
 70
    0
  3
Dashed (.5x) _ _ _ _ _ _ _ _ _ _ _ _ _ _ _ _ _
 72
   65
 73
    2
 40
9.524999999999999
 49
6.35
 74
    0
 49
-3.175
 74
    0
  0
LTYPE
  5
39
330
5
100
AcDbSymbolTableRecord
100
AcDbLinetypeTableRecord
  2
DASHEDX2
 70
    0
  3
Dashed (2x) ____  ____  ____  ____  ____  ___
 72
   65
 73
    2
 40
38.09999999999999
 49
25.4
 74
    0
 49
-12.7
 74
    0
  0
LTYPE
  5
3A
330
5
100
AcDbSymbolTableRecord
100
AcDbLinetypeTableRecord
  2
DASHDOT
 70
    0
  3
Dash dot __ . __ . __ . __ . __ . __ . __ . __
 72
   65
 73
    4
 40
25.4
 49
12.7
 74
    0
 49
-6.35
 74
    0
 49
0
 74
    0
 49
-6.35
 74
    0
  0
LTYPE
  5
3B
330
5
100
AcDbSymbolTableRecord
100
AcDbLinetypeTableRecord
  2
DASHDOTTINY
 70
    0
  3
Dash dot (.15x) _._._._._._._._._._._._._._._.
 72
   65
 73
    4
 40
3.81
 49
1.905
 74
    0
 49
-0.9525
 74
    0
 49
0
 74
    0
 49
-0.9525
 74
    0
  0
LTYPE
  5
3C
330
5
100
AcDbSymbolTableRecord
100
AcDbLinetypeTableRecord
  2
DASHDOT2
 70
    0
  3
Dash dot (.5x) _._._._._._._._._._._._._._._.
 72
   65
 73
    4
 40
12.7
 49
6.35
 74
    0
 49
-3.175
 74
    0
 49
0
 74
    0
 49
-3.175
 74
    0
  0
LTYPE
  5
3D
330
5
100
AcDbSymbolTableRecord
100
AcDbLinetypeTableRecord
  2
DASHDOTX2
 70
    0
  3
Dash dot (2x) ____  .  ____  .  ____  .  ___
 72
   65
 73
    4
 40
50.8
 49
25.4
 74
    0
 49
-12.7
 74
    0
 49
0
 74
    0
 49
-12.7
 74
    0
  0
LTYPE
  5
3E
330
5
100
AcDbSymbolTableRecord
100
AcDbLinetypeTableRecord
  2
DIVIDE
 70
    0
  3
Divide ____ . . ____ . . ____ . . ____ . . ____
 72
   65
 73
    6
 40
31.75
 49
12.7
 74
    0
 49
-6.35
 74
    0
 49
0
 74
    0
 49
-6.35
 74
    0
 49
0
 74
    0
 49
-6.35
 74
    0
  0
LTYPE
  5
3F
330
5
100
AcDbSymbolTableRecord
100
AcDbLinetypeTableRecord
  2
DIVIDETINY
 70
    0
  3
Divide (.15x) __..__..__..__..__..__..__..__.._
 72
   65
 73
    6
 40
4.7625
 49
1.905
 74
    0
 49
-0.9525
 74
    0
 49
0
 74
    0
 49
-0.9525
 74
    0
 49
0
 74
    0
 49
-0.9525
 74
    0
  0
LTYPE
  5
40
330
5
100
AcDbSymbolTableRecord
100
AcDbLinetypeTableRecord
  2
DIVIDE2
 70
    0
  3
Divide (.5x) __..__..__..__..__..__..__..__.._
 72
   65
 73
    6
 40
15.875
 49
6.35
 74
    0
 49
-3.175
 74
    0
 49
0
 74
    0
 49
-3.175
 74
    0
 49
0
 74
    0
 49
-3.175
 74
    0
  0
LTYPE
  5
41
330
5
100
AcDbSymbolTableRecord
100
AcDbLinetypeTableRecord
  2
DIVIDEX2
 70
    0
  3
Divide (2x) ________  .  .  ________  .  .  _
 72
   65
 73
    6
 40
63.5
 49
25.4
 74
    0
 49
-12.7
 74
    0
 49
0
 74
    0
 49
-12.7
 74
    0
 49
0
 74
    0
 49
-12.7
 74
    0
  0
LTYPE
  5
42
330
5
100
AcDbSymbolTableRecord
100
AcDbLinetypeTableRecord
  2
BORDER
 70
    0
  3
Border __ __ . __ __ . __ __ . __ __ . __ __ .
 72
   65
 73
    6
 40
44.45
 49
12.7
 74
    0
 49
-6.35
 74
    0
 49
12.7
 74
    0
 49
-6.35
 74
    0
 49
0
 74
    0
 49
-6.35
 74
    0
  0
LTYPE
  5
43
330
5
100
AcDbSymbolTableRecord
100
AcDbLinetypeTableRecord
  2
BORDERTINY
 70
    0
  3
Border (.15x) __.__.__.__.__.__.__.__.__.__.__.
 72
   65
 73
    6
 40
6.6675
 49
1.905
 74
    0
 49
-0.9525
 74
    0
 49
1.905
 74
    0
 49
-0.9525
 74
    0
 49
0
 74
    0
 49
-0.9525
 74
    0
  0
LTYPE
  5
44
330
5
100
AcDbSymbolTableRecord
100
AcDbLinetypeTableRecord
  2
BORDER2
 70
    0
  3
Border (.5x) __.__.__.__.__.__.__.__.__.__.__.
 72
   65
 73
    6
 40
22.225
 49
6.35
 74
    0
 49
-3.175
 74
    0
 49
6.35
 74
    0
 49
-3.175
 74
    0
 49
0
 74
    0
 49
-3.175
 74
    0
  0
LTYPE
  5
45
330
5
100
AcDbSymbolTableRecord
100
AcDbLinetypeTableRecord
  2
BORDERX2
 70
    0
  3
Border (2x) ____  ____  .  ____  ____  .  ___
 72
   65
 73
    6
 40
88.89999999999999
 49
25.4
 74
    0
 49
-12.7
 74
    0
 49
25.4
 74
    0
 49
-12.7
 74
    0
 49
0
 74
    0
 49
-12.7
 74
    0
  0
LTYPE
  5
46
330
5
100
AcDbSymbolTableRecord
100
AcDbLinetypeTableRecord
  2
CENTER
 70
    0
  3
Center ____ _ ____ _ ____ _ ____ _ ____ _ ____
 72
   65
 73
    4
 40
50.8
 49
31.75
 74
    0
 49
-6.35
 74
    0
 49
6.35
 74
    0
 49
-6.35
 74
    0
  0
LTYPE
  5
47
330
5
100
AcDbSymbolTableRecord
100
AcDbLinetypeTableRecord
  2
CENTERTINY
 70
    0
  3
Center (.15x) ___ _ ___ _ ___ _ ___ _ ___ _ ___
 72
   65
 73
    4
 40
7.62
 49
4.7625
 74
    0
 49
-0.9525
 74
    0
 49
0.9525
 74
    0
 49
-0.9525
 74
    0
  0
LTYPE
  5
48
330
5
100
AcDbSymbolTableRecord
100
AcDbLinetypeTableRecord
  2
CENTER2
 70
    0
  3
Center (.5x) ___ _ ___ _ ___ _ ___ _ ___ _ ___
 72
   65
 73
    4
 40
28.575
 49
19.05
 74
    0
 49
-3.175
 74
    0
 49
3.175
 74
    0
 49
-3.175
 74
    0
  0
LTYPE
  5
49
330
5
100
AcDbSymbolTableRecord
100
AcDbLinetypeTableRecord
  2
CENTERX2
 70
    0
  3
Center (2x) ________  __  ________  __  _____
 72
   65
 73
    4
 40
101.6
 49
63.5
 74
    0
 49
-12.7
 74
    0
 49
12.7
 74
    0
 49
-12.7
 74
    0
  0
ENDTAB
  0
TABLE
  2
LAYER
  5
2
330
0
100
AcDbSymbolTable
 70
    1
  0
LAYER
  5
10
330
2
100
AcDbSymbolTableRecord
100
AcDbLayerTableRecord
  2
0
 70
    1
 62
    7
  6
CONTINUOUS
370
    0
390
F
  0
LAYER
  5
4A
330
2
100
AcDbSymbolTableRecord
100
AcDbLayerTableRecord
  2
A4_Auxiliar
 70
    1
 62
    2
  6
CONTINUOUS
370
    0
390
F
  0
LAYER
  5
4B
330
2
100
AcDbSymbolTableRecord
100
AcDbLayerTableRecord
  2
A4_Divisiones
 70
    0
 62
    7
  6
CONTINUOUS
370
    0
390
F
  0
LAYER
  5
4C
330
2
100
AcDbSymbolTableRecord
100
AcDbLayerTableRecord
  2
A4_Etiquetas
 70
    0
 62
    7
  6
CONTINUOUS
370
    5
390
F
  0
LAYER
  5
4D
330
2
100
AcDbSymbolTableRecord
100
AcDbLayerTableRecord
  2
A4_Hoja
 70
    0
 62
    7
  6
CONTINUOUS
370
    0
390
F
  0
LAYER
  5
4E
330
2
100
AcDbSymbolTableRecord
100
AcDbLayerTableRecord
  2
A4_Recuadro
 70
    0
 62
    7
  6
CONTINUOUS
370
    0
390
F
  0
LAYER
  5
4F
330
2
100
AcDbSymbolTableRecord
100
AcDbLayerTableRecord
  2
A4_Rotulación
 70
    0
 62
    7
  6
CONTINUOUS
370
   35
390
F
  0
LAYER
  5
50
330
2
100
AcDbSymbolTableRecord
100
AcDbLayerTableRecord
  2
Figuras
 70
    0
 62
    1
  6
CONTINUOUS
370
   70
390
F
  0
ENDTAB
  0
TABLE
  2
STYLE
  5
3
330
0
100
AcDbSymbolTable
 70
    3
  0
STYLE
  5
51
330
2
100
AcDbSymbolTableRecord
100
AcDbTextStyleTableRecord
  2
standard
 70
    0
 40
0
 41
1
 50
0
 71
    0
 42
1
  3
standard
  4

  0
ENDTAB
  0
TABLE
  2
VIEW
  5
6
330
0
100
AcDbSymbolTable
 70
    0
  0
ENDTAB
  0
TABLE
  2
UCS
  5
7
330
0
100
AcDbSymbolTable
 70
    0
  0
ENDTAB
  0
TABLE
  2
APPID
  5
9
330
0
100
AcDbSymbolTable
 70
    1
  0
APPID
  5
12
330
9
100
AcDbSymbolTableRecord
100
AcDbRegAppTableRecord
  2
ACAD
 70
    0
  0
APPID
  5
52
330
9
100
AcDbSymbolTableRecord
100
AcDbRegAppTableRecord
  2
LibreCad
 70
    0
  0
ENDTAB
  0
TABLE
  2
DIMSTYLE
  5
A
330
0
100
AcDbSymbolTable
 70
    1
100
AcDbDimStyleTable
 71
    1
  0
DIMSTYLE
105
53
330
A
100
AcDbSymbolTableRecord
100
AcDbDimStyleTableRecord
  2
Standard
 70
    0
 40
2.5
 41
2.5
 42
0.625
 43
0.38
 44
1.25
 45
0
 46
0
 47
0
 48
0
 49
1
140
2.5
141
0.09
142
0
143
25.4
144
1
145
0
146
1
147
0.625
148
0
 71
    0
 72
    0
 73
    0
 74
    1
 75
    0
 76
    0
 77
    0
 78
    8
 79
    0
170
    0
171
    2
172
    0
173
    0
174
    0
175
    0
176
    0
177
    0
178
    0
179
    0
271
    2
272
    4
273
    2
274
    2
275
    0
276
    0
277
    2
278
   44
279
    0
280
    0
281
    0
282
    0
283
    1
284
    0
285
    0
286
    0
288
    0
289
    3
340
standard
341

371
   -2
372
   -2
  0
ENDTAB
  0
TABLE
  2
BLOCK_RECORD
  5
1
330
0
100
AcDbSymbolTable
 70
    2
  0
BLOCK_RECORD
  5
1F
330
1
100
AcDbSymbolTableRecord
100
AcDbBlockTableRecord
  2
*Model_Space
 70
    0
280
    1
281
    0
  0
BLOCK_RECORD
  5
1E
330
1
100
AcDbSymbolTableRecord
100
AcDbBlockTableRecord
  2
*Paper_Space
 70
    0
280
    1
281
    0
  0
ENDTAB
  0
ENDSEC
  0
SECTION
  2
BLOCKS
  0
BLOCK
  5
20
330
1F
100
AcDbEntity
  8
0
100
AcDbBlockBegin
  2
*Model_Space
 70
    0
 10
0
 20
0
 30
0
  3
*Model_Space
  1

  0
ENDBLK
  5
21
330
1F
100
AcDbEntity
  8
0
100
AcDbBlockEnd
  0
BLOCK
  5
1C
330
1B
100
AcDbEntity
  8
0
100
AcDbBlockBegin
  2
*Paper_Space
 70
    0
 10
0
 20
0
 30
0
  3
*Paper_Space
  1

  0
ENDBLK
  5
1D
330
1F
100
AcDbEntity
  8
0
100
AcDbBlockEnd
  0
ENDSEC
  0
SECTION
  2
ENTITIES
  0
LINE
  5
54
100
AcDbEntity
  8
A4_Hoja
  6
CONTINUOUS
 62
   19
420
2368548
370
   70
100
AcDbLine
 10
-105
 20
-148.5
 11
-105
 21
148.5
  0
LINE
  5
55
100
AcDbEntity
  8
A4_Hoja
  6
CONTINUOUS
 62
   19
420
2368548
370
   70
100
AcDbLine
 10
105
 20
-148.5
 11
105
 21
148.5
  0
LINE
  5
56
100
AcDbEntity
  8
A4_Hoja
  6
CONTINUOUS
 62
   19
420
2368548
370
   70
100
AcDbLine
 10
-105
 20
-148.5
 11
105
 21
-148.5
  0
LINE
  5
57
100
AcDbEntity
  8
A4_Hoja
  6
CONTINUOUS
 62
   19
420
2368548
370
   70
100
AcDbLine
 10
-105
 20
148.5
 11
105
 21
148.5
  0
LINE
  5
58
100
AcDbEntity
  8
A4_Recuadro
  6
CONTINUOUS
 62
  251
420
6710886
370
   70
100
AcDbLine
 10
-80.00000000000001
 20
-138.5
 11
-80
 21
138.5
  0
LINE
  5
59
100
AcDbEntity
  8
A4_Recuadro
  6
CONTINUOUS
 62
  251
420
6710886
370
   70
100
AcDbLine
 10
94.99999999999999
 20
-138.5
 11
95
 21
138.5
  0
LINE
  5
5A
100
AcDbEntity
  8
A4_Recuadro
  6
CONTINUOUS
 62
  251
420
6710886
370
   70
100
AcDbLine
 10
-80
 20
138.5
 11
95
 21
138.5
  0
LINE
  5
5B
100
AcDbEntity
  8
A4_Recuadro
  6
CONTINUOUS
 62
  251
420
6710886
370
   70
100
AcDbLine
 10
-80.00000000000001
 20
-138.5
 11
94.99999999999999
 21
-138.5
  0
LINE
  5
5C
100
AcDbEntity
  8
A4_Recuadro
  6
CONTINUOUS
 62
  251
420
6710886
370
   70
100
AcDbLine
 10
-80.00000000000001
 20
-78.5
 11
94.99999999999999
 21
-78.5
  0
LINE
  5
5D
100
AcDbEntity
  8
A4_Divisiones
  6
CONTINUOUS
 62
  251
420
6710886
370
   35
100
AcDbLine
 10
39.99999999999999
 20
-78.5
 11
39.99999999999998
 21
-138.5
  0
LINE
  5
5E
100
AcDbEntity
  8
A4_Divisiones
  6
CONTINUOUS
 62
  251
420
6710886
370
   35
100
AcDbLine
 10
-54.00000000000001
 20
-78.5
 11
-54.00000000000002
 21
-138.5
  0
LINE
  5
5F
100
AcDbEntity
  8
A4_Divisiones
  6
CONTINUOUS
 62
  251
420
6710886
370
   35
100
AcDbLine
 10
-34.00000000000001
 20
-78.5
 11
-34.00000000000002
 21
-138.5
  0
LINE
  5
60
100
AcDbEntity
  8
A4_Divisiones
  6
CONTINUOUS
 62
  251
420
6710886
370
   35
100
AcDbLine
 10
-21.00000000000001
 20
-78.5
 11
-21.00000000000001
 21
-98.5
  0
LINE
  5
61
100
AcDbEntity
  8
A4_Divisiones
  6
CONTINUOUS
 62
  251
420
6710886
370
   35
100
AcDbLine
 10
-1.000000000000014
 20
-78.5
 11
-1.000000000000016
 21
-98.5
  0
LINE
  5
62
100
AcDbEntity
  8
A4_Divisiones
  6
CONTINUOUS
 62
  251
420
6710886
370
   35
100
AcDbLine
 10
94.99999999999999
 20
-88.5
 11
39.99999999999999
 21
-88.5
  0
LINE
  5
63
100
AcDbEntity
  8
A4_Divisiones
  6
CONTINUOUS
 62
  251
420
6710886
370
   35
100
AcDbLine
 10
94.99999999999999
 20
-98.5
 11
39.99999999999999
 21
-98.5
  0
LINE
  5
64
100
AcDbEntity
  8
A4_Divisiones
  6
CONTINUOUS
 62
  251
420
6710886
370
   35
100
AcDbLine
 10
94.99999999999999
 20
-118.5
 11
39.99999999999999
 21
-118.5
  0
LINE
  5
65
100
AcDbEntity
  8
A4_Divisiones
  6
CONTINUOUS
 62
  251
420
6710886
370
   35
100
AcDbLine
 10
94.99999999999999
 20
-128.5
 11
39.99999999999999
 21
-128.5
  0
LINE
  5
66
100
AcDbEntity
  8
A4_Divisiones
  6
CONTINUOUS
 62
  251
420
6710886
370
   35
100
AcDbLine
 10
39.99999999999999
 20
-98.5
 11
-54.00000000000001
 21
-98.5
  0
LINE
  5
67
100
AcDbEntity
  8
A4_Divisiones
  6
CONTINUOUS
 62
  251
420
6710886
370
   35
100
AcDbLine
 10
-54.00000000000002
 20
-138.5
 11
-54.00000000000002
 21
-128.5
  0
LINE
  5
68
100
AcDbEntity
  8
A4_Divisiones
  6
CONTINUOUS
 62
  251
420
6710886
370
   35
100
AcDbLine
 10
-54.00000000000002
 20
-128.5
 11
-54.00000000000002
 21
-118.5
  0
LINE
  5
69
100
AcDbEntity
  8
A4_Divisiones
  6
CONTINUOUS
 62
  251
420
6710886
370
   35
100
AcDbLine
 10
-54.00000000000001
 20
-98.5
 11
-54.00000000000001
 21
-88.5
  0
LINE
  5
6A
100
AcDbEntity
  8
A4_Divisiones
  6
CONTINUOUS
 62
  251
420
6710886
370
   35
100
AcDbLine
 10
-54.00000000000001
 20
-88.5
 11
-54.00000000000001
 21
-78.5
  0
LINE
  5
6B
100
AcDbEntity
  8
A4_Divisiones
  6
CONTINUOUS
 62
  251
420
6710886
370
   35
100
AcDbLine
 10
-54.00000000000001
 20
-88.5
 11
-54.00000000000001
 21
-83.5
  0
LINE
  5
6C
100
AcDbEntity
  8
A4_Divisiones
  6
CONTINUOUS
 62
  251
420
6710886
370
   35
100
AcDbLine
 10
-54.00000000000001
 20
-98.5
 11
-54.00000000000001
 21
-93.5
  0
LINE
  5
6D
100
AcDbEntity
  8
A4_Divisiones
  6
CONTINUOUS
 62
  251
420
6710886
370
   35
100
AcDbLine
 10
-54.00000000000001
 20
-83.5
 11
-1.000000000000014
 21
-83.5
  0
LINE
  5
6E
100
AcDbEntity
  8
A4_Divisiones
  6
CONTINUOUS
 62
  251
420
6710886
370
   35
100
AcDbLine
 10
-54.00000000000001
 20
-88.5
 11
-1.000000000000014
 21
-88.5
  0
LINE
  5
6F
100
AcDbEntity
  8
A4_Divisiones
  6
CONTINUOUS
 62
  251
420
6710886
370
   35
100
AcDbLine
 10
-54.00000000000001
 20
-93.5
 11
-1.000000000000014
 21
-93.5
  0
LINE
  5
70
100
AcDbEntity
  8
A4_Divisiones
  6
CONTINUOUS
 62
  251
420
6710886
370
   35
100
AcDbLine
 10
-54.00000000000002
 20
-118.5
 11
-34.00000000000002
 21
-118.5
  0
LINE
  5
71
100
AcDbEntity
  8
A4_Divisiones
  6
CONTINUOUS
 62
  251
420
6710886
370
   35
100
AcDbLine
 10
-54.00000000000002
 20
-128.5
 11
-34.00000000000002
 21
-128.5
  0
LINE
  5
72
100
AcDbEntity
  8
A4_Divisiones
  6
CONTINUOUS
 62
  251
420
6710886
370
   35
100
AcDbLine
 10
84.99999999999999
 20
-138.5
 11
84.99999999999999
 21
-128.5
  0
LINE
  5
73
100
AcDbEntity
  8
A4_Auxiliar
  6
CONTINUOUS
 62
    2
370
   -3
100
AcDbLine
 10
-34.00000000000001
 20
-88.5
 11
-21.00000000000001
 21
-83.5
  0
LINE
  5
74
100
AcDbEntity
  8
A4_Auxiliar
  6
CONTINUOUS
 62
    2
370
   -3
100
AcDbLine
 10
-34.00000000000001
 20
-83.5
 11
-21.00000000000001
 21
-88.5
  0
LINE
  5
75
100
AcDbEntity
  8
A4_Auxiliar
  6
CONTINUOUS
 62
    2
370
   -3
100
AcDbLine
 10
-21.00000000000001
 20
-88.5
 11
-1.000000000000014
 21
-83.5
  0
LINE
  5
76
100
AcDbEntity
  8
A4_Auxiliar
  6
CONTINUOUS
 62
    2
370
   -3
100
AcDbLine
 10
-1.000000000000014
 20
-88.5
 11
-21.00000000000001
 21
-83.5
  0
LINE
  5
77
100
AcDbEntity
  8
A4_Auxiliar
  6
CONTINUOUS
 62
    2
370
   -3
100
AcDbLine
 10
-54.00000000000002
 20
-118.5
 11
-34.00000000000001
 21
-98.5
  0
LINE
  5
78
100
AcDbEntity
  8
A4_Auxiliar
  6
CONTINUOUS
 62
    2
370
   -3
100
AcDbLine
 10
-34.00000000000002
 20
-118.5
 11
-54.00000000000001
 21
-98.5
  0
LINE
  5
79
100
AcDbEntity
  8
A4_Auxiliar
  6
CONTINUOUS
 62
    2
370
   -3
100
AcDbLine
 10
-54.00000000000002
 20
-138.5
 11
-34.00000000000002
 21
-128.5
  0
LINE
  5
7A
100
AcDbEntity
  8
A4_Auxiliar
  6
CONTINUOUS
 62
    2
370
   -3
100
AcDbLine
 10
-34.00000000000002
 20
-138.5
 11
-54.00000000000002
 21
-128.5
  0
LINE
  5
7B
100
AcDbEntity
  8
A4_Auxiliar
  6
CONTINUOUS
 62
    2
370
   -3
100
AcDbLine
 10
-34.00000000000002
 20
-138.5
 11
39.99999999999999
 21
-98.5
  0
LINE
  5
7C
100
AcDbEntity
  8
A4_Auxiliar
  6
CONTINUOUS
 62
    2
370
   -3
100
AcDbLine
 10
-34.00000000000001
 20
-98.5
 11
39.99999999999998
 21
-138.5
  0
LINE
  5
7D
100
AcDbEntity
  8
A4_Auxiliar
  6
CONTINUOUS
 62
    2
370
   -3
100
AcDbLine
 10
-1.000000000000014
 20
-78.5
 11
39.99999999999999
 21
-98.5
  0
LINE
  5
7E
100
AcDbEntity
  8
A4_Auxiliar
  6
CONTINUOUS
 62
    2
370
   -3
100
AcDbLine
 10
39.99999999999999
 20
-78.5
 11
-1.000000000000016
 21
-98.5
  0
LINE
  5
7F
100
AcDbEntity
  8
A4_Auxiliar
  6
CONTINUOUS
 62
    2
370
   -3
100
AcDbLine
 10
39.99999999999998
 20
-138.5
 11
84.99999999999999
 21
-128.5
  0
LINE
  5
80
100
AcDbEntity
  8
A4_Auxiliar
  6
CONTINUOUS
 62
    2
370
   -3
100
AcDbLine
 10
39.99999999999999
 20
-128.5
 11
84.99999999999997
 21
-138.5
  0
LINE
  5
81
100
AcDbEntity
  8
A4_Divisiones
  6
CONTINUOUS
 62
  251
420
6579300
370
   35
100
AcDbLine
 10
-80
 20
138.5
 11
7.5
 21
138.5
  0
LINE
  5
82
100
AcDbEntity
  8
A4_Divisiones
  6
CONTINUOUS
 62
  251
420
6579300
370
   35
100
AcDbLine
 10
7.5
 20
138.5
 11
95
 21
138.5
  0
LINE
  5
83
100
AcDbEntity
  8
A4_Divisiones
  6
CONTINUOUS
 62
  251
420
6579300
370
   35
100
AcDbLine
 10
7.5
 20
138.5
 11
7.499999999999996
 21
84.25
  0
LINE
  5
84
100
AcDbEntity
  8
A4_Divisiones
  6
CONTINUOUS
 62
  251
420
6579300
370
   35
100
AcDbLine
 10
7.499999999999996
 20
84.25
 11
7.499999999999993
 21
30
  0
LINE
  5
85
100
AcDbEntity
  8
A4_Divisiones
  6
CONTINUOUS
 62
  251
420
6579300
370
   35
100
AcDbLine
 10
7.499999999999993
 20
30
 11
7.499999999999989
 21
-24.25
  0
LINE
  5
86
100
AcDbEntity
  8
A4_Divisiones
  6
CONTINUOUS
 62
  251
420
6579300
370
   35
100
AcDbLine
 10
7.499999999999989
 20
-24.25
 11
7.499999999999986
 21
-78.5
  0
LINE
  5
87
100
AcDbEntity
  8
A4_Divisiones
  6
CONTINUOUS
 62
  251
420
6579300
370
   35
100
AcDbLine
 10
-80
 20
84.25
 11
95
 21
84.25
  0
LINE
  5
88
100
AcDbEntity
  8
A4_Divisiones
  6
CONTINUOUS
 62
  251
420
6579300
370
   35
100
AcDbLine
 10
-80
 20
30
 11
95
 21
30
  0
LINE
  5
89
100
AcDbEntity
  8
A4_Divisiones
  6
CONTINUOUS
 62
  251
420
6579300
370
   35
100
AcDbLine
 10
-80.00000000000001
 20
-24.25
 11
94.99999999999999
 21
-24.25
  0
LINE
  5
8A
100
AcDbEntity
  8
A4_Auxiliar
  6
CONTINUOUS
 62
    2
370
   -3
100
AcDbLine
 10
-80
 20
84.25
 11
7.5
 21
138.5
  0
LINE
  5
8B
100
AcDbEntity
  8
A4_Auxiliar
  6
CONTINUOUS
 62
    2
370
   -3
100
AcDbLine
 10
7.5
 20
138.5
 11
95
 21
84.25
  0
LINE
  5
8C
100
AcDbEntity
  8
A4_Auxiliar
  6
CONTINUOUS
 62
    2
370
   -3
100
AcDbLine
 10
95
 20
84.25
 11
7.499999999999993
 21
30
  0
LINE
  5
8D
100
AcDbEntity
  8
A4_Auxiliar
  6
CONTINUOUS
 62
    2
370
   -3
100
AcDbLine
 10
7.499999999999993
 20
30
 11
-80
 21
84.25
  0
LINE
  5
8E
100
AcDbEntity
  8
A4_Auxiliar
  6
CONTINUOUS
 62
    2
370
   -3
100
AcDbLine
 10
-80
 20
138.5
 11
7.499999999999996
 21
84.25
  0
LINE
  5
8F
100
AcDbEntity
  8
A4_Auxiliar
  6
CONTINUOUS
 62
    2
370
   -3
100
AcDbLine
 10
7.499999999999996
 20
84.25
 11
95
 21
138.5
  0
LINE
  5
90
100
AcDbEntity
  8
A4_Auxiliar
  6
CONTINUOUS
 62
    2
370
   -3
100
AcDbLine
 10
7.499999999999996
 20
84.25
 11
95
 21
30
  0
LINE
  5
91
100
AcDbEntity
  8
A4_Auxiliar
  6
CONTINUOUS
 62
    2
370
   -3
100
AcDbLine
 10
95
 20
30
 11
7.499999999999989
 21
-24.25
  0
LINE
  5
92
100
AcDbEntity
  8
A4_Auxiliar
  6
CONTINUOUS
 62
    2
370
   -3
100
AcDbLine
 10
7.499999999999989
 20
-24.25
 11
-80
 21
30
  0
LINE
  5
93
100
AcDbEntity
  8
A4_Auxiliar
  6
CONTINUOUS
 62
    2
370
   -3
100
AcDbLine
 10
-80
 20
30
 11
7.499999999999996
 21
84.25
  0
LINE
  5
94
100
AcDbEntity
  8
A4_Auxiliar
  6
CONTINUOUS
 62
    2
370
   -3
100
AcDbLine
 10
7.499999999999993
 20
30
 11
-80.00000000000001
 21
-24.25
  0
LINE
  5
95
100
AcDbEntity
  8
A4_Auxiliar
  6
CONTINUOUS
 62
    2
370
   -3
100
AcDbLine
 10
-80.00000000000001
 20
-24.25
 11
7.499999999999986
 21
-78.5
  0
LINE
  5
96
100
AcDbEntity
  8
A4_Auxiliar
  6
CONTINUOUS
 62
    2
370
   -3
100
AcDbLine
 10
7.499999999999986
 20
-78.5
 11
94.99999999999999
 21
-24.25
  0
LINE
  5
97
100
AcDbEntity
  8
A4_Auxiliar
  6
CONTINUOUS
 62
    2
370
   -3
100
AcDbLine
 10
94.99999999999999
 20
-24.25
 11
7.499999999999993
 21
30
  0
LINE
  5
98
100
AcDbEntity
  8
A4_Auxiliar
  6
CONTINUOUS
 62
    2
370
   -3
100
AcDbLine
 10
-80.00000000000001
 20
-78.5
 11
7.499999999999989
 21
-24.25
  0
LINE
  5
99
100
AcDbEntity
  8
A4_Auxiliar
  6
CONTINUOUS
 62
    2
370
   -3
100
AcDbLine
 10
7.499999999999989
 20
-24.25
 11
94.99999999999999
 21
-78.5
  0
LINE
  5
9A
100
AcDbEntity
  8
Figuras
  6
CONTINUOUS
 62
  256
370
   70
100
AcDbLine
 10
-66.25
 20
111.375
 11
-6.25
 21
111.375
  0
LINE
  5
9B
100
AcDbEntity
  8
Figuras
  6
CONTINUOUS
 62
  256
370
   70
100
AcDbLine
 10
-6.250000000000001
 20
96.375
 11
-6.249999999999999
 21
126.375
  0
LINE
  5
9C
100
AcDbEntity
  8
Figuras
  6
CONTINUOUS
 62
  256
370
   70
100
AcDbLine
 10
-66.25
 20
96.375
 11
-66.25
 21
126.375
  0
LINE
  5
9D
100
AcDbEntity
  8
Figuras
  6
CONTINUOUS
 62
  256
370
   70
100
AcDbLine
 10
-36.25
 20
91.375
 11
-36.25
 21
131.375
  0
LINE
  5
9E
100
AcDbEntity
  8
Figuras
  6
CONTINUOUS
 62
  256
370
   70
100
AcDbLine
 10
-8.75
 20
126.375
 11
-3.75
 21
126.375
  0
LINE
  5
9F
100
AcDbEntity
  8
Figuras
  6
CONTINUOUS
 62
  256
370
   70
100
AcDbLine
 10
-8.75
 20
96.375
 11
-3.75
 21
96.375
  0
LINE
  5
A0
100
AcDbEntity
  8
Figuras
  6
CONTINUOUS
 62
  256
370
   70
100
AcDbLine
 10
-38.75
 20
91.375
 11
-33.75
 21
91.375
  0
LINE
  5
A1
100
AcDbEntity
  8
Figuras
  6
CONTINUOUS
 62
  256
370
   70
100
AcDbLine
 10
-38.75
 20
131.375
 11
-33.75
 21
131.375
  0
LINE
  5
A2
100
AcDbEntity
  8
Figuras
  6
CONTINUOUS
 62
  256
370
   70
100
AcDbLine
 10
-68.75
 20
96.375
 11
-63.75
 21
96.375
  0
LINE
  5
A3
100
AcDbEntity
  8
Figuras
  6
CONTINUOUS
 62
  256
370
   70
100
AcDbLine
 10
37.2783888298418
 20
120.1084922124706
 11
37.2783888298418
 21
120.1084922124706
  0
LINE
  5
A4
100
AcDbEntity
  8
Figuras
  6
CONTINUOUS
 62
  256
370
   70
100
AcDbLine
 10
37.2783888298418
 20
120.1084922124706
 11
37.2783888298418
 21
120.1084922124706
  0
LINE
  5
A5
100
AcDbEntity
  8
Figuras
  6
CONTINUOUS
 62
  256
370
   70
100
AcDbLine
 10
37.2783888298418
 20
120.1084922124706
 11
37.2783888298418
 21
120.1084922124706
  0
LINE
  5
A6
100
AcDbEntity
  8
Figuras
  6
CONTINUOUS
 62
  256
370
   70
100
AcDbLine
 10
37.2783888298418
 20
120.1084922124706
 11
37.2783888298418
 21
120.1084922124706
  0
LINE
  5
A7
100
AcDbEntity
  8
Figuras
  6
CONTINUOUS
 62
  256
370
   70
100
AcDbLine
 10
37.2783888298418
 20
120.1084922124706
 11
37.2783888298418
 21
120.1084922124706
  0
LINE
  5
A8
100
AcDbEntity
  8
Figuras
  6
CONTINUOUS
 62
  256
370
   70
100
AcDbLine
 10
37.2783888298418
 20
120.1084922124706
 11
37.2783888298418
 21
120.1084922124706
  0
LINE
  5
A9
100
AcDbEntity
  8
Figuras
  6
CONTINUOUS
 62
  256
370
   70
100
AcDbLine
 10
37.2783888298418
 20
120.1084922124706
 11
37.2783888298418
 21
120.1084922124706
  0
LINE
  5
AA
100
AcDbEntity
  8
Figuras
  6
CONTINUOUS
 62
  256
370
   70
100
AcDbLine
 10
37.2783888298418
 20
120.1084922124706
 11
37.2783888298418
 21
120.1084922124706
  0
LINE
  5
AB
100
AcDbEntity
  8
Figuras
  6
CONTINUOUS
 62
  256
370
   70
100
AcDbLine
 10
37.2783888298418
 20
120.1084922124706
 11
37.2783888298418
 21
120.1084922124706
  0
LINE
  5
AC
100
AcDbEntity
  8
Figuras
  6
CONTINUOUS
 62
  256
370
   70
100
AcDbLine
 10
37.2783888298418
 20
120.1084922124706
 11
37.2783888298418
 21
120.1084922124706
  0
LINE
  5
AD
100
AcDbEntity
  8
Figuras
  6
CONTINUOUS
 62
  256
370
   70
100
AcDbLine
 10
37.2783888298418
 20
120.1084922124706
 11
37.2783888298418
 21
120.1084922124706
  0
LINE
  5
AE
100
AcDbEntity
  8
Figuras
  6
CONTINUOUS
 62
  256
370
   70
100
AcDbLine
 10
37.2783888298418
 20
120.1084922124706
 11
37.2783888298418
 21
120.1084922124706
  0
LINE
  5
AF
100
AcDbEntity
  8
Figuras
  6
CONTINUOUS
 62
  256
370
   70
100
AcDbLine
 10
37.2783888298418
 20
120.1084922124706
 11
37.2783888298418
 21
120.1084922124706
  0
LINE
  5
B0
100
AcDbEntity
  8
Figuras
  6
CONTINUOUS
 62
  256
370
   70
100
AcDbLine
 10
37.2783888298418
 20
120.1084922124706
 11
37.2783888298418
 21
120.1084922124706
  0
LINE
  5
B1
100
AcDbEntity
  8
Figuras
  6
CONTINUOUS
 62
  256
370
   70
100
AcDbLine
 10
37.2783888298418
 20
120.1084922124706
 11
37.2783888298418
 21
120.1084922124706
  0
LINE
  5
B2
100
AcDbEntity
  8
Figuras
  6
CONTINUOUS
 62
  256
370
   70
100
AcDbLine
 10
37.2783888298418
 20
120.1084922124706
 11
37.2783888298418
 21
120.1084922124706
  0
LINE
  5
B3
100
AcDbEntity
  8
Figuras
  6
CONTINUOUS
 62
  256
370
   70
100
AcDbLine
 10
37.2783888298418
 20
120.1084922124706
 11
37.2783888298418
 21
120.1084922124706
  0
LINE
  5
B4
100
AcDbEntity
  8
Figuras
  6
CONTINUOUS
 62
  256
370
   70
100
AcDbLine
 10
37.2783888298418
 20
120.1084922124706
 11
37.2783888298418
 21
120.1084922124706
  0
LINE
  5
B5
100
AcDbEntity
  8
Figuras
  6
CONTINUOUS
 62
  256
370
   70
100
AcDbLine
 10
37.2783888298418
 20
120.1084922124706
 11
37.2783888298418
 21
120.1084922124706
  0
LINE
  5
B6
100
AcDbEntity
  8
Figuras
  6
CONTINUOUS
 62
  256
370
   70
100
AcDbLine
 10
37.2783888298418
 20
120.1084922124706
 11
37.2783888298418
 21
120.1084922124706
  0
LINE
  5
B7
100
AcDbEntity
  8
Figuras
  6
CONTINUOUS
 62
  256
370
   70
100
AcDbLine
 10
37.2783888298418
 20
120.1084922124706
 11
37.2783888298418
 21
120.1084922124706
  0
LINE
  5
B8
100
AcDbEntity
  8
Figuras
  6
CONTINUOUS
 62
  256
370
   70
100
AcDbLine
 10
-68.75
 20
126.375
 11
-63.75
 21
126.375
  0
LINE
  5
B9
100
AcDbEntity
  8
Figuras
  6
CONTINUOUS
 62
  256
370
   70
100
AcDbLine
 10
-36.24999999999999
 20
57.125
 11
-54.50321921039407
 21
57.12500000000001
  0
LINE
  5
BA
100
AcDbEntity
  8
Figuras
  6
CONTINUOUS
 62
  256
370
   70
100
AcDbLine
 10
-54.50321921039407
 20
57.12500000000001
 11
-17.99678078960593
 21
57.12500000000001
  0
LINE
  5
BB
100
AcDbEntity
  8
Figuras
  6
CONTINUOUS
 62
  256
370
   70
100
AcDbLine
 10
-36.24999999999999
 20
57.12500000000001
 11
-36.25
 21
68.44132613509967
  0
LINE
  5
BC
100
AcDbEntity
  8
Figuras
  6
CONTINUOUS
 62
  256
370
   70
100
AcDbLine
 10
-36.25
 20
68.44132613509967
 11
-36.25
 21
45.80867386490034
  0
ELLIPSE
  5
BD
100
AcDbEntity
  8
Figuras
  6
CONTINUOUS
 62
  256
370
   70
100
AcDbEllipse
 10
-36.24999999999999
 20
57.12500000000001
 30
0
 11
18.25321921039406
 21
-2.292209001286084e-14
 31
0
 40
0.6199633064536765
 41
0
 42
6.283185307179586
  0
LINE
  5
BE
100
AcDbEntity
  8
Figuras
  6
ByLayer
 62
  256
370
   -1
100
AcDbLine
 10
51.24999999999999
 20
68.44132613509966
 11
51.24999999999999
 21
45.80867386490033
  0
LINE
  5
BF
100
AcDbEntity
  8
Figuras
  6
ByLayer
 62
  256
370
   -1
100
AcDbLine
 10
51.24999999999999
 20
68.44132613509966
 11
51.25
 21
45.80867386490033
  0
LINE
  5
C0
100
AcDbEntity
  8
Figuras
  6
ByLayer
 62
  256
370
   -1
100
AcDbLine
 10
51.25
 20
45.80867386490033
 11
70.85045182101216
 21
57.12499999999999
  0
LINE
  5
C1
100
AcDbEntity
  8
Figuras
  6
ByLayer
 62
  256
370
   -1
100
AcDbLine
 10
70.85045182101216
 20
57.12499999999999
 11
51.24999999999999
 21
68.44132613509966
  0
LINE
  5
C2
100
AcDbEntity
  8
Figuras
  6
ByLayer
 62
  256
370
   -1
100
AcDbLine
 10
51.24999999999999
 20
68.44132613509966
 11
51.25000000000001
 21
45.80867386490033
  0
LINE
  5
C3
100
AcDbEntity
  8
Figuras
  6
ByLayer
 62
  256
370
   -1
100
AcDbLine
 10
51.25000000000001
 20
45.80867386490033
 11
70.85045182101217
 21
57.12499999999999
  0
LINE
  5
C4
100
AcDbEntity
  8
Figuras
  6
ByLayer
 62
  256
370
   -1
100
AcDbLine
 10
70.85045182101217
 20
57.12499999999999
 11
51.24999999999999
 21
68.44132613509966
  0
LINE
  5
C5
100
AcDbEntity
  8
Figuras
  6
ByLayer
 62
  256
370
   -1
100
AcDbLine
 10
51.24999999999999
 20
45.80867386490033
 11
51.24999999999999
 21
68.44132613509966
  0
LINE
  5
C6
100
AcDbEntity
  8
Figuras
  6
ByLayer
 62
  256
370
   -1
100
AcDbLine
 10
51.24999999999999
 20
68.44132613509966
 11
31.64954817898782
 21
57.125
  0
LINE
  5
C7
100
AcDbEntity
  8
Figuras
  6
ByLayer
 62
  256
370
   -1
100
AcDbLine
 10
31.64954817898782
 20
57.125
 11
51.24999999999999
 21
45.80867386490033
  0
CIRCLE
  5
C8
100
AcDbEntity
  8
Figuras
  6
ByLayer
 62
  256
370
   -1
100
AcDbCircle
 10
44.71651605966261
 20
57.12499999999999
 40
13.06696788067478
  0
CIRCLE
  5
C9
100
AcDbEntity
  8
Figuras
  6
ByLayer
 62
  256
370
   -1
100
AcDbCircle
 10
57.78348388065965
 20
57.12499911793392
 40
13.06696794035255
  0
CIRCLE
  5
CA
100
AcDbEntity
  8
Figuras
  6
ByLayer
 62
  256
370
   -1
100
AcDbCircle
 10
-36.25
 20
16.4375
 40
13.5625
  0
LINE
  5
CB
100
AcDbEntity
  8
Figuras
  6
ByLayer
 62
  256
370
   -1
100
AcDbLine
 10
-56.25000000000001
 20
2.875000000000004
 11
-16.25000000000001
 21
2.875000000000004
  0
ARC
  5
CC
100
AcDbEntity
  8
Figuras
  6
ByLayer
 62
  256
370
   -1
100
AcDbCircle
 10
-36.25000000000001
 20
-5.090293778801846
 40
21.52779377880185
100
AcDbArc
 50
21.7156461621827
 51
158.2843538378173
  0
LINE
  5
CD
100
AcDbEntity
  8
Figuras
  6
ByLayer
 62
  256
370
   -1
100
AcDbLine
 10
-36.25000000000001
 20
16.4375
 11
-47.99546953882644
 21
-3.906250000000012
  0
LINE
  5
CE
100
AcDbEntity
  8
Figuras
  6
ByLayer
 62
  256
370
   -1
100
AcDbLine
 10
-47.99546953882644
 20
-3.906250000000012
 11
-24.50453046117355
 21
-3.906249999999996
  0
LINE
  5
CF
100
AcDbEntity
  8
Figuras
  6
ByLayer
 62
  256
370
   -1
100
AcDbLine
 10
-24.50453046117355
 20
-3.906249999999996
 11
-36.25000000000001
 21
16.4375
  0
CIRCLE
  5
D0
100
AcDbEntity
  8
Figuras
  6
ByLayer
 62
  256
370
   -1
100
AcDbCircle
 10
51.24999999999999
 20
2.875
 40
6
  0
CIRCLE
  5
D1
100
AcDbEntity
  8
Figuras
  6
ByLayer
 62
  256
370
   -1
100
AcDbCircle
 10
32.99678078960591
 20
-8.441326135099672
 40
10
  0
LINE
  5
D2
100
AcDbEntity
  8
Figuras
  6
ByLayer
 62
  256
370
   -1
100
AcDbLine
 10
47.19403291992348
 20
7.296439928952516
 11
62.74327407693323
 21
21.56039268335386
  0
LINE
  5
D3
100
AcDbEntity
  8
Figuras
  6
ByLayer
 62
  256
370
   -1
100
AcDbLine
 10
53.40640080401705
 20
-2.724101318286228
 11
73.09722055042252
 21
4.859490604622625
  0
LINE
  5
D4
100
AcDbEntity
  8
Figuras
  6
ByLayer
 62
  256
370
   -1
100
AcDbLine
 10
49.559790129513
 20
-2.882012297512343
 11
35.81379724041756
 21
1.153694360754232
  0
LINE
  5
D5
100
AcDbEntity
  8
Figuras
  6
ByLayer
 62
  256
370
   -1
100
AcDbLine
 10
45.34194476624918
 20
3.921366740177495
 11
42.84353951252392
 21
-10.18527070206217
  0
LINE
  5
D6
100
AcDbEntity
  8
Figuras
  6
ByLayer
 62
  256
370
   -1
100
AcDbLine
 10
26.24999999999999
 20
-51.375
 11
76.24999999999999
 21
-51.375
  0
LINE
  5
D7
100
AcDbEntity
  8
Figuras
  6
ByLayer
 62
  256
370
   -1
100
AcDbLine
 10
51.24999999999999
 20
-51.375
 11
72.46320343559641
 21
-72.58820343559643
  0
LINE
  5
D8
100
AcDbEntity
  8
Figuras
  6
ByLayer
 62
  256
370
   -1
100
AcDbLine
 10
51.24999999999999
 20
-51.375
 11
72.46320343559641
 21
-30.16179656440358
  0
LINE
  5
D9
100
AcDbEntity
  8
Figuras
  6
ByLayer
 62
  256
370
   -1
100
AcDbLine
 10
51.24999999999999
 20
-51.375
 11
25.26923788646683
 21
-66.375
  0
LINE
  5
DA
100
AcDbEntity
  8
Figuras
  6
ByLayer
 62
  256
370
   -1
100
AcDbLine
 10
51.24999999999999
 20
-51.375
 11
25.26923788646683
 21
-36.375
  0
LINE
  5
DB
100
AcDbEntity
  8
Figuras
  6
ByLayer
 62
  256
370
   -1
100
AcDbLine
 10
51.25
 20
-51.37499999999999
 11
64.24038105676658
 21
-43.87499999999999
  0
LINE
  5
DC
100
AcDbEntity
  8
Figuras
  6
ByLayer
 62
  256
370
   -1
100
AcDbLine
 10
51.24999999999999
 20
-51.375
 11
64.24038105676657
 21
-58.875
  0
LINE
  5
DD
100
AcDbEntity
  8
Figuras
  6
ByLayer
 62
  256
370
   -1
100
AcDbLine
 10
51.24999999999999
 20
-51.375
 11
40.64339828220177
 21
-61.98160171779821
  0
LINE
  5
DE
100
AcDbEntity
  8
Figuras
  6
ByLayer
 62
  256
370
   -1
100
AcDbLine
 10
51.2499999999999
 20
-51.37499999999995
 11
40.64339828220169
 21
-40.76839828220174
  0
MTEXT
  5
DF
100
AcDbEntity
  8
A4_Rotulación
  6
ByLayer
 62
  256
370
   35
100
AcDbMText
 10
-10.99999999999998
 20
-85.99999999999999
 30
0
 40
2
 41
5.555555555555648
 71
    5
 72
    1
  1
León
  7
standard
210
0
220
0
230
1
 50
0
 73
    2
 44
1
  0
MTEXT
  5
E0
100
AcDbEntity
  8
A4_Rotulación
  6
ByLayer
 62
  256
370
   35
100
AcDbMText
 10
-44
 20
-133.5
 30
0
 40
2
 41
3.111111111111111
 71
    5
 72
    1
  1
A4
  7
standard
210
0
220
0
230
1
 50
0
 73
    2
 44
1
  0
MTEXT
  5
E1
100
AcDbEntity
  8
A4_Rotulación
  6
ByLayer
 62
  256
370
   35
100
AcDbMText
 10
-44
 20
-108.5
 30
0
 40
6
 41
6.666666666666666
 71
    5
 72
    1
  1
1:1
  7
standard
210
0
220
0
230
1
 50
0
 73
    2
 44
1
  0
MTEXT
  5
E2
100
AcDbEntity
  8
A4_Rotulación
  6
ByLayer
 62
  256
370
   35
100
AcDbMText
 10
19.49999999999999
 20
-88.5
 30
0
 40
6
 41
8.666665394653769
 71
    5
 72
    1
  1
SR
  7
standard
210
0
220
0
230
1
 50
0
 73
    2
 44
1
  0
MTEXT
  5
E3
100
AcDbEntity
  8
A4_Rotulación
  6
ByLayer
 62
  256
370
   35
100
AcDbMText
 10
3.000000000000014
 20
-118.5
 30
0
 40
6
 41
40.50000000000028
 71
    5
 72
    1
  1
Práctico 2\PEjercicio 8
  7
standard
210
0
220
0
230
1
 50
0
 73
    2
 44
1
  0
LINE
  5
E4
100
AcDbEntity
  8
Figuras
  6
ByLayer
 62
  256
370
   -1
100
AcDbLine
 10
37.24659420993328
 20
120.0571115898414
 11
35.73107112336533
 21
105.8399045264163
  0
LINE
  5
E5
100
AcDbEntity
  8
Figuras
  6
ByLayer
 62
  256
370
   -1
100
AcDbLine
 10
35.73107112336533
 20
105.8399045264163
 11
45.90161800936126
 21
95.79073724997095
  0
LINE
  5
E6
100
AcDbEntity
  8
Figuras
  6
ByLayer
 62
  256
370
   -1
100
AcDbLine
 10
45.90161800936126
 20
95.79073724997095
 11
60.09960562141834
 21
97.47683768532355
  0
LINE
  5
E7
100
AcDbEntity
  8
Figuras
  6
ByLayer
 62
  256
370
   -1
100
AcDbLine
 10
60.09960562141834
 20
97.47683768532355
 11
67.63365970149084
 21
109.6285378144728
  0
LINE
  5
E8
100
AcDbEntity
  8
Figuras
  6
ByLayer
 62
  256
370
   -1
100
AcDbLine
 10
67.63365970149084
 20
109.6285378144728
 11
62.83048386058855
 21
123.0953595906602
  0
LINE
  5
E9
100
AcDbEntity
  8
Figuras
  6
ByLayer
 62
  256
370
   -1
100
AcDbLine
 10
62.83048386058855
 20
123.0953595906602
 11
49.30696747384238
 21
127.7365115433149
  0
LINE
  5
EA
100
AcDbEntity
  8
Figuras
  6
ByLayer
 62
  256
370
   -1
100
AcDbLine
 10
49.30696747384238
 20
127.7365115433149
 11
37.24659420993328
 21
120.0571115898414
  0
ELLIPSE
  5
EB
100
AcDbEntity
  8
Figuras
  6
ByLayer
 62
  256
370
   -1
100
AcDbEllipse
 10
-36.25000000000001
 20
-51.375
 30
0
 11
-26.75194616575242
 21
16.5862066227665
 31
0
 40
0.3265748003728773
 41
0
 42
6.283185307179586
  0
LINE
  5
EC
100
AcDbEntity
  8
Figuras
  6
ByLayer
 62
  256
370
   -1
100
AcDbLine
 10
-80
 20
-78.5
 11
-45.87817162413497
 21
-57.34446640696368
  0
LINE
  5
ED
100
AcDbEntity
  8
Figuras
  6
ByLayer
 62
  256
370
   -1
100
AcDbLine
 10
-63.00194616575233
 20
-34.78879337723357
 11
-80.00000000000001
 21
-24.25
  0
LINE
  5
EE
100
AcDbEntity
  8
Figuras
  6
ByLayer
 62
  256
370
   -1
100
AcDbLine
 10
-26.62182837586503
 20
-45.40553359303631
 11
7.499999999999987
 21
-24.25
  0
LINE
  5
EF
100
AcDbEntity
  8
Figuras
  6
ByLayer
 62
  256
370
   -1
100
AcDbLine
 10
-9.498053834247742
 20
-67.96120662276641
 11
7.499999999999985
 21
-78.5
  0
LWPOLYLINE
  5
F0
100
AcDbEntity
  8
Figuras
  6
ByLayer
 62
  256
370
   -1
100
AcDbPolyline
 90
    4
 70
    1
 43
0
 10
-17.99708075137139
 20
45.80819006585025
 10
-54.50291924862861
 20
45.80819006585025
 10
-54.50291924862861
 20
68.44180993414975
 10
-17.99708075137139
 20
68.44180993414975
  0
CIRCLE
  5
F1
100
AcDbEntity
  8
Figuras
  6
ByLayer
 62
  256
370
   -1
100
AcDbCircle
 10
69.50291924862861
 20
14.19180993414975
 40
10
  0
MTEXT
  5
F2
100
AcDbEntity
  8
A4_Etiquetas
  6
CONTINUOUS
 62
    0
370
   -1
100
AcDbMText
 10
-78.65271040222547
 20
-79.898968137472
 30
0
 40
2
 41
14.66666769524134
 71
    1
 72
    1
  1
Tolerancias\PGenerales
  7
standard
210
0
220
0
230
1
 50
0
 73
    2
 44
1
  0
MTEXT
  5
F3
100
AcDbEntity
  8
A4_Etiquetas
  6
CONTINUOUS
 62
    0
370
   -1
100
AcDbMText
 10
-52.75824412543645
 20
-79.898968137472
 30
0
 40
2
 41
11.33333333333333
 71
    1
 72
    1
  1
Proyectó
  7
standard
210
0
220
0
230
1
 50
0
 73
    2
 44
1
  0
MTEXT
  5
F4
100
AcDbEntity
  8
A4_Etiquetas
  6
CONTINUOUS
 62
    0
370
   -1
100
AcDbMText
 10
-52.75824412543645
 20
-84.74552599676406
 30
0
 40
2
 41
7.555555555555866
 71
    1
 72
    1
  1
Dibujó
  7
standard
210
0
220
0
230
1
 50
0
 73
    2
 44
1
  0
MTEXT
  5
F5
100
AcDbEntity
  8
A4_Etiquetas
  6
CONTINUOUS
 62
    0
370
   -1
100
AcDbMText
 10
-52.75824412543645
 20
-89.73055693775018
 30
0
 40
2
 41
8.000001028574394
 71
    1
 72
    1
  1
Revisó
  7
standard
210
0
220
0
230
1
 50
0
 73
    2
 44
1
  0
MTEXT
  5
F6
100
AcDbEntity
  8
A4_Etiquetas
  6
CONTINUOUS
 62
    0
370
   -1
100
AcDbMText
 10
-52.82748066628348
 20
-94.64635133788927
 30
0
 40
2
 41
8.888888888888982
 71
    1
 72
    1
  1
Aprobó
  7
standard
210
0
220
0
230
1
 50
0
 73
    2
 44
1
  0
MTEXT
  5
F7
100
AcDbEntity
  8
A4_Etiquetas
  6
CONTINUOUS
 62
    0
370
   -1
100
AcDbMText
 10
-52.82748066628348
 20
-99.83909190141648
 30
0
 40
2
 41
7.77777880635236
 71
    1
 72
    1
  1
Escala
  7
standard
210
0
220
0
230
1
 50
0
 73
    2
 44
1
  0
MTEXT
  5
F8
100
AcDbEntity
  8
A4_Etiquetas
  6
CONTINUOUS
 62
    0
370
   -1
100
AcDbMText
 10
-52.75824412543645
 20
-129.7492775473332
 30
0
 40
2
 41
10.22222222222241
 71
    1
 72
    1
  1
Formato
  7
standard
210
0
220
0
230
1
 50
0
 73
    2
 44
1
  0
MTEXT
  5
F9
100
AcDbEntity
  8
A4_Etiquetas
  6
CONTINUOUS
 62
    0
370
   -1
100
AcDbMText
 10
-32.74888382064493
 20
-99.63138227887539
 30
0
 40
2
 41
16.66666666666726
 71
    1
 72
    1
  1
Denominación
  7
standard
210
0
220
0
230
1
 50
0
 73
    2
 44
1
  0
MTEXT
  5
FA
100
AcDbEntity
  8
A4_Etiquetas
  6
CONTINUOUS
 62
    0
370
   -1
100
AcDbMText
 10
0.2769461633881178
 20
-79.898968137472
 30
0
 40
2
 41
8.444444444444661
 71
    1
 72
    1
  1
Cliente
  7
standard
210
0
220
0
230
1
 50
0
 73
    2
 44
1
  0
MTEXT
  5
FB
100
AcDbEntity
  8
A4_Etiquetas
  6
CONTINUOUS
 62
    0
370
   -1
100
AcDbMText
 10
41.26497834482956
 20
-119.6407425836669
 30
0
 40
2
 41
21.44444444444472
 71
    1
 72
    1
  1
Nº plano cliente
  7
standard
210
0
220
0
230
1
 50
0
 73
    2
 44
1
  0
MTEXT
  5
FC
100
AcDbEntity
  8
A4_Etiquetas
  6
CONTINUOUS
 62
    0
370
   -1
100
AcDbMText
 10
41.33421488567659
 20
-129.7492775473332
 30
0
 40
2
 41
11.05555555555574
 71
    1
 72
    1
  1
Nº plano 
  7
standard
210
0
220
0
230
1
 50
0
 73
    2
 44
1
  0
MTEXT
  5
FD
100
AcDbEntity
  8
A4_Etiquetas
  6
CONTINUOUS
 62
    0
370
   -1
100
AcDbMText
 10
86.33796643624574
 20
-129.8185140881802
 30
0
 40
2
 41
4.888888888889075
 71
    1
 72
    1
  1
Pag.
  7
standard
210
0
220
0
230
1
 50
0
 73
    2
 44
1
  0
MTEXT
  5
FE
100
AcDbEntity
  8
A4_Rotulación
  6
ByLayer
 62
  256
370
   -1
100
AcDbMText
 10
-27.50000000000004
 20
-86
 30
0
 40
2
 41
12.00000000000025
 71
    5
 72
    1
  1
06/03/24
  7
standard
210
0
220
0
230
1
 50
0
 73
    2
 44
1
  0
MTEXT
  5
FF
100
AcDbEntity
  8
A4_Rotulación
  6
ByLayer
 62
  256
370
   -1
100
AcDbMText
 10
62.49999999999999
 20
-133.5
 30
0
 40
6
 41
2.666666666666667
 71
    5
 72
    1
  1
2
  7
standard
210
0
220
0
230
1
 50
0
 73
    2
 44
1
  0
ENDSEC
  0
SECTION
  2
OBJECTS
  0
DICTIONARY
  5
C
330
0
100
AcDbDictionary
281
    1
  3
ACAD_GROUP
350
D
  0
DICTIONARY
  5
D
330
C
100
AcDbDictionary
281
    1
  0
PLOTSETTINGS
  5
100
100
AcDbPlotSettings
  6
1x1
 40
0
 41
0
 42
0
 43
0
  0
ENDSEC
  0
EOF
