999
dxfrw 0.6.3
  0
SECTION
  2
HEADER
  9
$ACADVER
  1
AC1021
  9
$DWGCODEPAGE
  3
ANSI_1252
  9
$INSBASE
 10
0
 20
0
 30
0
  9
$EXTMIN
 10
-105
 20
-148.5
 30
0
  9
$EXTMAX
 10
105
 20
148.5
 30
0
  9
$LIMMIN
 10
0
 20
0
  9
$LIMMAX
 10
420
 20
297
  9
$ORTHOMODE
 70
    0
  9
$REGENMODE
 70
    1
  9
$FILLMODE
 70
    1
  9
$QTEXTMODE
 70
    0
  9
$MIRRTEXT
 70
    0
  9
$LTSCALE
 40
1
  9
$ATTMODE
 70
    0
  9
$TEXTSIZE
 40
2.5
  9
$TRACEWID
 40
15.68
  9
$TEXTSTYLE
  7
STANDARD
  9
$CLAYER
  8
A4_Rotulación
  9
$CELTYPE
  6
BYLAYER
  9
$CECOLOR
 62
  256
  9
$CELTSCALE
 40
1
  9
$DISPSILH
 70
    0
  9
$DIMSCALE
 40
2.5
  9
$DIMASZ
 40
2.5
  9
$DIMEXO
 40
0.625
  9
$DIMDLI
 40
3.75
  9
$DIMRND
 40
0
  9
$DIMDLE
 40
0
  9
$DIMEXE
 40
1.25
  9
$DIMTP
 40
0
  9
$DIMTM
 40
0
  9
$DIMTXT
 40
2.5
  9
$DIMCEN
 40
2.5
  9
$DIMTSZ
 40
0
  9
$DIMTOL
 70
    0
  9
$DIMLIM
 70
    0
  9
$DIMTIH
 70
    0
  9
$DIMTOH
 70
    0
  9
$DIMSE1
 70
    0
  9
$DIMSE2
 70
    0
  9
$DIMTAD
 70
    1
  9
$DIMZIN
 70
    8
  9
$DIMBLK
  1

  9
$DIMASO
 70
    1
  9
$DIMSHO
 70
    1
  9
$DIMPOST
  1

  9
$DIMAPOST
  1

  9
$DIMALT
 70
    0
  9
$DIMALTD
 70
    3
  9
$DIMALTF
 40
0.03937
  9
$DIMLFAC
 40
1
  9
$DIMTOFL
 70
    1
  9
$DIMTVP
 40
0
  9
$DIMTIX
 70
    0
  9
$DIMSOXD
 70
    0
  9
$DIMSAH
 70
    0
  9
$DIMBLK1
  1

  9
$DIMBLK2
  1

  9
$DIMSTYLE
  2
STANDARD
  9
$DIMCLRD
 70
    0
  9
$DIMCLRE
 70
    0
  9
$DIMCLRT
 70
    0
  9
$DIMTFAC
 40
1
  9
$DIMGAP
 40
0.625
  9
$DIMJUST
 70
    0
  9
$DIMSD1
 70
    0
  9
$DIMSD2
 70
    0
  9
$DIMTOLJ
 70
    0
  9
$DIMTZIN
 70
    8
  9
$DIMALTZ
 70
    0
  9
$DIMALTTZ
 70
    0
  9
$DIMUPT
 70
    0
  9
$DIMDEC
 70
    2
  9
$DIMTDEC
 70
    2
  9
$DIMALTU
 70
    2
  9
$DIMALTTD
 70
    3
  9
$DIMTXSTY
  7
standard
  9
$DIMAUNIT
 70
    0
  9
$DIMADEC
 70
    0
  9
$DIMALTRND
 40
0
  9
$DIMAZIN
 70
    0
  9
$DIMDSEP
 70
   44
  9
$DIMATFIT
 70
    3
  9
$DIMFRAC
 70
    0
  9
$DIMLDRBLK
  1
STANDARD
  9
$DIMLUNIT
 70
    2
  9
$DIMLWD
 70
   -2
  9
$DIMLWE
 70
   -2
  9
$DIMTMOVE
 70
    0
  9
$DIMFXL
 40
1
  9
$DIMFXLON
 70
    0
  9
$DIMJOGANG
 40
0.7854
  9
$DIMTFILL
 70
    0
  9
$DIMTFILLCLR
 70
    0
  9
$DIMARCSYM
 70
    0
  9
$DIMLTYPE
  6

  9
$DIMLTEX1
  6

  9
$DIMLTEX2
  6

  9
$LUNITS
 70
    2
  9
$LUPREC
 70
    4
  9
$SKETCHINC
 40
1
  9
$FILLETRAD
 40
0
  9
$AUNITS
 70
    0
  9
$AUPREC
 70
    2
  9
$MENU
  1
.
  9
$ELEVATION
 40
0
  9
$PELEVATION
 40
0
  9
$THICKNESS
 40
0
  9
$LIMCHECK
 70
    0
  9
$CHAMFERA
 40
0
  9
$CHAMFERB
 40
0
  9
$CHAMFERC
 40
0
  9
$CHAMFERD
 40
0
  9
$SKPOLY
 70
    0
  9
$USRTIMER
 70
    1
  9
$ANGBASE
 50
0
  9
$ANGDIR
 70
    0
  9
$PDMODE
 70
   34
  9
$PDSIZE
 40
0
  9
$PLINEWID
 40
0
  9
$SPLFRAME
 70
    0
  9
$SPLINETYPE
 70
    2
  9
$SPLINESEGS
 70
    8
  9
$HANDSEED
  5
20000
  9
$SURFTAB1
 70
    6
  9
$SURFTAB2
 70
    6
  9
$SURFTYPE
 70
    6
  9
$SURFU
 70
    6
  9
$SURFV
 70
    6
  9
$UCSBASE
  2

  9
$UCSNAME
  2

  9
$UCSORG
 10
0
 20
0
 30
0
  9
$UCSXDIR
 10
1
 20
0
 30
0
  9
$UCSYDIR
 10
0
 20
1
 30
0
  9
$UCSORTHOREF
  2

  9
$UCSORTHOVIEW
 70
    0
  9
$UCSORGTOP
 10
0
 20
0
 30
0
  9
$UCSORGBOTTOM
 10
0
 20
0
 30
0
  9
$UCSORGLEFT
 10
0
 20
0
 30
0
  9
$UCSORGRIGHT
 10
0
 20
0
 30
0
  9
$UCSORGFRONT
 10
0
 20
0
 30
0
  9
$UCSORGBACK
 10
0
 20
0
 30
0
  9
$PUCSBASE
  2

  9
$PUCSNAME
  2

  9
$PUCSORG
 10
0
 20
0
 30
0
  9
$PUCSXDIR
 10
1
 20
0
 30
0
  9
$PUCSYDIR
 10
0
 20
1
 30
0
  9
$PUCSORTHOREF
  2

  9
$PUCSORTHOVIEW
 70
    0
  9
$PUCSORGTOP
 10
0
 20
0
 30
0
  9
$PUCSORGBOTTOM
 10
0
 20
0
 30
0
  9
$PUCSORGLEFT
 10
0
 20
0
 30
0
  9
$PUCSORGRIGHT
 10
0
 20
0
 30
0
  9
$PUCSORGFRONT
 10
0
 20
0
 30
0
  9
$PUCSORGBACK
 10
0
 20
0
 30
0
  9
$USERI1
 70
    0
  9
$USERI2
 70
    0
  9
$USERI3
 70
    0
  9
$USERI4
 70
    0
  9
$USERI5
 70
    0
  9
$USERR1
 40
0
  9
$USERR2
 40
0
  9
$USERR3
 40
0
  9
$USERR4
 40
0
  9
$USERR5
 40
0
  9
$WORLDVIEW
 70
    1
  9
$SHADEDGE
 70
    3
  9
$SHADEDIF
 70
   70
  9
$TILEMODE
 70
    1
  9
$MAXACTVP
 70
   64
  9
$PINSBASE
 10
105
 20
148.5
 30
0
  9
$PLIMCHECK
 70
    0
  9
$PEXTMIN
 10
0
 20
0
 30
0
  9
$PEXTMAX
 10
0
 20
0
 30
0
  9
$GRIDMODE
 70
    0
  9
$SNAPSTYLE
 70
    0
  9
$GRIDUNIT
 10
0
 20
0
  9
$PLIMMIN
 10
0
 20
0
  9
$PLIMMAX
 10
210
 20
297
  9
$UNITMODE
 70
    0
  9
$VISRETAIN
 70
    1
  9
$PLINEGEN
 70
    0
  9
$PSLTSCALE
 70
    1
  9
$TREEDEPTH
 70
 3020
  9
$CMLSTYLE
  2
Standard
  9
$CMLJUST
 70
    0
  9
$CMLSCALE
 40
20
  9
$PROXYGRAPHICS
 70
    1
  9
$MEASUREMENT
 70
    1
  9
$CELWEIGHT
370
   -1
  9
$ENDCAPS
280
    0
  9
$JOINSTYLE
280
    0
  9
$LWDISPLAY
290
    0
  9
$INSUNITS
 70
    0
  9
$HYPERLINKBASE
  1

  9
$STYLESHEET
  1

  9
$XEDIT
290
    1
  9
$CEPSNTYPE
380
    0
  9
$PSTYLEMODE
290
    1
  9
$EXTNAMES
290
    1
  9
$PSVPSCALE
 40
1
  9
$OLESTARTUP
290
    0
  9
$SORTENTS
280
  127
  9
$INDEXCTL
280
    0
  9
$HIDETEXT
280
    1
  9
$XCLIPFRAME
290
    0
  9
$HALOGAP
280
    0
  9
$OBSCOLOR
 70
  257
  9
$OBSLTYPE
280
    0
  9
$INTERSECTIONDISPLAY
280
    0
  9
$INTERSECTIONCOLOR
 70
  257
  9
$DIMASSOC
280
    1
  9
$PROJECTNAME
  1

  9
$CAMERADISPLAY
290
    0
  9
$LENSLENGTH
 40
50
  9
$CAMERAHEIGHT
 40
0
  9
$STEPSPERSEC
 40
2
  9
$STEPSIZE
 40
50
  9
$3DDWFPREC
 40
2
  9
$PSOLWIDTH
 40
5
  9
$PSOLHEIGHT
 40
80
  9
$LOFTANG1
 40
1.570796326794897
  9
$LOFTANG2
 40
1.570796326794897
  9
$LOFTMAG1
 40
0
  9
$LOFTMAG2
 40
0
  9
$LOFTPARAM
 70
    7
  9
$LOFTNORMALS
280
    1
  9
$LATITUDE
 40
1
  9
$LONGITUDE
 40
1
  9
$NORTHDIRECTION
 40
0
  9
$TIMEZONE
 70
-8000
  9
$LIGHTGLYPHDISPLAY
280
    1
  9
$TILEMODELIGHTSYNCH
280
    1
  9
$SOLIDHIST
280
    1
  9
$SHOWHIST
280
    1
  9
$DWFFRAME
280
    2
  9
$DGNFRAME
280
    0
  9
$REALWORLDSCALE
290
    1
  9
$INTERFERECOLOR
 62
    1
  9
$CSHADOW
280
    0
  9
$SHADOWPLANELOCATION
 40
0
  0
ENDSEC
  0
SECTION
  2
CLASSES
  0
ENDSEC
  0
SECTION
  2
TABLES
  0
TABLE
  2
VPORT
  5
8
330
0
100
AcDbSymbolTable
 70
    1
  0
VPORT
  5
31
330
2
100
AcDbSymbolTableRecord
100
AcDbViewportTableRecord
  2
*ACTIVE
 70
    0
 10
0
 20
0
 11
1
 21
1
 12
119.6644046372973
 22
45.74695549514382
 13
0
 23
0
 14
10
 24
10
 15
10
 25
10
 16
0
 26
0
 36
1
 17
0
 27
0
 37
0
 40
263.4061542720386
 41
1.789762340036563
 42
50
 43
0
 44
0
 50
0
 51
0
 71
    0
 72
  100
 73
    1
 74
    3
 75
    0
 76
    0
 77
    0
 78
    0
281
    0
 65
    1
110
0
120
0
130
0
111
1
121
0
131
0
112
0
122
1
132
0
 79
    0
146
0
348
10020
 60
    7
 61
    5
292
1
282
    1
141
0
142
0
 63
  250
421
3358443
  0
ENDTAB
  0
TABLE
  2
LTYPE
  5
5
330
0
100
AcDbSymbolTable
 70
    4
  0
LTYPE
  5
14
330
5
100
AcDbSymbolTableRecord
100
AcDbLinetypeTableRecord
  2
ByBlock
 70
    0
  3

 72
   65
 73
    0
 40
0
  0
LTYPE
  5
15
330
5
100
AcDbSymbolTableRecord
100
AcDbLinetypeTableRecord
  2
ByLayer
 70
    0
  3

 72
   65
 73
    0
 40
0
  0
LTYPE
  5
16
330
5
100
AcDbSymbolTableRecord
100
AcDbLinetypeTableRecord
  2
Continuous
 70
    0
  3
Solid line
 72
   65
 73
    0
 40
0
  0
LTYPE
  5
32
330
5
100
AcDbSymbolTableRecord
100
AcDbLinetypeTableRecord
  2
DOT
 70
    0
  3
Dot . . . . . . . . . . . . . . . . . . . . . .
 72
   65
 73
    2
 40
6.35
 49
0
 74
    0
 49
-6.35
 74
    0
  0
LTYPE
  5
33
330
5
100
AcDbSymbolTableRecord
100
AcDbLinetypeTableRecord
  2
DOTTINY
 70
    0
  3
Dot (.15x) .....................................
 72
   65
 73
    2
 40
0.9525
 49
0
 74
    0
 49
-0.9525
 74
    0
  0
LTYPE
  5
34
330
5
100
AcDbSymbolTableRecord
100
AcDbLinetypeTableRecord
  2
DOT2
 70
    0
  3
Dot (.5x) .....................................
 72
   65
 73
    2
 40
3.175
 49
0
 74
    0
 49
-3.175
 74
    0
  0
LTYPE
  5
35
330
5
100
AcDbSymbolTableRecord
100
AcDbLinetypeTableRecord
  2
DOTX2
 70
    0
  3
Dot (2x) .  .  .  .  .  .  .  .  .  .  .  .  .
 72
   65
 73
    2
 40
12.7
 49
0
 74
    0
 49
-12.7
 74
    0
  0
LTYPE
  5
36
330
5
100
AcDbSymbolTableRecord
100
AcDbLinetypeTableRecord
  2
DASHED
 70
    0
  3
Dashed _ _ _ _ _ _ _ _ _ _ _ _ _ _ _ _ _
 72
   65
 73
    2
 40
19.05
 49
12.7
 74
    0
 49
-6.35
 74
    0
  0
LTYPE
  5
37
330
5
100
AcDbSymbolTableRecord
100
AcDbLinetypeTableRecord
  2
DASHEDTINY
 70
    0
  3
Dashed (.15x) _ _ _ _ _ _ _ _ _ _ _ _ _ _ _ _ _
 72
   65
 73
    2
 40
2.8575
 49
1.905
 74
    0
 49
-0.9525
 74
    0
  0
LTYPE
  5
38
330
5
100
AcDbSymbolTableRecord
100
AcDbLinetypeTableRecord
  2
DASHED2
 70
    0
  3
Dashed (.5x) _ _ _ _ _ _ _ _ _ _ _ _ _ _ _ _ _
 72
   65
 73
    2
 40
9.524999999999999
 49
6.35
 74
    0
 49
-3.175
 74
    0
  0
LTYPE
  5
39
330
5
100
AcDbSymbolTableRecord
100
AcDbLinetypeTableRecord
  2
DASHEDX2
 70
    0
  3
Dashed (2x) ____  ____  ____  ____  ____  ___
 72
   65
 73
    2
 40
38.09999999999999
 49
25.4
 74
    0
 49
-12.7
 74
    0
  0
LTYPE
  5
3A
330
5
100
AcDbSymbolTableRecord
100
AcDbLinetypeTableRecord
  2
DASHDOT
 70
    0
  3
Dash dot __ . __ . __ . __ . __ . __ . __ . __
 72
   65
 73
    4
 40
25.4
 49
12.7
 74
    0
 49
-6.35
 74
    0
 49
0
 74
    0
 49
-6.35
 74
    0
  0
LTYPE
  5
3B
330
5
100
AcDbSymbolTableRecord
100
AcDbLinetypeTableRecord
  2
DASHDOTTINY
 70
    0
  3
Dash dot (.15x) _._._._._._._._._._._._._._._.
 72
   65
 73
    4
 40
3.81
 49
1.905
 74
    0
 49
-0.9525
 74
    0
 49
0
 74
    0
 49
-0.9525
 74
    0
  0
LTYPE
  5
3C
330
5
100
AcDbSymbolTableRecord
100
AcDbLinetypeTableRecord
  2
DASHDOT2
 70
    0
  3
Dash dot (.5x) _._._._._._._._._._._._._._._.
 72
   65
 73
    4
 40
12.7
 49
6.35
 74
    0
 49
-3.175
 74
    0
 49
0
 74
    0
 49
-3.175
 74
    0
  0
LTYPE
  5
3D
330
5
100
AcDbSymbolTableRecord
100
AcDbLinetypeTableRecord
  2
DASHDOTX2
 70
    0
  3
Dash dot (2x) ____  .  ____  .  ____  .  ___
 72
   65
 73
    4
 40
50.8
 49
25.4
 74
    0
 49
-12.7
 74
    0
 49
0
 74
    0
 49
-12.7
 74
    0
  0
LTYPE
  5
3E
330
5
100
AcDbSymbolTableRecord
100
AcDbLinetypeTableRecord
  2
DIVIDE
 70
    0
  3
Divide ____ . . ____ . . ____ . . ____ . . ____
 72
   65
 73
    6
 40
31.75
 49
12.7
 74
    0
 49
-6.35
 74
    0
 49
0
 74
    0
 49
-6.35
 74
    0
 49
0
 74
    0
 49
-6.35
 74
    0
  0
LTYPE
  5
3F
330
5
100
AcDbSymbolTableRecord
100
AcDbLinetypeTableRecord
  2
DIVIDETINY
 70
    0
  3
Divide (.15x) __..__..__..__..__..__..__..__.._
 72
   65
 73
    6
 40
4.7625
 49
1.905
 74
    0
 49
-0.9525
 74
    0
 49
0
 74
    0
 49
-0.9525
 74
    0
 49
0
 74
    0
 49
-0.9525
 74
    0
  0
LTYPE
  5
40
330
5
100
AcDbSymbolTableRecord
100
AcDbLinetypeTableRecord
  2
DIVIDE2
 70
    0
  3
Divide (.5x) __..__..__..__..__..__..__..__.._
 72
   65
 73
    6
 40
15.875
 49
6.35
 74
    0
 49
-3.175
 74
    0
 49
0
 74
    0
 49
-3.175
 74
    0
 49
0
 74
    0
 49
-3.175
 74
    0
  0
LTYPE
  5
41
330
5
100
AcDbSymbolTableRecord
100
AcDbLinetypeTableRecord
  2
DIVIDEX2
 70
    0
  3
Divide (2x) ________  .  .  ________  .  .  _
 72
   65
 73
    6
 40
63.5
 49
25.4
 74
    0
 49
-12.7
 74
    0
 49
0
 74
    0
 49
-12.7
 74
    0
 49
0
 74
    0
 49
-12.7
 74
    0
  0
LTYPE
  5
42
330
5
100
AcDbSymbolTableRecord
100
AcDbLinetypeTableRecord
  2
BORDER
 70
    0
  3
Border __ __ . __ __ . __ __ . __ __ . __ __ .
 72
   65
 73
    6
 40
44.45
 49
12.7
 74
    0
 49
-6.35
 74
    0
 49
12.7
 74
    0
 49
-6.35
 74
    0
 49
0
 74
    0
 49
-6.35
 74
    0
  0
LTYPE
  5
43
330
5
100
AcDbSymbolTableRecord
100
AcDbLinetypeTableRecord
  2
BORDERTINY
 70
    0
  3
Border (.15x) __.__.__.__.__.__.__.__.__.__.__.
 72
   65
 73
    6
 40
6.6675
 49
1.905
 74
    0
 49
-0.9525
 74
    0
 49
1.905
 74
    0
 49
-0.9525
 74
    0
 49
0
 74
    0
 49
-0.9525
 74
    0
  0
LTYPE
  5
44
330
5
100
AcDbSymbolTableRecord
100
AcDbLinetypeTableRecord
  2
BORDER2
 70
    0
  3
Border (.5x) __.__.__.__.__.__.__.__.__.__.__.
 72
   65
 73
    6
 40
22.225
 49
6.35
 74
    0
 49
-3.175
 74
    0
 49
6.35
 74
    0
 49
-3.175
 74
    0
 49
0
 74
    0
 49
-3.175
 74
    0
  0
LTYPE
  5
45
330
5
100
AcDbSymbolTableRecord
100
AcDbLinetypeTableRecord
  2
BORDERX2
 70
    0
  3
Border (2x) ____  ____  .  ____  ____  .  ___
 72
   65
 73
    6
 40
88.89999999999999
 49
25.4
 74
    0
 49
-12.7
 74
    0
 49
25.4
 74
    0
 49
-12.7
 74
    0
 49
0
 74
    0
 49
-12.7
 74
    0
  0
LTYPE
  5
46
330
5
100
AcDbSymbolTableRecord
100
AcDbLinetypeTableRecord
  2
CENTER
 70
    0
  3
Center ____ _ ____ _ ____ _ ____ _ ____ _ ____
 72
   65
 73
    4
 40
50.8
 49
31.75
 74
    0
 49
-6.35
 74
    0
 49
6.35
 74
    0
 49
-6.35
 74
    0
  0
LTYPE
  5
47
330
5
100
AcDbSymbolTableRecord
100
AcDbLinetypeTableRecord
  2
CENTERTINY
 70
    0
  3
Center (.15x) ___ _ ___ _ ___ _ ___ _ ___ _ ___
 72
   65
 73
    4
 40
7.62
 49
4.7625
 74
    0
 49
-0.9525
 74
    0
 49
0.9525
 74
    0
 49
-0.9525
 74
    0
  0
LTYPE
  5
48
330
5
100
AcDbSymbolTableRecord
100
AcDbLinetypeTableRecord
  2
CENTER2
 70
    0
  3
Center (.5x) ___ _ ___ _ ___ _ ___ _ ___ _ ___
 72
   65
 73
    4
 40
28.575
 49
19.05
 74
    0
 49
-3.175
 74
    0
 49
3.175
 74
    0
 49
-3.175
 74
    0
  0
LTYPE
  5
49
330
5
100
AcDbSymbolTableRecord
100
AcDbLinetypeTableRecord
  2
CENTERX2
 70
    0
  3
Center (2x) ________  __  ________  __  _____
 72
   65
 73
    4
 40
101.6
 49
63.5
 74
    0
 49
-12.7
 74
    0
 49
12.7
 74
    0
 49
-12.7
 74
    0
  0
ENDTAB
  0
TABLE
  2
LAYER
  5
2
330
0
100
AcDbSymbolTable
 70
    1
  0
LAYER
  5
10
330
2
100
AcDbSymbolTableRecord
100
AcDbLayerTableRecord
  2
0
 70
    1
 62
    7
  6
CONTINUOUS
370
    0
390
F
  0
LAYER
  5
4A
330
2
100
AcDbSymbolTableRecord
100
AcDbLayerTableRecord
  2
A4_Auxiliar
 70
    1
 62
    2
  6
CONTINUOUS
370
   -3
390
F
  0
LAYER
  5
4B
330
2
100
AcDbSymbolTableRecord
100
AcDbLayerTableRecord
  2
A4_Divisiones
 70
    0
 62
  251
420
6710886
  6
CONTINUOUS
370
   35
390
F
  0
LAYER
  5
4C
330
2
100
AcDbSymbolTableRecord
100
AcDbLayerTableRecord
  2
A4_Etiquetas
 70
    0
 62
    7
  6
CONTINUOUS
370
    5
390
F
  0
LAYER
  5
4D
330
2
100
AcDbSymbolTableRecord
100
AcDbLayerTableRecord
  2
A4_Hoja
 70
    0
 62
   19
420
2368548
  6
CONTINUOUS
370
   70
390
F
  0
LAYER
  5
4E
330
2
100
AcDbSymbolTableRecord
100
AcDbLayerTableRecord
  2
A4_Recuadro
 70
    0
 62
  251
420
6710886
  6
CONTINUOUS
370
   70
390
F
  0
LAYER
  5
4F
330
2
100
AcDbSymbolTableRecord
100
AcDbLayerTableRecord
  2
A4_Rotulación
 70
    0
 62
    7
  6
CONTINUOUS
370
   35
390
F
  0
LAYER
  5
50
330
2
100
AcDbSymbolTableRecord
100
AcDbLayerTableRecord
  2
Chasis
 70
    0
 62
    7
  6
CONTINUOUS
370
    0
390
F
  0
LAYER
  5
51
330
2
100
AcDbSymbolTableRecord
100
AcDbLayerTableRecord
  2
Relleno
 70
    0
 62
    7
  6
CONTINUOUS
370
    0
390
F
  0
LAYER
  5
52
330
2
100
AcDbSymbolTableRecord
100
AcDbLayerTableRecord
  2
Ruedas
 70
    0
 62
    7
  6
CONTINUOUS
370
    0
390
F
  0
ENDTAB
  0
TABLE
  2
STYLE
  5
3
330
0
100
AcDbSymbolTable
 70
    3
  0
STYLE
  5
53
330
2
100
AcDbSymbolTableRecord
100
AcDbTextStyleTableRecord
  2
standard
 70
    0
 40
0
 41
1
 50
0
 71
    0
 42
1
  3
standard
  4

  0
ENDTAB
  0
TABLE
  2
VIEW
  5
6
330
0
100
AcDbSymbolTable
 70
    0
  0
ENDTAB
  0
TABLE
  2
UCS
  5
7
330
0
100
AcDbSymbolTable
 70
    0
  0
ENDTAB
  0
TABLE
  2
APPID
  5
9
330
0
100
AcDbSymbolTable
 70
    1
  0
APPID
  5
12
330
9
100
AcDbSymbolTableRecord
100
AcDbRegAppTableRecord
  2
ACAD
 70
    0
  0
APPID
  5
54
330
9
100
AcDbSymbolTableRecord
100
AcDbRegAppTableRecord
  2
LibreCad
 70
    0
  0
ENDTAB
  0
TABLE
  2
DIMSTYLE
  5
A
330
0
100
AcDbSymbolTable
 70
    1
100
AcDbDimStyleTable
 71
    1
  0
DIMSTYLE
105
55
330
A
100
AcDbSymbolTableRecord
100
AcDbDimStyleTableRecord
  2
Standard
 70
    0
 40
2.5
 41
2.5
 42
0.625
 43
0.38
 44
1.25
 45
0
 46
0
 47
0
 48
0
 49
1
140
2.5
141
0.09
142
0
143
25.4
144
1
145
0
146
1
147
0.625
148
0
 71
    0
 72
    0
 73
    0
 74
    1
 75
    0
 76
    0
 77
    0
 78
    8
 79
    0
170
    0
171
    2
172
    0
173
    0
174
    0
175
    0
176
    0
177
    0
178
    0
179
    0
271
    2
272
    4
273
    2
274
    2
275
    0
276
    0
277
    2
278
   44
279
    0
280
    0
281
    0
282
    0
283
    1
284
    0
285
    0
286
    0
288
    0
289
    3
340
standard
341

371
   -2
372
   -2
  0
ENDTAB
  0
TABLE
  2
BLOCK_RECORD
  5
1
330
0
100
AcDbSymbolTable
 70
    2
  0
BLOCK_RECORD
  5
1F
330
1
100
AcDbSymbolTableRecord
100
AcDbBlockTableRecord
  2
*Model_Space
 70
    0
280
    1
281
    0
  0
BLOCK_RECORD
  5
1E
330
1
100
AcDbSymbolTableRecord
100
AcDbBlockTableRecord
  2
*Paper_Space
 70
    0
280
    1
281
    0
  0
ENDTAB
  0
ENDSEC
  0
SECTION
  2
BLOCKS
  0
BLOCK
  5
20
330
1F
100
AcDbEntity
  8
0
100
AcDbBlockBegin
  2
*Model_Space
 70
    0
 10
0
 20
0
 30
0
  3
*Model_Space
  1

  0
ENDBLK
  5
21
330
1F
100
AcDbEntity
  8
0
100
AcDbBlockEnd
  0
BLOCK
  5
1C
330
1B
100
AcDbEntity
  8
0
100
AcDbBlockBegin
  2
*Paper_Space
 70
    0
 10
0
 20
0
 30
0
  3
*Paper_Space
  1

  0
ENDBLK
  5
1D
330
1F
100
AcDbEntity
  8
0
100
AcDbBlockEnd
  0
ENDSEC
  0
SECTION
  2
ENTITIES
  0
HATCH
  5
56
100
AcDbEntity
  8
Relleno
  6
ByLayer
 62
  256
370
   -1
100
AcDbHatch
 10
0
 20
0
 30
0
210
0
220
0
230
1
  2
SOLID
 70
    1
 71
    0
 91
    1
 92
    0
 93
   28
 72
    1
 10
51.25446078970457
 20
38.91897962135506
 11
42.46766422530099
 21
30.13218305695149
 72
    1
 10
42.46766422530099
 20
30.13218305695149
 11
42.57571748653759
 21
21.62726697253855
 72
    1
 10
42.57571748653759
 20
21.62726697253855
 11
-15.4242825134624
 21
20.79073072969244
 72
    1
 10
-15.4242825134624
 20
20.79073072969244
 11
-15.53233577469901
 21
30.13218305695149
 72
    1
 10
-15.53233577469901
 20
30.13218305695149
 11
-24.31913233910259
 21
38.91897962135506
 72
    1
 10
-24.31913233910259
 20
38.91897962135506
 11
-36.74553921029543
 21
38.91897962135506
 72
    1
 10
-36.74553921029543
 20
38.91897962135506
 11
-45.53233577469901
 21
30.13218305695149
 72
    1
 10
-45.53233577469901
 20
30.13218305695149
 11
-45.53233577469901
 21
25.34755104992651
 72
    1
 10
-45.53233577469901
 20
25.34755104992651
 11
-58.53233577469901
 21
30.91897962135505
 72
    1
 10
-58.53233577469901
 20
30.91897962135505
 11
-59.53233577469901
 21
32.91897962135506
 72
    1
 10
-59.53233577469901
 20
32.91897962135506
 11
-45.57396633504163
 21
32.91897962135506
 72
    1
 10
-45.57396633504163
 20
32.91897962135506
 11
-37.47800691295093
 21
40.91897962135506
 72
    1
 10
-37.47800691295093
 20
40.91897962135506
 11
-24.31913233910259
 21
40.91897962135506
 72
    1
 10
-24.31913233910259
 20
40.91897962135506
 11
-23.55521301740932
 21
40.88391773860046
 72
    1
 10
-23.55521301740932
 20
40.88391773860046
 11
-14.11812221232591
 21
31.54639661932458
 72
    1
 10
-14.11812221232591
 20
31.54639661932458
 11
-13.53246955845263
 21
30.15531565551669
 72
    1
 10
-13.53246955845263
 20
30.15531565551669
 11
-13.46488253401836
 21
24.31226233654722
 72
    1
 10
-13.46488253401836
 20
24.31226233654722
 11
40.54682937909687
 21
25.09127534609006
 72
    1
 10
40.54682937909687
 20
25.09127534609006
 11
40.49757521087115
 21
31.00400930905856
 72
    1
 10
40.49757521087115
 20
31.00400930905856
 11
50.45492769370893
 21
40.91897962135506
 72
    1
 10
50.45492769370893
 20
40.91897962135506
 11
64.51327997896929
 21
40.91897962135506
 72
    1
 10
64.51327997896929
 20
40.91897962135506
 11
72.50929478564362
 21
32.91897962135505
 72
    1
 10
72.50929478564362
 20
32.91897962135505
 11
80.13433089196765
 21
32.91897962135505
 72
    1
 10
80.13433089196765
 20
32.91897962135505
 11
79.46766422530099
 21
28.91897962135506
 72
    1
 10
79.46766422530099
 20
28.91897962135506
 11
72.46766422530099
 21
27.16897962135506
 72
    1
 10
72.46766422530099
 20
27.16897962135506
 11
72.46766422530099
 21
30.13218305695149
 72
    1
 10
72.46766422530099
 20
30.13218305695149
 11
63.68086766089741
 21
38.91897962135506
 72
    1
 10
63.68086766089741
 20
38.91897962135506
 11
51.25446078970457
 21
38.91897962135506
 97
    0
 75
    0
 76
    1
 98
    0
  0
HATCH
  5
57
100
AcDbEntity
  8
Relleno
  6
ByLayer
 62
  256
370
   -1
100
AcDbHatch
 10
0
 20
0
 30
0
210
0
220
0
230
1
  2
SOLID
 70
    1
 71
    0
 91
    1
 92
    0
 93
    4
 72
    1
 10
-30.53233577469899
 20
48.91897962135506
 11
5.467664225300991
 21
62.91897962135506
 72
    1
 10
5.467664225300991
 20
62.91897962135506
 11
31.46766422530099
 21
58.91897962135506
 72
    1
 10
31.46766422530099
 20
58.91897962135506
 11
32.66322796597115
 21
52.74901378745628
 72
    1
 10
32.66322796597115
 20
52.74901378745628
 11
-30.53233577469899
 21
48.91897962135506
 97
    0
 75
    0
 76
    1
 98
    0
  0
HATCH
  5
58
100
AcDbEntity
  8
Relleno
  6
ByLayer
 62
  256
370
   -1
100
AcDbHatch
 10
0
 20
0
 30
0
210
0
220
0
230
1
  2
SOLID
 70
    1
 71
    0
 91
    1
 92
    0
 93
    4
 72
    1
 10
-62.53233577469901
 20
42.91897962135506
 11
-48.53233577469855
 21
44.91897962135508
 72
    1
 10
-48.53233577469918
 20
44.91897962135498
 11
-50.24949306222435
 21
42.67367143742287
 72
    1
 10
-50.24949306222435
 20
42.67367143742287
 11
-62.04957715400934
 21
40.98794513859644
 72
    1
 10
-62.04957715400934
 20
40.98794513859644
 11
-62.53233577469901
 21
42.91897962135506
 97
    0
 75
    0
 76
    1
 98
    0
  0
HATCH
  5
59
100
AcDbEntity
  8
Relleno
  6
ByLayer
 62
  256
370
   -1
100
AcDbHatch
 10
0
 20
0
 30
0
210
0
220
0
230
1
  2
SOLID
 70
    1
 71
    0
 91
    1
 92
    0
 93
   35
 72
    1
 10
-24.90314910092921
 20
17.62985304797219
 11
-23.49585243248675
 21
18.30757140462646
 72
    1
 10
-23.49585243248675
 20
18.30757140462646
 11
-23.14827885900191
 21
19.83039072909354
 72
    1
 10
-23.14827885900191
 20
19.83039072909354
 11
-25.95450519816999
 21
22.4341882572989
 72
    1
 10
-25.95450519816999
 20
22.4341882572989
 11
-28.06610809473113
 21
19.78632197611755
 72
    1
 10
-28.06610809473113
 20
19.78632197611755
 11
-24.90314910092921
 21
17.62985304797219
 72
    1
 10
-25.76362611386843
 20
23.27048416810895
 11
-26.51724846228034
 21
26.57231941411331
 72
    1
 10
-26.51724846228034
 20
26.57231941411331
 11
-22.73186407657827
 21
27.14287430806489
 72
    1
 10
-22.73186407657827
 20
27.14287430806489
 11
-21.75798456506259
 21
25.92166802696191
 72
    1
 10
-21.75798456506259
 20
25.92166802696191
 11
-22.10555813854743
 21
24.3988487024948
 72
    1
 10
-22.10555813854743
 20
24.3988487024948
 11
-25.76362611386843
 21
23.27048416810895
 72
    1
 10
-27.05207977156071
 20
27.24297666329112
 11
-30.10343436549714
 21
28.71243158871266
 72
    1
 10
-30.10343436549714
 20
28.71243158871266
 11
-28.18936358346419
 21
32.02769943247684
 72
    1
 10
-28.18936358346419
 20
32.02769943247684
 11
-26.627382122641
 21
32.02769943247684
 72
    1
 10
-26.627382122641
 20
32.02769943247684
 11
-25.65350261112531
 21
30.80649315137383
 72
    1
 10
-25.65350261112531
 20
30.80649315137383
 11
-27.05207977156071
 21
27.24297666329112
 72
    1
 10
-30.96123718390088
 20
28.71243158871269
 11
-34.01259177783729
 21
27.24297666329112
 72
    1
 10
-34.01259177783729
 20
27.24297666329112
 11
-35.41116893827271
 21
30.80649315137383
 72
    1
 10
-35.41116893827271
 20
30.80649315137383
 11
-34.43728942675703
 21
32.02769943247684
 72
    1
 10
-34.43728942675703
 20
32.02769943247684
 11
-32.87530796593381
 21
32.02769943247684
 72
    1
 10
-32.87530796593381
 20
32.02769943247684
 11
-30.96123718390088
 21
28.71243158871269
 72
    1
 10
-34.54742308711769
 20
26.57231941411331
 11
-35.30104543552959
 21
23.27048416810892
 72
    1
 10
-35.30104543552959
 20
23.27048416810892
 11
-38.95911341085059
 21
24.3988487024948
 72
    1
 10
-38.95911341085059
 20
24.3988487024948
 11
-39.30668698433541
 21
25.92166802696191
 72
    1
 10
-39.30668698433541
 20
25.92166802696191
 11
-38.33280747281972
 21
27.14287430806489
 72
    1
 10
-38.33280747281972
 20
27.14287430806489
 11
-34.54742308711769
 21
26.57231941411331
 72
    1
 10
-35.11016635122803
 20
22.4341882572989
 11
-37.91639269039611
 21
19.83039072909358
 72
    1
 10
-37.91639269039611
 20
19.83039072909358
 11
-37.56881911691129
 21
18.30757140462646
 72
    1
 10
-37.56881911691129
 20
18.30757140462646
 11
-36.16152244846887
 21
17.62985304797219
 72
    1
 10
-36.16152244846887
 20
17.62985304797219
 11
-32.99856345466689
 21
19.78632197611756
 72
    1
 10
-32.99856345466689
 20
19.78632197611756
 11
-35.11016635122803
 21
22.4341882572989
 72
    1
 10
-31.93963244314148
 20
15.59669797800935
 11
-30.53233577469901
 21
14.91897962135506
 72
    1
 10
-30.53233577469901
 20
14.91897962135506
 11
-29.12503910625655
 21
15.59669797800939
 72
    1
 10
-29.12503910625655
 20
15.59669797800939
 11
-28.83896172891183
 21
19.41413528184299
 72
    1
 10
-28.83896172891183
 20
19.41413528184299
 11
-32.22570982048622
 21
19.41413528184299
 72
    1
 10
-32.22570982048622
 20
19.41413528184299
 11
-31.93963244314148
 21
15.59669797800935
 97
    0
 75
    0
 76
    1
 98
    0
  0
HATCH
  5
5A
100
AcDbEntity
  8
Relleno
  6
ByLayer
 62
  256
370
   -1
100
AcDbHatch
 10
0
 20
0
 30
0
210
0
220
0
230
1
  2
SOLID
 70
    1
 71
    0
 91
    1
 92
    0
 93
   14
 72
    1
 10
57.46766422530099
 20
26.91897962135506
 11
55.12216977789689
 21
25.78944902693127
 72
    1
 10
55.12216977789689
 20
25.78944902693127
 11
54.54288048875551
 21
23.25141681948612
 72
    1
 10
54.54288048875551
 20
23.25141681948612
 11
56.16601300794832
 21
21.2160730176478
 72
    1
 10
56.16601300794832
 20
21.2160730176478
 11
58.76931544265367
 21
21.2160730176478
 72
    1
 10
58.76931544265367
 20
21.2160730176478
 11
60.39244796184647
 21
23.25141681948612
 72
    1
 10
60.39244796184647
 20
23.25141681948612
 11
59.81315867270509
 21
25.78944902693127
 72
    1
 10
59.81315867270509
 20
25.78944902693127
 11
57.46766422530099
 21
26.91897962135506
 72
    1
 10
57.46766422530099
 20
28.91897962135506
 11
53.55850681296084
 21
27.03642863064873
 72
    1
 10
53.55850681296084
 20
27.03642863064873
 11
52.59302466439188
 21
22.80637495157349
 72
    1
 10
52.59302466439188
 20
22.80637495157349
 11
55.29824552971319
 21
19.41413528184299
 72
    1
 10
55.29824552971319
 20
19.41413528184299
 11
59.63708292088877
 21
19.41413528184299
 72
    1
 10
59.63708292088877
 20
19.41413528184299
 11
62.34230378621011
 21
22.80637495157349
 72
    1
 10
62.34230378621011
 20
22.80637495157349
 11
61.37682163764115
 21
27.03642863064873
 72
    1
 10
61.37682163764115
 20
27.03642863064873
 11
57.46766422530099
 21
28.91897962135506
 97
    0
 75
    0
 76
    1
 98
    0
  0
HATCH
  5
5B
100
AcDbEntity
  8
Relleno
  6
ByLayer
 62
  256
370
   -1
100
AcDbHatch
 10
0
 20
0
 30
0
210
0
220
0
230
1
  2
SOLID
 70
    1
 71
    0
 91
    1
 92
    0
 93
    7
 72
    1
 10
57.46766422530099
 20
24.91897962135506
 11
56.68583274283297
 21
24.5424694232138
 72
    1
 10
56.68583274283297
 20
24.5424694232138
 11
56.49273631311917
 21
23.69645868739875
 72
    1
 10
56.49273631311917
 20
23.69645868739875
 11
57.03378048618343
 21
23.01801075345264
 72
    1
 10
57.03378048618343
 20
23.01801075345264
 11
57.90154796441855
 21
23.01801075345264
 72
    1
 10
57.90154796441855
 20
23.01801075345264
 11
58.44259213748281
 21
23.69645868739875
 72
    1
 10
58.44259213748281
 20
23.69645868739875
 11
58.24949570776901
 21
24.5424694232138
 72
    1
 10
58.24949570776901
 20
24.5424694232138
 11
57.46766422530099
 21
24.91897962135506
 97
    0
 75
    0
 76
    1
 98
    0
  0
HATCH
  5
5C
100
AcDbEntity
  8
Relleno
  6
ByLayer
 62
  256
370
   -1
100
AcDbHatch
 10
0
 20
0
 30
0
210
0
220
0
230
1
  2
SOLID
 70
    1
 71
    0
 91
    1
 92
    0
 93
    8
 72
    2
 10
57.46766422530099
 20
23.91897962135506
 40
13.60147050873544
 50
0
 51
360
 73
    1
 72
    1
 10
57.46766422530099
 20
14.91897962135506
 11
64.50414756751324
 21
18.30757140462646
 72
    1
 10
64.50414756751324
 20
18.30757140462646
 11
66.24201543493741
 21
25.92166802696191
 72
    1
 10
66.24201543493741
 20
25.92166802696191
 11
61.37261787735901
 21
32.02769943247684
 72
    1
 10
61.37261787735901
 20
32.02769943247684
 11
53.56271057324297
 21
32.02769943247684
 72
    1
 10
53.56271057324297
 20
32.02769943247684
 11
48.69331301566459
 21
25.92166802696191
 72
    1
 10
48.69331301566459
 20
25.92166802696191
 11
50.43118088308871
 21
18.30757140462646
 72
    1
 10
50.43118088308871
 20
18.30757140462646
 11
57.46766422530099
 21
14.91897962135506
 97
    0
 75
    0
 76
    1
 98
    0
  0
HATCH
  5
5D
100
AcDbEntity
  8
Relleno
  6
ByLayer
 62
  256
370
   -1
100
AcDbHatch
 10
0
 20
0
 30
0
210
0
220
0
230
1
  2
SOLID
 70
    1
 71
    0
 91
    1
 92
    0
 93
   35
 72
    1
 10
51.83847755153117
 20
17.62985304797219
 11
50.43118088308871
 21
18.30757140462646
 72
    1
 10
50.43118088308871
 20
18.30757140462646
 11
50.08360730960389
 21
19.83039072909354
 72
    1
 10
50.08360730960389
 20
19.83039072909354
 11
52.88983364877199
 21
22.43418825729889
 72
    1
 10
52.88983364877199
 20
22.43418825729889
 11
55.00143654533309
 21
19.78632197611756
 72
    1
 10
55.00143654533309
 20
19.78632197611755
 11
51.83847755153117
 21
17.62985304797219
 72
    1
 10
52.69895456447041
 20
23.27048416810895
 11
49.04088658914942
 21
24.39884870249482
 72
    1
 10
49.04088658914942
 20
24.39884870249482
 11
48.69331301566459
 21
25.92166802696191
 72
    1
 10
48.69331301566459
 20
25.92166802696191
 11
49.66719252718026
 21
27.14287430806489
 72
    1
 10
49.66719252718026
 20
27.14287430806489
 11
53.45257691288231
 21
26.57231941411331
 72
    1
 10
53.45257691288231
 20
26.57231941411331
 11
52.69895456447041
 21
23.27048416810895
 72
    1
 10
53.98740822216269
 20
27.24297666329112
 11
52.58883106172731
 21
30.80649315137386
 72
    1
 10
52.58883106172731
 20
30.80649315137386
 11
53.56271057324297
 21
32.02769943247684
 72
    1
 10
53.56271057324297
 20
32.02769943247684
 11
55.12469203406619
 21
32.02769943247684
 72
    1
 10
55.12469203406619
 20
32.02769943247684
 11
57.03876281609913
 21
28.71243158871266
 72
    1
 10
57.03876281609913
 20
28.71243158871266
 11
53.98740822216271
 21
27.24297666329112
 72
    1
 10
60.94792022843929
 20
27.24297666329112
 11
57.89656563450286
 21
28.71243158871269
 72
    1
 10
57.89656563450286
 20
28.71243158871269
 11
59.81063641653581
 21
32.02769943247684
 72
    1
 10
59.81063641653581
 20
32.02769943247684
 11
61.37261787735901
 21
32.02769943247684
 72
    1
 10
61.37261787735901
 20
32.02769943247684
 11
62.3464973888747
 21
30.80649315137384
 72
    1
 10
62.3464973888747
 20
30.80649315137384
 11
60.94792022843929
 21
27.24297666329112
 72
    1
 10
61.48275153771961
 20
26.57231941411331
 11
65.26813592342175
 21
27.14287430806489
 72
    1
 10
65.26813592342175
 20
27.14287430806489
 11
66.24201543493741
 21
25.92166802696191
 72
    1
 10
66.24201543493741
 20
25.92166802696191
 11
65.89444186145256
 21
24.39884870249482
 72
    1
 10
65.89444186145256
 20
24.39884870249482
 11
62.2363738861316
 21
23.27048416810896
 72
    1
 10
62.2363738861316
 20
23.27048416810896
 11
61.48275153771969
 21
26.57231941411331
 72
    1
 10
62.04549480183003
 20
22.4341882572989
 11
64.85172114099809
 21
19.83039072909354
 72
    1
 10
64.85172114099809
 20
19.83039072909354
 11
64.50414756751324
 21
18.30757140462646
 72
    1
 10
64.50414756751324
 20
18.30757140462646
 11
63.09685089907077
 21
17.62985304797216
 72
    1
 10
63.09685089907077
 20
17.62985304797216
 11
59.93389190526887
 21
19.78632197611756
 72
    1
 10
59.93389190526887
 20
19.78632197611756
 11
62.04549480183003
 21
22.4341882572989
 72
    1
 10
59.16103827108817
 20
19.41413528184299
 11
58.87496089374346
 21
15.59669797800939
 72
    1
 10
58.87496089374346
 20
15.59669797800939
 11
57.46766422530099
 21
14.91897962135506
 72
    1
 10
57.46766422530099
 20
14.91897962135506
 11
56.06036755685853
 21
15.59669797800936
 72
    1
 10
56.06036755685853
 20
15.59669797800936
 11
55.77429017951379
 21
19.41413528184299
 72
    1
 10
55.77429017951379
 20
19.41413528184299
 11
59.16103827108817
 21
19.41413528184299
 97
    0
 75
    0
 76
    1
 98
    0
  0
HATCH
  5
5E
100
AcDbEntity
  8
Relleno
  6
ByLayer
 62
  256
370
   -1
100
AcDbHatch
 10
0
 20
0
 30
0
210
0
220
0
230
1
  2
SOLID
 70
    1
 71
    0
 91
    1
 92
    0
 93
   14
 72
    1
 10
-30.53233577469901
 20
26.91897962135506
 11
-32.87783022210311
 21
25.78944902693127
 72
    1
 10
-32.87783022210311
 20
25.78944902693127
 11
-33.45711951124449
 21
23.25141681948612
 72
    1
 10
-33.45711951124449
 20
23.25141681948612
 11
-31.83398699205169
 21
21.2160730176478
 72
    1
 10
-31.83398699205169
 20
21.2160730176478
 11
-29.23068455734634
 21
21.2160730176478
 72
    1
 10
-29.23068455734634
 20
21.2160730176478
 11
-27.60755203815353
 21
23.25141681948612
 72
    1
 10
-27.60755203815353
 20
23.25141681948612
 11
-28.18684132729493
 21
25.78944902693127
 72
    1
 10
-28.18684132729493
 20
25.78944902693127
 11
-30.53233577469901
 21
26.91897962135506
 72
    1
 10
-30.53233577469901
 20
28.91897962135506
 11
-34.44149318703917
 21
27.03642863064873
 72
    1
 10
-34.44149318703917
 20
27.03642863064873
 11
-35.40697533560812
 21
22.80637495157349
 72
    1
 10
-35.40697533560812
 20
22.80637495157349
 11
-32.70175447028682
 21
19.41413528184299
 72
    1
 10
-32.70175447028682
 20
19.41413528184299
 11
-28.36291707911121
 21
19.41413528184299
 72
    1
 10
-28.36291707911121
 20
19.41413528184299
 11
-25.65769621378989
 21
22.80637495157349
 72
    1
 10
-25.65769621378989
 20
22.80637495157349
 11
-26.62317836235885
 21
27.03642863064873
 72
    1
 10
-26.62317836235885
 20
27.03642863064873
 11
-30.53233577469901
 21
28.91897962135506
 97
    0
 75
    0
 76
    1
 98
    0
  0
HATCH
  5
5F
100
AcDbEntity
  8
Relleno
  6
ByLayer
 62
  256
370
   -1
100
AcDbHatch
 10
0
 20
0
 30
0
210
0
220
0
230
1
  2
SOLID
 70
    1
 71
    0
 91
    1
 92
    0
 93
    7
 72
    1
 10
-30.53233577469901
 20
24.91897962135506
 11
-31.31416725716703
 21
24.5424694232138
 72
    1
 10
-31.31416725716703
 20
24.5424694232138
 11
-31.50726368688083
 21
23.69645868739875
 72
    1
 10
-31.50726368688083
 20
23.69645868739875
 11
-30.96621951381657
 21
23.01801075345264
 72
    1
 10
-30.96621951381657
 20
23.01801075345264
 11
-30.09845203558145
 21
23.01801075345264
 72
    1
 10
-30.09845203558145
 20
23.01801075345264
 11
-29.55740786251719
 21
23.69645868739875
 72
    1
 10
-29.55740786251719
 20
23.69645868739875
 11
-29.75050429223099
 21
24.5424694232138
 72
    1
 10
-29.75050429223099
 20
24.5424694232138
 11
-30.53233577469901
 21
24.91897962135506
 97
    0
 75
    0
 76
    1
 98
    0
  0
HATCH
  5
60
100
AcDbEntity
  8
Relleno
  6
ByLayer
 62
  256
370
   -1
100
AcDbHatch
 10
0
 20
0
 30
0
210
0
220
0
230
1
  2
SOLID
 70
    1
 71
    0
 91
    1
 92
    0
 93
    8
 72
    2
 10
-30.53233577469901
 20
23.91897962135506
 40
13.60147050873544
 50
0
 51
360
 73
    1
 72
    1
 10
-30.53233577469901
 20
14.91897962135506
 11
-23.49585243248675
 21
18.30757140462646
 72
    1
 10
-23.49585243248675
 20
18.30757140462646
 11
-21.75798456506259
 21
25.92166802696191
 72
    1
 10
-21.75798456506259
 20
25.92166802696191
 11
-26.627382122641
 21
32.02769943247684
 72
    1
 10
-26.627382122641
 20
32.02769943247684
 11
-34.43728942675703
 21
32.02769943247684
 72
    1
 10
-34.43728942675703
 20
32.02769943247684
 11
-39.30668698433541
 21
25.92166802696191
 72
    1
 10
-39.30668698433541
 20
25.92166802696191
 11
-37.56881911691129
 21
18.30757140462646
 72
    1
 10
-37.56881911691129
 20
18.30757140462646
 11
-30.53233577469901
 21
14.91897962135506
 97
    0
 75
    0
 76
    1
 98
    0
  0
HATCH
  5
61
100
AcDbEntity
  8
Relleno
  6
ByLayer
 62
  256
370
   -1
100
AcDbHatch
 10
0
 20
0
 30
0
210
0
220
0
230
1
  2
SOLID
 70
    1
 71
    0
 91
    1
 92
    0
 93
    4
 72
    1
 10
31.46766422530099
 20
48.31897962135507
 11
25.46766422530099
 21
48.31897962135507
 72
    1
 10
25.46766422530099
 20
48.31897962135507
 11
25.46766422530099
 21
47.71897962135509
 72
    1
 10
25.46766422530099
 20
47.71897962135509
 11
31.46766422530099
 21
47.71897962135509
 72
    1
 10
31.46766422530099
 20
47.71897962135509
 11
31.46766422530099
 21
48.31897962135507
 97
    0
 75
    0
 76
    1
 98
    0
  0
HATCH
  5
62
100
AcDbEntity
  8
Relleno
  6
ByLayer
 62
  256
370
   -1
100
AcDbHatch
 10
0
 20
0
 30
0
210
0
220
0
230
1
  2
SOLID
 70
    1
 71
    0
 91
    1
 92
    0
 93
    4
 72
    1
 10
9.467664225300991
 20
46.91897962135506
 11
3.467664225300991
 21
46.91897962135506
 72
    1
 10
3.467664225300991
 20
46.91897962135506
 11
3.467664225300991
 21
46.31897962135507
 72
    1
 10
3.467664225300991
 20
46.31897962135507
 11
9.467664225300991
 21
46.31897962135507
 72
    1
 10
9.467664225300991
 20
46.31897962135507
 11
9.467664225300991
 21
46.91897962135506
 97
    0
 75
    0
 76
    1
 98
    0
  0
LINE
  5
63
100
AcDbEntity
  8
A4_Hoja
  6
CONTINUOUS
 62
   19
420
2368548
370
   70
100
AcDbLine
 10
-105
 20
-148.5
 11
-105
 21
148.5
  0
LINE
  5
64
100
AcDbEntity
  8
A4_Hoja
  6
CONTINUOUS
 62
   19
420
2368548
370
   70
100
AcDbLine
 10
105
 20
-148.5
 11
105
 21
148.5
  0
LINE
  5
65
100
AcDbEntity
  8
A4_Hoja
  6
CONTINUOUS
 62
   19
420
2368548
370
   70
100
AcDbLine
 10
-105
 20
-148.5
 11
105
 21
-148.5
  0
LINE
  5
66
100
AcDbEntity
  8
A4_Hoja
  6
CONTINUOUS
 62
   19
420
2368548
370
   70
100
AcDbLine
 10
-105
 20
148.5
 11
105
 21
148.5
  0
LINE
  5
67
100
AcDbEntity
  8
A4_Recuadro
  6
CONTINUOUS
 62
  251
420
6710886
370
   70
100
AcDbLine
 10
-80.00000000000001
 20
-138.5
 11
-80
 21
138.5
  0
LINE
  5
68
100
AcDbEntity
  8
A4_Recuadro
  6
CONTINUOUS
 62
  251
420
6710886
370
   70
100
AcDbLine
 10
94.99999999999999
 20
-138.5
 11
95
 21
138.5
  0
LINE
  5
69
100
AcDbEntity
  8
A4_Recuadro
  6
CONTINUOUS
 62
  251
420
6710886
370
   70
100
AcDbLine
 10
-80
 20
138.5
 11
95
 21
138.5
  0
LINE
  5
6A
100
AcDbEntity
  8
A4_Recuadro
  6
CONTINUOUS
 62
  251
420
6710886
370
   70
100
AcDbLine
 10
-80.00000000000001
 20
-138.5
 11
94.99999999999999
 21
-138.5
  0
LINE
  5
6B
100
AcDbEntity
  8
A4_Recuadro
  6
CONTINUOUS
 62
  251
420
6710886
370
   70
100
AcDbLine
 10
-80.00000000000001
 20
-78.5
 11
94.99999999999999
 21
-78.5
  0
LINE
  5
6C
100
AcDbEntity
  8
A4_Divisiones
  6
CONTINUOUS
 62
  251
420
6710886
370
   35
100
AcDbLine
 10
39.99999999999999
 20
-78.5
 11
39.99999999999998
 21
-138.5
  0
LINE
  5
6D
100
AcDbEntity
  8
A4_Divisiones
  6
CONTINUOUS
 62
  251
420
6710886
370
   35
100
AcDbLine
 10
-54.00000000000001
 20
-78.5
 11
-54.00000000000002
 21
-138.5
  0
LINE
  5
6E
100
AcDbEntity
  8
A4_Divisiones
  6
CONTINUOUS
 62
  251
420
6710886
370
   35
100
AcDbLine
 10
-34.00000000000001
 20
-78.5
 11
-34.00000000000002
 21
-138.5
  0
LINE
  5
6F
100
AcDbEntity
  8
A4_Divisiones
  6
CONTINUOUS
 62
  251
420
6710886
370
   35
100
AcDbLine
 10
-21.00000000000001
 20
-78.5
 11
-21.00000000000001
 21
-98.5
  0
LINE
  5
70
100
AcDbEntity
  8
A4_Divisiones
  6
CONTINUOUS
 62
  251
420
6710886
370
   35
100
AcDbLine
 10
-1.000000000000014
 20
-78.5
 11
-1.000000000000016
 21
-98.5
  0
LINE
  5
71
100
AcDbEntity
  8
A4_Divisiones
  6
CONTINUOUS
 62
  251
420
6710886
370
   35
100
AcDbLine
 10
94.99999999999999
 20
-88.5
 11
39.99999999999999
 21
-88.5
  0
LINE
  5
72
100
AcDbEntity
  8
A4_Divisiones
  6
CONTINUOUS
 62
  251
420
6710886
370
   35
100
AcDbLine
 10
94.99999999999999
 20
-98.5
 11
39.99999999999999
 21
-98.5
  0
LINE
  5
73
100
AcDbEntity
  8
A4_Divisiones
  6
CONTINUOUS
 62
  251
420
6710886
370
   35
100
AcDbLine
 10
94.99999999999999
 20
-118.5
 11
39.99999999999999
 21
-118.5
  0
LINE
  5
74
100
AcDbEntity
  8
A4_Divisiones
  6
CONTINUOUS
 62
  251
420
6710886
370
   35
100
AcDbLine
 10
94.99999999999999
 20
-128.5
 11
39.99999999999999
 21
-128.5
  0
LINE
  5
75
100
AcDbEntity
  8
A4_Divisiones
  6
CONTINUOUS
 62
  251
420
6710886
370
   35
100
AcDbLine
 10
39.99999999999999
 20
-98.5
 11
-54.00000000000001
 21
-98.5
  0
LINE
  5
76
100
AcDbEntity
  8
A4_Divisiones
  6
CONTINUOUS
 62
  251
420
6710886
370
   35
100
AcDbLine
 10
-54.00000000000002
 20
-138.5
 11
-54.00000000000002
 21
-128.5
  0
LINE
  5
77
100
AcDbEntity
  8
A4_Divisiones
  6
CONTINUOUS
 62
  251
420
6710886
370
   35
100
AcDbLine
 10
-54.00000000000002
 20
-128.5
 11
-54.00000000000002
 21
-118.5
  0
LINE
  5
78
100
AcDbEntity
  8
A4_Divisiones
  6
CONTINUOUS
 62
  251
420
6710886
370
   35
100
AcDbLine
 10
-54.00000000000001
 20
-98.5
 11
-54.00000000000001
 21
-88.5
  0
LINE
  5
79
100
AcDbEntity
  8
A4_Divisiones
  6
CONTINUOUS
 62
  251
420
6710886
370
   35
100
AcDbLine
 10
-54.00000000000001
 20
-88.5
 11
-54.00000000000001
 21
-78.5
  0
LINE
  5
7A
100
AcDbEntity
  8
A4_Divisiones
  6
CONTINUOUS
 62
  251
420
6710886
370
   35
100
AcDbLine
 10
-54.00000000000001
 20
-88.5
 11
-54.00000000000001
 21
-83.5
  0
LINE
  5
7B
100
AcDbEntity
  8
A4_Divisiones
  6
CONTINUOUS
 62
  251
420
6710886
370
   35
100
AcDbLine
 10
-54.00000000000001
 20
-98.5
 11
-54.00000000000001
 21
-93.5
  0
LINE
  5
7C
100
AcDbEntity
  8
A4_Divisiones
  6
CONTINUOUS
 62
  251
420
6710886
370
   35
100
AcDbLine
 10
-54.00000000000001
 20
-83.5
 11
-1.000000000000014
 21
-83.5
  0
LINE
  5
7D
100
AcDbEntity
  8
A4_Divisiones
  6
CONTINUOUS
 62
  251
420
6710886
370
   35
100
AcDbLine
 10
-54.00000000000001
 20
-88.5
 11
-1.000000000000014
 21
-88.5
  0
LINE
  5
7E
100
AcDbEntity
  8
A4_Divisiones
  6
CONTINUOUS
 62
  251
420
6710886
370
   35
100
AcDbLine
 10
-54.00000000000001
 20
-93.5
 11
-1.000000000000014
 21
-93.5
  0
LINE
  5
7F
100
AcDbEntity
  8
A4_Divisiones
  6
CONTINUOUS
 62
  251
420
6710886
370
   35
100
AcDbLine
 10
-54.00000000000002
 20
-118.5
 11
-34.00000000000002
 21
-118.5
  0
LINE
  5
80
100
AcDbEntity
  8
A4_Divisiones
  6
CONTINUOUS
 62
  251
420
6710886
370
   35
100
AcDbLine
 10
-54.00000000000002
 20
-128.5
 11
-34.00000000000002
 21
-128.5
  0
LINE
  5
81
100
AcDbEntity
  8
A4_Divisiones
  6
CONTINUOUS
 62
  251
420
6710886
370
   35
100
AcDbLine
 10
84.99999999999999
 20
-138.5
 11
84.99999999999999
 21
-128.5
  0
LINE
  5
82
100
AcDbEntity
  8
A4_Auxiliar
  6
CONTINUOUS
 62
    2
370
   -3
100
AcDbLine
 10
-34.00000000000001
 20
-88.5
 11
-21.00000000000001
 21
-83.5
  0
LINE
  5
83
100
AcDbEntity
  8
A4_Auxiliar
  6
CONTINUOUS
 62
    2
370
   -3
100
AcDbLine
 10
-34.00000000000001
 20
-83.5
 11
-21.00000000000001
 21
-88.5
  0
LINE
  5
84
100
AcDbEntity
  8
A4_Auxiliar
  6
CONTINUOUS
 62
    2
370
   -3
100
AcDbLine
 10
-21.00000000000001
 20
-88.5
 11
-1.000000000000014
 21
-83.5
  0
LINE
  5
85
100
AcDbEntity
  8
A4_Auxiliar
  6
CONTINUOUS
 62
    2
370
   -3
100
AcDbLine
 10
-1.000000000000014
 20
-88.5
 11
-21.00000000000001
 21
-83.5
  0
LINE
  5
86
100
AcDbEntity
  8
A4_Auxiliar
  6
CONTINUOUS
 62
    2
370
   -3
100
AcDbLine
 10
-54.00000000000002
 20
-118.5
 11
-34.00000000000001
 21
-98.5
  0
LINE
  5
87
100
AcDbEntity
  8
A4_Auxiliar
  6
CONTINUOUS
 62
    2
370
   -3
100
AcDbLine
 10
-34.00000000000002
 20
-118.5
 11
-54.00000000000001
 21
-98.5
  0
LINE
  5
88
100
AcDbEntity
  8
A4_Auxiliar
  6
CONTINUOUS
 62
    2
370
   -3
100
AcDbLine
 10
-54.00000000000002
 20
-138.5
 11
-34.00000000000002
 21
-128.5
  0
LINE
  5
89
100
AcDbEntity
  8
A4_Auxiliar
  6
CONTINUOUS
 62
    2
370
   -3
100
AcDbLine
 10
-34.00000000000002
 20
-138.5
 11
-54.00000000000002
 21
-128.5
  0
LINE
  5
8A
100
AcDbEntity
  8
A4_Auxiliar
  6
CONTINUOUS
 62
    2
370
   -3
100
AcDbLine
 10
-34.00000000000002
 20
-138.5
 11
39.99999999999999
 21
-98.5
  0
LINE
  5
8B
100
AcDbEntity
  8
A4_Auxiliar
  6
CONTINUOUS
 62
    2
370
   -3
100
AcDbLine
 10
-34.00000000000001
 20
-98.5
 11
39.99999999999998
 21
-138.5
  0
LINE
  5
8C
100
AcDbEntity
  8
A4_Auxiliar
  6
CONTINUOUS
 62
    2
370
   -3
100
AcDbLine
 10
-1.000000000000014
 20
-78.5
 11
39.99999999999999
 21
-98.5
  0
LINE
  5
8D
100
AcDbEntity
  8
A4_Auxiliar
  6
CONTINUOUS
 62
    2
370
   -3
100
AcDbLine
 10
39.99999999999999
 20
-78.5
 11
-1.000000000000016
 21
-98.5
  0
LINE
  5
8E
100
AcDbEntity
  8
A4_Auxiliar
  6
CONTINUOUS
 62
    2
370
   -3
100
AcDbLine
 10
39.99999999999998
 20
-138.5
 11
84.99999999999999
 21
-128.5
  0
LINE
  5
8F
100
AcDbEntity
  8
A4_Auxiliar
  6
CONTINUOUS
 62
    2
370
   -3
100
AcDbLine
 10
39.99999999999999
 20
-128.5
 11
84.99999999999997
 21
-138.5
  0
LINE
  5
90
100
AcDbEntity
  8
Chasis
  6
CONTINUOUS
 62
    7
370
   35
100
AcDbLine
 10
-48.53233577469901
 20
44.91897962135506
 11
3.467664225300991
 21
64.91897962135505
  0
LINE
  5
91
100
AcDbEntity
  8
Chasis
  6
CONTINUOUS
 62
    7
370
   35
100
AcDbLine
 10
3.467664225300991
 20
64.91897962135505
 11
83.46766422530099
 21
52.91897962135506
  0
LINE
  5
92
100
AcDbEntity
  8
Chasis
  6
CONTINUOUS
 62
    7
370
   35
100
AcDbLine
 10
51.25446078970457
 20
38.91897962135506
 11
42.46766422530099
 21
30.13218305695149
  0
LINE
  5
93
100
AcDbEntity
  8
Chasis
  6
CONTINUOUS
 62
    7
370
   35
100
AcDbLine
 10
72.46766422530099
 20
30.13218305695149
 11
63.68086766089741
 21
38.91897962135506
  0
LINE
  5
94
100
AcDbEntity
  8
Chasis
  6
CONTINUOUS
 62
    7
370
   35
100
AcDbLine
 10
63.68086766089741
 20
38.91897962135506
 11
51.25446078970457
 21
38.91897962135506
  0
LINE
  5
95
100
AcDbEntity
  8
Chasis
  6
CONTINUOUS
 62
    7
370
   35
100
AcDbLine
 10
-36.74553921029543
 20
38.91897962135506
 11
-45.53233577469901
 21
30.13218305695149
  0
LINE
  5
96
100
AcDbEntity
  8
Chasis
  6
CONTINUOUS
 62
    7
370
   35
100
AcDbLine
 10
-15.53233577469901
 20
30.13218305695149
 11
-24.31913233910259
 21
38.91897962135506
  0
LINE
  5
97
100
AcDbEntity
  8
Chasis
  6
CONTINUOUS
 62
    7
370
   35
100
AcDbLine
 10
-24.31913233910259
 20
38.91897962135506
 11
-36.74553921029543
 21
38.91897962135506
  0
LINE
  5
98
100
AcDbEntity
  8
Chasis
  6
CONTINUOUS
 62
    7
370
   35
100
AcDbLine
 10
72.46766422530099
 20
30.13218305695149
 11
72.46766422530099
 21
27.16897962135506
  0
LINE
  5
99
100
AcDbEntity
  8
Chasis
  6
CONTINUOUS
 62
    7
370
   35
100
AcDbLine
 10
72.46766422530099
 20
27.16897962135506
 11
79.46766422530099
 21
28.91897962135506
  0
LINE
  5
9A
100
AcDbEntity
  8
Chasis
  6
CONTINUOUS
 62
    7
370
   35
100
AcDbLine
 10
-15.69236849649107
 20
30.29221577874354
 11
-15.53233577469901
 21
30.13218305695149
  0
LINE
  5
9B
100
AcDbEntity
  8
Chasis
  6
CONTINUOUS
 62
    7
370
   35
100
AcDbLine
 10
-62.53233577469901
 20
42.91897962135506
 11
-48.53233577469855
 21
44.91897962135508
  0
LINE
  5
9C
100
AcDbEntity
  8
Chasis
  6
CONTINUOUS
 62
    7
370
   35
100
AcDbLine
 10
-45.53233577469901
 20
30.13218305695149
 11
-45.53233577469901
 21
25.34755104992651
  0
LINE
  5
9D
100
AcDbEntity
  8
Chasis
  6
CONTINUOUS
 62
    7
370
   35
100
AcDbLine
 10
-45.53233577469901
 20
25.34755104992651
 11
-58.53233577469901
 21
30.91897962135505
  0
LINE
  5
9E
100
AcDbEntity
  8
Chasis
  6
CONTINUOUS
 62
    7
370
   35
100
AcDbLine
 10
-15.4242825134624
 20
20.79073072969244
 11
-15.53233577469901
 21
30.13218305695149
  0
LINE
  5
9F
100
AcDbEntity
  8
Chasis
  6
CONTINUOUS
 62
  256
370
   35
100
AcDbLine
 10
42.57571748653759
 20
21.62726697253855
 11
42.46766422530099
 21
30.13218305695149
  0
LINE
  5
A0
100
AcDbEntity
  8
Chasis
  6
CONTINUOUS
 62
  256
370
   35
100
AcDbLine
 10
-58.53233577469901
 20
30.91897962135505
 11
-59.53233577469901
 21
32.91897962135506
  0
LINE
  5
A1
100
AcDbEntity
  8
Chasis
  6
CONTINUOUS
 62
  256
370
   35
100
AcDbLine
 10
-59.53233577469901
 20
32.91897962135506
 11
-62.04957715400934
 21
40.98794513859644
  0
LINE
  5
A2
100
AcDbEntity
  8
Chasis
  6
CONTINUOUS
 62
  256
370
   35
100
AcDbLine
 10
79.46766422530099
 20
28.91897962135506
 11
80.13433089196765
 21
32.91897962135505
  0
LINE
  5
A3
100
AcDbEntity
  8
Chasis
  6
CONTINUOUS
 62
  256
370
   35
100
AcDbLine
 10
80.13433089196765
 20
32.91897962135505
 11
83.46766422530099
 21
52.91897962135506
  0
LINE
  5
A4
100
AcDbEntity
  8
Chasis
  6
CONTINUOUS
 62
  256
370
   35
100
AcDbLine
 10
-15.4242825134624
 20
20.79073072969244
 11
42.57571748653759
 21
21.62726697253855
  0
LINE
  5
A5
100
AcDbEntity
  8
Chasis
  6
CONTINUOUS
 62
  256
370
   35
100
AcDbLine
 10
-62.04957715400934
 20
40.98794513859644
 11
-62.53233577469901
 21
42.91897962135506
  0
LINE
  5
A6
100
AcDbEntity
  8
Ruedas
  6
CONTINUOUS
 62
    7
370
   35
100
AcDbLine
 10
57.46766422530099
 20
24.91897962135506
 11
56.68583274283297
 21
24.5424694232138
  0
LINE
  5
A7
100
AcDbEntity
  8
Ruedas
  6
CONTINUOUS
 62
    7
370
   35
100
AcDbLine
 10
56.68583274283297
 20
24.5424694232138
 11
56.49273631311917
 21
23.69645868739875
  0
LINE
  5
A8
100
AcDbEntity
  8
Ruedas
  6
CONTINUOUS
 62
    7
370
   35
100
AcDbLine
 10
56.49273631311917
 20
23.69645868739875
 11
57.03378048618343
 21
23.01801075345264
  0
LINE
  5
A9
100
AcDbEntity
  8
Ruedas
  6
CONTINUOUS
 62
    7
370
   35
100
AcDbLine
 10
57.03378048618343
 20
23.01801075345264
 11
57.90154796441855
 21
23.01801075345264
  0
LINE
  5
AA
100
AcDbEntity
  8
Ruedas
  6
CONTINUOUS
 62
    7
370
   35
100
AcDbLine
 10
57.90154796441855
 20
23.01801075345264
 11
58.44259213748281
 21
23.69645868739875
  0
LINE
  5
AB
100
AcDbEntity
  8
Ruedas
  6
CONTINUOUS
 62
    7
370
   35
100
AcDbLine
 10
58.44259213748281
 20
23.69645868739875
 11
58.24949570776901
 21
24.5424694232138
  0
LINE
  5
AC
100
AcDbEntity
  8
Ruedas
  6
CONTINUOUS
 62
    7
370
   35
100
AcDbLine
 10
58.24949570776901
 20
24.5424694232138
 11
57.46766422530099
 21
24.91897962135506
  0
LINE
  5
AD
100
AcDbEntity
  8
Ruedas
  6
CONTINUOUS
 62
    7
370
   35
100
AcDbLine
 10
57.46766422530099
 20
26.91897962135506
 11
55.12216977789689
 21
25.78944902693127
  0
LINE
  5
AE
100
AcDbEntity
  8
Ruedas
  6
CONTINUOUS
 62
    7
370
   35
100
AcDbLine
 10
55.12216977789689
 20
25.78944902693127
 11
54.54288048875551
 21
23.25141681948612
  0
LINE
  5
AF
100
AcDbEntity
  8
Ruedas
  6
CONTINUOUS
 62
    7
370
   35
100
AcDbLine
 10
54.54288048875551
 20
23.25141681948612
 11
56.16601300794832
 21
21.2160730176478
  0
LINE
  5
B0
100
AcDbEntity
  8
Ruedas
  6
CONTINUOUS
 62
    7
370
   35
100
AcDbLine
 10
56.16601300794832
 20
21.2160730176478
 11
58.76931544265367
 21
21.2160730176478
  0
LINE
  5
B1
100
AcDbEntity
  8
Ruedas
  6
CONTINUOUS
 62
    7
370
   35
100
AcDbLine
 10
58.76931544265367
 20
21.2160730176478
 11
60.39244796184647
 21
23.25141681948612
  0
LINE
  5
B2
100
AcDbEntity
  8
Ruedas
  6
CONTINUOUS
 62
    7
370
   35
100
AcDbLine
 10
60.39244796184647
 20
23.25141681948612
 11
59.81315867270509
 21
25.78944902693127
  0
LINE
  5
B3
100
AcDbEntity
  8
Ruedas
  6
CONTINUOUS
 62
    7
370
   35
100
AcDbLine
 10
59.81315867270509
 20
25.78944902693127
 11
57.46766422530099
 21
26.91897962135506
  0
LINE
  5
B4
100
AcDbEntity
  8
Ruedas
  6
CONTINUOUS
 62
    7
370
   35
100
AcDbLine
 10
-30.53233577469901
 20
24.91897962135506
 11
-31.31416725716703
 21
24.5424694232138
  0
LINE
  5
B5
100
AcDbEntity
  8
Ruedas
  6
CONTINUOUS
 62
    7
370
   35
100
AcDbLine
 10
-31.31416725716703
 20
24.5424694232138
 11
-31.50726368688083
 21
23.69645868739875
  0
LINE
  5
B6
100
AcDbEntity
  8
Ruedas
  6
CONTINUOUS
 62
    7
370
   35
100
AcDbLine
 10
-31.50726368688083
 20
23.69645868739875
 11
-30.96621951381657
 21
23.01801075345264
  0
LINE
  5
B7
100
AcDbEntity
  8
Ruedas
  6
CONTINUOUS
 62
    7
370
   35
100
AcDbLine
 10
-30.96621951381657
 20
23.01801075345264
 11
-30.09845203558145
 21
23.01801075345264
  0
LINE
  5
B8
100
AcDbEntity
  8
Ruedas
  6
CONTINUOUS
 62
    7
370
   35
100
AcDbLine
 10
-30.09845203558145
 20
23.01801075345264
 11
-29.55740786251719
 21
23.69645868739875
  0
LINE
  5
B9
100
AcDbEntity
  8
Ruedas
  6
CONTINUOUS
 62
    7
370
   35
100
AcDbLine
 10
-29.55740786251719
 20
23.69645868739875
 11
-29.75050429223099
 21
24.5424694232138
  0
LINE
  5
BA
100
AcDbEntity
  8
Ruedas
  6
CONTINUOUS
 62
    7
370
   35
100
AcDbLine
 10
-29.75050429223099
 20
24.5424694232138
 11
-30.53233577469901
 21
24.91897962135506
  0
LINE
  5
BB
100
AcDbEntity
  8
Ruedas
  6
CONTINUOUS
 62
    7
370
   35
100
AcDbLine
 10
-30.53233577469901
 20
26.91897962135506
 11
-32.87783022210311
 21
25.78944902693127
  0
LINE
  5
BC
100
AcDbEntity
  8
Ruedas
  6
CONTINUOUS
 62
    7
370
   35
100
AcDbLine
 10
-32.87783022210311
 20
25.78944902693127
 11
-33.45711951124449
 21
23.25141681948612
  0
LINE
  5
BD
100
AcDbEntity
  8
Ruedas
  6
CONTINUOUS
 62
    7
370
   35
100
AcDbLine
 10
-33.45711951124449
 20
23.25141681948612
 11
-31.83398699205169
 21
21.2160730176478
  0
LINE
  5
BE
100
AcDbEntity
  8
Ruedas
  6
CONTINUOUS
 62
    7
370
   35
100
AcDbLine
 10
-31.83398699205169
 20
21.2160730176478
 11
-29.23068455734634
 21
21.2160730176478
  0
LINE
  5
BF
100
AcDbEntity
  8
Ruedas
  6
CONTINUOUS
 62
    7
370
   35
100
AcDbLine
 10
-29.23068455734634
 20
21.2160730176478
 11
-27.60755203815353
 21
23.25141681948612
  0
LINE
  5
C0
100
AcDbEntity
  8
Ruedas
  6
CONTINUOUS
 62
    7
370
   35
100
AcDbLine
 10
-27.60755203815353
 20
23.25141681948612
 11
-28.18684132729493
 21
25.78944902693127
  0
LINE
  5
C1
100
AcDbEntity
  8
Ruedas
  6
CONTINUOUS
 62
    7
370
   35
100
AcDbLine
 10
-28.18684132729493
 20
25.78944902693127
 11
-30.53233577469901
 21
26.91897962135506
  0
LINE
  5
C2
100
AcDbEntity
  8
Ruedas
  6
CONTINUOUS
 62
    7
370
   35
100
AcDbLine
 10
-30.53233577469901
 20
28.91897962135506
 11
-34.44149318703917
 21
27.03642863064873
  0
LINE
  5
C3
100
AcDbEntity
  8
Ruedas
  6
CONTINUOUS
 62
    7
370
   35
100
AcDbLine
 10
-34.44149318703917
 20
27.03642863064873
 11
-35.40697533560812
 21
22.80637495157349
  0
LINE
  5
C4
100
AcDbEntity
  8
Ruedas
  6
CONTINUOUS
 62
    7
370
   35
100
AcDbLine
 10
-35.40697533560812
 20
22.80637495157349
 11
-32.70175447028682
 21
19.41413528184299
  0
LINE
  5
C5
100
AcDbEntity
  8
Ruedas
  6
CONTINUOUS
 62
    7
370
   35
100
AcDbLine
 10
-32.70175447028682
 20
19.41413528184299
 11
-28.36291707911121
 21
19.41413528184299
  0
LINE
  5
C6
100
AcDbEntity
  8
Ruedas
  6
CONTINUOUS
 62
    7
370
   35
100
AcDbLine
 10
-28.36291707911121
 20
19.41413528184299
 11
-25.65769621378989
 21
22.80637495157349
  0
LINE
  5
C7
100
AcDbEntity
  8
Ruedas
  6
CONTINUOUS
 62
    7
370
   35
100
AcDbLine
 10
-25.65769621378989
 20
22.80637495157349
 11
-26.62317836235885
 21
27.03642863064873
  0
LINE
  5
C8
100
AcDbEntity
  8
Ruedas
  6
CONTINUOUS
 62
    7
370
   35
100
AcDbLine
 10
-26.62317836235885
 20
27.03642863064873
 11
-30.53233577469901
 21
28.91897962135506
  0
LINE
  5
C9
100
AcDbEntity
  8
Ruedas
  6
CONTINUOUS
 62
    7
370
   35
100
AcDbLine
 10
-23.49585243248675
 20
18.30757140462646
 11
-21.75798456506259
 21
25.92166802696191
  0
LINE
  5
CA
100
AcDbEntity
  8
Ruedas
  6
CONTINUOUS
 62
    7
370
   35
100
AcDbLine
 10
-26.627382122641
 20
32.02769943247684
 11
-34.43728942675703
 21
32.02769943247684
  0
LINE
  5
CB
100
AcDbEntity
  8
Ruedas
  6
CONTINUOUS
 62
    7
370
   35
100
AcDbLine
 10
-39.30668698433541
 20
25.92166802696191
 11
-37.56881911691129
 21
18.30757140462646
  0
LINE
  5
CC
100
AcDbEntity
  8
Ruedas
  6
CONTINUOUS
 62
    7
370
   35
100
AcDbLine
 10
-37.56881911691129
 20
18.30757140462646
 11
-30.53233577469901
 21
14.91897962135506
  0
LINE
  5
CD
100
AcDbEntity
  8
Ruedas
  6
CONTINUOUS
 62
    7
370
   35
100
AcDbLine
 10
-38.33280747281972
 20
27.14287430806489
 11
-34.54742308711769
 21
26.57231941411331
  0
LINE
  5
CE
100
AcDbEntity
  8
Ruedas
  6
CONTINUOUS
 62
    7
370
   35
100
AcDbLine
 10
-34.01259177783729
 20
27.24297666329112
 11
-35.41116893827271
 21
30.80649315137383
  0
LINE
  5
CF
100
AcDbEntity
  8
Ruedas
  6
CONTINUOUS
 62
    7
370
   35
100
AcDbLine
 10
-32.87530796593381
 20
32.02769943247684
 11
-30.96123718390088
 21
28.71243158871269
  0
LINE
  5
D0
100
AcDbEntity
  8
Ruedas
  6
CONTINUOUS
 62
    7
370
   35
100
AcDbLine
 10
-30.10343436549714
 20
28.71243158871266
 11
-28.18936358346417
 21
32.02769943247684
  0
LINE
  5
D1
100
AcDbEntity
  8
Ruedas
  6
CONTINUOUS
 62
    7
370
   35
100
AcDbLine
 10
-25.65350261112531
 20
30.80649315137384
 11
-27.05207977156071
 21
27.24297666329112
  0
LINE
  5
D2
100
AcDbEntity
  8
Ruedas
  6
CONTINUOUS
 62
    7
370
   35
100
AcDbLine
 10
-26.51724846228034
 20
26.57231941411331
 11
-22.73186407657827
 21
27.14287430806489
  0
LINE
  5
D3
100
AcDbEntity
  8
Ruedas
  6
CONTINUOUS
 62
    7
370
   35
100
AcDbLine
 10
-22.10555813854743
 20
24.3988487024948
 11
-25.76362611386843
 21
23.27048416810895
  0
LINE
  5
D4
100
AcDbEntity
  8
Ruedas
  6
CONTINUOUS
 62
    7
370
   35
100
AcDbLine
 10
-25.95450519816999
 20
22.4341882572989
 11
-23.14827885900191
 21
19.83039072909354
  0
LINE
  5
D5
100
AcDbEntity
  8
Ruedas
  6
CONTINUOUS
 62
    7
370
   35
100
AcDbLine
 10
-24.90314910092919
 20
17.62985304797219
 11
-28.06610809473113
 21
19.78632197611756
  0
LINE
  5
D6
100
AcDbEntity
  8
Ruedas
  6
CONTINUOUS
 62
    7
370
   35
100
AcDbLine
 10
-28.83896172891183
 20
19.41413528184299
 11
-29.12503910625655
 21
15.59669797800935
  0
LINE
  5
D7
100
AcDbEntity
  8
Ruedas
  6
CONTINUOUS
 62
    7
370
   35
100
AcDbLine
 10
-31.93963244314148
 20
15.59669797800935
 11
-32.22570982048622
 21
19.41413528184299
  0
LINE
  5
D8
100
AcDbEntity
  8
Ruedas
  6
CONTINUOUS
 62
    7
370
   35
100
AcDbLine
 10
-32.99856345466689
 20
19.78632197611756
 11
-36.16152244846883
 21
17.62985304797219
  0
LINE
  5
D9
100
AcDbEntity
  8
Ruedas
  6
CONTINUOUS
 62
    7
370
   35
100
AcDbLine
 10
-37.91639269039611
 20
19.83039072909357
 11
-35.11016635122803
 21
22.4341882572989
  0
LINE
  5
DA
100
AcDbEntity
  8
Ruedas
  6
CONTINUOUS
 62
    7
370
   35
100
AcDbLine
 10
-35.30104543552959
 20
23.27048416810892
 11
-38.95911341085059
 21
24.39884870249482
  0
LINE
  5
DB
100
AcDbEntity
  8
Ruedas
  6
CONTINUOUS
 62
    7
370
   35
100
AcDbLine
 10
55.12469203406619
 20
32.02769943247684
 11
57.03876281609913
 21
28.71243158871266
  0
LINE
  5
DC
100
AcDbEntity
  8
Ruedas
  6
CONTINUOUS
 62
    7
370
   35
100
AcDbLine
 10
57.89656563450283
 20
28.71243158871266
 11
59.81063641653581
 21
32.02769943247684
  0
LINE
  5
DD
100
AcDbEntity
  8
Ruedas
  6
CONTINUOUS
 62
    7
370
   35
100
AcDbLine
 10
62.3464973888747
 20
30.80649315137384
 11
60.94792022843929
 21
27.24297666329112
  0
LINE
  5
DE
100
AcDbEntity
  8
Ruedas
  6
CONTINUOUS
 62
    7
370
   35
100
AcDbLine
 10
61.48275153771967
 20
26.57231941411331
 11
65.26813592342172
 21
27.14287430806489
  0
LINE
  5
DF
100
AcDbEntity
  8
Ruedas
  6
CONTINUOUS
 62
    7
370
   35
100
AcDbLine
 10
65.89444186145256
 20
24.39884870249482
 11
62.23637388613155
 21
23.27048416810895
  0
LINE
  5
E0
100
AcDbEntity
  8
Ruedas
  6
CONTINUOUS
 62
    7
370
   35
100
AcDbLine
 10
62.04549480183003
 20
22.4341882572989
 11
64.85172114099809
 21
19.83039072909354
  0
LINE
  5
E1
100
AcDbEntity
  8
Ruedas
  6
CONTINUOUS
 62
    7
370
   35
100
AcDbLine
 10
63.09685089907079
 20
17.62985304797219
 11
59.93389190526887
 21
19.78632197611756
  0
LINE
  5
E2
100
AcDbEntity
  8
Ruedas
  6
CONTINUOUS
 62
    7
370
   35
100
AcDbLine
 10
59.16103827108817
 20
19.41413528184299
 11
58.87496089374346
 21
15.59669797800935
  0
LINE
  5
E3
100
AcDbEntity
  8
Ruedas
  6
CONTINUOUS
 62
    7
370
   35
100
AcDbLine
 10
56.06036755685853
 20
15.59669797800935
 11
55.77429017951379
 21
19.41413528184299
  0
LINE
  5
E4
100
AcDbEntity
  8
Ruedas
  6
CONTINUOUS
 62
    7
370
   35
100
AcDbLine
 10
55.00143654533309
 20
19.78632197611756
 11
51.83847755153117
 21
17.62985304797219
  0
LINE
  5
E5
100
AcDbEntity
  8
Ruedas
  6
CONTINUOUS
 62
    7
370
   35
100
AcDbLine
 10
50.08360730960389
 20
19.83039072909354
 11
52.88983364877199
 21
22.43418825729889
  0
LINE
  5
E6
100
AcDbEntity
  8
Ruedas
  6
CONTINUOUS
 62
    7
370
   35
100
AcDbLine
 10
52.69895456447041
 20
23.27048416810892
 11
49.04088658914942
 21
24.39884870249482
  0
LINE
  5
E7
100
AcDbEntity
  8
Ruedas
  6
CONTINUOUS
 62
    7
370
   35
100
AcDbLine
 10
49.66719252718028
 20
27.14287430806489
 11
53.45257691288231
 21
26.57231941411331
  0
LINE
  5
E8
100
AcDbEntity
  8
Ruedas
  6
CONTINUOUS
 62
    7
370
   35
100
AcDbLine
 10
53.98740822216271
 20
27.24297666329112
 11
52.58883106172731
 21
30.80649315137383
  0
CIRCLE
  5
E9
100
AcDbEntity
  8
Ruedas
  6
CONTINUOUS
 62
    7
370
   35
100
AcDbCircle
 10
57.46766422530099
 20
23.91897962135506
 40
13.60147050873544
  0
CIRCLE
  5
EA
100
AcDbEntity
  8
Ruedas
  6
CONTINUOUS
 62
    7
370
   35
100
AcDbCircle
 10
-30.53233577469901
 20
23.91897962135506
 40
13.60147050873544
  0
LINE
  5
EB
100
AcDbEntity
  8
Ruedas
  6
CONTINUOUS
 62
  256
370
   35
100
AcDbLine
 10
53.56271057324297
 20
32.02769943247684
 11
61.37261787735901
 21
32.02769943247684
  0
LINE
  5
EC
100
AcDbEntity
  8
Ruedas
  6
CONTINUOUS
 62
  256
370
   35
100
AcDbLine
 10
61.37261787735901
 20
32.02769943247684
 11
66.24201543493741
 21
25.92166802696191
  0
LINE
  5
ED
100
AcDbEntity
  8
Ruedas
  6
CONTINUOUS
 62
  256
370
   35
100
AcDbLine
 10
64.50414756751324
 20
18.30757140462646
 11
66.24201543493741
 21
25.92166802696191
  0
LINE
  5
EE
100
AcDbEntity
  8
Ruedas
  6
CONTINUOUS
 62
  256
370
   35
100
AcDbLine
 10
57.46766422530099
 20
14.91897962135506
 11
64.50414756751324
 21
18.30757140462646
  0
LINE
  5
EF
100
AcDbEntity
  8
Ruedas
  6
CONTINUOUS
 62
  256
370
   35
100
AcDbLine
 10
57.46766422530099
 20
14.91897962135506
 11
50.43118088308871
 21
18.30757140462646
  0
LINE
  5
F0
100
AcDbEntity
  8
Ruedas
  6
CONTINUOUS
 62
  256
370
   35
100
AcDbLine
 10
50.43118088308871
 20
18.30757140462646
 11
48.69331301566459
 21
25.92166802696191
  0
LINE
  5
F1
100
AcDbEntity
  8
Ruedas
  6
CONTINUOUS
 62
  256
370
   35
100
AcDbLine
 10
48.69331301566459
 20
25.92166802696191
 11
53.56271057324297
 21
32.02769943247684
  0
LINE
  5
F2
100
AcDbEntity
  8
Ruedas
  6
CONTINUOUS
 62
  256
370
   35
100
AcDbLine
 10
52.63836725039241
 20
22.74951714712175
 11
53.55850681296084
 21
27.03642863064873
  0
LINE
  5
F3
100
AcDbEntity
  8
Ruedas
  6
CONTINUOUS
 62
  256
370
   35
100
AcDbLine
 10
57.46766422530101
 20
28.91897962135506
 11
53.55850681296084
 21
27.03642863064873
  0
LINE
  5
F4
100
AcDbEntity
  8
Ruedas
  6
CONTINUOUS
 62
  256
370
   35
100
AcDbLine
 10
57.46766422530101
 20
28.91897962135506
 11
61.37682163764114
 21
27.03642863064873
  0
LINE
  5
F5
100
AcDbEntity
  8
Ruedas
  6
CONTINUOUS
 62
  256
370
   35
100
AcDbLine
 10
62.34230378621011
 20
22.80637495157349
 11
59.63708292088877
 21
19.41413528184299
  0
LINE
  5
F6
100
AcDbEntity
  8
Ruedas
  6
CONTINUOUS
 62
  256
370
   35
100
AcDbLine
 10
55.29824552971319
 20
19.41413528184299
 11
52.63836725039241
 21
22.74951714712175
  0
LINE
  5
F7
100
AcDbEntity
  8
Ruedas
  6
CONTINUOUS
 62
  256
370
   35
100
AcDbLine
 10
55.29824552971319
 20
19.41413528184299
 11
59.63708292088877
 21
19.41413528184299
  0
LINE
  5
F8
100
AcDbEntity
  8
Ruedas
  6
CONTINUOUS
 62
  256
370
   35
100
AcDbLine
 10
62.34230378621011
 20
22.80637495157349
 11
61.37682163764114
 21
27.03642863064873
  0
LINE
  5
F9
100
AcDbEntity
  8
Ruedas
  6
CONTINUOUS
 62
  256
370
   35
100
AcDbLine
 10
-39.30668698433541
 20
25.92166802696191
 11
-34.43728942675703
 21
32.02769943247684
  0
LINE
  5
FA
100
AcDbEntity
  8
Ruedas
  6
CONTINUOUS
 62
  256
370
   35
100
AcDbLine
 10
-26.627382122641
 20
32.02769943247684
 11
-21.75798456506259
 21
25.92166802696191
  0
LINE
  5
FB
100
AcDbEntity
  8
Ruedas
  6
CONTINUOUS
 62
  256
370
   35
100
AcDbLine
 10
-23.49585243248675
 20
18.30757140462646
 11
-30.53233577469901
 21
14.91897962135506
  0
LINE
  5
FC
100
AcDbEntity
  8
Relleno
  6
CONTINUOUS
 62
    7
370
   35
100
AcDbLine
 10
-30.53233577469899
 20
48.91897962135506
 11
5.467664225300991
 21
62.91897962135506
  0
LINE
  5
FD
100
AcDbEntity
  8
Relleno
  6
CONTINUOUS
 62
    7
370
   35
100
AcDbLine
 10
5.467664225300991
 20
62.91897962135506
 11
31.46766422530099
 21
58.91897962135506
  0
LINE
  5
FE
100
AcDbEntity
  8
Relleno
  6
CONTINUOUS
 62
    7
370
   35
100
AcDbLine
 10
31.46766422530099
 20
58.91897962135506
 11
32.66322796597115
 21
52.74901378745628
  0
LINE
  5
FF
100
AcDbEntity
  8
Relleno
  6
CONTINUOUS
 62
    7
370
   35
100
AcDbLine
 10
32.66322796597115
 20
52.74901378745628
 11
-30.53233577469899
 21
48.91897962135506
  0
LINE
  5
100
100
AcDbEntity
  8
Relleno
  6
CONTINUOUS
 62
    7
370
   35
100
AcDbLine
 10
-48.53233577469855
 20
44.91897962135508
 11
83.46766422530099
 21
52.91897962135506
  0
LINE
  5
101
100
AcDbEntity
  8
Relleno
  6
CONTINUOUS
 62
    7
370
   35
100
AcDbLine
 10
32.66322796597115
 20
52.74901378745628
 11
33.20867997079435
 21
49.87298057562738
  0
LINE
  5
102
100
AcDbEntity
  8
Relleno
  6
CONTINUOUS
 62
    7
370
   35
100
AcDbLine
 10
12.38016718528205
 20
51.51973737650542
 11
11.43107885944733
 21
48.55312596281847
  0
LINE
  5
103
100
AcDbEntity
  8
Relleno
  6
CONTINUOUS
 62
    7
370
   35
100
AcDbLine
 10
-12.39856072679756
 20
50.01799629092484
 11
-13.53246955845263
 21
47.0401836344609
  0
LINE
  5
104
100
AcDbEntity
  8
Relleno
  6
CONTINUOUS
 62
    7
370
   35
100
AcDbLine
 10
-45.57396633504163
 20
32.91897962135506
 11
-37.47800691295093
 21
40.91897962135506
  0
LINE
  5
105
100
AcDbEntity
  8
Relleno
  6
CONTINUOUS
 62
    7
370
   35
100
AcDbLine
 10
-23.55521301740932
 20
40.88391773860046
 11
-14.11812221232591
 21
31.54639661932458
  0
LINE
  5
106
100
AcDbEntity
  8
Relleno
  6
CONTINUOUS
 62
    7
370
   35
100
AcDbLine
 10
-14.11812221232591
 20
31.54639661932458
 11
-13.53246955845263
 21
30.15531565551669
  0
LINE
  5
107
100
AcDbEntity
  8
Relleno
  6
CONTINUOUS
 62
    7
370
   35
100
AcDbLine
 10
-13.53246955845263
 20
30.15531565551669
 11
-13.46488253401836
 21
24.31226233654722
  0
LINE
  5
108
100
AcDbEntity
  8
Relleno
  6
CONTINUOUS
 62
    7
370
   35
100
AcDbLine
 10
40.49757521087115
 20
31.00400930905856
 11
50.45492769370893
 21
40.91897962135506
  0
LINE
  5
109
100
AcDbEntity
  8
Relleno
  6
CONTINUOUS
 62
    7
370
   35
100
AcDbLine
 10
50.45492769370893
 20
40.91897962135506
 11
64.51327997896929
 21
40.91897962135506
  0
LINE
  5
10A
100
AcDbEntity
  8
Relleno
  6
CONTINUOUS
 62
    7
370
   35
100
AcDbLine
 10
64.51327997896929
 20
40.91897962135506
 11
72.50929478564362
 21
32.91897962135505
  0
LINE
  5
10B
100
AcDbEntity
  8
Relleno
  6
CONTINUOUS
 62
    7
370
   35
100
AcDbLine
 10
-13.53246955845263
 20
30.15531565551669
 11
-13.53246955845263
 21
47.0401836344609
  0
LINE
  5
10C
100
AcDbEntity
  8
Relleno
  6
CONTINUOUS
 62
    7
370
   35
100
AcDbLine
 10
11.43107885944733
 20
48.55312596281847
 11
10.04254908434697
 21
28.65131093180564
  0
LINE
  5
10D
100
AcDbEntity
  8
Relleno
  6
CONTINUOUS
 62
    7
370
   35
100
AcDbLine
 10
10.04254908434697
 20
28.65131093180564
 11
10.03673523322223
 21
24.65122707840608
  0
LINE
  5
10E
100
AcDbEntity
  8
Relleno
  6
CONTINUOUS
 62
    7
370
   35
100
AcDbLine
 10
31.47055184030637
 20
24.96036784417061
 11
31.74990896055499
 21
28.96439702271863
  0
LINE
  5
10F
100
AcDbEntity
  8
Relleno
  6
CONTINUOUS
 62
    7
370
   35
100
AcDbLine
 10
31.74990896055499
 20
28.96439702271863
 11
33.20867997079447
 21
49.87298057562741
  0
LINE
  5
110
100
AcDbEntity
  8
Relleno
  6
CONTINUOUS
 62
    7
370
   35
100
AcDbLine
 10
40.51351264167887
 20
29.09079481749792
 11
-13.51114310836169
 21
28.31159511849458
  0
LINE
  5
111
100
AcDbEntity
  8
Relleno
  6
CONTINUOUS
 62
  256
370
   35
100
AcDbLine
 10
-62.04957715400934
 20
40.98794513859644
 11
-50.24949306222435
 21
42.67367143742287
  0
LINE
  5
112
100
AcDbEntity
  8
Relleno
  6
CONTINUOUS
 62
  256
370
   35
100
AcDbLine
 10
-50.24949306222435
 20
42.67367143742287
 11
-48.53233577469918
 21
44.91897962135498
  0
LINE
  5
113
100
AcDbEntity
  8
Relleno
  6
CONTINUOUS
 62
  256
370
   35
100
AcDbLine
 10
40.54682937909687
 20
25.09127534609006
 11
-13.46488253401836
 21
24.31226233654722
  0
LINE
  5
114
100
AcDbEntity
  8
Relleno
  6
CONTINUOUS
 62
  256
370
   35
100
AcDbLine
 10
40.54682937909687
 20
25.09127534609006
 11
40.49757521087115
 21
31.00400930905856
  0
LINE
  5
115
100
AcDbEntity
  8
Relleno
  6
CONTINUOUS
 62
  256
370
   35
100
AcDbLine
 10
-59.53233577469901
 20
32.91897962135506
 11
-45.57396633504163
 21
32.91897962135506
  0
LINE
  5
116
100
AcDbEntity
  8
Relleno
  6
CONTINUOUS
 62
  256
370
   35
100
AcDbLine
 10
72.50929478564362
 20
32.91897962135505
 11
80.13433089196765
 21
32.91897962135505
  0
LINE
  5
117
100
AcDbEntity
  8
Relleno
  6
CONTINUOUS
 62
  256
370
   35
100
AcDbLine
 10
-23.55521301740932
 20
40.88391773860046
 11
-37.47800691295093
 21
40.91897962135506
  0
MTEXT
  5
118
100
AcDbEntity
  8
A4_Rotulación
  6
CONTINUOUS
 62
  256
370
   35
100
AcDbMText
 10
19.49999999999999
 20
-88.5
 30
0
 40
6
 41
8.666665394653769
 71
    5
 72
    1
  1
SR
  7
standard
210
0
220
0
230
1
 50
0
 73
    2
 44
1
  0
MTEXT
  5
119
100
AcDbEntity
  8
A4_Rotulación
  6
CONTINUOUS
 62
  256
370
   35
100
AcDbMText
 10
-44
 20
-108.5
 30
0
 40
6
 41
6.666666666666666
 71
    5
 72
    1
  1
1:1
  7
standard
210
0
220
0
230
1
 50
0
 73
    2
 44
1
  0
MTEXT
  5
11A
100
AcDbEntity
  8
A4_Rotulación
  6
CONTINUOUS
 62
  256
370
   35
100
AcDbMText
 10
-44
 20
-133.5
 30
0
 40
2
 41
3.111111111111111
 71
    5
 72
    1
  1
A4
  7
standard
210
0
220
0
230
1
 50
0
 73
    2
 44
1
  0
MTEXT
  5
11B
100
AcDbEntity
  8
A4_Rotulación
  6
CONTINUOUS
 62
  256
370
   35
100
AcDbMText
 10
-11.00000000000008
 20
-85.99999999999999
 30
0
 40
2
 41
5.555555555555648
 71
    5
 72
    1
  1
León
  7
standard
210
0
220
0
230
1
 50
0
 73
    2
 44
1
  0
MTEXT
  5
11C
100
AcDbEntity
  8
A4_Rotulación
  6
CONTINUOUS
 62
  256
370
   35
100
AcDbMText
 10
-27.50000000000004
 20
-86
 30
0
 40
2
 41
12.00000000000012
 71
    5
 72
    1
  1
22/03/24
  7
standard
210
0
220
0
230
1
 50
0
 73
    2
 44
1
  0
MTEXT
  5
11D
100
AcDbEntity
  8
A4_Rotulación
  6
CONTINUOUS
 62
  256
370
   35
100
AcDbMText
 10
2.999999999999992
 20
-118.5
 30
0
 40
6
 41
42.50000000000028
 71
    5
 72
    1
  1
Práctico 2\PEjercicio 11
  7
standard
210
0
220
0
230
1
 50
0
 73
    2
 44
1
  0
MTEXT
  5
11E
100
AcDbEntity
  8
A4_Etiquetas
  6
CONTINUOUS
 62
    0
370
   -1
100
AcDbMText
 10
-78.65271040222547
 20
-79.898968137472
 30
0
 40
2
 41
14.66666769524134
 71
    1
 72
    1
  1
Tolerancias\PGenerales
  7
standard
210
0
220
0
230
1
 50
0
 73
    2
 44
1
  0
MTEXT
  5
11F
100
AcDbEntity
  8
A4_Etiquetas
  6
CONTINUOUS
 62
    0
370
   -1
100
AcDbMText
 10
-52.75824412543645
 20
-79.898968137472
 30
0
 40
2
 41
11.33333333333333
 71
    1
 72
    1
  1
Proyectó
  7
standard
210
0
220
0
230
1
 50
0
 73
    2
 44
1
  0
MTEXT
  5
120
100
AcDbEntity
  8
A4_Etiquetas
  6
CONTINUOUS
 62
    0
370
   -1
100
AcDbMText
 10
-52.75824412543645
 20
-84.74552599676406
 30
0
 40
2
 41
7.555555555555866
 71
    1
 72
    1
  1
Dibujó
  7
standard
210
0
220
0
230
1
 50
0
 73
    2
 44
1
  0
MTEXT
  5
121
100
AcDbEntity
  8
A4_Etiquetas
  6
CONTINUOUS
 62
    0
370
   -1
100
AcDbMText
 10
-52.75824412543645
 20
-89.73055693775018
 30
0
 40
2
 41
8.000001028574394
 71
    1
 72
    1
  1
Revisó
  7
standard
210
0
220
0
230
1
 50
0
 73
    2
 44
1
  0
MTEXT
  5
122
100
AcDbEntity
  8
A4_Etiquetas
  6
CONTINUOUS
 62
    0
370
   -1
100
AcDbMText
 10
-52.82748066628348
 20
-94.64635133788927
 30
0
 40
2
 41
8.888888888888982
 71
    1
 72
    1
  1
Aprobó
  7
standard
210
0
220
0
230
1
 50
0
 73
    2
 44
1
  0
MTEXT
  5
123
100
AcDbEntity
  8
A4_Etiquetas
  6
CONTINUOUS
 62
    0
370
   -1
100
AcDbMText
 10
-52.82748066628348
 20
-99.83909190141648
 30
0
 40
2
 41
7.77777880635236
 71
    1
 72
    1
  1
Escala
  7
standard
210
0
220
0
230
1
 50
0
 73
    2
 44
1
  0
MTEXT
  5
124
100
AcDbEntity
  8
A4_Etiquetas
  6
CONTINUOUS
 62
    0
370
   -1
100
AcDbMText
 10
-52.75824412543645
 20
-129.7492775473332
 30
0
 40
2
 41
10.22222222222241
 71
    1
 72
    1
  1
Formato
  7
standard
210
0
220
0
230
1
 50
0
 73
    2
 44
1
  0
MTEXT
  5
125
100
AcDbEntity
  8
A4_Etiquetas
  6
CONTINUOUS
 62
    0
370
   -1
100
AcDbMText
 10
-32.74888382064493
 20
-99.63138227887539
 30
0
 40
2
 41
16.66666666666726
 71
    1
 72
    1
  1
Denominación
  7
standard
210
0
220
0
230
1
 50
0
 73
    2
 44
1
  0
MTEXT
  5
126
100
AcDbEntity
  8
A4_Etiquetas
  6
CONTINUOUS
 62
    0
370
   -1
100
AcDbMText
 10
0.2769461633881178
 20
-79.898968137472
 30
0
 40
2
 41
8.444444444444661
 71
    1
 72
    1
  1
Cliente
  7
standard
210
0
220
0
230
1
 50
0
 73
    2
 44
1
  0
MTEXT
  5
127
100
AcDbEntity
  8
A4_Etiquetas
  6
CONTINUOUS
 62
    0
370
   -1
100
AcDbMText
 10
41.26497834482956
 20
-119.6407425836669
 30
0
 40
2
 41
21.44444444444472
 71
    1
 72
    1
  1
Nº plano cliente
  7
standard
210
0
220
0
230
1
 50
0
 73
    2
 44
1
  0
MTEXT
  5
128
100
AcDbEntity
  8
A4_Etiquetas
  6
CONTINUOUS
 62
    0
370
   -1
100
AcDbMText
 10
41.33421488567659
 20
-129.7492775473332
 30
0
 40
2
 41
11.05555555555574
 71
    1
 72
    1
  1
Nº plano 
  7
standard
210
0
220
0
230
1
 50
0
 73
    2
 44
1
  0
MTEXT
  5
129
100
AcDbEntity
  8
A4_Etiquetas
  6
CONTINUOUS
 62
    0
370
   -1
100
AcDbMText
 10
86.33796643624574
 20
-129.8185140881802
 30
0
 40
2
 41
4.888888888889075
 71
    1
 72
    1
  1
Pag.
  7
standard
210
0
220
0
230
1
 50
0
 73
    2
 44
1
  0
MTEXT
  5
12A
100
AcDbEntity
  8
A4_Rotulación
  6
ByLayer
 62
  256
370
   -1
100
AcDbMText
 10
62.49999999999999
 20
-133.5
 30
0
 40
6
 41
3.333333333333333
 71
    5
 72
    1
  1
4
  7
standard
210
0
220
0
230
1
 50
0
 73
    2
 44
1
  0
ENDSEC
  0
SECTION
  2
OBJECTS
  0
DICTIONARY
  5
C
330
0
100
AcDbDictionary
281
    1
  3
ACAD_GROUP
350
D
  0
DICTIONARY
  5
D
330
C
100
AcDbDictionary
281
    1
  0
PLOTSETTINGS
  5
12B
100
AcDbPlotSettings
  6
1x1
 40
0
 41
0
 42
0
 43
0
  0
ENDSEC
  0
EOF
