999
dxfrw 0.6.3
  0
SECTION
  2
HEADER
  9
$ACADVER
  1
AC1021
  9
$DWGCODEPAGE
  3
ANSI_1252
  9
$INSBASE
 10
0
 20
0
 30
0
  9
$EXTMIN
 10
10000000000
 20
10000000000
 30
0
  9
$EXTMAX
 10
-10000000000
 20
-10000000000
 30
0
  9
$LIMMIN
 10
0
 20
0
  9
$LIMMAX
 10
420
 20
297
  9
$ORTHOMODE
 70
    0
  9
$REGENMODE
 70
    1
  9
$FILLMODE
 70
    1
  9
$QTEXTMODE
 70
    0
  9
$MIRRTEXT
 70
    0
  9
$LTSCALE
 40
1
  9
$ATTMODE
 70
    0
  9
$TEXTSIZE
 40
2.5
  9
$TRACEWID
 40
15.68
  9
$TEXTSTYLE
  7
STANDARD
  9
$CLAYER
  8
A4_Rotulación
  9
$CELTYPE
  6
BYLAYER
  9
$CECOLOR
 62
  256
  9
$CELTSCALE
 40
1
  9
$DISPSILH
 70
    0
  9
$DIMSCALE
 40
2.5
  9
$DIMASZ
 40
1
  9
$DIMEXO
 40
0.625
  9
$DIMDLI
 40
3.75
  9
$DIMRND
 40
0
  9
$DIMDLE
 40
0
  9
$DIMEXE
 40
1.25
  9
$DIMTP
 40
0
  9
$DIMTM
 40
0
  9
$DIMTXT
 40
1
  9
$DIMCEN
 40
2.5
  9
$DIMTSZ
 40
0
  9
$DIMTOL
 70
    0
  9
$DIMLIM
 70
    0
  9
$DIMTIH
 70
    0
  9
$DIMTOH
 70
    0
  9
$DIMSE1
 70
    0
  9
$DIMSE2
 70
    0
  9
$DIMTAD
 70
    1
  9
$DIMZIN
 70
    8
  9
$DIMBLK
  1

  9
$DIMASO
 70
    1
  9
$DIMSHO
 70
    1
  9
$DIMPOST
  1

  9
$DIMAPOST
  1

  9
$DIMALT
 70
    0
  9
$DIMALTD
 70
    3
  9
$DIMALTF
 40
0.03937
  9
$DIMLFAC
 40
1
  9
$DIMTOFL
 70
    1
  9
$DIMTVP
 40
0
  9
$DIMTIX
 70
    0
  9
$DIMSOXD
 70
    0
  9
$DIMSAH
 70
    0
  9
$DIMBLK1
  1

  9
$DIMBLK2
  1

  9
$DIMSTYLE
  2
STANDARD
  9
$DIMCLRD
 70
    0
  9
$DIMCLRE
 70
    0
  9
$DIMCLRT
 70
    0
  9
$DIMTFAC
 40
1
  9
$DIMGAP
 40
0.625
  9
$DIMJUST
 70
    0
  9
$DIMSD1
 70
    0
  9
$DIMSD2
 70
    0
  9
$DIMTOLJ
 70
    0
  9
$DIMTZIN
 70
    8
  9
$DIMALTZ
 70
    0
  9
$DIMALTTZ
 70
    0
  9
$DIMUPT
 70
    0
  9
$DIMDEC
 70
    2
  9
$DIMTDEC
 70
    2
  9
$DIMALTU
 70
    2
  9
$DIMALTTD
 70
    3
  9
$DIMTXSTY
  7
standard
  9
$DIMAUNIT
 70
    0
  9
$DIMADEC
 70
    0
  9
$DIMALTRND
 40
0
  9
$DIMAZIN
 70
    0
  9
$DIMDSEP
 70
    0
  9
$DIMATFIT
 70
    3
  9
$DIMFRAC
 70
    0
  9
$DIMLDRBLK
  1
STANDARD
  9
$DIMLUNIT
 70
    2
  9
$DIMLWD
 70
   -2
  9
$DIMLWE
 70
   -2
  9
$DIMTMOVE
 70
    0
  9
$DIMFXL
 40
1
  9
$DIMFXLON
 70
    0
  9
$DIMJOGANG
 40
0.7854
  9
$DIMTFILL
 70
    0
  9
$DIMTFILLCLR
 70
    0
  9
$DIMARCSYM
 70
    0
  9
$DIMLTYPE
  6

  9
$DIMLTEX1
  6

  9
$DIMLTEX2
  6

  9
$LUNITS
 70
    2
  9
$LUPREC
 70
    4
  9
$SKETCHINC
 40
1
  9
$FILLETRAD
 40
0
  9
$AUNITS
 70
    0
  9
$AUPREC
 70
    2
  9
$MENU
  1
.
  9
$ELEVATION
 40
0
  9
$PELEVATION
 40
0
  9
$THICKNESS
 40
0
  9
$LIMCHECK
 70
    0
  9
$CHAMFERA
 40
0
  9
$CHAMFERB
 40
0
  9
$CHAMFERC
 40
0
  9
$CHAMFERD
 40
0
  9
$SKPOLY
 70
    0
  9
$USRTIMER
 70
    1
  9
$ANGBASE
 50
0
  9
$ANGDIR
 70
    0
  9
$PDMODE
 70
   34
  9
$PDSIZE
 40
0
  9
$PLINEWID
 40
0
  9
$SPLFRAME
 70
    0
  9
$SPLINETYPE
 70
    2
  9
$SPLINESEGS
 70
    8
  9
$HANDSEED
  5
20000
  9
$SURFTAB1
 70
    6
  9
$SURFTAB2
 70
    6
  9
$SURFTYPE
 70
    6
  9
$SURFU
 70
    6
  9
$SURFV
 70
    6
  9
$UCSBASE
  2

  9
$UCSNAME
  2

  9
$UCSORG
 10
0
 20
0
 30
0
  9
$UCSXDIR
 10
1
 20
0
 30
0
  9
$UCSYDIR
 10
0
 20
1
 30
0
  9
$UCSORTHOREF
  2

  9
$UCSORTHOVIEW
 70
    0
  9
$UCSORGTOP
 10
0
 20
0
 30
0
  9
$UCSORGBOTTOM
 10
0
 20
0
 30
0
  9
$UCSORGLEFT
 10
0
 20
0
 30
0
  9
$UCSORGRIGHT
 10
0
 20
0
 30
0
  9
$UCSORGFRONT
 10
0
 20
0
 30
0
  9
$UCSORGBACK
 10
0
 20
0
 30
0
  9
$PUCSBASE
  2

  9
$PUCSNAME
  2

  9
$PUCSORG
 10
0
 20
0
 30
0
  9
$PUCSXDIR
 10
1
 20
0
 30
0
  9
$PUCSYDIR
 10
0
 20
1
 30
0
  9
$PUCSORTHOREF
  2

  9
$PUCSORTHOVIEW
 70
    0
  9
$PUCSORGTOP
 10
0
 20
0
 30
0
  9
$PUCSORGBOTTOM
 10
0
 20
0
 30
0
  9
$PUCSORGLEFT
 10
0
 20
0
 30
0
  9
$PUCSORGRIGHT
 10
0
 20
0
 30
0
  9
$PUCSORGFRONT
 10
0
 20
0
 30
0
  9
$PUCSORGBACK
 10
0
 20
0
 30
0
  9
$USERI1
 70
    0
  9
$USERI2
 70
    0
  9
$USERI3
 70
    0
  9
$USERI4
 70
    0
  9
$USERI5
 70
    0
  9
$USERR1
 40
0
  9
$USERR2
 40
0
  9
$USERR3
 40
0
  9
$USERR4
 40
0
  9
$USERR5
 40
0
  9
$WORLDVIEW
 70
    1
  9
$SHADEDGE
 70
    3
  9
$SHADEDIF
 70
   70
  9
$TILEMODE
 70
    1
  9
$MAXACTVP
 70
   64
  9
$PINSBASE
 10
105
 20
148.5
 30
0
  9
$PLIMCHECK
 70
    0
  9
$PEXTMIN
 10
0
 20
0
 30
0
  9
$PEXTMAX
 10
0
 20
0
 30
0
  9
$GRIDMODE
 70
    1
  9
$SNAPSTYLE
 70
    0
  9
$GRIDUNIT
 10
0
 20
0
  9
$PLIMMIN
 10
0
 20
0
  9
$PLIMMAX
 10
210
 20
297
  9
$UNITMODE
 70
    0
  9
$VISRETAIN
 70
    1
  9
$PLINEGEN
 70
    0
  9
$PSLTSCALE
 70
    1
  9
$TREEDEPTH
 70
 3020
  9
$CMLSTYLE
  2
Standard
  9
$CMLJUST
 70
    0
  9
$CMLSCALE
 40
20
  9
$PROXYGRAPHICS
 70
    1
  9
$MEASUREMENT
 70
    1
  9
$CELWEIGHT
370
   -1
  9
$ENDCAPS
280
    0
  9
$JOINSTYLE
280
    0
  9
$LWDISPLAY
290
    0
  9
$INSUNITS
 70
    0
  9
$HYPERLINKBASE
  1

  9
$STYLESHEET
  1

  9
$XEDIT
290
    1
  9
$CEPSNTYPE
380
    0
  9
$PSTYLEMODE
290
    1
  9
$EXTNAMES
290
    1
  9
$PSVPSCALE
 40
1
  9
$OLESTARTUP
290
    0
  9
$SORTENTS
280
  127
  9
$INDEXCTL
280
    0
  9
$HIDETEXT
280
    1
  9
$XCLIPFRAME
290
    0
  9
$HALOGAP
280
    0
  9
$OBSCOLOR
 70
  257
  9
$OBSLTYPE
280
    0
  9
$INTERSECTIONDISPLAY
280
    0
  9
$INTERSECTIONCOLOR
 70
  257
  9
$DIMASSOC
280
    1
  9
$PROJECTNAME
  1

  9
$CAMERADISPLAY
290
    0
  9
$LENSLENGTH
 40
50
  9
$CAMERAHEIGHT
 40
0
  9
$STEPSPERSEC
 40
2
  9
$STEPSIZE
 40
50
  9
$3DDWFPREC
 40
2
  9
$PSOLWIDTH
 40
5
  9
$PSOLHEIGHT
 40
80
  9
$LOFTANG1
 40
1.570796326794897
  9
$LOFTANG2
 40
1.570796326794897
  9
$LOFTMAG1
 40
0
  9
$LOFTMAG2
 40
0
  9
$LOFTPARAM
 70
    7
  9
$LOFTNORMALS
280
    1
  9
$LATITUDE
 40
1
  9
$LONGITUDE
 40
1
  9
$NORTHDIRECTION
 40
0
  9
$TIMEZONE
 70
-8000
  9
$LIGHTGLYPHDISPLAY
280
    1
  9
$TILEMODELIGHTSYNCH
280
    1
  9
$SOLIDHIST
280
    1
  9
$SHOWHIST
280
    1
  9
$DWFFRAME
280
    2
  9
$DGNFRAME
280
    0
  9
$REALWORLDSCALE
290
    1
  9
$INTERFERECOLOR
 62
    1
  9
$CSHADOW
280
    0
  9
$SHADOWPLANELOCATION
 40
0
  0
ENDSEC
  0
SECTION
  2
CLASSES
  0
ENDSEC
  0
SECTION
  2
TABLES
  0
TABLE
  2
VPORT
  5
8
330
0
100
AcDbSymbolTable
 70
    1
  0
VPORT
  5
31
330
2
100
AcDbSymbolTableRecord
100
AcDbViewportTableRecord
  2
*ACTIVE
 70
    0
 10
0
 20
0
 11
1
 21
1
 12
104.4326361198954
 22
50.99162829734762
 13
0
 23
0
 14
10
 24
10
 15
10
 25
10
 16
0
 26
0
 36
1
 17
0
 27
0
 37
0
 40
243.6019273244467
 41
1.786106032906764
 42
50
 43
0
 44
0
 50
0
 51
0
 71
    0
 72
  100
 73
    1
 74
    3
 75
    0
 76
    1
 77
    0
 78
    0
281
    0
 65
    1
110
0
120
0
130
0
111
1
121
0
131
0
112
0
122
1
132
0
 79
    0
146
0
348
10020
 60
    7
 61
    5
292
1
282
    1
141
0
142
0
 63
  250
421
3358443
  0
ENDTAB
  0
TABLE
  2
LTYPE
  5
5
330
0
100
AcDbSymbolTable
 70
    4
  0
LTYPE
  5
14
330
5
100
AcDbSymbolTableRecord
100
AcDbLinetypeTableRecord
  2
ByBlock
 70
    0
  3

 72
   65
 73
    0
 40
0
  0
LTYPE
  5
15
330
5
100
AcDbSymbolTableRecord
100
AcDbLinetypeTableRecord
  2
ByLayer
 70
    0
  3

 72
   65
 73
    0
 40
0
  0
LTYPE
  5
16
330
5
100
AcDbSymbolTableRecord
100
AcDbLinetypeTableRecord
  2
Continuous
 70
    0
  3
Solid line
 72
   65
 73
    0
 40
0
  0
LTYPE
  5
32
330
5
100
AcDbSymbolTableRecord
100
AcDbLinetypeTableRecord
  2
DOT
 70
    0
  3
Dot . . . . . . . . . . . . . . . . . . . . . .
 72
   65
 73
    2
 40
6.35
 49
0
 74
    0
 49
-6.35
 74
    0
  0
LTYPE
  5
33
330
5
100
AcDbSymbolTableRecord
100
AcDbLinetypeTableRecord
  2
DOTTINY
 70
    0
  3
Dot (.15x) .....................................
 72
   65
 73
    2
 40
0.9525
 49
0
 74
    0
 49
-0.9525
 74
    0
  0
LTYPE
  5
34
330
5
100
AcDbSymbolTableRecord
100
AcDbLinetypeTableRecord
  2
DOT2
 70
    0
  3
Dot (.5x) .....................................
 72
   65
 73
    2
 40
3.175
 49
0
 74
    0
 49
-3.175
 74
    0
  0
LTYPE
  5
35
330
5
100
AcDbSymbolTableRecord
100
AcDbLinetypeTableRecord
  2
DOTX2
 70
    0
  3
Dot (2x) .  .  .  .  .  .  .  .  .  .  .  .  .
 72
   65
 73
    2
 40
12.7
 49
0
 74
    0
 49
-12.7
 74
    0
  0
LTYPE
  5
36
330
5
100
AcDbSymbolTableRecord
100
AcDbLinetypeTableRecord
  2
DASHED
 70
    0
  3
Dashed _ _ _ _ _ _ _ _ _ _ _ _ _ _ _ _ _
 72
   65
 73
    2
 40
19.05
 49
12.7
 74
    0
 49
-6.35
 74
    0
  0
LTYPE
  5
37
330
5
100
AcDbSymbolTableRecord
100
AcDbLinetypeTableRecord
  2
DASHEDTINY
 70
    0
  3
Dashed (.15x) _ _ _ _ _ _ _ _ _ _ _ _ _ _ _ _ _
 72
   65
 73
    2
 40
2.8575
 49
1.905
 74
    0
 49
-0.9525
 74
    0
  0
LTYPE
  5
38
330
5
100
AcDbSymbolTableRecord
100
AcDbLinetypeTableRecord
  2
DASHED2
 70
    0
  3
Dashed (.5x) _ _ _ _ _ _ _ _ _ _ _ _ _ _ _ _ _
 72
   65
 73
    2
 40
9.524999999999999
 49
6.35
 74
    0
 49
-3.175
 74
    0
  0
LTYPE
  5
39
330
5
100
AcDbSymbolTableRecord
100
AcDbLinetypeTableRecord
  2
DASHEDX2
 70
    0
  3
Dashed (2x) ____  ____  ____  ____  ____  ___
 72
   65
 73
    2
 40
38.09999999999999
 49
25.4
 74
    0
 49
-12.7
 74
    0
  0
LTYPE
  5
3A
330
5
100
AcDbSymbolTableRecord
100
AcDbLinetypeTableRecord
  2
DASHDOT
 70
    0
  3
Dash dot __ . __ . __ . __ . __ . __ . __ . __
 72
   65
 73
    4
 40
25.4
 49
12.7
 74
    0
 49
-6.35
 74
    0
 49
0
 74
    0
 49
-6.35
 74
    0
  0
LTYPE
  5
3B
330
5
100
AcDbSymbolTableRecord
100
AcDbLinetypeTableRecord
  2
DASHDOTTINY
 70
    0
  3
Dash dot (.15x) _._._._._._._._._._._._._._._.
 72
   65
 73
    4
 40
3.81
 49
1.905
 74
    0
 49
-0.9525
 74
    0
 49
0
 74
    0
 49
-0.9525
 74
    0
  0
LTYPE
  5
3C
330
5
100
AcDbSymbolTableRecord
100
AcDbLinetypeTableRecord
  2
DASHDOT2
 70
    0
  3
Dash dot (.5x) _._._._._._._._._._._._._._._.
 72
   65
 73
    4
 40
12.7
 49
6.35
 74
    0
 49
-3.175
 74
    0
 49
0
 74
    0
 49
-3.175
 74
    0
  0
LTYPE
  5
3D
330
5
100
AcDbSymbolTableRecord
100
AcDbLinetypeTableRecord
  2
DASHDOTX2
 70
    0
  3
Dash dot (2x) ____  .  ____  .  ____  .  ___
 72
   65
 73
    4
 40
50.8
 49
25.4
 74
    0
 49
-12.7
 74
    0
 49
0
 74
    0
 49
-12.7
 74
    0
  0
LTYPE
  5
3E
330
5
100
AcDbSymbolTableRecord
100
AcDbLinetypeTableRecord
  2
DIVIDE
 70
    0
  3
Divide ____ . . ____ . . ____ . . ____ . . ____
 72
   65
 73
    6
 40
31.75
 49
12.7
 74
    0
 49
-6.35
 74
    0
 49
0
 74
    0
 49
-6.35
 74
    0
 49
0
 74
    0
 49
-6.35
 74
    0
  0
LTYPE
  5
3F
330
5
100
AcDbSymbolTableRecord
100
AcDbLinetypeTableRecord
  2
DIVIDETINY
 70
    0
  3
Divide (.15x) __..__..__..__..__..__..__..__.._
 72
   65
 73
    6
 40
4.7625
 49
1.905
 74
    0
 49
-0.9525
 74
    0
 49
0
 74
    0
 49
-0.9525
 74
    0
 49
0
 74
    0
 49
-0.9525
 74
    0
  0
LTYPE
  5
40
330
5
100
AcDbSymbolTableRecord
100
AcDbLinetypeTableRecord
  2
DIVIDE2
 70
    0
  3
Divide (.5x) __..__..__..__..__..__..__..__.._
 72
   65
 73
    6
 40
15.875
 49
6.35
 74
    0
 49
-3.175
 74
    0
 49
0
 74
    0
 49
-3.175
 74
    0
 49
0
 74
    0
 49
-3.175
 74
    0
  0
LTYPE
  5
41
330
5
100
AcDbSymbolTableRecord
100
AcDbLinetypeTableRecord
  2
DIVIDEX2
 70
    0
  3
Divide (2x) ________  .  .  ________  .  .  _
 72
   65
 73
    6
 40
63.5
 49
25.4
 74
    0
 49
-12.7
 74
    0
 49
0
 74
    0
 49
-12.7
 74
    0
 49
0
 74
    0
 49
-12.7
 74
    0
  0
LTYPE
  5
42
330
5
100
AcDbSymbolTableRecord
100
AcDbLinetypeTableRecord
  2
BORDER
 70
    0
  3
Border __ __ . __ __ . __ __ . __ __ . __ __ .
 72
   65
 73
    6
 40
44.45
 49
12.7
 74
    0
 49
-6.35
 74
    0
 49
12.7
 74
    0
 49
-6.35
 74
    0
 49
0
 74
    0
 49
-6.35
 74
    0
  0
LTYPE
  5
43
330
5
100
AcDbSymbolTableRecord
100
AcDbLinetypeTableRecord
  2
BORDERTINY
 70
    0
  3
Border (.15x) __.__.__.__.__.__.__.__.__.__.__.
 72
   65
 73
    6
 40
6.6675
 49
1.905
 74
    0
 49
-0.9525
 74
    0
 49
1.905
 74
    0
 49
-0.9525
 74
    0
 49
0
 74
    0
 49
-0.9525
 74
    0
  0
LTYPE
  5
44
330
5
100
AcDbSymbolTableRecord
100
AcDbLinetypeTableRecord
  2
BORDER2
 70
    0
  3
Border (.5x) __.__.__.__.__.__.__.__.__.__.__.
 72
   65
 73
    6
 40
22.225
 49
6.35
 74
    0
 49
-3.175
 74
    0
 49
6.35
 74
    0
 49
-3.175
 74
    0
 49
0
 74
    0
 49
-3.175
 74
    0
  0
LTYPE
  5
45
330
5
100
AcDbSymbolTableRecord
100
AcDbLinetypeTableRecord
  2
BORDERX2
 70
    0
  3
Border (2x) ____  ____  .  ____  ____  .  ___
 72
   65
 73
    6
 40
88.89999999999999
 49
25.4
 74
    0
 49
-12.7
 74
    0
 49
25.4
 74
    0
 49
-12.7
 74
    0
 49
0
 74
    0
 49
-12.7
 74
    0
  0
LTYPE
  5
46
330
5
100
AcDbSymbolTableRecord
100
AcDbLinetypeTableRecord
  2
CENTER
 70
    0
  3
Center ____ _ ____ _ ____ _ ____ _ ____ _ ____
 72
   65
 73
    4
 40
50.8
 49
31.75
 74
    0
 49
-6.35
 74
    0
 49
6.35
 74
    0
 49
-6.35
 74
    0
  0
LTYPE
  5
47
330
5
100
AcDbSymbolTableRecord
100
AcDbLinetypeTableRecord
  2
CENTERTINY
 70
    0
  3
Center (.15x) ___ _ ___ _ ___ _ ___ _ ___ _ ___
 72
   65
 73
    4
 40
7.62
 49
4.7625
 74
    0
 49
-0.9525
 74
    0
 49
0.9525
 74
    0
 49
-0.9525
 74
    0
  0
LTYPE
  5
48
330
5
100
AcDbSymbolTableRecord
100
AcDbLinetypeTableRecord
  2
CENTER2
 70
    0
  3
Center (.5x) ___ _ ___ _ ___ _ ___ _ ___ _ ___
 72
   65
 73
    4
 40
28.575
 49
19.05
 74
    0
 49
-3.175
 74
    0
 49
3.175
 74
    0
 49
-3.175
 74
    0
  0
LTYPE
  5
49
330
5
100
AcDbSymbolTableRecord
100
AcDbLinetypeTableRecord
  2
CENTERX2
 70
    0
  3
Center (2x) ________  __  ________  __  _____
 72
   65
 73
    4
 40
101.6
 49
63.5
 74
    0
 49
-12.7
 74
    0
 49
12.7
 74
    0
 49
-12.7
 74
    0
  0
ENDTAB
  0
TABLE
  2
LAYER
  5
2
330
0
100
AcDbSymbolTable
 70
    1
  0
LAYER
  5
10
330
2
100
AcDbSymbolTableRecord
100
AcDbLayerTableRecord
  2
0
 70
    0
 62
    7
  6
CONTINUOUS
370
    0
390
F
  0
LAYER
  5
4A
330
2
100
AcDbSymbolTableRecord
100
AcDbLayerTableRecord
  2
A4_Auxiliar
 70
    1
 62
    2
  6
CONTINUOUS
370
   -3
390
F
  0
LAYER
  5
4B
330
2
100
AcDbSymbolTableRecord
100
AcDbLayerTableRecord
  2
A4_Divisiones
 70
    0
 62
    9
  6
CONTINUOUS
370
   35
390
F
  0
LAYER
  5
4C
330
2
100
AcDbSymbolTableRecord
100
AcDbLayerTableRecord
  2
A4_Etiquetas
 70
    0
 62
    7
  6
CONTINUOUS
370
    5
390
F
  0
LAYER
  5
4D
330
2
100
AcDbSymbolTableRecord
100
AcDbLayerTableRecord
  2
A4_Hoja
 70
    0
 62
    8
  6
CONTINUOUS
370
   70
390
F
  0
LAYER
  5
4E
330
2
100
AcDbSymbolTableRecord
100
AcDbLayerTableRecord
  2
A4_Recuadro
 70
    0
 62
    9
  6
CONTINUOUS
370
   70
390
F
  0
LAYER
  5
4F
330
2
100
AcDbSymbolTableRecord
100
AcDbLayerTableRecord
  2
A4_Rotulación
 70
    0
 62
    7
  6
CONTINUOUS
370
   35
390
F
  0
LAYER
  5
50
330
2
100
AcDbSymbolTableRecord
100
AcDbLayerTableRecord
  2
Circuito
 70
    0
 62
    7
  6
CONTINUOUS
370
  100
390
F
  0
LAYER
  5
51
330
2
100
AcDbSymbolTableRecord
100
AcDbLayerTableRecord
  2
Componentes
 70
    0
 62
    7
  6
CONTINUOUS
370
   70
390
F
  0
LAYER
  5
52
330
2
100
AcDbSymbolTableRecord
100
AcDbLayerTableRecord
  2
Correspondencia
 70
    1
 62
    7
  6
DOTTINY
370
   -3
390
F
  0
LAYER
  5
53
330
2
100
AcDbSymbolTableRecord
100
AcDbLayerTableRecord
  2
Cotas
 70
    0
 62
    7
  6
CONTINUOUS
370
    5
390
F
  0
LAYER
  5
54
330
2
100
AcDbSymbolTableRecord
100
AcDbLayerTableRecord
  2
Relleno
 70
    0
 62
    7
  6
CONTINUOUS
370
    0
390
F
  0
LAYER
  5
55
330
2
100
AcDbSymbolTableRecord
100
AcDbLayerTableRecord
  2
Sistema Americano
 70
    1
 62
    7
  6
CONTINUOUS
370
   35
390
F
  0
LAYER
  5
56
330
2
100
AcDbSymbolTableRecord
100
AcDbLayerTableRecord
  2
Sistema Europeo
 70
    1
 62
    7
  6
CONTINUOUS
370
   35
390
F
  0
ENDTAB
  0
TABLE
  2
STYLE
  5
3
330
0
100
AcDbSymbolTable
 70
    3
  0
STYLE
  5
57
330
2
100
AcDbSymbolTableRecord
100
AcDbTextStyleTableRecord
  2
standard
 70
    0
 40
0
 41
1
 50
0
 71
    0
 42
1
  3
standard
  4

  0
ENDTAB
  0
TABLE
  2
VIEW
  5
6
330
0
100
AcDbSymbolTable
 70
    0
  0
ENDTAB
  0
TABLE
  2
UCS
  5
7
330
0
100
AcDbSymbolTable
 70
    0
  0
ENDTAB
  0
TABLE
  2
APPID
  5
9
330
0
100
AcDbSymbolTable
 70
    1
  0
APPID
  5
12
330
9
100
AcDbSymbolTableRecord
100
AcDbRegAppTableRecord
  2
ACAD
 70
    0
  0
APPID
  5
58
330
9
100
AcDbSymbolTableRecord
100
AcDbRegAppTableRecord
  2
LibreCad
 70
    0
  0
ENDTAB
  0
TABLE
  2
DIMSTYLE
  5
A
330
0
100
AcDbSymbolTable
 70
    1
100
AcDbDimStyleTable
 71
    1
  0
DIMSTYLE
105
59
330
A
100
AcDbSymbolTableRecord
100
AcDbDimStyleTableRecord
  2
Standard
 70
    0
 40
2.5
 41
1
 42
0.625
 43
0.38
 44
1.25
 45
0
 46
0
 47
0
 48
0
 49
1
140
1
141
0.09
142
0
143
25.4
144
1
145
0
146
1
147
0.625
148
0
 71
    0
 72
    0
 73
    0
 74
    1
 75
    0
 76
    0
 77
    0
 78
    8
 79
    0
170
    0
171
    2
172
    0
173
    0
174
    0
175
    0
176
    0
177
    0
178
    0
179
    0
271
    2
272
    4
273
    2
274
    2
275
    0
276
    0
277
    2
278
    0
279
    0
280
    0
281
    0
282
    0
283
    1
284
    0
285
    0
286
    0
288
    0
289
    3
340
standard
341

371
   -2
372
   -2
  0
ENDTAB
  0
TABLE
  2
BLOCK_RECORD
  5
1
330
0
100
AcDbSymbolTable
 70
    2
  0
BLOCK_RECORD
  5
1F
330
1
100
AcDbSymbolTableRecord
100
AcDbBlockTableRecord
  2
*Model_Space
 70
    0
280
    1
281
    0
  0
BLOCK_RECORD
  5
1E
330
1
100
AcDbSymbolTableRecord
100
AcDbBlockTableRecord
  2
*Paper_Space
 70
    0
280
    1
281
    0
  0
BLOCK_RECORD
  5
5A
330
1
100
AcDbSymbolTableRecord
100
AcDbBlockTableRecord
  2
*D6
 70
    0
280
    1
281
    0
  0
BLOCK_RECORD
  5
5D
330
1
100
AcDbSymbolTableRecord
100
AcDbBlockTableRecord
  2
*D12
 70
    0
280
    1
281
    0
  0
BLOCK_RECORD
  5
60
330
1
100
AcDbSymbolTableRecord
100
AcDbBlockTableRecord
  2
*D23
 70
    0
280
    1
281
    0
  0
BLOCK_RECORD
  5
63
330
1
100
AcDbSymbolTableRecord
100
AcDbBlockTableRecord
  2
*D3
 70
    0
280
    1
281
    0
  0
BLOCK_RECORD
  5
66
330
1
100
AcDbSymbolTableRecord
100
AcDbBlockTableRecord
  2
*D5
 70
    0
280
    1
281
    0
  0
BLOCK_RECORD
  5
69
330
1
100
AcDbSymbolTableRecord
100
AcDbBlockTableRecord
  2
*D19
 70
    0
280
    1
281
    0
  0
BLOCK_RECORD
  5
6C
330
1
100
AcDbSymbolTableRecord
100
AcDbBlockTableRecord
  2
*D11
 70
    0
280
    1
281
    0
  0
BLOCK_RECORD
  5
6F
330
1
100
AcDbSymbolTableRecord
100
AcDbBlockTableRecord
  2
*D9
 70
    0
280
    1
281
    0
  0
BLOCK_RECORD
  5
72
330
1
100
AcDbSymbolTableRecord
100
AcDbBlockTableRecord
  2
*D21
 70
    0
280
    1
281
    0
  0
BLOCK_RECORD
  5
75
330
1
100
AcDbSymbolTableRecord
100
AcDbBlockTableRecord
  2
*D18
 70
    0
280
    1
281
    0
  0
BLOCK_RECORD
  5
78
330
1
100
AcDbSymbolTableRecord
100
AcDbBlockTableRecord
  2
*D15
 70
    0
280
    1
281
    0
  0
BLOCK_RECORD
  5
7B
330
1
100
AcDbSymbolTableRecord
100
AcDbBlockTableRecord
  2
*D4
 70
    0
280
    1
281
    0
  0
BLOCK_RECORD
  5
7E
330
1
100
AcDbSymbolTableRecord
100
AcDbBlockTableRecord
  2
*D2
 70
    0
280
    1
281
    0
  0
BLOCK_RECORD
  5
81
330
1
100
AcDbSymbolTableRecord
100
AcDbBlockTableRecord
  2
*D10
 70
    0
280
    1
281
    0
  0
BLOCK_RECORD
  5
84
330
1
100
AcDbSymbolTableRecord
100
AcDbBlockTableRecord
  2
*D8
 70
    0
280
    1
281
    0
  0
BLOCK_RECORD
  5
87
330
1
100
AcDbSymbolTableRecord
100
AcDbBlockTableRecord
  2
*D17
 70
    0
280
    1
281
    0
  0
BLOCK_RECORD
  5
8A
330
1
100
AcDbSymbolTableRecord
100
AcDbBlockTableRecord
  2
*D16
 70
    0
280
    1
281
    0
  0
BLOCK_RECORD
  5
8D
330
1
100
AcDbSymbolTableRecord
100
AcDbBlockTableRecord
  2
*D24
 70
    0
280
    1
281
    0
  0
BLOCK_RECORD
  5
90
330
1
100
AcDbSymbolTableRecord
100
AcDbBlockTableRecord
  2
*D14
 70
    0
280
    1
281
    0
  0
BLOCK_RECORD
  5
93
330
1
100
AcDbSymbolTableRecord
100
AcDbBlockTableRecord
  2
*D20
 70
    0
280
    1
281
    0
  0
BLOCK_RECORD
  5
96
330
1
100
AcDbSymbolTableRecord
100
AcDbBlockTableRecord
  2
*D22
 70
    0
280
    1
281
    0
  0
BLOCK_RECORD
  5
99
330
1
100
AcDbSymbolTableRecord
100
AcDbBlockTableRecord
  2
*D1
 70
    0
280
    1
281
    0
  0
BLOCK_RECORD
  5
9C
330
1
100
AcDbSymbolTableRecord
100
AcDbBlockTableRecord
  2
*D13
 70
    0
280
    1
281
    0
  0
BLOCK_RECORD
  5
9F
330
1
100
AcDbSymbolTableRecord
100
AcDbBlockTableRecord
  2
*D7
 70
    0
280
    1
281
    0
  0
BLOCK_RECORD
  5
A2
330
1
100
AcDbSymbolTableRecord
100
AcDbBlockTableRecord
  2
IN
 70
    0
280
    1
281
    0
  0
BLOCK_RECORD
  5
A5
330
1
100
AcDbSymbolTableRecord
100
AcDbBlockTableRecord
  2
OUT
 70
    0
280
    1
281
    0
  0
BLOCK_RECORD
  5
A8
330
1
100
AcDbSymbolTableRecord
100
AcDbBlockTableRecord
  2
AND
 70
    0
280
    1
281
    0
  0
BLOCK_RECORD
  5
AB
330
1
100
AcDbSymbolTableRecord
100
AcDbBlockTableRecord
  2
OR
 70
    0
280
    1
281
    0
  0
BLOCK_RECORD
  5
AE
330
1
100
AcDbSymbolTableRecord
100
AcDbBlockTableRecord
  2
NOT
 70
    0
280
    1
281
    0
  0
ENDTAB
  0
ENDSEC
  0
SECTION
  2
BLOCKS
  0
BLOCK
  5
20
330
1F
100
AcDbEntity
  8
0
100
AcDbBlockBegin
  2
*Model_Space
 70
    0
 10
0
 20
0
 30
0
  3
*Model_Space
  1

  0
ENDBLK
  5
21
330
1F
100
AcDbEntity
  8
0
100
AcDbBlockEnd
  0
BLOCK
  5
1C
330
1B
100
AcDbEntity
  8
0
100
AcDbBlockBegin
  2
*Paper_Space
 70
    0
 10
0
 20
0
 30
0
  3
*Paper_Space
  1

  0
ENDBLK
  5
1D
330
1F
100
AcDbEntity
  8
0
100
AcDbBlockEnd
  0
BLOCK
  5
5B
330
5A
100
AcDbEntity
  8
0
100
AcDbBlockBegin
  2
*D6
 70
    1
 10
0
 20
0
  3
*D6
  1

  0
LINE
  5
B1
100
AcDbEntity
  8
Cotas
  6
ByBlock
 62
    0
370
   -2
100
AcDbLine
 10
-50
 20
85.31629330262668
 11
-41.99999999999999
 21
85.31629330262668
  0
MTEXT
  5
B2
100
AcDbEntity
  8
Cotas
  6
CONTINUOUS
 62
    0
370
   -2
100
AcDbMText
 10
-46
 20
88.12879330262668
 30
0
 40
2.5
 41
1.111111111111111
 71
    5
 72
    1
  1
8
  7
standard
210
0
220
0
230
1
 50
0
 73
    2
 44
1
  0
SOLID
  5
B3
100
AcDbEntity
  8
Cotas
  6
ByBlock
 62
    0
370
   -2
100
AcDbTrace
 10
-50
 20
85.31629330262668
 30
0
 11
-47.5
 21
85.73257796039951
 31
0
 12
-47.5
 22
84.90000864485384
 32
0
 13
-47.5
 23
84.90000864485384
 33
0
  0
SOLID
  5
B4
100
AcDbEntity
  8
Cotas
  6
ByBlock
 62
    0
370
   -2
100
AcDbTrace
 10
-41.99999999999999
 20
85.31629330262668
 30
0
 11
-44.49999999999999
 21
84.90000864485384
 31
0
 12
-44.49999999999999
 22
85.73257796039951
 32
0
 13
-44.49999999999999
 23
85.73257796039951
 33
0
  0
LINE
  5
B5
100
AcDbEntity
  8
Cotas
  6
ByBlock
 62
    0
370
   -2
100
AcDbLine
 10
-50
 20
77.5625
 11
-50
 21
88.44129330262668
  0
LINE
  5
B6
100
AcDbEntity
  8
Cotas
  6
ByBlock
 62
    0
370
   -2
100
AcDbLine
 10
-41.99999999999999
 20
77.5625
 11
-41.99999999999999
 21
88.44129330262668
  0
ENDBLK
  5
5C
330
5A
100
AcDbEntity
  8
0
100
AcDbBlockEnd
  0
BLOCK
  5
5E
330
5D
100
AcDbEntity
  8
0
100
AcDbBlockBegin
  2
*D12
 70
    1
 10
0
 20
0
  3
*D12
  1

  0
LINE
  5
B7
100
AcDbEntity
  8
Cotas
  6
ByBlock
 62
    0
370
   -2
100
AcDbLine
 10
-13.54018214201933
 20
38.99999999999996
 11
-13.54018214201933
 21
55.00000000000001
  0
MTEXT
  5
B8
100
AcDbEntity
  8
Cotas
  6
CONTINUOUS
 62
    0
370
   -2
100
AcDbMText
 10
-16.35268214201933
 20
46.99999999999999
 30
0
 40
2.5
 41
1.111111111111266
 71
    5
 72
    1
  1
6
  7
standard
210
0
220
0
230
1
 50
90
 73
    2
 44
1
  0
SOLID
  5
B9
100
AcDbEntity
  8
Cotas
  6
ByBlock
 62
    0
370
   -2
100
AcDbTrace
 10
-13.54018214201933
 20
43.99999999999996
 30
0
 11
-13.12389748424649
 21
41.49999999999996
 31
0
 12
-13.95646679979217
 22
41.49999999999996
 32
0
 13
-13.95646679979217
 23
41.49999999999996
 33
0
  0
SOLID
  5
BA
100
AcDbEntity
  8
Cotas
  6
ByBlock
 62
    0
370
   -2
100
AcDbTrace
 10
-13.54018214201933
 20
50.00000000000001
 30
0
 11
-13.95646679979217
 21
52.50000000000001
 31
0
 12
-13.12389748424649
 22
52.50000000000001
 32
0
 13
-13.12389748424649
 23
52.50000000000001
 33
0
  0
LINE
  5
BB
100
AcDbEntity
  8
Cotas
  6
ByBlock
 62
    0
370
   -2
100
AcDbLine
 10
-1.562500000000025
 20
43.99999999999996
 11
-16.66518214201933
 21
43.99999999999996
  0
LINE
  5
BC
100
AcDbEntity
  8
Cotas
  6
ByBlock
 62
    0
370
   -2
100
AcDbLine
 10
-11.5625
 20
50.00000000000001
 11
-16.66518214201933
 21
50.00000000000001
  0
ENDBLK
  5
5F
330
5D
100
AcDbEntity
  8
0
100
AcDbBlockEnd
  0
BLOCK
  5
61
330
60
100
AcDbEntity
  8
0
100
AcDbBlockBegin
  2
*D23
 70
    1
 10
0
 20
0
  3
*D23
  1

  0
LINE
  5
BD
100
AcDbEntity
  8
Cotas
  6
ByBlock
 62
    0
370
   -2
100
AcDbLine
 10
72
 20
76.77151816445914
 11
80
 21
76.77151816445914
  0
MTEXT
  5
BE
100
AcDbEntity
  8
Cotas
  6
CONTINUOUS
 62
    0
370
   -2
100
AcDbMText
 10
76
 20
79.58401816445914
 30
0
 40
2.5
 41
1.111111111111111
 71
    5
 72
    1
  1
8
  7
standard
210
0
220
0
230
1
 50
0
 73
    2
 44
1
  0
SOLID
  5
BF
100
AcDbEntity
  8
Cotas
  6
ByBlock
 62
    0
370
   -2
100
AcDbTrace
 10
72
 20
76.77151816445914
 30
0
 11
74.5
 21
77.18780282223197
 31
0
 12
74.5
 22
76.3552335066863
 32
0
 13
74.5
 23
76.3552335066863
 33
0
  0
SOLID
  5
C0
100
AcDbEntity
  8
Cotas
  6
ByBlock
 62
    0
370
   -2
100
AcDbTrace
 10
80
 20
76.77151816445914
 30
0
 11
77.5
 21
76.3552335066863
 31
0
 12
77.5
 22
77.18780282223197
 32
0
 13
77.5
 23
77.18780282223197
 33
0
  0
LINE
  5
C1
100
AcDbEntity
  8
Cotas
  6
ByBlock
 62
    0
370
   -2
100
AcDbLine
 10
72
 20
61.5625
 11
72
 21
79.89651816445914
  0
LINE
  5
C2
100
AcDbEntity
  8
Cotas
  6
ByBlock
 62
    0
370
   -2
100
AcDbLine
 10
80
 20
61.5625
 11
80
 21
79.89651816445914
  0
ENDBLK
  5
62
330
60
100
AcDbEntity
  8
0
100
AcDbBlockEnd
  0
BLOCK
  5
64
330
63
100
AcDbEntity
  8
0
100
AcDbBlockBegin
  2
*D3
 70
    1
 10
0
 20
0
  3
*D3
  1

  0
LINE
  5
C3
100
AcDbEntity
  8
Cotas
  6
ByBlock
 62
    0
370
   -2
100
AcDbLine
 10
-40
 20
111.5625
 11
-40
 21
133.125
  0
LINE
  5
C4
100
AcDbEntity
  8
Cotas
  6
ByBlock
 62
    0
370
   -2
100
AcDbLine
 10
-20
 20
111.5625
 11
-20
 21
133.125
  0
LINE
  5
C5
100
AcDbEntity
  8
Cotas
  6
ByBlock
 62
    0
370
   -2
100
AcDbLine
 10
-40
 20
130
 11
-20
 21
130
  0
MTEXT
  5
C6
100
AcDbEntity
  8
Cotas
  6
CONTINUOUS
 62
    0
370
   -2
100
AcDbMText
 10
-30
 20
132.8125
 30
0
 40
2.5
 41
3.055555555555556
 71
    5
 72
    1
  1
20
  7
standard
210
0
220
0
230
1
 50
0
 73
    2
 44
1
  0
SOLID
  5
C7
100
AcDbEntity
  8
Cotas
  6
ByBlock
 62
    0
370
   -2
100
AcDbTrace
 10
-40
 20
130
 30
0
 11
-37.5
 21
130.4162846577728
 31
0
 12
-37.5
 22
129.5837153422272
 32
0
 13
-37.5
 23
129.5837153422272
 33
0
  0
SOLID
  5
C8
100
AcDbEntity
  8
Cotas
  6
ByBlock
 62
    0
370
   -2
100
AcDbTrace
 10
-20
 20
130
 30
0
 11
-22.5
 21
129.5837153422272
 31
0
 12
-22.5
 22
130.4162846577728
 32
0
 13
-22.5
 23
130.4162846577728
 33
0
  0
ENDBLK
  5
65
330
63
100
AcDbEntity
  8
0
100
AcDbBlockEnd
  0
BLOCK
  5
67
330
66
100
AcDbEntity
  8
0
100
AcDbBlockBegin
  2
*D5
 70
    1
 10
0
 20
0
  3
*D5
  1

  0
LINE
  5
C9
100
AcDbEntity
  8
Cotas
  6
ByBlock
 62
    0
370
   -2
100
AcDbLine
 10
-60
 20
85.31629330262668
 11
-50
 21
85.31629330262668
  0
MTEXT
  5
CA
100
AcDbEntity
  8
Cotas
  6
CONTINUOUS
 62
    0
370
   -2
100
AcDbMText
 10
-55
 20
88.12879330262668
 30
0
 40
2.5
 41
2.5
 71
    5
 72
    1
  1
10
  7
standard
210
0
220
0
230
1
 50
0
 73
    2
 44
1
  0
SOLID
  5
CB
100
AcDbEntity
  8
Cotas
  6
ByBlock
 62
    0
370
   -2
100
AcDbTrace
 10
-60
 20
85.31629330262668
 30
0
 11
-57.5
 21
85.73257796039951
 31
0
 12
-57.5
 22
84.90000864485384
 32
0
 13
-57.5
 23
84.90000864485384
 33
0
  0
SOLID
  5
CC
100
AcDbEntity
  8
Cotas
  6
ByBlock
 62
    0
370
   -2
100
AcDbTrace
 10
-50
 20
85.31629330262668
 30
0
 11
-52.5
 21
84.90000864485384
 31
0
 12
-52.5
 22
85.73257796039951
 32
0
 13
-52.5
 23
85.73257796039951
 33
0
  0
LINE
  5
CD
100
AcDbEntity
  8
Cotas
  6
ByBlock
 62
    0
370
   -2
100
AcDbLine
 10
-60
 20
71.5625
 11
-60
 21
88.44129330262668
  0
LINE
  5
CE
100
AcDbEntity
  8
Cotas
  6
ByBlock
 62
    0
370
   -2
100
AcDbLine
 10
-50
 20
77.5625
 11
-50
 21
88.44129330262668
  0
ENDBLK
  5
68
330
66
100
AcDbEntity
  8
0
100
AcDbBlockEnd
  0
BLOCK
  5
6A
330
69
100
AcDbEntity
  8
0
100
AcDbBlockBegin
  2
*D19
 70
    1
 10
0
 20
0
  3
*D19
  1

  0
LINE
  5
CF
100
AcDbEntity
  8
Cotas
  6
ByBlock
 62
    0
370
   -2
100
AcDbLine
 10
20
 20
85.31629330262668
 11
30
 21
85.31629330262668
  0
MTEXT
  5
D0
100
AcDbEntity
  8
Cotas
  6
CONTINUOUS
 62
    0
370
   -2
100
AcDbMText
 10
25
 20
88.12879330262668
 30
0
 40
2.5
 41
2.5
 71
    5
 72
    1
  1
10
  7
standard
210
0
220
0
230
1
 50
0
 73
    2
 44
1
  0
SOLID
  5
D1
100
AcDbEntity
  8
Cotas
  6
ByBlock
 62
    0
370
   -2
100
AcDbTrace
 10
20
 20
85.31629330262668
 30
0
 11
22.5
 21
85.73257796039951
 31
0
 12
22.5
 22
84.90000864485384
 32
0
 13
22.5
 23
84.90000864485384
 33
0
  0
SOLID
  5
D2
100
AcDbEntity
  8
Cotas
  6
ByBlock
 62
    0
370
   -2
100
AcDbTrace
 10
30
 20
85.31629330262668
 30
0
 11
27.5
 21
84.90000864485384
 31
0
 12
27.5
 22
85.73257796039951
 32
0
 13
27.5
 23
85.73257796039951
 33
0
  0
LINE
  5
D3
100
AcDbEntity
  8
Cotas
  6
ByBlock
 62
    0
370
   -2
100
AcDbLine
 10
20
 20
61.5625
 11
20
 21
88.44129330262668
  0
LINE
  5
D4
100
AcDbEntity
  8
Cotas
  6
ByBlock
 62
    0
370
   -2
100
AcDbLine
 10
30
 20
61.5625
 11
30
 21
88.44129330262668
  0
ENDBLK
  5
6B
330
69
100
AcDbEntity
  8
0
100
AcDbBlockEnd
  0
BLOCK
  5
6D
330
6C
100
AcDbEntity
  8
0
100
AcDbBlockBegin
  2
*D11
 70
    1
 10
0
 20
0
  3
*D11
  1

  0
LINE
  5
D5
100
AcDbEntity
  8
Cotas
  6
ByBlock
 62
    0
370
   -2
100
AcDbLine
 10
-66.51778799865809
 20
65
 11
-66.51778799865809
 21
81
  0
MTEXT
  5
D6
100
AcDbEntity
  8
Cotas
  6
CONTINUOUS
 62
    0
370
   -2
100
AcDbMText
 10
-69.33028799865809
 20
73
 30
0
 40
2.5
 41
1.111111111111266
 71
    5
 72
    1
  1
6
  7
standard
210
0
220
0
230
1
 50
90
 73
    2
 44
1
  0
SOLID
  5
D7
100
AcDbEntity
  8
Cotas
  6
ByBlock
 62
    0
370
   -2
100
AcDbTrace
 10
-66.51778799865809
 20
70
 30
0
 11
-66.10150334088526
 21
67.5
 31
0
 12
-66.93407265643093
 22
67.5
 32
0
 13
-66.93407265643093
 23
67.5
 33
0
  0
SOLID
  5
D8
100
AcDbEntity
  8
Cotas
  6
ByBlock
 62
    0
370
   -2
100
AcDbTrace
 10
-66.51778799865809
 20
76
 30
0
 11
-66.93407265643093
 21
78.5
 31
0
 12
-66.10150334088526
 22
78.5
 32
0
 13
-66.10150334088526
 23
78.5
 33
0
  0
LINE
  5
D9
100
AcDbEntity
  8
Cotas
  6
ByBlock
 62
    0
370
   -2
100
AcDbLine
 10
-61.5625
 20
70
 11
-69.64278799865809
 21
70
  0
LINE
  5
DA
100
AcDbEntity
  8
Cotas
  6
ByBlock
 62
    0
370
   -2
100
AcDbLine
 10
-51.5625
 20
76
 11
-69.64278799865809
 21
76
  0
ENDBLK
  5
6E
330
6C
100
AcDbEntity
  8
0
100
AcDbBlockEnd
  0
BLOCK
  5
70
330
6F
100
AcDbEntity
  8
0
100
AcDbBlockBegin
  2
*D9
 70
    1
 10
0
 20
0
  3
*D9
  1

  0
LINE
  5
DB
100
AcDbEntity
  8
Cotas
  6
ByBlock
 62
    0
370
   -2
100
AcDbLine
 10
-66.51778799865809
 20
39
 11
-66.51778799865809
 21
55
  0
MTEXT
  5
DC
100
AcDbEntity
  8
Cotas
  6
CONTINUOUS
 62
    0
370
   -2
100
AcDbMText
 10
-69.33028799865809
 20
47
 30
0
 40
2.5
 41
1.111111111111266
 71
    5
 72
    1
  1
6
  7
standard
210
0
220
0
230
1
 50
90
 73
    2
 44
1
  0
SOLID
  5
DD
100
AcDbEntity
  8
Cotas
  6
ByBlock
 62
    0
370
   -2
100
AcDbTrace
 10
-66.51778799865809
 20
44
 30
0
 11
-66.10150334088526
 21
41.5
 31
0
 12
-66.93407265643093
 22
41.5
 32
0
 13
-66.93407265643093
 23
41.5
 33
0
  0
SOLID
  5
DE
100
AcDbEntity
  8
Cotas
  6
ByBlock
 62
    0
370
   -2
100
AcDbTrace
 10
-66.51778799865809
 20
50
 30
0
 11
-66.93407265643093
 21
52.5
 31
0
 12
-66.10150334088526
 22
52.5
 32
0
 13
-66.10150334088526
 23
52.5
 33
0
  0
LINE
  5
DF
100
AcDbEntity
  8
Cotas
  6
ByBlock
 62
    0
370
   -2
100
AcDbLine
 10
-51.5625
 20
44
 11
-69.64278799865809
 21
44
  0
LINE
  5
E0
100
AcDbEntity
  8
Cotas
  6
ByBlock
 62
    0
370
   -2
100
AcDbLine
 10
-61.5625
 20
50
 11
-69.64278799865809
 21
50
  0
ENDBLK
  5
71
330
6F
100
AcDbEntity
  8
0
100
AcDbBlockEnd
  0
BLOCK
  5
73
330
72
100
AcDbEntity
  8
0
100
AcDbBlockBegin
  2
*D21
 70
    1
 10
0
 20
0
  3
*D21
  1

  0
LINE
  5
E1
100
AcDbEntity
  8
Cotas
  6
ByBlock
 62
    0
370
   -2
100
AcDbLine
 10
50
 20
76.77151816445914
 11
60
 21
76.77151816445914
  0
MTEXT
  5
E2
100
AcDbEntity
  8
Cotas
  6
CONTINUOUS
 62
    0
370
   -2
100
AcDbMText
 10
55
 20
79.58401816445914
 30
0
 40
2.5
 41
2.5
 71
    5
 72
    1
  1
10
  7
standard
210
0
220
0
230
1
 50
0
 73
    2
 44
1
  0
SOLID
  5
E3
100
AcDbEntity
  8
Cotas
  6
ByBlock
 62
    0
370
   -2
100
AcDbTrace
 10
50
 20
76.77151816445914
 30
0
 11
52.5
 21
77.18780282223197
 31
0
 12
52.5
 22
76.3552335066863
 32
0
 13
52.5
 23
76.3552335066863
 33
0
  0
SOLID
  5
E4
100
AcDbEntity
  8
Cotas
  6
ByBlock
 62
    0
370
   -2
100
AcDbTrace
 10
60
 20
76.77151816445914
 30
0
 11
57.5
 21
76.3552335066863
 31
0
 12
57.5
 22
77.18780282223197
 32
0
 13
57.5
 23
77.18780282223197
 33
0
  0
LINE
  5
E5
100
AcDbEntity
  8
Cotas
  6
ByBlock
 62
    0
370
   -2
100
AcDbLine
 10
50
 20
61.5625
 11
50
 21
79.89651816445914
  0
LINE
  5
E6
100
AcDbEntity
  8
Cotas
  6
ByBlock
 62
    0
370
   -2
100
AcDbLine
 10
60
 20
71.5625
 11
60
 21
79.89651816445914
  0
ENDBLK
  5
74
330
72
100
AcDbEntity
  8
0
100
AcDbBlockEnd
  0
BLOCK
  5
76
330
75
100
AcDbEntity
  8
0
100
AcDbBlockBegin
  2
*D18
 70
    1
 10
0
 20
0
  3
*D18
  1

  0
LINE
  5
E7
100
AcDbEntity
  8
Cotas
  6
ByBlock
 62
    0
370
   -2
100
AcDbLine
 10
7.999999999999996
 20
85.31629330262668
 11
20
 21
85.31629330262668
  0
MTEXT
  5
E8
100
AcDbEntity
  8
Cotas
  6
CONTINUOUS
 62
    0
370
   -2
100
AcDbMText
 10
14
 20
88.12879330262668
 30
0
 40
2.5
 41
2.5
 71
    5
 72
    1
  1
12
  7
standard
210
0
220
0
230
1
 50
0
 73
    2
 44
1
  0
SOLID
  5
E9
100
AcDbEntity
  8
Cotas
  6
ByBlock
 62
    0
370
   -2
100
AcDbTrace
 10
7.999999999999996
 20
85.31629330262668
 30
0
 11
10.5
 21
85.73257796039951
 31
0
 12
10.5
 22
84.90000864485384
 32
0
 13
10.5
 23
84.90000864485384
 33
0
  0
SOLID
  5
EA
100
AcDbEntity
  8
Cotas
  6
ByBlock
 62
    0
370
   -2
100
AcDbTrace
 10
20
 20
85.31629330262668
 30
0
 11
17.5
 21
84.90000864485384
 31
0
 12
17.5
 22
85.73257796039951
 32
0
 13
17.5
 23
85.73257796039951
 33
0
  0
LINE
  5
EB
100
AcDbEntity
  8
Cotas
  6
ByBlock
 62
    0
370
   -2
100
AcDbLine
 10
7.999999999999997
 20
77.5625
 11
7.999999999999996
 21
88.44129330262668
  0
LINE
  5
EC
100
AcDbEntity
  8
Cotas
  6
ByBlock
 62
    0
370
   -2
100
AcDbLine
 10
20
 20
61.5625
 11
20
 21
88.44129330262668
  0
ENDBLK
  5
77
330
75
100
AcDbEntity
  8
0
100
AcDbBlockEnd
  0
BLOCK
  5
79
330
78
100
AcDbEntity
  8
0
100
AcDbBlockBegin
  2
*D15
 70
    1
 10
0
 20
0
  3
*D15
  1

  0
LINE
  5
ED
100
AcDbEntity
  8
Cotas
  6
ByBlock
 62
    0
370
   -2
100
AcDbLine
 10
-5.000000000000027
 20
59.99999999999997
 11
8.999999999999996
 21
59.99999999999997
  0
MTEXT
  5
EE
100
AcDbEntity
  8
Cotas
  6
CONTINUOUS
 62
    0
370
   -2
100
AcDbMText
 10
1.999999999999986
 20
62.81249999999997
 30
0
 40
2.5
 41
1.388888888888889
 71
    5
 72
    1
  1
4
  7
standard
210
0
220
0
230
1
 50
0
 73
    2
 44
1
  0
SOLID
  5
EF
100
AcDbEntity
  8
Cotas
  6
ByBlock
 62
    0
370
   -2
100
AcDbTrace
 10
-2.620126338115369e-14
 20
59.99999999999997
 30
0
 11
-2.500000000000026
 21
59.58371534222713
 31
0
 12
-2.500000000000026
 22
60.41628465777281
 32
0
 13
-2.500000000000026
 23
60.41628465777281
 33
0
  0
SOLID
  5
F0
100
AcDbEntity
  8
Cotas
  6
ByBlock
 62
    0
370
   -2
100
AcDbTrace
 10
3.999999999999996
 20
59.99999999999997
 30
0
 11
6.499999999999996
 21
60.41628465777281
 31
0
 12
6.499999999999996
 22
59.58371534222713
 32
0
 13
6.499999999999996
 23
59.58371534222713
 33
0
  0
LINE
  5
F1
100
AcDbEntity
  8
Cotas
  6
ByBlock
 62
    0
370
   -2
100
AcDbLine
 10
-2.51202680754065e-14
 20
45.56249999999996
 11
-2.670380802875967e-14
 21
63.12499999999997
  0
LINE
  5
F2
100
AcDbEntity
  8
Cotas
  6
ByBlock
 62
    0
370
   -2
100
AcDbLine
 10
3.999999999999996
 20
61.56249999999997
 11
3.999999999999996
 21
63.12499999999997
  0
ENDBLK
  5
7A
330
78
100
AcDbEntity
  8
0
100
AcDbBlockEnd
  0
BLOCK
  5
7C
330
7B
100
AcDbEntity
  8
0
100
AcDbBlockBegin
  2
*D4
 70
    1
 10
0
 20
0
  3
*D4
  1

  0
LINE
  5
F3
100
AcDbEntity
  8
Cotas
  6
ByBlock
 62
    0
370
   -2
100
AcDbLine
 10
-10
 20
111.5625
 11
-9.999999999999998
 21
133.125
  0
LINE
  5
F4
100
AcDbEntity
  8
Cotas
  6
ByBlock
 62
    0
370
   -2
100
AcDbLine
 10
-20.00000000000001
 20
111.5625
 11
-20.00000000000001
 21
133.125
  0
LINE
  5
F5
100
AcDbEntity
  8
Cotas
  6
ByBlock
 62
    0
370
   -2
100
AcDbLine
 10
-9.999999999999998
 20
130
 11
-20.00000000000001
 21
130
  0
MTEXT
  5
F6
100
AcDbEntity
  8
Cotas
  6
CONTINUOUS
 62
    0
370
   -2
100
AcDbMText
 10
-15
 20
132.8125
 30
0
 40
2.5
 41
2.5
 71
    5
 72
    1
  1
10
  7
standard
210
0
220
0
230
1
 50
0
 73
    2
 44
1
  0
SOLID
  5
F7
100
AcDbEntity
  8
Cotas
  6
ByBlock
 62
    0
370
   -2
100
AcDbTrace
 10
-9.999999999999998
 20
130
 30
0
 11
-12.5
 21
129.5837153422272
 31
0
 12
-12.5
 22
130.4162846577728
 32
0
 13
-12.5
 23
130.4162846577728
 33
0
  0
SOLID
  5
F8
100
AcDbEntity
  8
Cotas
  6
ByBlock
 62
    0
370
   -2
100
AcDbTrace
 10
-20.00000000000001
 20
130
 30
0
 11
-17.50000000000001
 21
130.4162846577728
 31
0
 12
-17.50000000000001
 22
129.5837153422272
 32
0
 13
-17.50000000000001
 23
129.5837153422272
 33
0
  0
ENDBLK
  5
7D
330
7B
100
AcDbEntity
  8
0
100
AcDbBlockEnd
  0
BLOCK
  5
7F
330
7E
100
AcDbEntity
  8
0
100
AcDbBlockBegin
  2
*D2
 70
    1
 10
0
 20
0
  3
*D2
  1

  0
LINE
  5
F9
100
AcDbEntity
  8
Cotas
  6
ByBlock
 62
    0
370
   -2
100
AcDbLine
 10
20
 20
111.5625
 11
20
 21
133.125
  0
LINE
  5
FA
100
AcDbEntity
  8
Cotas
  6
ByBlock
 62
    0
370
   -2
100
AcDbLine
 10
30.00000000000001
 20
111.5625
 11
30.00000000000001
 21
133.125
  0
LINE
  5
FB
100
AcDbEntity
  8
Cotas
  6
ByBlock
 62
    0
370
   -2
100
AcDbLine
 10
20
 20
130
 11
30.00000000000001
 21
130
  0
MTEXT
  5
FC
100
AcDbEntity
  8
Cotas
  6
CONTINUOUS
 62
    0
370
   -2
100
AcDbMText
 10
25.00000000000001
 20
132.8125
 30
0
 40
2.5
 41
2.5
 71
    5
 72
    1
  1
10
  7
standard
210
0
220
0
230
1
 50
0
 73
    2
 44
1
  0
SOLID
  5
FD
100
AcDbEntity
  8
Cotas
  6
ByBlock
 62
    0
370
   -2
100
AcDbTrace
 10
20
 20
130
 30
0
 11
22.5
 21
130.4162846577728
 31
0
 12
22.5
 22
129.5837153422272
 32
0
 13
22.5
 23
129.5837153422272
 33
0
  0
SOLID
  5
FE
100
AcDbEntity
  8
Cotas
  6
ByBlock
 62
    0
370
   -2
100
AcDbTrace
 10
30.00000000000001
 20
130
 30
0
 11
27.50000000000001
 21
129.5837153422272
 31
0
 12
27.50000000000001
 22
130.4162846577728
 32
0
 13
27.50000000000001
 23
130.4162846577728
 33
0
  0
ENDBLK
  5
80
330
7E
100
AcDbEntity
  8
0
100
AcDbBlockEnd
  0
BLOCK
  5
82
330
81
100
AcDbEntity
  8
0
100
AcDbBlockBegin
  2
*D10
 70
    1
 10
0
 20
0
  3
*D10
  1

  0
LINE
  5
FF
100
AcDbEntity
  8
Cotas
  6
ByBlock
 62
    0
370
   -2
100
AcDbLine
 10
-66.51778799865809
 20
50
 11
-66.51778799865809
 21
70
  0
MTEXT
  5
100
100
AcDbEntity
  8
Cotas
  6
CONTINUOUS
 62
    0
370
   -2
100
AcDbMText
 10
-69.33028799865809
 20
60
 30
0
 40
2.5
 41
3.055555555555556
 71
    5
 72
    1
  1
20
  7
standard
210
0
220
0
230
1
 50
90
 73
    2
 44
1
  0
SOLID
  5
101
100
AcDbEntity
  8
Cotas
  6
ByBlock
 62
    0
370
   -2
100
AcDbTrace
 10
-66.51778799865809
 20
50
 30
0
 11
-66.93407265643093
 21
52.5
 31
0
 12
-66.10150334088526
 22
52.5
 32
0
 13
-66.10150334088526
 23
52.5
 33
0
  0
SOLID
  5
102
100
AcDbEntity
  8
Cotas
  6
ByBlock
 62
    0
370
   -2
100
AcDbTrace
 10
-66.51778799865809
 20
70
 30
0
 11
-66.10150334088526
 21
67.5
 31
0
 12
-66.93407265643093
 22
67.5
 32
0
 13
-66.93407265643093
 23
67.5
 33
0
  0
LINE
  5
103
100
AcDbEntity
  8
Cotas
  6
ByBlock
 62
    0
370
   -2
100
AcDbLine
 10
-61.5625
 20
50
 11
-69.64278799865809
 21
50
  0
LINE
  5
104
100
AcDbEntity
  8
Cotas
  6
ByBlock
 62
    0
370
   -2
100
AcDbLine
 10
-61.5625
 20
70
 11
-69.64278799865809
 21
70
  0
ENDBLK
  5
83
330
81
100
AcDbEntity
  8
0
100
AcDbBlockEnd
  0
BLOCK
  5
85
330
84
100
AcDbEntity
  8
0
100
AcDbBlockBegin
  2
*D8
 70
    1
 10
0
 20
0
  3
*D8
  1

  0
LINE
  5
105
100
AcDbEntity
  8
Cotas
  6
ByBlock
 62
    0
370
   -2
100
AcDbLine
 10
-30
 20
85.31629330262668
 11
-20
 21
85.31629330262668
  0
MTEXT
  5
106
100
AcDbEntity
  8
Cotas
  6
CONTINUOUS
 62
    0
370
   -2
100
AcDbMText
 10
-25
 20
88.12879330262668
 30
0
 40
2.5
 41
2.5
 71
    5
 72
    1
  1
10
  7
standard
210
0
220
0
230
1
 50
0
 73
    2
 44
1
  0
SOLID
  5
107
100
AcDbEntity
  8
Cotas
  6
ByBlock
 62
    0
370
   -2
100
AcDbTrace
 10
-30
 20
85.31629330262668
 30
0
 11
-27.5
 21
85.73257796039951
 31
0
 12
-27.5
 22
84.90000864485384
 32
0
 13
-27.5
 23
84.90000864485384
 33
0
  0
SOLID
  5
108
100
AcDbEntity
  8
Cotas
  6
ByBlock
 62
    0
370
   -2
100
AcDbTrace
 10
-20
 20
85.31629330262668
 30
0
 11
-22.5
 21
84.90000864485384
 31
0
 12
-22.5
 22
85.73257796039951
 32
0
 13
-22.5
 23
85.73257796039951
 33
0
  0
LINE
  5
109
100
AcDbEntity
  8
Cotas
  6
ByBlock
 62
    0
370
   -2
100
AcDbLine
 10
-30
 20
61.5625
 11
-30
 21
88.44129330262668
  0
LINE
  5
10A
100
AcDbEntity
  8
Cotas
  6
ByBlock
 62
    0
370
   -2
100
AcDbLine
 10
-20
 20
61.5625
 11
-20
 21
88.44129330262668
  0
ENDBLK
  5
86
330
84
100
AcDbEntity
  8
0
100
AcDbBlockEnd
  0
BLOCK
  5
88
330
87
100
AcDbEntity
  8
0
100
AcDbBlockBegin
  2
*D17
 70
    1
 10
0
 20
0
  3
*D17
  1

  0
LINE
  5
10B
100
AcDbEntity
  8
Cotas
  6
ByBlock
 62
    0
370
   -2
100
AcDbLine
 10
0
 20
85.31629330262668
 11
8
 21
85.31629330262668
  0
MTEXT
  5
10C
100
AcDbEntity
  8
Cotas
  6
CONTINUOUS
 62
    0
370
   -2
100
AcDbMText
 10
4
 20
88.12879330262668
 30
0
 40
2.5
 41
1.111111111111111
 71
    5
 72
    1
  1
8
  7
standard
210
0
220
0
230
1
 50
0
 73
    2
 44
1
  0
SOLID
  5
10D
100
AcDbEntity
  8
Cotas
  6
ByBlock
 62
    0
370
   -2
100
AcDbTrace
 10
0
 20
85.31629330262668
 30
0
 11
2.5
 21
85.73257796039951
 31
0
 12
2.5
 22
84.90000864485384
 32
0
 13
2.5
 23
84.90000864485384
 33
0
  0
SOLID
  5
10E
100
AcDbEntity
  8
Cotas
  6
ByBlock
 62
    0
370
   -2
100
AcDbTrace
 10
8
 20
85.31629330262668
 30
0
 11
5.5
 21
84.90000864485384
 31
0
 12
5.5
 22
85.73257796039951
 32
0
 13
5.5
 23
85.73257796039951
 33
0
  0
LINE
  5
10F
100
AcDbEntity
  8
Cotas
  6
ByBlock
 62
    0
370
   -2
100
AcDbLine
 10
9.567237139237322e-17
 20
77.5625
 11
1.913447427847464e-16
 21
88.44129330262668
  0
LINE
  5
110
100
AcDbEntity
  8
Cotas
  6
ByBlock
 62
    0
370
   -2
100
AcDbLine
 10
8
 20
77.5625
 11
8
 21
88.44129330262668
  0
ENDBLK
  5
89
330
87
100
AcDbEntity
  8
0
100
AcDbBlockEnd
  0
BLOCK
  5
8B
330
8A
100
AcDbEntity
  8
0
100
AcDbBlockBegin
  2
*D16
 70
    1
 10
0
 20
0
  3
*D16
  1

  0
LINE
  5
111
100
AcDbEntity
  8
Cotas
  6
ByBlock
 62
    0
370
   -2
100
AcDbLine
 10
-10
 20
85.31629330262668
 11
0
 21
85.31629330262668
  0
MTEXT
  5
112
100
AcDbEntity
  8
Cotas
  6
CONTINUOUS
 62
    0
370
   -2
100
AcDbMText
 10
-5
 20
88.12879330262668
 30
0
 40
2.5
 41
2.5
 71
    5
 72
    1
  1
10
  7
standard
210
0
220
0
230
1
 50
0
 73
    2
 44
1
  0
SOLID
  5
113
100
AcDbEntity
  8
Cotas
  6
ByBlock
 62
    0
370
   -2
100
AcDbTrace
 10
-10
 20
85.31629330262668
 30
0
 11
-7.5
 21
85.73257796039951
 31
0
 12
-7.5
 22
84.90000864485384
 32
0
 13
-7.5
 23
84.90000864485384
 33
0
  0
SOLID
  5
114
100
AcDbEntity
  8
Cotas
  6
ByBlock
 62
    0
370
   -2
100
AcDbTrace
 10
0
 20
85.31629330262668
 30
0
 11
-2.5
 21
84.90000864485384
 31
0
 12
-2.5
 22
85.73257796039951
 32
0
 13
-2.5
 23
85.73257796039951
 33
0
  0
LINE
  5
115
100
AcDbEntity
  8
Cotas
  6
ByBlock
 62
    0
370
   -2
100
AcDbLine
 10
-10
 20
71.5625
 11
-10
 21
88.44129330262668
  0
LINE
  5
116
100
AcDbEntity
  8
Cotas
  6
ByBlock
 62
    0
370
   -2
100
AcDbLine
 10
9.567237139237322e-17
 20
77.5625
 11
1.913447427847464e-16
 21
88.44129330262668
  0
ENDBLK
  5
8C
330
8A
100
AcDbEntity
  8
0
100
AcDbBlockEnd
  0
BLOCK
  5
8E
330
8D
100
AcDbEntity
  8
0
100
AcDbBlockBegin
  2
*D24
 70
    1
 10
0
 20
0
  3
*D24
  1

  0
LINE
  5
117
100
AcDbEntity
  8
Cotas
  6
ByBlock
 62
    0
370
   -2
100
AcDbLine
 10
80
 20
76.77151816445914
 11
90
 21
76.77151816445914
  0
MTEXT
  5
118
100
AcDbEntity
  8
Cotas
  6
CONTINUOUS
 62
    0
370
   -2
100
AcDbMText
 10
85
 20
79.58401816445914
 30
0
 40
2.5
 41
2.5
 71
    5
 72
    1
  1
10
  7
standard
210
0
220
0
230
1
 50
0
 73
    2
 44
1
  0
SOLID
  5
119
100
AcDbEntity
  8
Cotas
  6
ByBlock
 62
    0
370
   -2
100
AcDbTrace
 10
80
 20
76.77151816445914
 30
0
 11
82.5
 21
77.18780282223197
 31
0
 12
82.5
 22
76.3552335066863
 32
0
 13
82.5
 23
76.3552335066863
 33
0
  0
SOLID
  5
11A
100
AcDbEntity
  8
Cotas
  6
ByBlock
 62
    0
370
   -2
100
AcDbTrace
 10
90
 20
76.77151816445914
 30
0
 11
87.5
 21
76.3552335066863
 31
0
 12
87.5
 22
77.18780282223197
 32
0
 13
87.5
 23
77.18780282223197
 33
0
  0
LINE
  5
11B
100
AcDbEntity
  8
Cotas
  6
ByBlock
 62
    0
370
   -2
100
AcDbLine
 10
80
 20
61.5625
 11
80
 21
79.89651816445914
  0
LINE
  5
11C
100
AcDbEntity
  8
Cotas
  6
ByBlock
 62
    0
370
   -2
100
AcDbLine
 10
90
 20
61.5625
 11
90
 21
79.89651816445914
  0
ENDBLK
  5
8F
330
8D
100
AcDbEntity
  8
0
100
AcDbBlockEnd
  0
BLOCK
  5
91
330
90
100
AcDbEntity
  8
0
100
AcDbBlockBegin
  2
*D14
 70
    1
 10
0
 20
0
  3
*D14
  1

  0
LINE
  5
11D
100
AcDbEntity
  8
Cotas
  6
ByBlock
 62
    0
370
   -2
100
AcDbLine
 10
-13.54018214201933
 20
65
 11
-13.54018214201933
 21
81
  0
MTEXT
  5
11E
100
AcDbEntity
  8
Cotas
  6
CONTINUOUS
 62
    0
370
   -2
100
AcDbMText
 10
-16.35268214201933
 20
73
 30
0
 40
2.5
 41
1.111111111111266
 71
    5
 72
    1
  1
6
  7
standard
210
0
220
0
230
1
 50
90
 73
    2
 44
1
  0
SOLID
  5
11F
100
AcDbEntity
  8
Cotas
  6
ByBlock
 62
    0
370
   -2
100
AcDbTrace
 10
-13.54018214201933
 20
70
 30
0
 11
-13.12389748424649
 21
67.5
 31
0
 12
-13.95646679979217
 22
67.5
 32
0
 13
-13.95646679979217
 23
67.5
 33
0
  0
SOLID
  5
120
100
AcDbEntity
  8
Cotas
  6
ByBlock
 62
    0
370
   -2
100
AcDbTrace
 10
-13.54018214201933
 20
76
 30
0
 11
-13.95646679979217
 21
78.5
 31
0
 12
-13.12389748424649
 22
78.5
 32
0
 13
-13.12389748424649
 23
78.5
 33
0
  0
LINE
  5
121
100
AcDbEntity
  8
Cotas
  6
ByBlock
 62
    0
370
   -2
100
AcDbLine
 10
-11.5625
 20
70
 11
-16.66518214201933
 21
70
  0
LINE
  5
122
100
AcDbEntity
  8
Cotas
  6
ByBlock
 62
    0
370
   -2
100
AcDbLine
 10
-1.5625
 20
76
 11
-16.66518214201933
 21
76
  0
ENDBLK
  5
92
330
90
100
AcDbEntity
  8
0
100
AcDbBlockEnd
  0
BLOCK
  5
94
330
93
100
AcDbEntity
  8
0
100
AcDbBlockBegin
  2
*D20
 70
    1
 10
0
 20
0
  3
*D20
  1

  0
LINE
  5
123
100
AcDbEntity
  8
Cotas
  6
ByBlock
 62
    0
370
   -2
100
AcDbLine
 10
46.53615998325092
 20
50
 11
46.53615998325092
 21
70
  0
MTEXT
  5
124
100
AcDbEntity
  8
Cotas
  6
CONTINUOUS
 62
    0
370
   -2
100
AcDbMText
 10
43.72365998325092
 20
60
 30
0
 40
2.5
 41
3.055555555555556
 71
    5
 72
    1
  1
20
  7
standard
210
0
220
0
230
1
 50
90
 73
    2
 44
1
  0
SOLID
  5
125
100
AcDbEntity
  8
Cotas
  6
ByBlock
 62
    0
370
   -2
100
AcDbTrace
 10
46.53615998325092
 20
50
 30
0
 11
46.11987532547808
 21
52.5
 31
0
 12
46.95244464102376
 22
52.5
 32
0
 13
46.95244464102376
 23
52.5
 33
0
  0
SOLID
  5
126
100
AcDbEntity
  8
Cotas
  6
ByBlock
 62
    0
370
   -2
100
AcDbTrace
 10
46.53615998325092
 20
70
 30
0
 11
46.95244464102376
 21
67.5
 31
0
 12
46.11987532547808
 22
67.5
 32
0
 13
46.11987532547808
 23
67.5
 33
0
  0
LINE
  5
127
100
AcDbEntity
  8
Cotas
  6
ByBlock
 62
    0
370
   -2
100
AcDbLine
 10
58.4375
 20
50
 11
43.41115998325092
 21
50
  0
LINE
  5
128
100
AcDbEntity
  8
Cotas
  6
ByBlock
 62
    0
370
   -2
100
AcDbLine
 10
58.4375
 20
70
 11
43.41115998325092
 21
70
  0
ENDBLK
  5
95
330
93
100
AcDbEntity
  8
0
100
AcDbBlockEnd
  0
BLOCK
  5
97
330
96
100
AcDbEntity
  8
0
100
AcDbBlockBegin
  2
*D22
 70
    1
 10
0
 20
0
  3
*D22
  1

  0
LINE
  5
129
100
AcDbEntity
  8
Cotas
  6
ByBlock
 62
    0
370
   -2
100
AcDbLine
 10
60
 20
76.77151816445914
 11
72
 21
76.77151816445914
  0
MTEXT
  5
12A
100
AcDbEntity
  8
Cotas
  6
CONTINUOUS
 62
    0
370
   -2
100
AcDbMText
 10
66
 20
79.58401816445914
 30
0
 40
2.5
 41
2.5
 71
    5
 72
    1
  1
12
  7
standard
210
0
220
0
230
1
 50
0
 73
    2
 44
1
  0
SOLID
  5
12B
100
AcDbEntity
  8
Cotas
  6
ByBlock
 62
    0
370
   -2
100
AcDbTrace
 10
60
 20
76.77151816445914
 30
0
 11
62.5
 21
77.18780282223197
 31
0
 12
62.5
 22
76.3552335066863
 32
0
 13
62.5
 23
76.3552335066863
 33
0
  0
SOLID
  5
12C
100
AcDbEntity
  8
Cotas
  6
ByBlock
 62
    0
370
   -2
100
AcDbTrace
 10
72
 20
76.77151816445914
 30
0
 11
69.5
 21
76.3552335066863
 31
0
 12
69.5
 22
77.18780282223197
 32
0
 13
69.5
 23
77.18780282223197
 33
0
  0
LINE
  5
12D
100
AcDbEntity
  8
Cotas
  6
ByBlock
 62
    0
370
   -2
100
AcDbLine
 10
60
 20
71.5625
 11
60
 21
79.89651816445914
  0
LINE
  5
12E
100
AcDbEntity
  8
Cotas
  6
ByBlock
 62
    0
370
   -2
100
AcDbLine
 10
72
 20
61.5625
 11
72
 21
79.89651816445914
  0
ENDBLK
  5
98
330
96
100
AcDbEntity
  8
0
100
AcDbBlockEnd
  0
BLOCK
  5
9A
330
99
100
AcDbEntity
  8
0
100
AcDbBlockBegin
  2
*D1
 70
    1
 10
0
 20
0
  3
*D1
  1

  0
LINE
  5
12F
100
AcDbEntity
  8
Cotas
  6
ByBlock
 62
    0
370
   -2
100
AcDbLine
 10
50
 20
111.5625
 11
50
 21
133.125
  0
LINE
  5
130
100
AcDbEntity
  8
Cotas
  6
ByBlock
 62
    0
370
   -2
100
AcDbLine
 10
30
 20
111.5625
 11
30
 21
133.125
  0
LINE
  5
131
100
AcDbEntity
  8
Cotas
  6
ByBlock
 62
    0
370
   -2
100
AcDbLine
 10
50
 20
130
 11
30
 21
130
  0
MTEXT
  5
132
100
AcDbEntity
  8
Cotas
  6
CONTINUOUS
 62
    0
370
   -2
100
AcDbMText
 10
40
 20
132.8125
 30
0
 40
2.5
 41
3.055555555555556
 71
    5
 72
    1
  1
20
  7
standard
210
0
220
0
230
1
 50
0
 73
    2
 44
1
  0
SOLID
  5
133
100
AcDbEntity
  8
Cotas
  6
ByBlock
 62
    0
370
   -2
100
AcDbTrace
 10
50
 20
130
 30
0
 11
47.5
 21
129.5837153422272
 31
0
 12
47.5
 22
130.4162846577728
 32
0
 13
47.5
 23
130.4162846577728
 33
0
  0
SOLID
  5
134
100
AcDbEntity
  8
Cotas
  6
ByBlock
 62
    0
370
   -2
100
AcDbTrace
 10
30
 20
130
 30
0
 11
32.5
 21
130.4162846577728
 31
0
 12
32.5
 22
129.5837153422272
 32
0
 13
32.5
 23
129.5837153422272
 33
0
  0
ENDBLK
  5
9B
330
99
100
AcDbEntity
  8
0
100
AcDbBlockEnd
  0
BLOCK
  5
9D
330
9C
100
AcDbEntity
  8
0
100
AcDbBlockBegin
  2
*D13
 70
    1
 10
0
 20
0
  3
*D13
  1

  0
LINE
  5
135
100
AcDbEntity
  8
Cotas
  6
ByBlock
 62
    0
370
   -2
100
AcDbLine
 10
-13.54018214201933
 20
50.00000000000001
 11
-13.54018214201933
 21
70
  0
MTEXT
  5
136
100
AcDbEntity
  8
Cotas
  6
CONTINUOUS
 62
    0
370
   -2
100
AcDbMText
 10
-16.35268214201933
 20
60
 30
0
 40
2.5
 41
3.055555555555556
 71
    5
 72
    1
  1
20
  7
standard
210
0
220
0
230
1
 50
90
 73
    2
 44
1
  0
SOLID
  5
137
100
AcDbEntity
  8
Cotas
  6
ByBlock
 62
    0
370
   -2
100
AcDbTrace
 10
-13.54018214201933
 20
50.00000000000001
 30
0
 11
-13.95646679979217
 21
52.50000000000001
 31
0
 12
-13.12389748424649
 22
52.50000000000001
 32
0
 13
-13.12389748424649
 23
52.50000000000001
 33
0
  0
SOLID
  5
138
100
AcDbEntity
  8
Cotas
  6
ByBlock
 62
    0
370
   -2
100
AcDbTrace
 10
-13.54018214201933
 20
70
 30
0
 11
-13.12389748424649
 21
67.5
 31
0
 12
-13.95646679979217
 22
67.5
 32
0
 13
-13.95646679979217
 23
67.5
 33
0
  0
LINE
  5
139
100
AcDbEntity
  8
Cotas
  6
ByBlock
 62
    0
370
   -2
100
AcDbLine
 10
-11.5625
 20
50.00000000000001
 11
-16.66518214201933
 21
50.00000000000001
  0
LINE
  5
13A
100
AcDbEntity
  8
Cotas
  6
ByBlock
 62
    0
370
   -2
100
AcDbLine
 10
-11.5625
 20
70
 11
-16.66518214201933
 21
70
  0
ENDBLK
  5
9E
330
9C
100
AcDbEntity
  8
0
100
AcDbBlockEnd
  0
BLOCK
  5
A0
330
9F
100
AcDbEntity
  8
0
100
AcDbBlockBegin
  2
*D7
 70
    1
 10
0
 20
0
  3
*D7
  1

  0
LINE
  5
13B
100
AcDbEntity
  8
Cotas
  6
ByBlock
 62
    0
370
   -2
100
AcDbLine
 10
-42
 20
85.31629330262668
 11
-30
 21
85.31629330262668
  0
MTEXT
  5
13C
100
AcDbEntity
  8
Cotas
  6
CONTINUOUS
 62
    0
370
   -2
100
AcDbMText
 10
-36
 20
88.12879330262668
 30
0
 40
2.5
 41
2.5
 71
    5
 72
    1
  1
12
  7
standard
210
0
220
0
230
1
 50
0
 73
    2
 44
1
  0
SOLID
  5
13D
100
AcDbEntity
  8
Cotas
  6
ByBlock
 62
    0
370
   -2
100
AcDbTrace
 10
-42
 20
85.31629330262668
 30
0
 11
-39.5
 21
85.73257796039951
 31
0
 12
-39.5
 22
84.90000864485384
 32
0
 13
-39.5
 23
84.90000864485384
 33
0
  0
SOLID
  5
13E
100
AcDbEntity
  8
Cotas
  6
ByBlock
 62
    0
370
   -2
100
AcDbTrace
 10
-30
 20
85.31629330262668
 30
0
 11
-32.5
 21
84.90000864485384
 31
0
 12
-32.5
 22
85.73257796039951
 32
0
 13
-32.5
 23
85.73257796039951
 33
0
  0
LINE
  5
13F
100
AcDbEntity
  8
Cotas
  6
ByBlock
 62
    0
370
   -2
100
AcDbLine
 10
-42
 20
77.5625
 11
-42
 21
88.44129330262668
  0
LINE
  5
140
100
AcDbEntity
  8
Cotas
  6
ByBlock
 62
    0
370
   -2
100
AcDbLine
 10
-30
 20
61.5625
 11
-30
 21
88.44129330262668
  0
ENDBLK
  5
A1
330
9F
100
AcDbEntity
  8
0
100
AcDbBlockEnd
  0
BLOCK
  5
A3
330
A2
100
AcDbEntity
  8
0
100
AcDbBlockBegin
  2
IN
 70
    0
 10
0
 20
0
  3
IN
  1

  0
HATCH
  5
141
100
AcDbEntity
  8
Relleno
  6
ByLayer
 62
    1
370
   -1
100
AcDbHatch
 10
0
 20
0
 30
0
210
0
220
0
230
1
  2
SOLID
 70
    1
 71
    0
 91
    1
 92
    0
 93
    1
 72
    2
 10
-20
 20
0
 40
10
 50
0
 51
360
 73
    1
 97
    0
 75
    0
 76
    1
 98
    0
  0
LINE
  5
142
100
AcDbEntity
  8
Componentes
  6
ByLayer
 62
  256
370
   -1
100
AcDbLine
 10
-10
 20
0
 11
0
 21
0
  0
CIRCLE
  5
143
100
AcDbEntity
  8
Componentes
  6
ByLayer
 62
  256
370
   -1
100
AcDbCircle
 10
-20
 20
0
 40
10
  0
ENDBLK
  5
A4
330
A2
100
AcDbEntity
  8
0
100
AcDbBlockEnd
  0
BLOCK
  5
A6
330
A5
100
AcDbEntity
  8
0
100
AcDbBlockBegin
  2
OUT
 70
    0
 10
0
 20
0
  3
OUT
  1

  0
HATCH
  5
144
100
AcDbEntity
  8
Relleno
  6
ByLayer
 62
    2
370
   -1
100
AcDbHatch
 10
0
 20
0
 30
0
210
0
220
0
230
1
  2
SOLID
 70
    1
 71
    0
 91
    1
 92
    0
 93
    1
 72
    2
 10
20
 20
0
 40
10
 50
0
 51
360
 73
    1
 97
    0
 75
    0
 76
    1
 98
    0
  0
LINE
  5
145
100
AcDbEntity
  8
Componentes
  6
ByLayer
 62
  256
370
   -1
100
AcDbLine
 10
10
 20
0
 11
0
 21
0
  0
CIRCLE
  5
146
100
AcDbEntity
  8
Componentes
  6
ByLayer
 62
  256
370
   -1
100
AcDbCircle
 10
20
 20
0
 40
10
  0
ENDBLK
  5
A7
330
A5
100
AcDbEntity
  8
0
100
AcDbBlockEnd
  0
BLOCK
  5
A9
330
A8
100
AcDbEntity
  8
0
100
AcDbBlockBegin
  2
AND
 70
    0
 10
0
 20
0
  3
AND
  1

  0
HATCH
  5
147
100
AcDbEntity
  8
Relleno
  6
ByLayer
 62
    3
370
   -1
100
AcDbHatch
 10
0
 20
0
 30
0
210
0
220
0
230
1
  2
SOLID
 70
    1
 71
    0
 91
    1
 92
    0
 93
    6
 72
    1
 10
-24.9999999925
 20
-9.9999999975
 11
-24.9999999925
 21
9.999999997500007
 72
    1
 10
-24.9999999925
 20
9.999999997500007
 11
-24.9999999925
 21
15.999999996
 72
    1
 10
-24.9999999925
 20
15.999999996
 11
-16.9999999945
 21
15.999999996
 72
    2
 10
-21.66666666
 20
0
 40
16.6666666625
 50
286.260204708312
 51
73.73979529168803
 73
    0
 72
    1
 10
-16.9999999945
 20
-15.999999996
 11
-24.9999999925
 21
-15.999999996
 72
    1
 10
-24.9999999925
 20
-15.999999996
 11
-24.9999999925
 21
-9.9999999975
 97
    0
 75
    0
 76
    1
 98
    0
  0
LINE
  5
148
100
AcDbEntity
  8
Componentes
  6
ByLayer
 62
  256
370
   -1
100
AcDbLine
 10
-24.9999999925
 20
-9.9999999975
 11
-24.9999999925
 21
9.999999997500007
  0
LINE
  5
149
100
AcDbEntity
  8
Componentes
  6
ByLayer
 62
  256
370
   -1
100
AcDbLine
 10
-24.9999999925
 20
9.999999997500007
 11
-24.9999999925
 21
15.999999996
  0
LINE
  5
14A
100
AcDbEntity
  8
Componentes
  6
ByLayer
 62
  256
370
   -1
100
AcDbLine
 10
-24.9999999925
 20
-9.9999999975
 11
-24.9999999925
 21
-15.999999996
  0
LINE
  5
14B
100
AcDbEntity
  8
Componentes
  6
ByLayer
 62
  256
370
   -1
100
AcDbLine
 10
-34.99999999
 20
9.999999997500007
 11
-24.9999999925
 21
9.999999997500007
  0
LINE
  5
14C
100
AcDbEntity
  8
Componentes
  6
ByLayer
 62
  256
370
   -1
100
AcDbLine
 10
-34.99999999
 20
-9.9999999975
 11
-24.9999999925
 21
-9.9999999975
  0
LINE
  5
14D
100
AcDbEntity
  8
Componentes
  6
ByLayer
 62
  256
370
   -1
100
AcDbLine
 10
-24.9999999925
 20
15.999999996
 11
-16.9999999945
 21
15.999999996
  0
LINE
  5
14E
100
AcDbEntity
  8
Componentes
  6
ByLayer
 62
  256
370
   -1
100
AcDbLine
 10
-24.9999999925
 20
-15.999999996
 11
-16.9999999945
 21
-15.999999996
  0
LINE
  5
14F
100
AcDbEntity
  8
Componentes
  6
ByLayer
 62
  256
370
   -1
100
AcDbLine
 10
-4.9999999975
 20
0
 11
5
 21
0
  0
ARC
  5
150
100
AcDbEntity
  8
Componentes
  6
ByLayer
 62
  256
370
   -1
100
AcDbCircle
 10
-21.66666666
 20
0
 40
16.6666666625
100
AcDbArc
 50
286.260204708312
 51
73.73979529168805
  0
ENDBLK
  5
AA
330
A8
100
AcDbEntity
  8
0
100
AcDbBlockEnd
  0
BLOCK
  5
AC
330
AB
100
AcDbEntity
  8
0
100
AcDbBlockBegin
  2
OR
 70
    0
 10
0
 20
0
  3
OR
  1

  0
HATCH
  5
151
100
AcDbEntity
  8
Relleno
  6
ByLayer
 62
    4
370
   -1
100
AcDbHatch
 10
0
 20
0
 30
0
210
0
220
0
230
1
  2
SOLID
 70
    1
 71
    0
 91
    1
 92
    0
 93
    4
 72
    2
 10
-60.00000000000001
 20
7.105427357601002e-15
 40
34.00000000000001
 50
331.927513064147
 51
28.07248693585297
 73
    0
 72
    1
 10
-30.00000000000001
 20
-16.00000000000001
 11
-22.00000000000001
 21
-16.00000000000001
 72
    2
 10
-26.66666666666667
 20
0
 40
16.66666666666667
 50
286.260204708312
 51
73.73979529168803
 73
    1
 72
    1
 10
-22
 20
16
 11
-30
 21
16
 97
    0
 75
    0
 76
    1
 98
    0
  0
ARC
  5
152
100
AcDbEntity
  8
Componentes
  6
ByLayer
 62
  256
370
   -1
100
AcDbCircle
 10
-60.00000000000001
 20
7.105427357601002e-15
 40
34.00000000000001
100
AcDbArc
 50
331.927513064147
 51
28.07248693585295
  0
LINE
  5
153
100
AcDbEntity
  8
Componentes
  6
ByLayer
 62
  256
370
   -1
100
AcDbLine
 10
-40
 20
-9.999999999999993
 11
-27.50384638145616
 21
-9.999999999999993
  0
LINE
  5
154
100
AcDbEntity
  8
Componentes
  6
ByLayer
 62
  256
370
   -1
100
AcDbLine
 10
-40
 20
10
 11
-27.50384638145617
 21
10
  0
LINE
  5
155
100
AcDbEntity
  8
Componentes
  6
ByLayer
 62
  256
370
   -1
100
AcDbLine
 10
-30
 20
16
 11
-22
 21
16
  0
LINE
  5
156
100
AcDbEntity
  8
Componentes
  6
ByLayer
 62
  256
370
   -1
100
AcDbLine
 10
-30.00000000000001
 20
-16.00000000000001
 11
-22.00000000000001
 21
-16.00000000000001
  0
LINE
  5
157
100
AcDbEntity
  8
Componentes
  6
ByLayer
 62
  256
370
   -1
100
AcDbLine
 10
-10
 20
0
 11
0
 21
0
  0
ARC
  5
158
100
AcDbEntity
  8
Componentes
  6
ByLayer
 62
  256
370
   -1
100
AcDbCircle
 10
-26.66666666666667
 20
0
 40
16.66666666666667
100
AcDbArc
 50
286.260204708312
 51
73.73979529168803
  0
ENDBLK
  5
AD
330
AB
100
AcDbEntity
  8
0
100
AcDbBlockEnd
  0
BLOCK
  5
AF
330
AE
100
AcDbEntity
  8
0
100
AcDbBlockBegin
  2
NOT
 70
    0
 10
0
 20
0
  3
NOT
  1

  0
HATCH
  5
159
100
AcDbEntity
  8
Relleno
  6
ByLayer
 62
    6
370
   -1
100
AcDbHatch
 10
0
 20
0
 30
0
210
0
220
0
230
1
  2
SOLID
 70
    1
 71
    0
 91
    1
 92
    0
 93
    4
 72
    2
 10
26
 20
0
 40
4
 50
0
 51
360
 73
    1
 72
    1
 10
10
 20
10
 11
10
 21
-10
 72
    1
 10
10
 20
-10
 11
22
 21
0
 72
    1
 10
22
 20
0
 11
10
 21
10
 97
    0
 75
    0
 76
    1
 98
    0
  0
LINE
  5
15A
100
AcDbEntity
  8
Componentes
  6
ByLayer
 62
  256
370
   -1
100
AcDbLine
 10
10
 20
10
 11
10
 21
-10
  0
LINE
  5
15B
100
AcDbEntity
  8
Componentes
  6
ByLayer
 62
  256
370
   -1
100
AcDbLine
 10
0
 20
0
 11
10
 21
0
  0
LINE
  5
15C
100
AcDbEntity
  8
Componentes
  6
ByLayer
 62
  256
370
   -1
100
AcDbLine
 10
30
 20
0
 11
40
 21
0
  0
LINE
  5
15D
100
AcDbEntity
  8
Componentes
  6
ByLayer
 62
  256
370
   -1
100
AcDbLine
 10
10
 20
10
 11
22
 21
0
  0
LINE
  5
15E
100
AcDbEntity
  8
Componentes
  6
ByLayer
 62
  256
370
   -1
100
AcDbLine
 10
22
 20
0
 11
10
 21
-10
  0
CIRCLE
  5
15F
100
AcDbEntity
  8
Componentes
  6
ByLayer
 62
  256
370
   -1
100
AcDbCircle
 10
26
 20
0
 40
4
  0
ENDBLK
  5
B0
330
AE
100
AcDbEntity
  8
0
100
AcDbBlockEnd
  0
ENDSEC
  0
SECTION
  2
ENTITIES
  0
HATCH
  5
160
100
AcDbEntity
  8
Relleno
  6
ByLayer
 62
    3
370
   -1
100
AcDbHatch
 10
0
 20
0
 30
0
210
0
220
0
230
1
  2
SOLID
 70
    1
 71
    0
 91
    1
 92
    0
 93
    6
 72
    1
 10
-50
 20
50
 11
-50
 21
70
 72
    1
 10
-50
 20
70
 11
-50
 21
76
 72
    1
 10
-50
 20
76
 11
-42
 21
76
 72
    2
 10
-46.66666666666666
 20
60
 40
16.66666666666667
 50
286.260204708312
 51
73.73979529168803
 73
    0
 72
    1
 10
-42
 20
44
 11
-50
 21
44
 72
    1
 10
-50
 20
44
 11
-50
 21
50
 97
    0
 75
    0
 76
    1
 98
    0
  0
HATCH
  5
161
100
AcDbEntity
  8
Relleno
  6
ByLayer
 62
    6
370
   -1
100
AcDbHatch
 10
0
 20
0
 30
0
210
0
220
0
230
1
  2
SOLID
 70
    1
 71
    0
 91
    1
 92
    0
 93
    4
 72
    2
 10
76
 20
60
 40
4
 50
0
 51
360
 73
    1
 72
    1
 10
60
 20
70
 11
60
 21
50
 72
    1
 10
60
 20
50
 11
72
 21
60
 72
    1
 10
72
 20
60
 11
60
 21
70
 97
    0
 75
    0
 76
    1
 98
    0
  0
HATCH
  5
162
100
AcDbEntity
  8
Relleno
  6
ByLayer
 62
    4
370
   -1
100
AcDbHatch
 10
0
 20
0
 30
0
210
0
220
0
230
1
  2
SOLID
 70
    1
 71
    0
 91
    1
 92
    0
 93
    4
 72
    2
 10
-30.00000000000001
 20
60.00000000000001
 40
34.00000000000001
 50
331.927513064147
 51
28.07248693585297
 73
    0
 72
    1
 10
-7.105427357601002e-15
 20
43.99999999999999
 11
7.999999999999993
 21
43.99999999999999
 72
    2
 10
3.333333333333325
 20
60
 40
16.66666666666667
 50
286.260204708312
 51
73.73979529168803
 73
    1
 72
    1
 10
8
 20
76
 11
0
 21
76
 97
    0
 75
    0
 76
    1
 98
    0
  0
HATCH
  5
163
100
AcDbEntity
  8
Relleno
  6
ByLayer
 62
    2
370
   -1
100
AcDbHatch
 10
0
 20
0
 30
0
210
0
220
0
230
1
  2
SOLID
 70
    1
 71
    0
 91
    1
 92
    0
 93
    1
 72
    2
 10
40
 20
110
 40
10
 50
0
 51
360
 73
    1
 97
    0
 75
    0
 76
    1
 98
    0
  0
HATCH
  5
164
100
AcDbEntity
  8
Relleno
  6
ByLayer
 62
    1
370
   -1
100
AcDbHatch
 10
0
 20
0
 30
0
210
0
220
0
230
1
  2
SOLID
 70
    1
 71
    0
 91
    1
 92
    0
 93
    1
 72
    2
 10
-30
 20
110
 40
10
 50
0
 51
360
 73
    1
 97
    0
 75
    0
 76
    1
 98
    0
  0
LINE
  5
165
100
AcDbEntity
  8
A4_Auxiliar
  6
CONTINUOUS
 62
    2
370
   -3
100
AcDbLine
 10
-34.00000000000001
 20
-88.5
 11
-21.00000000000001
 21
-83.5
  0
LINE
  5
166
100
AcDbEntity
  8
A4_Auxiliar
  6
CONTINUOUS
 62
    2
370
   -3
100
AcDbLine
 10
-34.00000000000001
 20
-83.5
 11
-21.00000000000001
 21
-88.5
  0
LINE
  5
167
100
AcDbEntity
  8
A4_Auxiliar
  6
CONTINUOUS
 62
    2
370
   -3
100
AcDbLine
 10
-21.00000000000001
 20
-88.5
 11
-1.000000000000014
 21
-83.5
  0
LINE
  5
168
100
AcDbEntity
  8
A4_Auxiliar
  6
CONTINUOUS
 62
    2
370
   -3
100
AcDbLine
 10
-1.000000000000014
 20
-88.5
 11
-21.00000000000001
 21
-83.5
  0
LINE
  5
169
100
AcDbEntity
  8
A4_Auxiliar
  6
CONTINUOUS
 62
    2
370
   -3
100
AcDbLine
 10
-54.00000000000002
 20
-118.5
 11
-34.00000000000001
 21
-98.5
  0
LINE
  5
16A
100
AcDbEntity
  8
A4_Auxiliar
  6
CONTINUOUS
 62
    2
370
   -3
100
AcDbLine
 10
-34.00000000000002
 20
-118.5
 11
-54.00000000000001
 21
-98.5
  0
LINE
  5
16B
100
AcDbEntity
  8
A4_Auxiliar
  6
CONTINUOUS
 62
    2
370
   -3
100
AcDbLine
 10
-54.00000000000002
 20
-138.5
 11
-34.00000000000002
 21
-128.5
  0
LINE
  5
16C
100
AcDbEntity
  8
A4_Auxiliar
  6
CONTINUOUS
 62
    2
370
   -3
100
AcDbLine
 10
-34.00000000000002
 20
-138.5
 11
-54.00000000000002
 21
-128.5
  0
LINE
  5
16D
100
AcDbEntity
  8
A4_Auxiliar
  6
CONTINUOUS
 62
    2
370
   -3
100
AcDbLine
 10
-34.00000000000002
 20
-138.5
 11
39.99999999999999
 21
-98.5
  0
LINE
  5
16E
100
AcDbEntity
  8
A4_Auxiliar
  6
CONTINUOUS
 62
    2
370
   -3
100
AcDbLine
 10
-34.00000000000001
 20
-98.5
 11
39.99999999999998
 21
-138.5
  0
LINE
  5
16F
100
AcDbEntity
  8
A4_Auxiliar
  6
CONTINUOUS
 62
    2
370
   -3
100
AcDbLine
 10
-1.000000000000014
 20
-78.5
 11
39.99999999999999
 21
-98.5
  0
LINE
  5
170
100
AcDbEntity
  8
A4_Auxiliar
  6
CONTINUOUS
 62
    2
370
   -3
100
AcDbLine
 10
39.99999999999999
 20
-78.5
 11
-1.000000000000016
 21
-98.5
  0
LINE
  5
171
100
AcDbEntity
  8
A4_Auxiliar
  6
CONTINUOUS
 62
    2
370
   -3
100
AcDbLine
 10
39.99999999999998
 20
-138.5
 11
84.99999999999999
 21
-128.5
  0
LINE
  5
172
100
AcDbEntity
  8
A4_Auxiliar
  6
CONTINUOUS
 62
    2
370
   -3
100
AcDbLine
 10
39.99999999999999
 20
-128.5
 11
84.99999999999997
 21
-138.5
  0
MTEXT
  5
173
100
AcDbEntity
  8
A4_Rotulación
  6
ByLayer
 62
  256
370
   35
100
AcDbMText
 10
19.49999999999999
 20
-88.5
 30
0
 40
6
 41
8.666665394653769
 71
    5
 72
    1
  1
SR
  7
standard
210
0
220
0
230
1
 50
0
 73
    2
 44
1
  0
MTEXT
  5
174
100
AcDbEntity
  8
A4_Rotulación
  6
ByLayer
 62
  256
370
   35
100
AcDbMText
 10
-44
 20
-108.5
 30
0
 40
6
 41
6.666666666666666
 71
    5
 72
    1
  1
1:1
  7
standard
210
0
220
0
230
1
 50
0
 73
    2
 44
1
  0
MTEXT
  5
175
100
AcDbEntity
  8
A4_Rotulación
  6
ByLayer
 62
  256
370
   35
100
AcDbMText
 10
-44
 20
-133.5
 30
0
 40
2
 41
3.111111111111111
 71
    5
 72
    1
  1
A4
  7
standard
210
0
220
0
230
1
 50
0
 73
    2
 44
1
  0
MTEXT
  5
176
100
AcDbEntity
  8
A4_Rotulación
  6
ByLayer
 62
  256
370
   35
100
AcDbMText
 10
-11.00000000000008
 20
-85.99999999999999
 30
0
 40
2
 41
5.555555555555648
 71
    5
 72
    1
  1
León
  7
standard
210
0
220
0
230
1
 50
0
 73
    2
 44
1
  0
CIRCLE
  5
177
100
AcDbEntity
  8
Sistema Americano
  6
CONTINUOUS
 62
  256
370
   35
100
AcDbCircle
 10
-50
 20
-123.5
 40
3
  0
CIRCLE
  5
178
100
AcDbEntity
  8
Sistema Americano
  6
CONTINUOUS
 62
  256
370
   35
100
AcDbCircle
 10
-50
 20
-123.5
 40
1.666666666666671
  0
LINE
  5
179
100
AcDbEntity
  8
Sistema Americano
  6
CONTINUOUS
 62
  256
370
   35
100
AcDbLine
 10
-43
 20
-125.1666666666649
 11
-43
 21
-121.8333333333351
  0
LINE
  5
17A
100
AcDbEntity
  8
Sistema Americano
  6
CONTINUOUS
 62
  256
370
   35
100
AcDbLine
 10
-43
 20
-121.8333333333351
 11
-35.99999999999988
 21
-120.5000000000001
  0
LINE
  5
17B
100
AcDbEntity
  8
Sistema Americano
  6
CONTINUOUS
 62
  256
370
   35
100
AcDbLine
 10
-35.99999999999988
 20
-120.5000000000001
 11
-35.99999999999999
 21
-126.5
  0
LINE
  5
17C
100
AcDbEntity
  8
Sistema Americano
  6
CONTINUOUS
 62
  256
370
   35
100
AcDbLine
 10
-35.99999999999999
 20
-126.5
 11
-42.99999999999999
 21
-125.1666666666649
  0
LINE
  5
17D
100
AcDbEntity
  8
Sistema Americano
  6
DASHDOTTINY
 62
  256
370
   35
100
AcDbLine
 10
-54
 20
-123.5
 11
-34
 21
-123.5
  0
LINE
  5
17E
100
AcDbEntity
  8
Sistema Americano
  6
DASHDOTTINY
 62
  256
370
   35
100
AcDbLine
 10
-50
 20
-128.5
 11
-50
 21
-118.5
  0
CIRCLE
  5
17F
100
AcDbEntity
  8
Sistema Europeo
  6
CONTINUOUS
 62
  256
370
   35
100
AcDbCircle
 10
-38
 20
-123.5
 40
3
  0
CIRCLE
  5
180
100
AcDbEntity
  8
Sistema Europeo
  6
CONTINUOUS
 62
  256
370
   35
100
AcDbCircle
 10
-38
 20
-123.5
 40
1.666666666666671
  0
LINE
  5
181
100
AcDbEntity
  8
Sistema Europeo
  6
CONTINUOUS
 62
  256
370
   35
100
AcDbLine
 10
-52.00000000000001
 20
-120.5000000000001
 11
-52
 21
-126.5
  0
LINE
  5
182
100
AcDbEntity
  8
Sistema Europeo
  6
CONTINUOUS
 62
  256
370
   35
100
AcDbLine
 10
-45
 20
-125.1666666666667
 11
-45
 21
-121.8333333333333
  0
LINE
  5
183
100
AcDbEntity
  8
Sistema Europeo
  6
CONTINUOUS
 62
  256
370
   35
100
AcDbLine
 10
-45
 20
-121.8333333333333
 11
-52.00000000000001
 21
-120.5000000000001
  0
LINE
  5
184
100
AcDbEntity
  8
Sistema Europeo
  6
CONTINUOUS
 62
  256
370
   35
100
AcDbLine
 10
-52
 20
-126.5
 11
-45
 21
-125.1666666666667
  0
LINE
  5
185
100
AcDbEntity
  8
Sistema Europeo
  6
DASHDOTTINY
 62
  256
370
   35
100
AcDbLine
 10
-54
 20
-123.5
 11
-34
 21
-123.5
  0
LINE
  5
186
100
AcDbEntity
  8
Sistema Europeo
  6
DASHDOTTINY
 62
  256
370
   35
100
AcDbLine
 10
-38
 20
-128.5
 11
-38
 21
-118.5
  0
MTEXT
  5
187
100
AcDbEntity
  8
A4_Etiquetas
  6
CONTINUOUS
 62
    0
370
   -1
100
AcDbMText
 10
-78.65271040222547
 20
-79.898968137472
 30
0
 40
2
 41
14.66666769524134
 71
    1
 72
    1
  1
Tolerancias\PGenerales
  7
standard
210
0
220
0
230
1
 50
0
 73
    2
 44
1
  0
MTEXT
  5
188
100
AcDbEntity
  8
A4_Etiquetas
  6
CONTINUOUS
 62
    0
370
   -1
100
AcDbMText
 10
-52.75824412543645
 20
-79.898968137472
 30
0
 40
2
 41
11.33333333333333
 71
    1
 72
    1
  1
Proyectó
  7
standard
210
0
220
0
230
1
 50
0
 73
    2
 44
1
  0
MTEXT
  5
189
100
AcDbEntity
  8
A4_Etiquetas
  6
CONTINUOUS
 62
    0
370
   -1
100
AcDbMText
 10
-52.75824412543645
 20
-84.74552599676406
 30
0
 40
2
 41
7.555555555555866
 71
    1
 72
    1
  1
Dibujó
  7
standard
210
0
220
0
230
1
 50
0
 73
    2
 44
1
  0
MTEXT
  5
18A
100
AcDbEntity
  8
A4_Etiquetas
  6
CONTINUOUS
 62
    0
370
   -1
100
AcDbMText
 10
-52.75824412543645
 20
-89.73055693775018
 30
0
 40
2
 41
8.000001028574394
 71
    1
 72
    1
  1
Revisó
  7
standard
210
0
220
0
230
1
 50
0
 73
    2
 44
1
  0
MTEXT
  5
18B
100
AcDbEntity
  8
A4_Etiquetas
  6
CONTINUOUS
 62
    0
370
   -1
100
AcDbMText
 10
-52.82748066628348
 20
-94.64635133788927
 30
0
 40
2
 41
8.888888888888982
 71
    1
 72
    1
  1
Aprobó
  7
standard
210
0
220
0
230
1
 50
0
 73
    2
 44
1
  0
MTEXT
  5
18C
100
AcDbEntity
  8
A4_Etiquetas
  6
CONTINUOUS
 62
    0
370
   -1
100
AcDbMText
 10
-52.82748066628348
 20
-99.83909190141648
 30
0
 40
2
 41
7.77777880635236
 71
    1
 72
    1
  1
Escala
  7
standard
210
0
220
0
230
1
 50
0
 73
    2
 44
1
  0
MTEXT
  5
18D
100
AcDbEntity
  8
A4_Etiquetas
  6
CONTINUOUS
 62
    0
370
   -1
100
AcDbMText
 10
-52.75824412543645
 20
-129.7492775473332
 30
0
 40
2
 41
10.22222222222241
 71
    1
 72
    1
  1
Formato
  7
standard
210
0
220
0
230
1
 50
0
 73
    2
 44
1
  0
MTEXT
  5
18E
100
AcDbEntity
  8
A4_Etiquetas
  6
CONTINUOUS
 62
    0
370
   -1
100
AcDbMText
 10
-32.74888382064493
 20
-99.63138227887539
 30
0
 40
2
 41
16.66666666666726
 71
    1
 72
    1
  1
Denominación
  7
standard
210
0
220
0
230
1
 50
0
 73
    2
 44
1
  0
MTEXT
  5
18F
100
AcDbEntity
  8
A4_Etiquetas
  6
CONTINUOUS
 62
    0
370
   -1
100
AcDbMText
 10
0.2769461633881178
 20
-79.898968137472
 30
0
 40
2
 41
8.444444444444661
 71
    1
 72
    1
  1
Cliente
  7
standard
210
0
220
0
230
1
 50
0
 73
    2
 44
1
  0
MTEXT
  5
190
100
AcDbEntity
  8
A4_Etiquetas
  6
CONTINUOUS
 62
    0
370
   -1
100
AcDbMText
 10
41.26497834482956
 20
-119.6407425836669
 30
0
 40
2
 41
21.44444444444472
 71
    1
 72
    1
  1
Nº plano cliente
  7
standard
210
0
220
0
230
1
 50
0
 73
    2
 44
1
  0
MTEXT
  5
191
100
AcDbEntity
  8
A4_Etiquetas
  6
CONTINUOUS
 62
    0
370
   -1
100
AcDbMText
 10
41.33421488567659
 20
-129.7492775473332
 30
0
 40
2
 41
11.05555555555574
 71
    1
 72
    1
  1
Nº plano 
  7
standard
210
0
220
0
230
1
 50
0
 73
    2
 44
1
  0
MTEXT
  5
192
100
AcDbEntity
  8
A4_Etiquetas
  6
CONTINUOUS
 62
    0
370
   -1
100
AcDbMText
 10
86.33796643624574
 20
-129.8185140881802
 30
0
 40
2
 41
4.888888888889075
 71
    1
 72
    1
  1
Pag.
  7
standard
210
0
220
0
230
1
 50
0
 73
    2
 44
1
  0
LINE
  5
193
100
AcDbEntity
  8
A4_Auxiliar
  6
ByLayer
 62
  256
370
   -1
100
AcDbLine
 10
7.499999999999985
 20
-78.5
 11
-80.00000000000001
 21
30
  0
LINE
  5
194
100
AcDbEntity
  8
A4_Auxiliar
  6
ByLayer
 62
  256
370
   -1
100
AcDbLine
 10
7.499999999999992
 20
30
 11
-80.00000000000001
 21
-78.5
  0
LINE
  5
195
100
AcDbEntity
  8
A4_Auxiliar
  6
ByLayer
 62
  256
370
   -1
100
AcDbLine
 10
7.499999999999985
 20
-78.5
 11
94.99999999999999
 21
30
  0
LINE
  5
196
100
AcDbEntity
  8
A4_Auxiliar
  6
ByLayer
 62
  256
370
   -1
100
AcDbLine
 10
7.499999999999992
 20
30
 11
94.99999999999999
 21
-78.5
  0
LINE
  5
197
100
AcDbEntity
  8
A4_Auxiliar
  6
ByLayer
 62
  256
370
   -1
100
AcDbLine
 10
7.499999999999992
 20
30
 11
95
 21
138.5
  0
LINE
  5
198
100
AcDbEntity
  8
A4_Auxiliar
  6
ByLayer
 62
  256
370
   -1
100
AcDbLine
 10
7.499999999999999
 20
138.5
 11
94.99999999999999
 21
30
  0
LINE
  5
199
100
AcDbEntity
  8
A4_Auxiliar
  6
ByLayer
 62
  256
370
   -1
100
AcDbLine
 10
-80.00000000000001
 20
30
 11
7.499999999999999
 21
138.5
  0
LINE
  5
19A
100
AcDbEntity
  8
A4_Auxiliar
  6
ByLayer
 62
  256
370
   -1
100
AcDbLine
 10
7.499999999999992
 20
30.00000000000001
 11
-80
 21
138.5
  0
LINE
  5
19B
100
AcDbEntity
  8
Componentes
  6
ByLayer
 62
  256
370
   -1
100
AcDbLine
 10
30
 20
110
 11
20
 21
110
  0
CIRCLE
  5
19C
100
AcDbEntity
  8
Componentes
  6
ByLayer
 62
  256
370
   -1
100
AcDbCircle
 10
40
 20
110
 40
10
  0
LINE
  5
19D
100
AcDbEntity
  8
Componentes
  6
ByLayer
 62
  256
370
   -1
100
AcDbLine
 10
-20
 20
110
 11
-10
 21
110
  0
CIRCLE
  5
19E
100
AcDbEntity
  8
Componentes
  6
ByLayer
 62
  256
370
   -1
100
AcDbCircle
 10
-30
 20
110
 40
10
  0
ARC
  5
19F
100
AcDbEntity
  8
Componentes
  6
ByLayer
 62
  256
370
   -1
100
AcDbCircle
 10
-30.00000000000001
 20
60.00000000000001
 40
34.00000000000001
100
AcDbArc
 50
331.927513064147
 51
28.07248693585295
  0
LINE
  5
1A0
100
AcDbEntity
  8
Componentes
  6
ByLayer
 62
  256
370
   -1
100
AcDbLine
 10
-10
 20
50.00000000000001
 11
2.496153618543836
 21
50.00000000000001
  0
LINE
  5
1A1
100
AcDbEntity
  8
Componentes
  6
ByLayer
 62
  256
370
   -1
100
AcDbLine
 10
-10
 20
70
 11
2.496153618543826
 21
70
  0
LINE
  5
1A2
100
AcDbEntity
  8
Componentes
  6
ByLayer
 62
  256
370
   -1
100
AcDbLine
 10
0
 20
76
 11
8
 21
76
  0
LINE
  5
1A3
100
AcDbEntity
  8
Componentes
  6
ByLayer
 62
  256
370
   -1
100
AcDbLine
 10
-7.105427357601002e-15
 20
43.99999999999999
 11
7.999999999999993
 21
43.99999999999999
  0
LINE
  5
1A4
100
AcDbEntity
  8
Componentes
  6
ByLayer
 62
  256
370
   -1
100
AcDbLine
 10
20
 20
60
 11
30
 21
60
  0
ARC
  5
1A5
100
AcDbEntity
  8
Componentes
  6
ByLayer
 62
  256
370
   -1
100
AcDbCircle
 10
3.333333333333325
 20
60
 40
16.66666666666667
100
AcDbArc
 50
286.260204708312
 51
73.73979529168803
  0
MTEXT
  5
1A6
100
AcDbEntity
  8
Componentes
  6
ByLayer
 62
  256
370
   -1
100
AcDbMText
 10
8.199196468306582
 20
36.61978985814814
 30
0
 40
6
 41
8.666666666666666
 71
    5
 72
    1
  1
OR
  7
standard
210
0
220
0
230
1
 50
0
 73
    2
 44
1
  0
LINE
  5
1A7
100
AcDbEntity
  8
Componentes
  6
ByLayer
 62
  256
370
   -1
100
AcDbLine
 10
60
 20
70
 11
60
 21
50
  0
LINE
  5
1A8
100
AcDbEntity
  8
Componentes
  6
ByLayer
 62
  256
370
   -1
100
AcDbLine
 10
50
 20
60
 11
60
 21
60
  0
LINE
  5
1A9
100
AcDbEntity
  8
Componentes
  6
ByLayer
 62
  256
370
   -1
100
AcDbLine
 10
80
 20
60
 11
90
 21
60
  0
LINE
  5
1AA
100
AcDbEntity
  8
Componentes
  6
ByLayer
 62
  256
370
   -1
100
AcDbLine
 10
60
 20
70
 11
72
 21
60
  0
LINE
  5
1AB
100
AcDbEntity
  8
Componentes
  6
ByLayer
 62
  256
370
   -1
100
AcDbLine
 10
72
 20
60
 11
60
 21
50
  0
CIRCLE
  5
1AC
100
AcDbEntity
  8
Componentes
  6
ByLayer
 62
  256
370
   -1
100
AcDbCircle
 10
76
 20
60
 40
4
  0
MTEXT
  5
1AD
100
AcDbEntity
  8
Componentes
  6
ByLayer
 62
  256
370
   -1
100
AcDbMText
 10
71.67295769027923
 20
36.81561761140026
 30
0
 40
6
 41
14
 71
    5
 72
    1
  1
NOT
  7
standard
210
0
220
0
230
1
 50
0
 73
    2
 44
1
  0
INSERT
  5
1AE
100
AcDbEntity
  8
Circuito
  6
ByLayer
 62
    6
370
   -1
100
AcDbBlockReference
  2
IN
 10
-60
 20
-20
 30
0
 41
0.5
 42
0.5
 43
0
 50
0
 70
    1
 71
    1
 44
0.5
 45
0.5
  0
INSERT
  5
1AF
100
AcDbEntity
  8
Circuito
  6
ByLayer
 62
    6
370
   -1
100
AcDbBlockReference
  2
IN
 10
-60
 20
0
 30
0
 41
0.5
 42
0.5
 43
0
 50
0
 70
    1
 71
    1
 44
0.5
 45
0.5
  0
INSERT
  5
1B0
100
AcDbEntity
  8
Circuito
  6
ByLayer
 62
    6
370
   -1
100
AcDbBlockReference
  2
IN
 10
-60
 20
-40
 30
0
 41
0.5
 42
0.5
 43
0
 50
0
 70
    1
 71
    1
 44
0.5
 45
0.5
  0
INSERT
  5
1B1
100
AcDbEntity
  8
Circuito
  6
ByLayer
 62
    6
370
   -1
100
AcDbBlockReference
  2
AND
 10
7.499999994999996
 20
9.999999998749999
 30
0
 41
0.5
 42
0.5
 43
0
 50
0
 70
    1
 71
    1
 44
0.5
 45
0.5
  0
INSERT
  5
1B2
100
AcDbEntity
  8
Circuito
  6
ByLayer
 62
    6
370
   -1
100
AcDbBlockReference
  2
AND
 10
7.5
 20
-20
 30
0
 41
0.5
 42
0.5
 43
0
 50
0
 70
    1
 71
    1
 44
0.5
 45
0.5
  0
INSERT
  5
1B3
100
AcDbEntity
  8
Circuito
  6
ByLayer
 62
    6
370
   -1
100
AcDbBlockReference
  2
OR
 10
10
 20
-55
 30
0
 41
0.5
 42
0.5
 43
0
 50
0
 70
    1
 71
    1
 44
0.5
 45
0.5
  0
INSERT
  5
1B4
100
AcDbEntity
  8
Circuito
  6
ByLayer
 62
    6
370
   -1
100
AcDbBlockReference
  2
NOT
 10
-44
 20
5
 30
0
 41
0.5
 42
0.5
 43
0
 50
0
 70
    1
 71
    1
 44
0.5
 45
0.5
  0
INSERT
  5
1B5
100
AcDbEntity
  8
Circuito
  6
ByLayer
 62
    6
370
   -1
100
AcDbBlockReference
  2
NOT
 10
-44
 20
-15
 30
0
 41
0.5
 42
0.5
 43
0
 50
0
 70
    1
 71
    1
 44
0.5
 45
0.5
  0
INSERT
  5
1B6
100
AcDbEntity
  8
Circuito
  6
ByLayer
 62
    6
370
   -1
100
AcDbBlockReference
  2
NOT
 10
-44
 20
-25
 30
0
 41
0.5
 42
0.5
 43
0
 50
0
 70
    1
 71
    1
 44
0.5
 45
0.5
  0
INSERT
  5
1B7
100
AcDbEntity
  8
Circuito
  6
ByLayer
 62
    6
370
   -1
100
AcDbBlockReference
  2
OR
 10
40
 20
0
 30
0
 41
0.5
 42
0.5
 43
0
 50
0
 70
    1
 71
    1
 44
0.5
 45
0.5
  0
INSERT
  5
1B8
100
AcDbEntity
  8
Circuito
  6
ByLayer
 62
    6
370
   -1
100
AcDbBlockReference
  2
NOT
 10
20
 20
-25
 30
0
 41
0.5
 42
0.5
 43
0
 50
0
 70
    1
 71
    1
 44
0.5
 45
0.5
  0
INSERT
  5
1B9
100
AcDbEntity
  8
Circuito
  6
ByLayer
 62
    6
370
   -1
100
AcDbBlockReference
  2
AND
 10
60
 20
-20
 30
0
 41
0.5
 42
0.5
 43
0
 50
0
 70
    1
 71
    1
 44
1
 45
1
  0
INSERT
  5
1BA
100
AcDbEntity
  8
Circuito
  6
ByLayer
 62
    6
370
   -1
100
AcDbBlockReference
  2
OUT
 10
70
 20
-20
 30
0
 41
0.5
 42
0.5
 43
0
 50
0
 70
    1
 71
    1
 44
1
 45
1
  0
LINE
  5
1BB
100
AcDbEntity
  8
Circuito
  6
ByLayer
 62
  256
370
   70
100
AcDbLine
 10
42.500000005
 20
-15.00000000125
 11
42.500000005
 21
0
  0
LINE
  5
1BC
100
AcDbEntity
  8
Circuito
  6
ByLayer
 62
  256
370
   70
100
AcDbLine
 10
42.500000005
 20
0
 11
40
 21
0
  0
LINE
  5
1BD
100
AcDbEntity
  8
Circuito
  6
ByLayer
 62
  256
370
   70
100
AcDbLine
 10
42.500000005
 20
-24.99999999875
 11
40
 21
-25
  0
LINE
  5
1BE
100
AcDbEntity
  8
Circuito
  6
ByLayer
 62
  256
370
   70
100
AcDbLine
 10
70
 20
-20
 11
62.5
 21
-20
  0
LINE
  5
1BF
100
AcDbEntity
  8
Circuito
  6
ByLayer
 62
  256
370
   70
100
AcDbLine
 10
20
 20
-25
 11
20
 21
-55
  0
LINE
  5
1C0
100
AcDbEntity
  8
Circuito
  6
ByLayer
 62
  256
370
   70
100
AcDbLine
 10
20
 20
-55
 11
10
 21
-55
  0
LINE
  5
1C1
100
AcDbEntity
  8
Circuito
  6
ByLayer
 62
  256
370
   70
100
AcDbLine
 10
10
 20
-20
 11
10
 21
-4.999999999999996
  0
LINE
  5
1C2
100
AcDbEntity
  8
Circuito
  6
ByLayer
 62
  256
370
   70
100
AcDbLine
 10
10
 20
-4.999999999999996
 11
20
 21
-4.999999999999996
  0
LINE
  5
1C3
100
AcDbEntity
  8
Circuito
  6
ByLayer
 62
  256
370
   70
100
AcDbLine
 10
10
 20
10
 11
10
 21
5
  0
LINE
  5
1C4
100
AcDbEntity
  8
Circuito
  6
ByLayer
 62
  256
370
   70
100
AcDbLine
 10
10
 20
5
 11
20
 21
5
  0
LINE
  5
1C5
100
AcDbEntity
  8
Circuito
  6
ByLayer
 62
  256
370
   70
100
AcDbLine
 10
-60
 20
0
 11
-60
 21
14.9999999975
  0
LINE
  5
1C6
100
AcDbEntity
  8
Circuito
  6
ByLayer
 62
  256
370
   70
100
AcDbLine
 10
-60
 20
14.9999999975
 11
-10
 21
14.9999999975
  0
LINE
  5
1C7
100
AcDbEntity
  8
Circuito
  6
ByLayer
 62
  256
370
   70
100
AcDbLine
 10
-60
 20
0
 11
-60
 21
-15
  0
LINE
  5
1C8
100
AcDbEntity
  8
Circuito
  6
ByLayer
 62
  256
370
   70
100
AcDbLine
 10
-60
 20
-15
 11
-44
 21
-15
  0
LINE
  5
1C9
100
AcDbEntity
  8
Circuito
  6
ByLayer
 62
  256
370
   70
100
AcDbLine
 10
-60
 20
-20
 11
-55
 21
-20
  0
LINE
  5
1CA
100
AcDbEntity
  8
Circuito
  6
ByLayer
 62
  256
370
   70
100
AcDbLine
 10
-55
 20
-20
 11
-55
 21
5
  0
LINE
  5
1CB
100
AcDbEntity
  8
Circuito
  6
ByLayer
 62
  256
370
   70
100
AcDbLine
 10
-55
 20
5
 11
-44
 21
5
  0
LINE
  5
1CC
100
AcDbEntity
  8
Circuito
  6
ByLayer
 62
  256
370
   70
100
AcDbLine
 10
-55
 20
-20
 11
-55
 21
-60
  0
LINE
  5
1CD
100
AcDbEntity
  8
Circuito
  6
ByLayer
 62
  256
370
   70
100
AcDbLine
 10
-55
 20
-60
 11
-10
 21
-60
  0
LINE
  5
1CE
100
AcDbEntity
  8
Circuito
  6
ByLayer
 62
  256
370
   70
100
AcDbLine
 10
-60
 20
-40
 11
-50
 21
-40
  0
LINE
  5
1CF
100
AcDbEntity
  8
Circuito
  6
ByLayer
 62
  256
370
   70
100
AcDbLine
 10
-50
 20
-40
 11
-50
 21
-25
  0
LINE
  5
1D0
100
AcDbEntity
  8
Circuito
  6
ByLayer
 62
  256
370
   70
100
AcDbLine
 10
-50
 20
-25
 11
-44
 21
-25
  0
LINE
  5
1D1
100
AcDbEntity
  8
Circuito
  6
ByLayer
 62
  256
370
   70
100
AcDbLine
 10
-50
 20
-40
 11
-50
 21
-50
  0
LINE
  5
1D2
100
AcDbEntity
  8
Circuito
  6
ByLayer
 62
  256
370
   70
100
AcDbLine
 10
-50
 20
-50
 11
-10
 21
-50
  0
LINE
  5
1D3
100
AcDbEntity
  8
Circuito
  6
ByLayer
 62
  256
370
   70
100
AcDbLine
 10
-24
 20
-25
 11
-9.999999995
 21
-24.99999999875
  0
LINE
  5
1D4
100
AcDbEntity
  8
Circuito
  6
ByLayer
 62
  256
370
   70
100
AcDbLine
 10
-24
 20
-15
 11
-9.999999995
 21
-15.00000000125
  0
LINE
  5
1D5
100
AcDbEntity
  8
Circuito
  6
ByLayer
 62
  256
370
   70
100
AcDbLine
 10
-24
 20
5
 11
-10
 21
4.999999999999999
  0
POINT
  5
1D6
100
AcDbEntity
  8
Circuito
  6
ByLayer
 62
  256
370
  211
100
AcDbPoint
 10
-60
 20
0
  0
POINT
  5
1D7
100
AcDbEntity
  8
Circuito
  6
ByLayer
 62
  256
370
  211
100
AcDbPoint
 10
-55
 20
-20
  0
POINT
  5
1D8
100
AcDbEntity
  8
Circuito
  6
ByLayer
 62
  256
370
  211
100
AcDbPoint
 10
-50
 20
-40
  0
MTEXT
  5
1D9
100
AcDbEntity
  8
A4_Rotulación
  6
ByLayer
 62
  256
370
   -1
100
AcDbMText
 10
3.000000000000014
 20
-118.5
 30
0
 40
6
 41
41.16666666666694
 71
    5
 72
    1
  1
Práctico 4\PEjercicio 4
  7
standard
210
0
220
0
230
1
 50
0
 73
    2
 44
1
  0
MTEXT
  5
1DA
100
AcDbEntity
  8
Componentes
  6
ByLayer
 62
  256
370
   -1
100
AcDbMText
 10
-30.10619950082143
 20
94.86293050258827
 30
0
 40
6
 41
5.333333333333333
 71
    5
 72
    1
  1
IN
  7
standard
210
0
220
0
230
1
 50
0
 73
    2
 44
1
  0
MTEXT
  5
1DB
100
AcDbEntity
  8
Componentes
  6
ByLayer
 62
  256
370
   -1
100
AcDbMText
 10
40.4025682494653
 20
94.37885874957379
 30
0
 40
6
 41
14
 71
    5
 72
    1
  1
OUT
  7
standard
210
0
220
0
230
1
 50
0
 73
    2
 44
1
  0
LINE
  5
1DC
100
AcDbEntity
  8
Componentes
  6
ByLayer
 62
  256
370
   -1
100
AcDbLine
 10
-50
 20
50
 11
-50
 21
70
  0
LINE
  5
1DD
100
AcDbEntity
  8
Componentes
  6
ByLayer
 62
  256
370
   -1
100
AcDbLine
 10
-50
 20
70
 11
-50
 21
76
  0
LINE
  5
1DE
100
AcDbEntity
  8
Componentes
  6
ByLayer
 62
  256
370
   -1
100
AcDbLine
 10
-50
 20
50
 11
-50
 21
44
  0
LINE
  5
1DF
100
AcDbEntity
  8
Componentes
  6
ByLayer
 62
  256
370
   -1
100
AcDbLine
 10
-60
 20
70
 11
-50
 21
70
  0
LINE
  5
1E0
100
AcDbEntity
  8
Componentes
  6
ByLayer
 62
  256
370
   -1
100
AcDbLine
 10
-60
 20
50
 11
-50
 21
50
  0
LINE
  5
1E1
100
AcDbEntity
  8
Componentes
  6
ByLayer
 62
  256
370
   -1
100
AcDbLine
 10
-50
 20
76
 11
-42
 21
76
  0
LINE
  5
1E2
100
AcDbEntity
  8
Componentes
  6
ByLayer
 62
  256
370
   -1
100
AcDbLine
 10
-50
 20
44
 11
-42
 21
44
  0
LINE
  5
1E3
100
AcDbEntity
  8
Componentes
  6
ByLayer
 62
  256
370
   -1
100
AcDbLine
 10
-30
 20
60
 11
-20
 21
60
  0
ARC
  5
1E4
100
AcDbEntity
  8
Componentes
  6
ByLayer
 62
  256
370
   -1
100
AcDbCircle
 10
-46.66666666666666
 20
60
 40
16.66666666666667
100
AcDbArc
 50
286.260204708312
 51
73.73979529168805
  0
MTEXT
  5
1E5
100
AcDbEntity
  8
Componentes
  6
ByLayer
 62
  256
370
   -1
100
AcDbMText
 10
-44.02321625120114
 20
36.35465600099191
 30
0
 40
6
 41
14.66666666666704
 71
    5
 72
    1
  1
AND
  7
standard
210
0
220
0
230
1
 50
0
 73
    2
 44
1
  0
LINE
  5
1E6
100
AcDbEntity
  8
A4_Hoja
  6
CONTINUOUS
 62
  256
370
   70
100
AcDbLine
 10
-105
 20
-148.5
 11
-105
 21
148.5
  0
LINE
  5
1E7
100
AcDbEntity
  8
A4_Hoja
  6
CONTINUOUS
 62
  256
370
   70
100
AcDbLine
 10
105
 20
-148.5
 11
105
 21
148.5
  0
LINE
  5
1E8
100
AcDbEntity
  8
A4_Hoja
  6
CONTINUOUS
 62
  256
370
   70
100
AcDbLine
 10
-105
 20
-148.5
 11
105
 21
-148.5
  0
LINE
  5
1E9
100
AcDbEntity
  8
A4_Hoja
  6
CONTINUOUS
 62
  256
370
   70
100
AcDbLine
 10
-105
 20
148.5
 11
105
 21
148.5
  0
LINE
  5
1EA
100
AcDbEntity
  8
A4_Recuadro
  6
CONTINUOUS
 62
  256
370
   70
100
AcDbLine
 10
-80.00000000000001
 20
-138.5
 11
-80
 21
138.5
  0
LINE
  5
1EB
100
AcDbEntity
  8
A4_Recuadro
  6
CONTINUOUS
 62
  256
370
   70
100
AcDbLine
 10
94.99999999999999
 20
-138.5
 11
95
 21
138.5
  0
LINE
  5
1EC
100
AcDbEntity
  8
A4_Recuadro
  6
CONTINUOUS
 62
  256
370
   70
100
AcDbLine
 10
-80
 20
138.5
 11
95
 21
138.5
  0
LINE
  5
1ED
100
AcDbEntity
  8
A4_Recuadro
  6
CONTINUOUS
 62
  256
370
   70
100
AcDbLine
 10
-80.00000000000001
 20
-138.5
 11
94.99999999999999
 21
-138.5
  0
LINE
  5
1EE
100
AcDbEntity
  8
A4_Recuadro
  6
CONTINUOUS
 62
  256
370
   70
100
AcDbLine
 10
-80.00000000000001
 20
-78.5
 11
94.99999999999999
 21
-78.5
  0
LINE
  5
1EF
100
AcDbEntity
  8
A4_Divisiones
  6
CONTINUOUS
 62
  256
370
   35
100
AcDbLine
 10
39.99999999999999
 20
-78.5
 11
39.99999999999998
 21
-138.5
  0
LINE
  5
1F0
100
AcDbEntity
  8
A4_Divisiones
  6
CONTINUOUS
 62
  256
370
   35
100
AcDbLine
 10
-54.00000000000001
 20
-78.5
 11
-54.00000000000002
 21
-138.5
  0
LINE
  5
1F1
100
AcDbEntity
  8
A4_Divisiones
  6
CONTINUOUS
 62
  256
370
   35
100
AcDbLine
 10
-34.00000000000001
 20
-78.5
 11
-34.00000000000002
 21
-138.5
  0
LINE
  5
1F2
100
AcDbEntity
  8
A4_Divisiones
  6
CONTINUOUS
 62
  256
370
   35
100
AcDbLine
 10
-21.00000000000001
 20
-78.5
 11
-21.00000000000001
 21
-98.5
  0
LINE
  5
1F3
100
AcDbEntity
  8
A4_Divisiones
  6
CONTINUOUS
 62
  256
370
   35
100
AcDbLine
 10
-1.000000000000014
 20
-78.5
 11
-1.000000000000016
 21
-98.5
  0
LINE
  5
1F4
100
AcDbEntity
  8
A4_Divisiones
  6
CONTINUOUS
 62
  256
370
   35
100
AcDbLine
 10
94.99999999999999
 20
-88.5
 11
39.99999999999999
 21
-88.5
  0
LINE
  5
1F5
100
AcDbEntity
  8
A4_Divisiones
  6
CONTINUOUS
 62
  256
370
   35
100
AcDbLine
 10
94.99999999999999
 20
-98.5
 11
39.99999999999999
 21
-98.5
  0
LINE
  5
1F6
100
AcDbEntity
  8
A4_Divisiones
  6
CONTINUOUS
 62
  256
370
   35
100
AcDbLine
 10
94.99999999999999
 20
-118.5
 11
39.99999999999999
 21
-118.5
  0
LINE
  5
1F7
100
AcDbEntity
  8
A4_Divisiones
  6
CONTINUOUS
 62
  256
370
   35
100
AcDbLine
 10
94.99999999999999
 20
-128.5
 11
39.99999999999999
 21
-128.5
  0
LINE
  5
1F8
100
AcDbEntity
  8
A4_Divisiones
  6
CONTINUOUS
 62
  256
370
   35
100
AcDbLine
 10
39.99999999999999
 20
-98.5
 11
-54.00000000000001
 21
-98.5
  0
LINE
  5
1F9
100
AcDbEntity
  8
A4_Divisiones
  6
CONTINUOUS
 62
  256
370
   35
100
AcDbLine
 10
-54.00000000000002
 20
-138.5
 11
-54.00000000000002
 21
-128.5
  0
LINE
  5
1FA
100
AcDbEntity
  8
A4_Divisiones
  6
CONTINUOUS
 62
  256
370
   35
100
AcDbLine
 10
-54.00000000000002
 20
-128.5
 11
-54.00000000000002
 21
-118.5
  0
LINE
  5
1FB
100
AcDbEntity
  8
A4_Divisiones
  6
CONTINUOUS
 62
  256
370
   35
100
AcDbLine
 10
-54.00000000000001
 20
-98.5
 11
-54.00000000000001
 21
-88.5
  0
LINE
  5
1FC
100
AcDbEntity
  8
A4_Divisiones
  6
CONTINUOUS
 62
  256
370
   35
100
AcDbLine
 10
-54.00000000000001
 20
-88.5
 11
-54.00000000000001
 21
-78.5
  0
LINE
  5
1FD
100
AcDbEntity
  8
A4_Divisiones
  6
CONTINUOUS
 62
  256
370
   35
100
AcDbLine
 10
-54.00000000000001
 20
-88.5
 11
-54.00000000000001
 21
-83.5
  0
LINE
  5
1FE
100
AcDbEntity
  8
A4_Divisiones
  6
CONTINUOUS
 62
  256
370
   35
100
AcDbLine
 10
-54.00000000000001
 20
-98.5
 11
-54.00000000000001
 21
-93.5
  0
LINE
  5
1FF
100
AcDbEntity
  8
A4_Divisiones
  6
CONTINUOUS
 62
  256
370
   35
100
AcDbLine
 10
-54.00000000000001
 20
-83.5
 11
-1.000000000000014
 21
-83.5
  0
LINE
  5
200
100
AcDbEntity
  8
A4_Divisiones
  6
CONTINUOUS
 62
  256
370
   35
100
AcDbLine
 10
-54.00000000000001
 20
-88.5
 11
-1.000000000000014
 21
-88.5
  0
LINE
  5
201
100
AcDbEntity
  8
A4_Divisiones
  6
CONTINUOUS
 62
  256
370
   35
100
AcDbLine
 10
-54.00000000000001
 20
-93.5
 11
-1.000000000000014
 21
-93.5
  0
LINE
  5
202
100
AcDbEntity
  8
A4_Divisiones
  6
CONTINUOUS
 62
  256
370
   35
100
AcDbLine
 10
-54.00000000000002
 20
-118.5
 11
-34.00000000000002
 21
-118.5
  0
LINE
  5
203
100
AcDbEntity
  8
A4_Divisiones
  6
CONTINUOUS
 62
  256
370
   35
100
AcDbLine
 10
-54.00000000000002
 20
-128.5
 11
-34.00000000000002
 21
-128.5
  0
LINE
  5
204
100
AcDbEntity
  8
A4_Divisiones
  6
CONTINUOUS
 62
  256
370
   35
100
AcDbLine
 10
84.99999999999999
 20
-138.5
 11
84.99999999999999
 21
-128.5
  0
LINE
  5
205
100
AcDbEntity
  8
A4_Divisiones
  6
ByLayer
 62
  256
370
   -1
100
AcDbLine
 10
-80.00000000000001
 20
30
 11
94.99999999999999
 21
30
  0
DIMENSION
  5
206
100
AcDbEntity
  8
Cotas
  6
ByLayer
 62
  256
370
   -1
100
AcDbDimension
  2
*D1
 10
30
 20
130
 30
0
 11
40
 21
132.8125
 31
0
 70
   33
 71
    5
  3
Standard
 53
0
210
0
220
0
230
1
100
AcDbAlignedDimension
 13
50
 23
110
 33
0
 14
30
 24
110
 34
0
  0
DIMENSION
  5
207
100
AcDbEntity
  8
Cotas
  6
ByLayer
 62
  256
370
   -1
100
AcDbDimension
  2
*D2
 10
30.00000000000001
 20
130
 30
0
 11
25.00000000000001
 21
132.8125
 31
0
 70
   33
 71
    5
  3
Standard
 53
0
210
0
220
0
230
1
100
AcDbAlignedDimension
 13
20
 23
110
 33
0
 14
30.00000000000001
 24
110
 34
0
  0
DIMENSION
  5
208
100
AcDbEntity
  8
Cotas
  6
ByLayer
 62
  256
370
   -1
100
AcDbDimension
  2
*D3
 10
-20
 20
130
 30
0
 11
-30
 21
132.8125
 31
0
 70
   33
 71
    5
  3
Standard
 53
0
210
0
220
0
230
1
100
AcDbAlignedDimension
 13
-40
 23
110
 33
0
 14
-20
 24
110
 34
0
  0
DIMENSION
  5
209
100
AcDbEntity
  8
Cotas
  6
ByLayer
 62
  256
370
   -1
100
AcDbDimension
  2
*D4
 10
-20.00000000000001
 20
130
 30
0
 11
-15
 21
132.8125
 31
0
 70
   33
 71
    5
  3
Standard
 53
0
210
0
220
0
230
1
100
AcDbAlignedDimension
 13
-10
 23
110
 33
0
 14
-20.00000000000001
 24
110
 34
0
  0
DIMENSION
  5
20A
100
AcDbEntity
  8
Cotas
  6
ByLayer
 62
  256
370
   -1
100
AcDbDimension
  2
*D5
 10
-50
 20
85.31629330262668
 30
0
 11
-55
 21
88.12879330262668
 31
0
 70
   32
 71
    5
 72
    0
  3
Standard
 53
0
210
0
220
0
230
1
100
AcDbAlignedDimension
 13
-60
 23
70
 33
0
 14
-50
 24
76
 34
0
100
AcDbRotatedDimension
  0
DIMENSION
  5
20B
100
AcDbEntity
  8
Cotas
  6
ByLayer
 62
  256
370
   -1
100
AcDbDimension
  2
*D6
 10
-41.99999999999999
 20
85.31629330262668
 30
0
 11
-46
 21
88.12879330262668
 31
0
 70
   32
 71
    5
 72
    0
  3
Standard
 53
0
210
0
220
0
230
1
100
AcDbAlignedDimension
 13
-50
 23
76
 33
0
 14
-41.99999999999999
 24
76
 34
0
100
AcDbRotatedDimension
  0
DIMENSION
  5
20C
100
AcDbEntity
  8
Cotas
  6
ByLayer
 62
  256
370
   -1
100
AcDbDimension
  2
*D7
 10
-30
 20
85.31629330262668
 30
0
 11
-36
 21
88.12879330262668
 31
0
 70
   32
 71
    5
 72
    0
  3
Standard
 53
0
210
0
220
0
230
1
100
AcDbAlignedDimension
 13
-42
 23
76
 33
0
 14
-30
 24
60
 34
0
100
AcDbRotatedDimension
  0
DIMENSION
  5
20D
100
AcDbEntity
  8
Cotas
  6
ByLayer
 62
  256
370
   -1
100
AcDbDimension
  2
*D8
 10
-20
 20
85.31629330262668
 30
0
 11
-25
 21
88.12879330262668
 31
0
 70
   32
 71
    5
 72
    0
  3
Standard
 53
0
210
0
220
0
230
1
100
AcDbAlignedDimension
 13
-30
 23
60
 33
0
 14
-20
 24
60
 34
0
100
AcDbRotatedDimension
  0
DIMENSION
  5
20E
100
AcDbEntity
  8
Cotas
  6
ByLayer
 62
  256
370
   -1
100
AcDbDimension
  2
*D9
 10
-66.51778799865809
 20
50
 30
0
 11
-69.33028799865809
 21
47
 31
0
 70
   32
 71
    5
 72
    0
  3
Standard
 53
0
210
0
220
0
230
1
100
AcDbAlignedDimension
 13
-50
 23
44
 33
0
 14
-60
 24
50
 34
0
 50
90
100
AcDbRotatedDimension
  0
DIMENSION
  5
20F
100
AcDbEntity
  8
Cotas
  6
ByLayer
 62
  256
370
   -1
100
AcDbDimension
  2
*D10
 10
-66.51778799865809
 20
70
 30
0
 11
-69.33028799865809
 21
60
 31
0
 70
   32
 71
    5
 72
    0
  3
Standard
 53
0
210
0
220
0
230
1
100
AcDbAlignedDimension
 13
-60
 23
50
 33
0
 14
-60
 24
70
 34
0
 50
90
100
AcDbRotatedDimension
  0
DIMENSION
  5
210
100
AcDbEntity
  8
Cotas
  6
ByLayer
 62
  256
370
   -1
100
AcDbDimension
  2
*D11
 10
-66.51778799865809
 20
76
 30
0
 11
-69.33028799865809
 21
73
 31
0
 70
   32
 71
    5
 72
    0
  3
Standard
 53
0
210
0
220
0
230
1
100
AcDbAlignedDimension
 13
-60
 23
70
 33
0
 14
-50
 24
76
 34
0
 50
90
100
AcDbRotatedDimension
  0
DIMENSION
  5
211
100
AcDbEntity
  8
Cotas
  6
ByLayer
 62
  256
370
   -1
100
AcDbDimension
  2
*D12
 10
-13.54018214201933
 20
50.00000000000001
 30
0
 11
-16.35268214201933
 21
46.99999999999999
 31
0
 70
   32
 71
    5
 72
    0
  3
Standard
 53
0
210
0
220
0
230
1
100
AcDbAlignedDimension
 13
-2.486899575160351e-14
 23
43.99999999999996
 33
0
 14
-10
 24
50.00000000000001
 34
0
 50
90
100
AcDbRotatedDimension
  0
DIMENSION
  5
212
100
AcDbEntity
  8
Cotas
  6
ByLayer
 62
  256
370
   -1
100
AcDbDimension
  2
*D13
 10
-13.54018214201933
 20
70
 30
0
 11
-16.35268214201933
 21
60
 31
0
 70
   32
 71
    5
 72
    0
  3
Standard
 53
0
210
0
220
0
230
1
100
AcDbAlignedDimension
 13
-10
 23
50.00000000000001
 33
0
 14
-10
 24
70
 34
0
 50
90
100
AcDbRotatedDimension
  0
DIMENSION
  5
213
100
AcDbEntity
  8
Cotas
  6
ByLayer
 62
  256
370
   -1
100
AcDbDimension
  2
*D14
 10
-13.54018214201933
 20
76
 30
0
 11
-16.35268214201933
 21
73
 31
0
 70
   32
 71
    5
 72
    0
  3
Standard
 53
0
210
0
220
0
230
1
100
AcDbAlignedDimension
 13
-10
 23
70
 33
0
 14
0
 24
76
 34
0
 50
90
100
AcDbRotatedDimension
  0
DIMENSION
  5
214
100
AcDbEntity
  8
Cotas
  6
ByLayer
 62
  256
370
   -1
100
AcDbDimension
  2
*D15
 10
3.999999999999996
 20
59.99999999999997
 30
0
 11
1.999999999999986
 21
62.81249999999997
 31
0
 70
   32
 71
    5
 72
    0
  3
Standard
 53
0
210
0
220
0
230
1
100
AcDbAlignedDimension
 13
-2.486899575160351e-14
 23
43.99999999999996
 33
0
 14
3.999999999999996
 24
59.99999999999997
 34
0
100
AcDbRotatedDimension
  0
DIMENSION
  5
215
100
AcDbEntity
  8
Cotas
  6
ByLayer
 62
  256
370
   -1
100
AcDbDimension
  2
*D16
 10
5.704395986234742e-16
 20
85.31629330262668
 30
0
 11
-5
 21
88.12879330262668
 31
0
 70
   32
 71
    5
 72
    0
  3
Standard
 53
0
210
0
220
0
230
1
100
AcDbAlignedDimension
 13
-10
 23
70
 33
0
 14
0
 24
76
 34
0
100
AcDbRotatedDimension
  0
DIMENSION
  5
216
100
AcDbEntity
  8
Cotas
  6
ByLayer
 62
  256
370
   -1
100
AcDbDimension
  2
*D17
 10
8
 20
85.31629330262668
 30
0
 11
4
 21
88.12879330262668
 31
0
 70
   32
 71
    5
 72
    0
  3
Standard
 53
0
210
0
220
0
230
1
100
AcDbAlignedDimension
 13
0
 23
76
 33
0
 14
8
 24
76
 34
0
100
AcDbRotatedDimension
  0
DIMENSION
  5
217
100
AcDbEntity
  8
Cotas
  6
ByLayer
 62
  256
370
   -1
100
AcDbDimension
  2
*D18
 10
20
 20
85.31629330262668
 30
0
 11
14
 21
88.12879330262668
 31
0
 70
   32
 71
    5
 72
    0
  3
Standard
 53
0
210
0
220
0
230
1
100
AcDbAlignedDimension
 13
7.999999999999997
 23
76
 33
0
 14
20
 24
60
 34
0
100
AcDbRotatedDimension
  0
DIMENSION
  5
218
100
AcDbEntity
  8
Cotas
  6
ByLayer
 62
  256
370
   -1
100
AcDbDimension
  2
*D19
 10
30
 20
85.31629330262668
 30
0
 11
25
 21
88.12879330262668
 31
0
 70
   32
 71
    5
 72
    0
  3
Standard
 53
0
210
0
220
0
230
1
100
AcDbAlignedDimension
 13
20
 23
60
 33
0
 14
30
 24
60
 34
0
100
AcDbRotatedDimension
  0
DIMENSION
  5
219
100
AcDbEntity
  8
Cotas
  6
ByLayer
 62
  256
370
   -1
100
AcDbDimension
  2
*D20
 10
46.53615998325092
 20
70
 30
0
 11
43.72365998325092
 21
60
 31
0
 70
   32
 71
    5
 72
    0
  3
Standard
 53
0
210
0
220
0
230
1
100
AcDbAlignedDimension
 13
60
 23
50
 33
0
 14
60
 24
70
 34
0
 50
90
100
AcDbRotatedDimension
  0
DIMENSION
  5
21A
100
AcDbEntity
  8
Cotas
  6
ByLayer
 62
  256
370
   -1
100
AcDbDimension
  2
*D21
 10
60
 20
76.77151816445914
 30
0
 11
55
 21
79.58401816445914
 31
0
 70
   32
 71
    5
 72
    0
  3
Standard
 53
0
210
0
220
0
230
1
100
AcDbAlignedDimension
 13
50
 23
60
 33
0
 14
60
 24
70
 34
0
100
AcDbRotatedDimension
  0
DIMENSION
  5
21B
100
AcDbEntity
  8
Cotas
  6
ByLayer
 62
  256
370
   -1
100
AcDbDimension
  2
*D22
 10
72
 20
76.77151816445914
 30
0
 11
66
 21
79.58401816445914
 31
0
 70
   32
 71
    5
 72
    0
  3
Standard
 53
0
210
0
220
0
230
1
100
AcDbAlignedDimension
 13
60
 23
70
 33
0
 14
72
 24
60
 34
0
100
AcDbRotatedDimension
  0
DIMENSION
  5
21C
100
AcDbEntity
  8
Cotas
  6
ByLayer
 62
  256
370
   -1
100
AcDbDimension
  2
*D23
 10
80
 20
76.77151816445914
 30
0
 11
76
 21
79.58401816445914
 31
0
 70
   32
 71
    5
 72
    0
  3
Standard
 53
0
210
0
220
0
230
1
100
AcDbAlignedDimension
 13
72
 23
60
 33
0
 14
80
 24
60
 34
0
100
AcDbRotatedDimension
  0
DIMENSION
  5
21D
100
AcDbEntity
  8
Cotas
  6
ByLayer
 62
  256
370
   -1
100
AcDbDimension
  2
*D24
 10
90
 20
76.77151816445914
 30
0
 11
85
 21
79.58401816445914
 31
0
 70
   32
 71
    5
 72
    0
  3
Standard
 53
0
210
0
220
0
230
1
100
AcDbAlignedDimension
 13
80
 23
60
 33
0
 14
90
 24
60
 34
0
100
AcDbRotatedDimension
  0
MTEXT
  5
21E
100
AcDbEntity
  8
A4_Rotulación
  6
ByLayer
 62
  256
370
   -1
100
AcDbMText
 10
62.49999999999999
 20
-133.5
 30
0
 40
6
 41
7.333333333333333
 71
    5
 72
    1
  1
27
  7
standard
210
0
220
0
230
1
 50
0
 73
    2
 44
1
  0
MTEXT
  5
21F
100
AcDbEntity
  8
A4_Rotulación
  6
ByLayer
 62
  256
370
   -1
100
AcDbMText
 10
-27.50000000000004
 20
-86
 30
0
 40
1.5
 41
11.33333333333343
 71
    5
 72
    1
  1
09/05/2024
  7
standard
210
0
220
0
230
1
 50
0
 73
    2
 44
1
  0
ENDSEC
  0
SECTION
  2
OBJECTS
  0
DICTIONARY
  5
C
330
0
100
AcDbDictionary
281
    1
  3
ACAD_GROUP
350
D
  0
DICTIONARY
  5
D
330
C
100
AcDbDictionary
281
    1
  0
PLOTSETTINGS
  5
220
100
AcDbPlotSettings
  6
1x1
 40
0
 41
0
 42
0
 43
0
  0
ENDSEC
  0
EOF
