999
dxfrw 0.6.3
  0
SECTION
  2
HEADER
  9
$ACADVER
  1
AC1021
  9
$DWGCODEPAGE
  3
ANSI_1252
  9
$INSBASE
 10
0
 20
0
 30
0
  9
$EXTMIN
 10
0
 20
0
 30
0
  9
$EXTMAX
 10
210
 20
297
 30
0
  9
$LIMMIN
 10
0
 20
0
  9
$LIMMAX
 10
420
 20
297
  9
$ORTHOMODE
 70
    0
  9
$REGENMODE
 70
    1
  9
$FILLMODE
 70
    1
  9
$QTEXTMODE
 70
    0
  9
$MIRRTEXT
 70
    0
  9
$LTSCALE
 40
1
  9
$ATTMODE
 70
    0
  9
$TEXTSIZE
 40
2.5
  9
$TRACEWID
 40
15.68
  9
$TEXTSTYLE
  7
STANDARD
  9
$CLAYER
  8
A4_Rotulación
  9
$CELTYPE
  6
BYLAYER
  9
$CECOLOR
 62
  256
  9
$CELTSCALE
 40
1
  9
$DISPSILH
 70
    0
  9
$DIMSCALE
 40
2.5
  9
$DIMASZ
 40
1
  9
$DIMEXO
 40
0.625
  9
$DIMDLI
 40
3.75
  9
$DIMRND
 40
0
  9
$DIMDLE
 40
0
  9
$DIMEXE
 40
1.25
  9
$DIMTP
 40
0
  9
$DIMTM
 40
0
  9
$DIMTXT
 40
1
  9
$DIMCEN
 40
2.5
  9
$DIMTSZ
 40
0
  9
$DIMTOL
 70
    0
  9
$DIMLIM
 70
    0
  9
$DIMTIH
 70
    0
  9
$DIMTOH
 70
    0
  9
$DIMSE1
 70
    0
  9
$DIMSE2
 70
    0
  9
$DIMTAD
 70
    1
  9
$DIMZIN
 70
    8
  9
$DIMBLK
  1

  9
$DIMASO
 70
    1
  9
$DIMSHO
 70
    1
  9
$DIMPOST
  1

  9
$DIMAPOST
  1

  9
$DIMALT
 70
    0
  9
$DIMALTD
 70
    3
  9
$DIMALTF
 40
0.03937
  9
$DIMLFAC
 40
1
  9
$DIMTOFL
 70
    1
  9
$DIMTVP
 40
0
  9
$DIMTIX
 70
    0
  9
$DIMSOXD
 70
    0
  9
$DIMSAH
 70
    0
  9
$DIMBLK1
  1

  9
$DIMBLK2
  1

  9
$DIMSTYLE
  2
STANDARD
  9
$DIMCLRD
 70
    0
  9
$DIMCLRE
 70
    0
  9
$DIMCLRT
 70
    0
  9
$DIMTFAC
 40
1
  9
$DIMGAP
 40
0.625
  9
$DIMJUST
 70
    0
  9
$DIMSD1
 70
    0
  9
$DIMSD2
 70
    0
  9
$DIMTOLJ
 70
    0
  9
$DIMTZIN
 70
    8
  9
$DIMALTZ
 70
    0
  9
$DIMALTTZ
 70
    0
  9
$DIMUPT
 70
    0
  9
$DIMDEC
 70
    2
  9
$DIMTDEC
 70
    2
  9
$DIMALTU
 70
    2
  9
$DIMALTTD
 70
    3
  9
$DIMTXSTY
  7
standard
  9
$DIMAUNIT
 70
    0
  9
$DIMADEC
 70
    0
  9
$DIMALTRND
 40
0
  9
$DIMAZIN
 70
    0
  9
$DIMDSEP
 70
    0
  9
$DIMATFIT
 70
    3
  9
$DIMFRAC
 70
    0
  9
$DIMLDRBLK
  1
STANDARD
  9
$DIMLUNIT
 70
    2
  9
$DIMLWD
 70
   -2
  9
$DIMLWE
 70
   -2
  9
$DIMTMOVE
 70
    0
  9
$DIMFXL
 40
1
  9
$DIMFXLON
 70
    0
  9
$DIMJOGANG
 40
0.7854
  9
$DIMTFILL
 70
    0
  9
$DIMTFILLCLR
 70
    0
  9
$DIMARCSYM
 70
    0
  9
$DIMLTYPE
  6

  9
$DIMLTEX1
  6

  9
$DIMLTEX2
  6

  9
$LUNITS
 70
    2
  9
$LUPREC
 70
    1
  9
$SKETCHINC
 40
1
  9
$FILLETRAD
 40
0
  9
$AUNITS
 70
    0
  9
$AUPREC
 70
    0
  9
$MENU
  1
.
  9
$ELEVATION
 40
0
  9
$PELEVATION
 40
0
  9
$THICKNESS
 40
0
  9
$LIMCHECK
 70
    0
  9
$CHAMFERA
 40
0
  9
$CHAMFERB
 40
0
  9
$CHAMFERC
 40
0
  9
$CHAMFERD
 40
0
  9
$SKPOLY
 70
    0
  9
$USRTIMER
 70
    1
  9
$ANGBASE
 50
0
  9
$ANGDIR
 70
    0
  9
$PDMODE
 70
   34
  9
$PDSIZE
 40
0
  9
$PLINEWID
 40
0
  9
$SPLFRAME
 70
    0
  9
$SPLINETYPE
 70
    2
  9
$SPLINESEGS
 70
    8
  9
$HANDSEED
  5
20000
  9
$SURFTAB1
 70
    6
  9
$SURFTAB2
 70
    6
  9
$SURFTYPE
 70
    6
  9
$SURFU
 70
    6
  9
$SURFV
 70
    6
  9
$UCSBASE
  2

  9
$UCSNAME
  2

  9
$UCSORG
 10
0
 20
0
 30
0
  9
$UCSXDIR
 10
1
 20
0
 30
0
  9
$UCSYDIR
 10
0
 20
1
 30
0
  9
$UCSORTHOREF
  2

  9
$UCSORTHOVIEW
 70
    0
  9
$UCSORGTOP
 10
0
 20
0
 30
0
  9
$UCSORGBOTTOM
 10
0
 20
0
 30
0
  9
$UCSORGLEFT
 10
0
 20
0
 30
0
  9
$UCSORGRIGHT
 10
0
 20
0
 30
0
  9
$UCSORGFRONT
 10
0
 20
0
 30
0
  9
$UCSORGBACK
 10
0
 20
0
 30
0
  9
$PUCSBASE
  2

  9
$PUCSNAME
  2

  9
$PUCSORG
 10
0
 20
0
 30
0
  9
$PUCSXDIR
 10
1
 20
0
 30
0
  9
$PUCSYDIR
 10
0
 20
1
 30
0
  9
$PUCSORTHOREF
  2

  9
$PUCSORTHOVIEW
 70
    0
  9
$PUCSORGTOP
 10
0
 20
0
 30
0
  9
$PUCSORGBOTTOM
 10
0
 20
0
 30
0
  9
$PUCSORGLEFT
 10
0
 20
0
 30
0
  9
$PUCSORGRIGHT
 10
0
 20
0
 30
0
  9
$PUCSORGFRONT
 10
0
 20
0
 30
0
  9
$PUCSORGBACK
 10
0
 20
0
 30
0
  9
$USERI1
 70
    0
  9
$USERI2
 70
    0
  9
$USERI3
 70
    0
  9
$USERI4
 70
    0
  9
$USERI5
 70
    0
  9
$USERR1
 40
0
  9
$USERR2
 40
0
  9
$USERR3
 40
0
  9
$USERR4
 40
0
  9
$USERR5
 40
0
  9
$WORLDVIEW
 70
    1
  9
$SHADEDGE
 70
    3
  9
$SHADEDIF
 70
   70
  9
$TILEMODE
 70
    1
  9
$MAXACTVP
 70
   64
  9
$PINSBASE
 10
0
 20
0
 30
0
  9
$PLIMCHECK
 70
    0
  9
$PEXTMIN
 10
0
 20
0
 30
0
  9
$PEXTMAX
 10
0
 20
0
 30
0
  9
$GRIDMODE
 70
    1
  9
$SNAPSTYLE
 70
    0
  9
$GRIDUNIT
 10
0
 20
0
  9
$PLIMMIN
 10
0
 20
0
  9
$PLIMMAX
 10
210
 20
297
  9
$UNITMODE
 70
    0
  9
$VISRETAIN
 70
    1
  9
$PLINEGEN
 70
    0
  9
$PSLTSCALE
 70
    1
  9
$TREEDEPTH
 70
 3020
  9
$CMLSTYLE
  2
Standard
  9
$CMLJUST
 70
    0
  9
$CMLSCALE
 40
20
  9
$PROXYGRAPHICS
 70
    1
  9
$MEASUREMENT
 70
    1
  9
$CELWEIGHT
370
   -1
  9
$ENDCAPS
280
    0
  9
$JOINSTYLE
280
    0
  9
$LWDISPLAY
290
    0
  9
$INSUNITS
 70
    0
  9
$HYPERLINKBASE
  1

  9
$STYLESHEET
  1

  9
$XEDIT
290
    1
  9
$CEPSNTYPE
380
    0
  9
$PSTYLEMODE
290
    1
  9
$EXTNAMES
290
    1
  9
$PSVPSCALE
 40
1
  9
$OLESTARTUP
290
    0
  9
$SORTENTS
280
  127
  9
$INDEXCTL
280
    0
  9
$HIDETEXT
280
    1
  9
$XCLIPFRAME
290
    0
  9
$HALOGAP
280
    0
  9
$OBSCOLOR
 70
  257
  9
$OBSLTYPE
280
    0
  9
$INTERSECTIONDISPLAY
280
    0
  9
$INTERSECTIONCOLOR
 70
  257
  9
$DIMASSOC
280
    1
  9
$PROJECTNAME
  1

  9
$CAMERADISPLAY
290
    0
  9
$LENSLENGTH
 40
50
  9
$CAMERAHEIGHT
 40
0
  9
$STEPSPERSEC
 40
2
  9
$STEPSIZE
 40
50
  9
$3DDWFPREC
 40
2
  9
$PSOLWIDTH
 40
5
  9
$PSOLHEIGHT
 40
80
  9
$LOFTANG1
 40
1.570796326794897
  9
$LOFTANG2
 40
1.570796326794897
  9
$LOFTMAG1
 40
0
  9
$LOFTMAG2
 40
0
  9
$LOFTPARAM
 70
    7
  9
$LOFTNORMALS
280
    1
  9
$LATITUDE
 40
1
  9
$LONGITUDE
 40
1
  9
$NORTHDIRECTION
 40
0
  9
$TIMEZONE
 70
-8000
  9
$LIGHTGLYPHDISPLAY
280
    1
  9
$TILEMODELIGHTSYNCH
280
    1
  9
$SOLIDHIST
280
    1
  9
$SHOWHIST
280
    1
  9
$DWFFRAME
280
    2
  9
$DGNFRAME
280
    0
  9
$REALWORLDSCALE
290
    1
  9
$INTERFERECOLOR
 62
    1
  9
$CSHADOW
280
    0
  9
$SHADOWPLANELOCATION
 40
0
  0
ENDSEC
  0
SECTION
  2
CLASSES
  0
ENDSEC
  0
SECTION
  2
TABLES
  0
TABLE
  2
VPORT
  5
8
330
0
100
AcDbSymbolTable
 70
    1
  0
VPORT
  5
31
330
2
100
AcDbSymbolTableRecord
100
AcDbViewportTableRecord
  2
*ACTIVE
 70
    0
 10
0
 20
0
 11
1
 21
1
 12
189.2
 22
151.25
 13
0
 23
0
 14
10
 24
10
 15
10
 25
10
 16
0
 26
0
 36
1
 17
0
 27
0
 37
0
 40
308
 41
1.775
 42
50
 43
0
 44
0
 50
0
 51
0
 71
    0
 72
  100
 73
    1
 74
    3
 75
    0
 76
    1
 77
    0
 78
    0
281
    0
 65
    1
110
0
120
0
130
0
111
1
121
0
131
0
112
0
122
1
132
0
 79
    0
146
0
348
10020
 60
    7
 61
    5
292
1
282
    1
141
0
142
0
 63
  250
421
3358443
  0
ENDTAB
  0
TABLE
  2
LTYPE
  5
5
330
0
100
AcDbSymbolTable
 70
    4
  0
LTYPE
  5
14
330
5
100
AcDbSymbolTableRecord
100
AcDbLinetypeTableRecord
  2
ByBlock
 70
    0
  3

 72
   65
 73
    0
 40
0
  0
LTYPE
  5
15
330
5
100
AcDbSymbolTableRecord
100
AcDbLinetypeTableRecord
  2
ByLayer
 70
    0
  3

 72
   65
 73
    0
 40
0
  0
LTYPE
  5
16
330
5
100
AcDbSymbolTableRecord
100
AcDbLinetypeTableRecord
  2
Continuous
 70
    0
  3
Solid line
 72
   65
 73
    0
 40
0
  0
LTYPE
  5
32
330
5
100
AcDbSymbolTableRecord
100
AcDbLinetypeTableRecord
  2
DOT
 70
    0
  3
Dot . . . . . . . . . . . . . . . . . . . . . .
 72
   65
 73
    2
 40
6.35
 49
0
 74
    0
 49
-6.35
 74
    0
  0
LTYPE
  5
33
330
5
100
AcDbSymbolTableRecord
100
AcDbLinetypeTableRecord
  2
DOTTINY
 70
    0
  3
Dot (.15x) .....................................
 72
   65
 73
    2
 40
0.9525
 49
0
 74
    0
 49
-0.9525
 74
    0
  0
LTYPE
  5
34
330
5
100
AcDbSymbolTableRecord
100
AcDbLinetypeTableRecord
  2
DOT2
 70
    0
  3
Dot (.5x) .....................................
 72
   65
 73
    2
 40
3.175
 49
0
 74
    0
 49
-3.175
 74
    0
  0
LTYPE
  5
35
330
5
100
AcDbSymbolTableRecord
100
AcDbLinetypeTableRecord
  2
DOTX2
 70
    0
  3
Dot (2x) .  .  .  .  .  .  .  .  .  .  .  .  .
 72
   65
 73
    2
 40
12.7
 49
0
 74
    0
 49
-12.7
 74
    0
  0
LTYPE
  5
36
330
5
100
AcDbSymbolTableRecord
100
AcDbLinetypeTableRecord
  2
DASHED
 70
    0
  3
Dashed _ _ _ _ _ _ _ _ _ _ _ _ _ _ _ _ _
 72
   65
 73
    2
 40
19.05
 49
12.7
 74
    0
 49
-6.35
 74
    0
  0
LTYPE
  5
37
330
5
100
AcDbSymbolTableRecord
100
AcDbLinetypeTableRecord
  2
DASHEDTINY
 70
    0
  3
Dashed (.15x) _ _ _ _ _ _ _ _ _ _ _ _ _ _ _ _ _
 72
   65
 73
    2
 40
2.8575
 49
1.905
 74
    0
 49
-0.9525
 74
    0
  0
LTYPE
  5
38
330
5
100
AcDbSymbolTableRecord
100
AcDbLinetypeTableRecord
  2
DASHED2
 70
    0
  3
Dashed (.5x) _ _ _ _ _ _ _ _ _ _ _ _ _ _ _ _ _
 72
   65
 73
    2
 40
9.524999999999999
 49
6.35
 74
    0
 49
-3.175
 74
    0
  0
LTYPE
  5
39
330
5
100
AcDbSymbolTableRecord
100
AcDbLinetypeTableRecord
  2
DASHEDX2
 70
    0
  3
Dashed (2x) ____  ____  ____  ____  ____  ___
 72
   65
 73
    2
 40
38.09999999999999
 49
25.4
 74
    0
 49
-12.7
 74
    0
  0
LTYPE
  5
3A
330
5
100
AcDbSymbolTableRecord
100
AcDbLinetypeTableRecord
  2
DASHDOT
 70
    0
  3
Dash dot __ . __ . __ . __ . __ . __ . __ . __
 72
   65
 73
    4
 40
25.4
 49
12.7
 74
    0
 49
-6.35
 74
    0
 49
0
 74
    0
 49
-6.35
 74
    0
  0
LTYPE
  5
3B
330
5
100
AcDbSymbolTableRecord
100
AcDbLinetypeTableRecord
  2
DASHDOTTINY
 70
    0
  3
Dash dot (.15x) _._._._._._._._._._._._._._._.
 72
   65
 73
    4
 40
3.81
 49
1.905
 74
    0
 49
-0.9525
 74
    0
 49
0
 74
    0
 49
-0.9525
 74
    0
  0
LTYPE
  5
3C
330
5
100
AcDbSymbolTableRecord
100
AcDbLinetypeTableRecord
  2
DASHDOT2
 70
    0
  3
Dash dot (.5x) _._._._._._._._._._._._._._._.
 72
   65
 73
    4
 40
12.7
 49
6.35
 74
    0
 49
-3.175
 74
    0
 49
0
 74
    0
 49
-3.175
 74
    0
  0
LTYPE
  5
3D
330
5
100
AcDbSymbolTableRecord
100
AcDbLinetypeTableRecord
  2
DASHDOTX2
 70
    0
  3
Dash dot (2x) ____  .  ____  .  ____  .  ___
 72
   65
 73
    4
 40
50.8
 49
25.4
 74
    0
 49
-12.7
 74
    0
 49
0
 74
    0
 49
-12.7
 74
    0
  0
LTYPE
  5
3E
330
5
100
AcDbSymbolTableRecord
100
AcDbLinetypeTableRecord
  2
DIVIDE
 70
    0
  3
Divide ____ . . ____ . . ____ . . ____ . . ____
 72
   65
 73
    6
 40
31.75
 49
12.7
 74
    0
 49
-6.35
 74
    0
 49
0
 74
    0
 49
-6.35
 74
    0
 49
0
 74
    0
 49
-6.35
 74
    0
  0
LTYPE
  5
3F
330
5
100
AcDbSymbolTableRecord
100
AcDbLinetypeTableRecord
  2
DIVIDETINY
 70
    0
  3
Divide (.15x) __..__..__..__..__..__..__..__.._
 72
   65
 73
    6
 40
4.7625
 49
1.905
 74
    0
 49
-0.9525
 74
    0
 49
0
 74
    0
 49
-0.9525
 74
    0
 49
0
 74
    0
 49
-0.9525
 74
    0
  0
LTYPE
  5
40
330
5
100
AcDbSymbolTableRecord
100
AcDbLinetypeTableRecord
  2
DIVIDE2
 70
    0
  3
Divide (.5x) __..__..__..__..__..__..__..__.._
 72
   65
 73
    6
 40
15.875
 49
6.35
 74
    0
 49
-3.175
 74
    0
 49
0
 74
    0
 49
-3.175
 74
    0
 49
0
 74
    0
 49
-3.175
 74
    0
  0
LTYPE
  5
41
330
5
100
AcDbSymbolTableRecord
100
AcDbLinetypeTableRecord
  2
DIVIDEX2
 70
    0
  3
Divide (2x) ________  .  .  ________  .  .  _
 72
   65
 73
    6
 40
63.5
 49
25.4
 74
    0
 49
-12.7
 74
    0
 49
0
 74
    0
 49
-12.7
 74
    0
 49
0
 74
    0
 49
-12.7
 74
    0
  0
LTYPE
  5
42
330
5
100
AcDbSymbolTableRecord
100
AcDbLinetypeTableRecord
  2
BORDER
 70
    0
  3
Border __ __ . __ __ . __ __ . __ __ . __ __ .
 72
   65
 73
    6
 40
44.45
 49
12.7
 74
    0
 49
-6.35
 74
    0
 49
12.7
 74
    0
 49
-6.35
 74
    0
 49
0
 74
    0
 49
-6.35
 74
    0
  0
LTYPE
  5
43
330
5
100
AcDbSymbolTableRecord
100
AcDbLinetypeTableRecord
  2
BORDERTINY
 70
    0
  3
Border (.15x) __.__.__.__.__.__.__.__.__.__.__.
 72
   65
 73
    6
 40
6.6675
 49
1.905
 74
    0
 49
-0.9525
 74
    0
 49
1.905
 74
    0
 49
-0.9525
 74
    0
 49
0
 74
    0
 49
-0.9525
 74
    0
  0
LTYPE
  5
44
330
5
100
AcDbSymbolTableRecord
100
AcDbLinetypeTableRecord
  2
BORDER2
 70
    0
  3
Border (.5x) __.__.__.__.__.__.__.__.__.__.__.
 72
   65
 73
    6
 40
22.225
 49
6.35
 74
    0
 49
-3.175
 74
    0
 49
6.35
 74
    0
 49
-3.175
 74
    0
 49
0
 74
    0
 49
-3.175
 74
    0
  0
LTYPE
  5
45
330
5
100
AcDbSymbolTableRecord
100
AcDbLinetypeTableRecord
  2
BORDERX2
 70
    0
  3
Border (2x) ____  ____  .  ____  ____  .  ___
 72
   65
 73
    6
 40
88.89999999999999
 49
25.4
 74
    0
 49
-12.7
 74
    0
 49
25.4
 74
    0
 49
-12.7
 74
    0
 49
0
 74
    0
 49
-12.7
 74
    0
  0
LTYPE
  5
46
330
5
100
AcDbSymbolTableRecord
100
AcDbLinetypeTableRecord
  2
CENTER
 70
    0
  3
Center ____ _ ____ _ ____ _ ____ _ ____ _ ____
 72
   65
 73
    4
 40
50.8
 49
31.75
 74
    0
 49
-6.35
 74
    0
 49
6.35
 74
    0
 49
-6.35
 74
    0
  0
LTYPE
  5
47
330
5
100
AcDbSymbolTableRecord
100
AcDbLinetypeTableRecord
  2
CENTERTINY
 70
    0
  3
Center (.15x) ___ _ ___ _ ___ _ ___ _ ___ _ ___
 72
   65
 73
    4
 40
7.62
 49
4.7625
 74
    0
 49
-0.9525
 74
    0
 49
0.9525
 74
    0
 49
-0.9525
 74
    0
  0
LTYPE
  5
48
330
5
100
AcDbSymbolTableRecord
100
AcDbLinetypeTableRecord
  2
CENTER2
 70
    0
  3
Center (.5x) ___ _ ___ _ ___ _ ___ _ ___ _ ___
 72
   65
 73
    4
 40
28.575
 49
19.05
 74
    0
 49
-3.175
 74
    0
 49
3.175
 74
    0
 49
-3.175
 74
    0
  0
LTYPE
  5
49
330
5
100
AcDbSymbolTableRecord
100
AcDbLinetypeTableRecord
  2
CENTERX2
 70
    0
  3
Center (2x) ________  __  ________  __  _____
 72
   65
 73
    4
 40
101.6
 49
63.5
 74
    0
 49
-12.7
 74
    0
 49
12.7
 74
    0
 49
-12.7
 74
    0
  0
ENDTAB
  0
TABLE
  2
LAYER
  5
2
330
0
100
AcDbSymbolTable
 70
    1
  0
LAYER
  5
10
330
2
100
AcDbSymbolTableRecord
100
AcDbLayerTableRecord
  2
0
 70
    0
 62
    7
  6
CONTINUOUS
370
    0
390
F
  0
LAYER
  5
4A
330
2
100
AcDbSymbolTableRecord
100
AcDbLayerTableRecord
  2
A4_Auxiliar
 70
    1
 62
    2
  6
CONTINUOUS
370
   -3
390
F
  0
LAYER
  5
4B
330
2
100
AcDbSymbolTableRecord
100
AcDbLayerTableRecord
  2
A4_Divisiones
 70
    0
 62
    9
  6
CONTINUOUS
370
   35
390
F
  0
LAYER
  5
4C
330
2
100
AcDbSymbolTableRecord
100
AcDbLayerTableRecord
  2
A4_Etiquetas
 70
    0
 62
    7
  6
CONTINUOUS
370
    5
390
F
  0
LAYER
  5
4D
330
2
100
AcDbSymbolTableRecord
100
AcDbLayerTableRecord
  2
A4_Hoja
 70
    0
 62
    8
  6
CONTINUOUS
370
   70
390
F
  0
LAYER
  5
4E
330
2
100
AcDbSymbolTableRecord
100
AcDbLayerTableRecord
  2
A4_Recuadro
 70
    0
 62
    9
  6
CONTINUOUS
370
   70
390
F
  0
LAYER
  5
4F
330
2
100
AcDbSymbolTableRecord
100
AcDbLayerTableRecord
  2
A4_Rotulación
 70
    0
 62
    7
  6
CONTINUOUS
370
   35
390
F
  0
LAYER
  5
50
330
2
100
AcDbSymbolTableRecord
100
AcDbLayerTableRecord
  2
Alzada
 70
    1
 62
    1
  6
CONTINUOUS
370
  100
390
F
  0
LAYER
  5
51
330
2
100
AcDbSymbolTableRecord
100
AcDbLayerTableRecord
  2
Caballera Frontal
 70
    0
 62
    7
  6
CONTINUOUS
370
   70
390
F
  0
LAYER
  5
52
330
2
100
AcDbSymbolTableRecord
100
AcDbLayerTableRecord
  2
Correspondencia
 70
    1
 62
    7
  6
DOTTINY
370
   -3
390
F
  0
LAYER
  5
53
330
2
100
AcDbSymbolTableRecord
100
AcDbLayerTableRecord
  2
Cotas
 70
    1
 62
    7
  6
CONTINUOUS
370
    5
390
F
  0
LAYER
  5
54
330
2
100
AcDbSymbolTableRecord
100
AcDbLayerTableRecord
  2
Isometrica
 70
    1
 62
    7
  6
CONTINUOUS
370
   70
390
F
  0
LAYER
  5
55
330
2
100
AcDbSymbolTableRecord
100
AcDbLayerTableRecord
  2
Militar
 70
    0
 62
    7
  6
CONTINUOUS
370
   70
390
F
  0
LAYER
  5
56
330
2
100
AcDbSymbolTableRecord
100
AcDbLayerTableRecord
  2
Perfil izquierdo/derecho
 70
    1
 62
    5
  6
CONTINUOUS
370
  100
390
F
  0
LAYER
  5
57
330
2
100
AcDbSymbolTableRecord
100
AcDbLayerTableRecord
  2
Planta
 70
    1
 62
    3
  6
CONTINUOUS
370
  100
390
F
  0
LAYER
  5
58
330
2
100
AcDbSymbolTableRecord
100
AcDbLayerTableRecord
  2
Relleno
 70
    0
 62
    7
  6
CONTINUOUS
370
    0
390
F
  0
LAYER
  5
59
330
2
100
AcDbSymbolTableRecord
100
AcDbLayerTableRecord
  2
Sistema Americano
 70
    1
 62
    7
  6
CONTINUOUS
370
   35
390
F
  0
LAYER
  5
5A
330
2
100
AcDbSymbolTableRecord
100
AcDbLayerTableRecord
  2
Sistema Europeo
 70
    1
 62
    7
  6
CONTINUOUS
370
   35
390
F
  0
ENDTAB
  0
TABLE
  2
STYLE
  5
3
330
0
100
AcDbSymbolTable
 70
    3
  0
STYLE
  5
5B
330
2
100
AcDbSymbolTableRecord
100
AcDbTextStyleTableRecord
  2
standard
 70
    0
 40
0
 41
1
 50
0
 71
    0
 42
1
  3
standard
  4

  0
ENDTAB
  0
TABLE
  2
VIEW
  5
6
330
0
100
AcDbSymbolTable
 70
    0
  0
ENDTAB
  0
TABLE
  2
UCS
  5
7
330
0
100
AcDbSymbolTable
 70
    0
  0
ENDTAB
  0
TABLE
  2
APPID
  5
9
330
0
100
AcDbSymbolTable
 70
    1
  0
APPID
  5
12
330
9
100
AcDbSymbolTableRecord
100
AcDbRegAppTableRecord
  2
ACAD
 70
    0
  0
APPID
  5
5C
330
9
100
AcDbSymbolTableRecord
100
AcDbRegAppTableRecord
  2
LibreCad
 70
    0
  0
ENDTAB
  0
TABLE
  2
DIMSTYLE
  5
A
330
0
100
AcDbSymbolTable
 70
    1
100
AcDbDimStyleTable
 71
    1
  0
DIMSTYLE
105
5D
330
A
100
AcDbSymbolTableRecord
100
AcDbDimStyleTableRecord
  2
Standard
 70
    0
 40
2.5
 41
1
 42
0.625
 43
0.38
 44
1.25
 45
0
 46
0
 47
0
 48
0
 49
1
140
1
141
0.09
142
0
143
25.4
144
1
145
0
146
1
147
0.625
148
0
 71
    0
 72
    0
 73
    0
 74
    1
 75
    0
 76
    0
 77
    0
 78
    8
 79
    0
170
    0
171
    2
172
    0
173
    0
174
    0
175
    0
176
    0
177
    0
178
    0
179
    0
271
    2
272
    4
273
    2
274
    2
275
    0
276
    0
277
    2
278
    0
279
    0
280
    0
281
    0
282
    0
283
    1
284
    0
285
    0
286
    0
288
    0
289
    3
340
standard
341

371
   -2
372
   -2
  0
ENDTAB
  0
TABLE
  2
BLOCK_RECORD
  5
1
330
0
100
AcDbSymbolTable
 70
    2
  0
BLOCK_RECORD
  5
1F
330
1
100
AcDbSymbolTableRecord
100
AcDbBlockTableRecord
  2
*Model_Space
 70
    0
280
    1
281
    0
  0
BLOCK_RECORD
  5
1E
330
1
100
AcDbSymbolTableRecord
100
AcDbBlockTableRecord
  2
*Paper_Space
 70
    0
280
    1
281
    0
  0
BLOCK_RECORD
  5
5E
330
1
100
AcDbSymbolTableRecord
100
AcDbBlockTableRecord
  2
*D2
 70
    0
280
    1
281
    0
  0
BLOCK_RECORD
  5
61
330
1
100
AcDbSymbolTableRecord
100
AcDbBlockTableRecord
  2
*D3
 70
    0
280
    1
281
    0
  0
BLOCK_RECORD
  5
64
330
1
100
AcDbSymbolTableRecord
100
AcDbBlockTableRecord
  2
*D7
 70
    0
280
    1
281
    0
  0
BLOCK_RECORD
  5
67
330
1
100
AcDbSymbolTableRecord
100
AcDbBlockTableRecord
  2
*D5
 70
    0
280
    1
281
    0
  0
BLOCK_RECORD
  5
6A
330
1
100
AcDbSymbolTableRecord
100
AcDbBlockTableRecord
  2
*D6
 70
    0
280
    1
281
    0
  0
BLOCK_RECORD
  5
6D
330
1
100
AcDbSymbolTableRecord
100
AcDbBlockTableRecord
  2
*D1
 70
    0
280
    1
281
    0
  0
BLOCK_RECORD
  5
70
330
1
100
AcDbSymbolTableRecord
100
AcDbBlockTableRecord
  2
*D8
 70
    0
280
    1
281
    0
  0
BLOCK_RECORD
  5
73
330
1
100
AcDbSymbolTableRecord
100
AcDbBlockTableRecord
  2
*D4
 70
    0
280
    1
281
    0
  0
ENDTAB
  0
ENDSEC
  0
SECTION
  2
BLOCKS
  0
BLOCK
  5
20
330
1F
100
AcDbEntity
  8
0
100
AcDbBlockBegin
  2
*Model_Space
 70
    0
 10
0
 20
0
 30
0
  3
*Model_Space
  1

  0
ENDBLK
  5
21
330
1F
100
AcDbEntity
  8
0
100
AcDbBlockEnd
  0
BLOCK
  5
1C
330
1B
100
AcDbEntity
  8
0
100
AcDbBlockBegin
  2
*Paper_Space
 70
    0
 10
0
 20
0
 30
0
  3
*Paper_Space
  1

  0
ENDBLK
  5
1D
330
1F
100
AcDbEntity
  8
0
100
AcDbBlockEnd
  0
BLOCK
  5
5F
330
5E
100
AcDbEntity
  8
0
100
AcDbBlockBegin
  2
*D2
 70
    1
 10
0
 20
0
  3
*D2
  1

  0
LINE
  5
76
100
AcDbEntity
  8
Caballera Frontal
  6
ByBlock
 62
    0
370
   -2
100
AcDbLine
 10
44.64038825153671
 20
255.3596117484632
 11
50.48618136983126
 21
249.5138186301685
  0
LINE
  5
77
100
AcDbEntity
  8
Caballera Frontal
  6
ByBlock
 62
    0
370
   -2
100
AcDbLine
 10
51.5625
 20
260
 11
54.82969991071963
 21
260
  0
ARC
  5
78
100
AcDbEntity
  8
Caballera Frontal
  6
ByBlock
 62
    0
370
   -2
100
AcDbCircle
 10
40.00000000000001
 20
260
 40
11.70469991071961
100
AcDbArc
 50
314.9999999999993
 51
0
  0
SOLID
  5
79
100
AcDbEntity
  8
Caballera Frontal
  6
ByBlock
 62
    0
370
   -2
100
AcDbTrace
 10
48.27647267862332
 20
251.7235273213765
 30
0
 11
49.52168208836317
 21
253.9309571486173
 31
0
 12
50.16979575298549
 22
253.4083479801959
 32
0
 13
50.16979575298549
 23
253.4083479801959
 33
0
  0
SOLID
  5
7A
100
AcDbEntity
  8
Caballera Frontal
  6
ByBlock
 62
    0
370
   -2
100
AcDbTrace
 10
51.70469991071963
 20
260
 30
0
 11
51.85213338264361
 21
257.4698703022071
 31
0
 12
51.02430732850851
 22
257.5586153825402
 32
0
 13
51.02430732850851
 23
257.5586153825402
 33
0
  0
MTEXT
  5
7B
100
AcDbEntity
  8
Caballera Frontal
  6
CONTINUOUS
 62
    0
370
   -2
100
AcDbMText
 10
49.37017091215164
 20
256.1187481264329
 30
0
 40
2.5
 41
5.000000000000155
 71
    8
 72
    1
  1
45%%D
  7
standard
210
0
220
0
230
1
 50
67.49999999999972
 73
    2
 44
1
  0
ENDBLK
  5
60
330
5E
100
AcDbEntity
  8
0
100
AcDbBlockEnd
  0
BLOCK
  5
62
330
61
100
AcDbEntity
  8
0
100
AcDbBlockBegin
  2
*D3
 70
    1
 10
0
 20
0
  3
*D3
  1

  0
ARC
  5
7C
100
AcDbEntity
  8
Militar
  6
ByBlock
 62
    0
370
   -2
100
AcDbCircle
 10
130
 20
263.3
 40
7.980075711333178
100
AcDbArc
 50
240.0000000000001
 51
330.0000000000001
  0
SOLID
  5
7D
100
AcDbEntity
  8
Militar
  6
ByBlock
 62
    0
370
   -2
100
AcDbTrace
 10
126.0099621443334
 20
256.3890517098623
 30
0
 11
128.4928730908539
 21
255.8806757191372
 31
0
 12
128.1941653393542
 22
255.1035365138579
 32
0
 13
128.1941653393542
 23
255.1035365138579
 33
0
  0
SOLID
  5
7E
100
AcDbEntity
  8
Militar
  6
ByBlock
 62
    0
370
   -2
100
AcDbTrace
 10
136.9109482901377
 20
259.3099621443334
 30
0
 11
135.6621304342248
 21
257.1045717301323
 31
0
 12
135.014872330479
 22
257.6282401484312
 32
0
 13
135.014872330479
 23
257.6282401484312
 33
0
  0
MTEXT
  5
7F
100
AcDbEntity
  8
Militar
  6
CONTINUOUS
 62
    0
370
   -2
100
AcDbMText
 10
131.6609908174804
 20
257.1010978782579
 30
0
 40
2.5
 41
4.722222222222378
 71
    8
 72
    1
  1
90%%D
  7
standard
210
0
220
0
230
1
 50
15.00000000000015
 73
    2
 44
1
  0
ENDBLK
  5
63
330
61
100
AcDbEntity
  8
0
100
AcDbBlockEnd
  0
BLOCK
  5
65
330
64
100
AcDbEntity
  8
0
100
AcDbBlockBegin
  2
*D7
 70
    1
 10
0
 20
0
  3
*D7
  1

  0
ARC
  5
80
100
AcDbEntity
  8
Militar
  6
ByBlock
 62
    0
370
   -2
100
AcDbCircle
 10
130
 20
152.5
 40
6.006014588590191
100
AcDbArc
 50
299.9999999999999
 51
90
  0
SOLID
  5
81
100
AcDbEntity
  8
Militar
  6
ByBlock
 62
    0
370
   -2
100
AcDbTrace
 10
133.0030072942951
 20
147.298638790781
 30
0
 11
134.5849253803869
 21
149.2787468901514
 31
0
 12
135.1412090128006
 22
148.6592953702591
 32
0
 13
135.1412090128006
 23
148.6592953702591
 33
0
  0
SOLID
  5
82
100
AcDbEntity
  8
Militar
  6
ByBlock
 62
    0
370
   -2
100
AcDbTrace
 10
130
 20
158.5060145885902
 30
0
 11
132.5320652963804
 21
158.3967522841884
 31
0
 12
132.3600352989468
 22
157.582149715342
 32
0
 13
132.3600352989468
 23
157.582149715342
 33
0
  0
MTEXT
  5
83
100
AcDbEntity
  8
Militar
  6
CONTINUOUS
 62
    0
370
   -2
100
AcDbMText
 10
137.3106237077648
 20
154.4588757186634
 30
0
 40
2.5
 41
6.111111111111265
 71
    8
 72
    1
  1
150%%D
  7
standard
210
0
220
0
230
1
 50
284.9999999999999
 73
    2
 44
1
  0
ENDBLK
  5
66
330
64
100
AcDbEntity
  8
0
100
AcDbBlockEnd
  0
BLOCK
  5
68
330
67
100
AcDbEntity
  8
0
100
AcDbBlockBegin
  2
*D5
 70
    1
 10
0
 20
0
  3
*D5
  1

  0
ARC
  5
84
100
AcDbEntity
  8
Militar
  6
ByBlock
 62
    0
370
   -2
100
AcDbCircle
 10
39.99999999999998
 20
155
 40
4.993710849866411
100
AcDbArc
 50
314.9999999999999
 51
90
  0
SOLID
  5
85
100
AcDbEntity
  8
Militar
  6
ByBlock
 62
    0
370
   -2
100
AcDbTrace
 10
43.53108680522535
 20
151.4689131947746
 30
0
 11
44.44776962243186
 21
153.8317474100625
 31
0
 12
45.16396752060452
 22
153.4072097370095
 32
0
 13
45.16396752060452
 23
153.4072097370095
 33
0
  0
SOLID
  5
86
100
AcDbEntity
  8
Militar
  6
ByBlock
 62
    0
370
   -2
100
AcDbTrace
 10
39.99999999999998
 20
159.9937108498664
 30
0
 11
42.52520365567808
 21
159.777749247615
 31
0
 12
42.31896873269358
 22
158.9711273896606
 32
0
 13
42.31896873269358
 23
158.9711273896606
 33
0
  0
MTEXT
  5
87
100
AcDbEntity
  8
Militar
  6
CONTINUOUS
 62
    0
370
   -2
100
AcDbMText
 10
46.05714901501999
 20
157.5089532713361
 30
0
 40
2.5
 41
6.111111111111422
 71
    8
 72
    1
  1
135%%D
  7
standard
210
0
220
0
230
1
 50
292.5
 73
    2
 44
1
  0
ENDBLK
  5
69
330
67
100
AcDbEntity
  8
0
100
AcDbBlockEnd
  0
BLOCK
  5
6B
330
6A
100
AcDbEntity
  8
0
100
AcDbBlockBegin
  2
*D6
 70
    1
 10
0
 20
0
  3
*D6
  1

  0
ARC
  5
88
100
AcDbEntity
  8
Militar
  6
ByBlock
 62
    0
370
   -2
100
AcDbCircle
 10
39.99999999999998
 20
155
 40
7.430863810480393
100
AcDbArc
 50
225.0000000000001
 51
314.9999999999999
  0
SOLID
  5
89
100
AcDbEntity
  8
Militar
  6
ByBlock
 62
    0
370
   -2
100
AcDbTrace
 10
34.74558580953559
 20
149.7455858095356
 30
0
 11
37.02528885207398
 21
148.6382254552975
 31
0
 12
36.54344901573569
 22
147.9592541471367
 32
0
 13
36.54344901573569
 23
147.9592541471367
 33
0
  0
SOLID
  5
8A
100
AcDbEntity
  8
Militar
  6
ByBlock
 62
    0
370
   -2
100
AcDbTrace
 10
45.25441419046436
 20
149.7455858095356
 30
0
 11
43.45655098426425
 21
147.9592541471367
 31
0
 12
42.97471114792596
 22
148.6382254552975
 32
0
 13
42.97471114792596
 23
148.6382254552975
 33
0
  0
MTEXT
  5
8B
100
AcDbEntity
  8
Militar
  6
CONTINUOUS
 62
    0
370
   -2
100
AcDbMText
 10
39.99999999999998
 20
149.1316361895196
 30
0
 40
2.5
 41
4.722222222222378
 71
    8
 72
    1
  1
90%%D
  7
standard
210
0
220
0
230
1
 50
0
 73
    2
 44
1
  0
ENDBLK
  5
6C
330
6A
100
AcDbEntity
  8
0
100
AcDbBlockEnd
  0
BLOCK
  5
6E
330
6D
100
AcDbEntity
  8
0
100
AcDbBlockBegin
  2
*D1
 70
    1
 10
0
 20
0
  3
*D1
  1

  0
ARC
  5
8C
100
AcDbEntity
  8
Caballera Frontal
  6
ByBlock
 62
    0
370
   -2
100
AcDbCircle
 10
40
 20
260
 40
5.656854249492381
100
AcDbArc
 50
0
 51
90
  0
SOLID
  5
8D
100
AcDbEntity
  8
Caballera Frontal
  6
ByBlock
 62
    0
370
   -2
100
AcDbTrace
 10
45.65685424949238
 20
260
 30
0
 11
44.70274903250534
 21
262.3479727748028
 31
0
 12
45.51507452257709
 22
262.5304528103351
 32
0
 13
45.51507452257709
 23
262.5304528103351
 33
0
  0
SOLID
  5
8E
100
AcDbEntity
  8
Caballera Frontal
  6
ByBlock
 62
    0
370
   -2
100
AcDbTrace
 10
40
 20
265.6568542494924
 30
0
 11
42.53045281033511
 21
265.5150745225771
 31
0
 12
42.34797277480281
 22
264.7027490325053
 32
0
 13
42.34797277480281
 23
264.7027490325053
 33
0
  0
MTEXT
  5
8F
100
AcDbEntity
  8
Caballera Frontal
  6
CONTINUOUS
 62
    0
370
   -2
100
AcDbMText
 10
45.10485434560398
 20
265.104854345604
 30
0
 40
2.5
 41
4.722222222222378
 71
    8
 72
    1
  1
90%%D
  7
standard
210
0
220
0
230
1
 50
315
 73
    2
 44
1
  0
ENDBLK
  5
6F
330
6D
100
AcDbEntity
  8
0
100
AcDbBlockEnd
  0
BLOCK
  5
71
330
70
100
AcDbEntity
  8
0
100
AcDbBlockBegin
  2
*D8
 70
    1
 10
0
 20
0
  3
*D8
  1

  0
ARC
  5
90
100
AcDbEntity
  8
Militar
  6
ByBlock
 62
    0
370
   -2
100
AcDbCircle
 10
130
 20
152.5
 40
7.865673858533134
100
AcDbArc
 50
210
 51
299.9999999999999
  0
SOLID
  5
91
100
AcDbEntity
  8
Militar
  6
ByBlock
 62
    0
370
   -2
100
AcDbTrace
 10
123.1881266206271
 20
148.5671630707334
 30
0
 11
125.0880290283541
 21
146.8897651580692
 31
0
 12
124.4419656474654
 22
146.3646234885524
 32
0
 13
124.4419656474654
 23
146.3646234885524
 33
0
  0
SOLID
  5
92
100
AcDbEntity
  8
Militar
  6
ByBlock
 62
    0
370
   -2
100
AcDbTrace
 10
133.9328369292666
 20
145.6881266206271
 30
0
 11
131.7457106886777
 21
144.4075909030367
 31
0
 12
131.4487742231317
 22
145.1854086198683
 32
0
 13
131.4487742231317
 23
145.1854086198683
 33
0
  0
MTEXT
  5
93
100
AcDbEntity
  8
Militar
  6
CONTINUOUS
 62
    0
370
   -2
100
AcDbMText
 10
128.3686185608193
 20
146.4116015824527
 30
0
 40
2.5
 41
4.722222222222378
 71
    8
 72
    1
  1
90%%D
  7
standard
210
0
220
0
230
1
 50
-15.00000000000003
 73
    2
 44
1
  0
ENDBLK
  5
72
330
70
100
AcDbEntity
  8
0
100
AcDbBlockEnd
  0
BLOCK
  5
74
330
73
100
AcDbEntity
  8
0
100
AcDbBlockBegin
  2
*D4
 70
    1
 10
0
 20
0
  3
*D4
  1

  0
ARC
  5
94
100
AcDbEntity
  8
Militar
  6
ByBlock
 62
    0
370
   -2
100
AcDbCircle
 10
130
 20
263.3
 40
6.51265881020458
100
AcDbArc
 50
330.0000000000001
 51
90
  0
SOLID
  5
95
100
AcDbEntity
  8
Militar
  6
ByBlock
 62
    0
370
   -2
100
AcDbTrace
 10
135.6401279758177
 20
260.0436705948977
 30
0
 11
136.0605742455791
 21
262.5429740679759
 31
0
 12
136.8477698164846
 22
262.2718748272264
 32
0
 13
136.8477698164846
 23
262.2718748272264
 33
0
  0
SOLID
  5
96
100
AcDbEntity
  8
Militar
  6
ByBlock
 62
    0
370
   -2
100
AcDbTrace
 10
130
 20
269.8126588102046
 30
0
 11
132.5335023903502
 21
269.7444052067308
 31
0
 12
132.3746834343331
 22
268.9271242242053
 32
0
 13
132.3746834343331
 23
268.9271242242053
 33
0
  0
MTEXT
  5
97
100
AcDbEntity
  8
Militar
  6
CONTINUOUS
 62
    0
370
   -2
100
AcDbMText
 10
136.9932926692309
 20
267.3375794051023
 30
0
 40
2.5
 41
6.111111111111111
 71
    8
 72
    1
  1
120%%D
  7
standard
210
0
220
0
230
1
 50
299.9999999999999
 73
    2
 44
1
  0
ENDBLK
  5
75
330
73
100
AcDbEntity
  8
0
100
AcDbBlockEnd
  0
ENDSEC
  0
SECTION
  2
ENTITIES
  0
HATCH
  5
98
100
AcDbEntity
  8
Relleno
  6
ByLayer
 62
   91
420
6946665
370
    5
100
AcDbHatch
 10
0
 20
0
 30
0
210
0
220
0
230
1
  2
SOLID
 70
    1
 71
    0
 91
    1
 92
    0
 93
  154
 72
    1
 10
100.6066017177982
 20
229.3933982822018
 11
104.142135623731
 21
225.857864376269
 72
    1
 10
104.142135623731
 20
225.857864376269
 11
94.14213562373095
 21
225.857864376269
 72
    1
 10
94.14213562373095
 20
225.857864376269
 11
90.60660171779821
 21
229.3933982822018
 72
    1
 10
90.60660171779821
 20
229.3933982822018
 11
87.07106781186548
 21
232.9289321881345
 72
    1
 10
87.07106781186548
 20
232.9289321881345
 11
83.53553390593274
 21
236.4644660940673
 72
    1
 10
83.53553390593274
 20
236.4644660940673
 11
80
 21
240
 72
    1
 10
80
 20
240
 11
70
 21
240
 72
    1
 10
70
 20
240
 11
60
 21
240
 72
    1
 10
60
 20
240
 11
50
 21
240
 72
    1
 10
50
 20
240
 11
53.53553390593274
 21
236.4644660940673
 72
    1
 10
53.53553390593274
 20
236.4644660940673
 11
63.53553390593274
 21
236.4644660940673
 72
    1
 10
63.53553390593274
 20
236.4644660940673
 11
73.53553390593274
 21
236.4644660940673
 72
    1
 10
73.53553390593274
 20
236.4644660940673
 11
77.07106781186548
 21
232.9289321881345
 72
    1
 10
77.07106781186548
 20
232.9289321881345
 11
87.07106781186548
 21
232.9289321881345
 72
    1
 10
87.07106781186548
 20
232.9289321881345
 11
97.07106781186548
 21
232.9289321881345
 72
    1
 10
97.07106781186548
 20
232.9289321881345
 11
100.6066017177982
 21
229.3933982822018
 72
    1
 10
93.53553390593274
 20
246.4644660940673
 11
97.07106781186548
 21
242.9289321881345
 72
    1
 10
97.07106781186548
 20
242.9289321881345
 11
87.07106781186548
 21
242.9289321881345
 72
    1
 10
87.07106781186548
 20
242.9289321881345
 11
83.53553390593274
 21
246.4644660940673
 72
    1
 10
83.53553390593274
 20
246.4644660940673
 11
80
 21
250
 72
    1
 10
80
 20
250
 11
90
 21
250
 72
    1
 10
90
 20
250
 11
93.53553390593274
 21
246.4644660940673
 72
    1
 10
84.14213562373095
 20
205.857864376269
 11
94.14213562373095
 21
205.857864376269
 72
    1
 10
94.14213562373095
 20
205.857864376269
 11
90.60660171779821
 21
209.3933982822018
 72
    1
 10
90.60660171779821
 20
209.3933982822018
 11
80.60660171779821
 21
209.3933982822018
 72
    1
 10
80.60660171779821
 20
209.3933982822018
 11
70.60660171779821
 21
209.3933982822018
 72
    1
 10
70.60660171779821
 20
209.3933982822018
 11
74.14213562373095
 21
205.857864376269
 72
    1
 10
74.14213562373095
 20
205.857864376269
 11
84.14213562373095
 21
205.857864376269
 72
    1
 10
60.60660171779821
 20
209.3933982822018
 11
70.60660171779821
 21
209.3933982822018
 72
    1
 10
70.60660171779821
 20
209.3933982822018
 11
67.07106781186548
 21
212.9289321881345
 72
    1
 10
67.07106781186548
 20
212.9289321881345
 11
63.53553390593274
 21
216.4644660940673
 72
    1
 10
63.53553390593274
 20
216.4644660940673
 11
53.53553390593274
 21
216.4644660940673
 72
    1
 10
53.53553390593274
 20
216.4644660940673
 11
57.07106781186548
 21
212.9289321881345
 72
    1
 10
57.07106781186548
 20
212.9289321881345
 11
60.60660171779821
 21
209.3933982822018
 72
    1
 10
63.53553390593274
 20
226.4644660940673
 11
73.53553390593274
 21
226.4644660940673
 72
    1
 10
73.53553390593274
 20
226.4644660940673
 11
77.07106781186548
 21
222.9289321881345
 72
    1
 10
77.07106781186548
 20
222.9289321881345
 11
87.07106781186548
 21
222.9289321881345
 72
    1
 10
87.07106781186548
 20
222.9289321881345
 11
90.60660171779821
 21
219.3933982822018
 72
    1
 10
90.60660171779821
 20
219.3933982822018
 11
80.60660171779821
 21
219.3933982822018
 72
    1
 10
80.60660171779821
 20
219.3933982822018
 11
70.60660171779821
 21
219.3933982822018
 72
    1
 10
70.60660171779821
 20
219.3933982822018
 11
67.07106781186548
 21
222.9289321881345
 72
    1
 10
67.07106781186548
 20
222.9289321881345
 11
63.53553390593274
 21
226.4644660940673
 72
    1
 10
130
 20
218.6589838486224
 11
138.6602540378444
 21
213.6589838486224
 72
    1
 10
138.6602540378444
 20
213.6589838486224
 11
148.6602540378444
 21
230.9794919243112
 72
    1
 10
148.6602540378444
 20
230.9794919243112
 11
157.3205080756888
 21
225.9794919243112
 72
    1
 10
157.3205080756888
 20
225.9794919243112
 11
162.3205080756888
 21
234.6397459621556
 72
    1
 10
162.3205080756888
 20
234.6397459621556
 11
179.6410161513776
 21
224.6397459621556
 72
    1
 10
179.6410161513776
 20
224.6397459621556
 11
184.6410161513776
 21
233.3
 72
    1
 10
184.6410161513776
 20
233.3
 11
167.3205080756888
 21
243.3
 72
    1
 10
167.3205080756888
 20
243.3
 11
162.3205080756888
 21
234.6397459621556
 72
    1
 10
162.3205080756888
 20
234.6397459621556
 11
145
 21
244.6397459621556
 72
    1
 10
145
 20
244.6397459621556
 11
130
 21
218.6589838486224
 72
    1
 10
138.6602540378444
 20
200.2589838486224
 11
155.9807621135332
 21
190.2589838486224
 72
    1
 10
155.9807621135332
 20
190.2589838486224
 11
160.9807621135332
 21
198.9192378864668
 72
    1
 10
160.9807621135332
 20
198.9192378864668
 11
143.6602540378444
 21
208.9192378864668
 72
    1
 10
143.6602540378444
 20
208.9192378864668
 11
138.6602540378444
 21
200.2589838486224
 72
    1
 10
143.6602540378444
 20
215.6192378864668
 11
160.9807621135332
 21
205.6192378864668
 72
    1
 10
160.9807621135332
 20
205.6192378864668
 11
170.9807621135332
 21
222.9397459621556
 72
    1
 10
170.9807621135332
 20
222.9397459621556
 11
162.3205080756888
 21
227.9397459621556
 72
    1
 10
162.3205080756888
 20
227.9397459621556
 11
157.3205080756888
 21
219.2794919243112
 72
    1
 10
157.3205080756888
 20
219.2794919243112
 11
148.6602540378444
 21
224.2794919243112
 72
    1
 10
148.6602540378444
 20
224.2794919243112
 11
143.6602540378444
 21
215.6192378864668
 72
    1
 10
160.9807621135332
 20
198.9192378864668
 11
169.6410161513776
 21
193.9192378864668
 72
    1
 10
169.6410161513776
 20
193.9192378864668
 11
179.6410161513776
 21
211.2397459621556
 72
    1
 10
179.6410161513776
 20
211.2397459621556
 11
170.9807621135332
 21
216.2397459621556
 72
    1
 10
170.9807621135332
 20
216.2397459621556
 11
160.9807621135332
 21
198.9192378864668
 72
    1
 10
162.3205080756888
 20
241.3397459621556
 11
167.3205080756888
 21
250
 72
    1
 10
167.3205080756888
 20
250
 11
150
 21
260
 72
    1
 10
150
 20
260
 11
145
 21
251.3397459621556
 72
    1
 10
145
 20
251.3397459621556
 11
162.3205080756888
 21
241.3397459621556
 72
    1
 10
48.78679656440357
 20
99.64466094067262
 11
55.85786437626905
 21
92.57359312880715
 72
    1
 10
55.85786437626905
 20
92.57359312880715
 11
62.92893218813452
 21
85.50252531694167
 72
    1
 10
62.92893218813452
 20
85.50252531694167
 11
70
 21
92.57359312880715
 72
    1
 10
70
 20
92.57359312880715
 11
62.92893218813452
 21
99.64466094067262
 72
    1
 10
62.92893218813452
 20
99.64466094067262
 11
55.85786437626905
 21
106.7157287525381
 72
    1
 10
55.85786437626905
 20
106.7157287525381
 11
48.78679656440357
 21
99.64466094067262
 72
    1
 10
91.21320343559643
 20
99.64466094067262
 11
84.14213562373095
 21
92.57359312880715
 72
    1
 10
84.14213562373095
 20
92.57359312880715
 11
77.07106781186548
 21
85.50252531694167
 72
    1
 10
77.07106781186548
 20
85.50252531694167
 11
70
 21
92.57359312880715
 72
    1
 10
70
 20
92.57359312880715
 11
77.07106781186548
 21
99.64466094067262
 72
    1
 10
77.07106781186548
 20
99.64466094067262
 11
84.14213562373095
 21
106.7157287525381
 72
    1
 10
84.14213562373095
 20
106.7157287525381
 11
91.21320343559643
 21
99.64466094067262
 72
    1
 10
84.14213562373095
 20
130.857864376269
 11
91.21320343559643
 21
123.7867965644036
 72
    1
 10
91.21320343559643
 20
123.7867965644036
 11
98.2842712474619
 21
116.7157287525381
 72
    1
 10
98.2842712474619
 20
116.7157287525381
 11
91.21320343559643
 21
109.6446609406726
 72
    1
 10
91.21320343559643
 20
109.6446609406726
 11
84.14213562373095
 21
116.7157287525381
 72
    1
 10
84.14213562373095
 20
116.7157287525381
 11
77.07106781186548
 21
123.7867965644036
 72
    1
 10
77.07106781186548
 20
123.7867965644036
 11
84.14213562373095
 21
130.857864376269
 72
    1
 10
70
 20
150
 11
77.07106781186548
 21
142.9289321881345
 72
    1
 10
77.07106781186548
 20
142.9289321881345
 11
84.14213562373095
 21
135.857864376269
 72
    1
 10
84.14213562373095
 20
135.857864376269
 11
77.07106781186548
 21
128.7867965644036
 72
    1
 10
77.07106781186548
 20
128.7867965644036
 11
70
 21
135.857864376269
 72
    1
 10
70
 20
135.857864376269
 11
62.92893218813452
 21
142.9289321881345
 72
    1
 10
62.92893218813452
 20
142.9289321881345
 11
70
 21
150
 72
    1
 10
55.85786437626905
 20
130.857864376269
 11
48.78679656440357
 21
123.7867965644036
 72
    1
 10
48.78679656440357
 20
123.7867965644036
 11
41.7157287525381
 21
116.7157287525381
 72
    1
 10
41.7157287525381
 20
116.7157287525381
 11
48.78679656440357
 21
109.6446609406726
 72
    1
 10
48.78679656440357
 20
109.6446609406726
 11
55.85786437626905
 21
116.7157287525381
 72
    1
 10
55.85786437626905
 20
116.7157287525381
 11
62.92893218813452
 21
123.7867965644036
 72
    1
 10
62.92893218813452
 20
123.7867965644036
 11
70
 21
116.7157287525381
 72
    1
 10
70
 20
116.7157287525381
 11
77.07106781186548
 21
123.7867965644036
 72
    1
 10
77.07106781186548
 20
123.7867965644036
 11
70
 21
130.857864376269
 72
    1
 10
70
 20
130.857864376269
 11
62.92893218813452
 21
137.9289321881345
 72
    1
 10
62.92893218813452
 20
137.9289321881345
 11
55.85786437626905
 21
130.857864376269
 72
    1
 10
77.07106781186548
 20
118.7867965644036
 11
84.14213562373095
 21
111.7157287525381
 72
    1
 10
84.14213562373095
 20
111.7157287525381
 11
77.07106781186548
 21
104.6446609406726
 72
    1
 10
77.07106781186548
 20
104.6446609406726
 11
70
 21
97.57359312880715
 72
    1
 10
70
 20
97.57359312880715
 11
62.92893218813452
 21
104.6446609406726
 72
    1
 10
62.92893218813452
 20
104.6446609406726
 11
55.85786437626905
 21
111.7157287525381
 72
    1
 10
55.85786437626905
 20
111.7157287525381
 11
62.92893218813452
 21
118.7867965644036
 72
    1
 10
62.92893218813452
 20
118.7867965644036
 11
70
 21
111.7157287525381
 72
    1
 10
70
 20
111.7157287525381
 11
77.07106781186548
 21
118.7867965644036
 72
    1
 10
140.3589838486224
 20
98.83974596215562
 11
145.3589838486224
 21
90.17949192431124
 72
    1
 10
145.3589838486224
 20
90.17949192431124
 11
150.3589838486224
 21
81.51923788646685
 72
    1
 10
150.3589838486224
 20
81.51923788646685
 11
159.0192378864668
 21
86.51923788646685
 72
    1
 10
159.0192378864668
 20
86.51923788646685
 11
164.0192378864668
 21
77.85898384862247
 72
    1
 10
164.0192378864668
 20
77.85898384862247
 11
172.6794919243112
 21
82.85898384862247
 72
    1
 10
172.6794919243112
 20
82.85898384862247
 11
181.3397459621556
 21
87.85898384862247
 72
    1
 10
181.3397459621556
 20
87.85898384862247
 11
176.3397459621556
 21
96.51923788646685
 72
    1
 10
176.3397459621556
 20
96.51923788646685
 11
167.6794919243112
 21
91.51923788646685
 72
    1
 10
167.6794919243112
 20
91.51923788646685
 11
159.0192378864668
 21
86.51923788646685
 72
    1
 10
159.0192378864668
 20
86.51923788646685
 11
154.0192378864668
 21
95.17949192431124
 72
    1
 10
154.0192378864668
 20
95.17949192431124
 11
149.0192378864668
 21
103.8397459621556
 72
    1
 10
149.0192378864668
 20
103.8397459621556
 11
140.3589838486224
 21
98.83974596215562
 72
    1
 10
176.3397459621556
 20
104.0192378864669
 11
167.6794919243112
 21
99.01923788646685
 72
    1
 10
167.6794919243112
 20
99.01923788646685
 11
159.0192378864668
 21
94.01923788646685
 72
    1
 10
159.0192378864668
 20
94.01923788646685
 11
154.0192378864668
 21
102.6794919243112
 72
    1
 10
154.0192378864668
 20
102.6794919243112
 11
149.0192378864668
 21
111.3397459621556
 72
    1
 10
149.0192378864668
 20
111.3397459621556
 11
157.6794919243112
 21
116.3397459621556
 72
    1
 10
157.6794919243112
 20
116.3397459621556
 11
162.6794919243112
 21
107.6794919243112
 72
    1
 10
162.6794919243112
 20
107.6794919243112
 11
171.3397459621556
 21
112.6794919243112
 72
    1
 10
171.3397459621556
 20
112.6794919243112
 11
176.3397459621556
 21
104.0192378864669
 72
    1
 10
161.3397459621556
 20
137.5
 11
152.6794919243112
 21
132.5
 72
    1
 10
152.6794919243112
 20
132.5
 11
144.0192378864668
 21
127.5
 72
    1
 10
144.0192378864668
 20
127.5
 11
135.3589838486224
 21
122.5
 72
    1
 10
135.3589838486224
 20
122.5
 11
140.3589838486224
 21
113.8397459621556
 72
    1
 10
140.3589838486224
 20
113.8397459621556
 11
149.0192378864668
 21
118.8397459621556
 72
    1
 10
149.0192378864668
 20
118.8397459621556
 11
157.6794919243112
 21
123.8397459621556
 72
    1
 10
157.6794919243112
 20
123.8397459621556
 11
162.6794919243112
 21
115.1794919243112
 72
    1
 10
162.6794919243112
 20
115.1794919243112
 11
171.3397459621556
 21
120.1794919243112
 72
    1
 10
171.3397459621556
 20
120.1794919243112
 11
176.3397459621556
 21
111.5192378864669
 72
    1
 10
176.3397459621556
 20
111.5192378864669
 11
181.3397459621556
 21
102.8589838486225
 72
    1
 10
181.3397459621556
 20
102.8589838486225
 11
190
 21
107.8589838486225
 72
    1
 10
190
 20
107.8589838486225
 11
185
 21
116.5192378864669
 72
    1
 10
185
 20
116.5192378864669
 11
180
 21
125.1794919243112
 72
    1
 10
180
 20
125.1794919243112
 11
171.3397459621556
 21
120.1794919243112
 72
    1
 10
171.3397459621556
 20
120.1794919243112
 11
166.3397459621556
 21
128.8397459621556
 72
    1
 10
166.3397459621556
 20
128.8397459621556
 11
161.3397459621556
 21
137.5
 72
    1
 10
161.3397459621556
 20
145
 11
166.3397459621556
 21
136.3397459621556
 72
    1
 10
166.3397459621556
 20
136.3397459621556
 11
171.3397459621556
 21
127.6794919243112
 72
    1
 10
171.3397459621556
 20
127.6794919243112
 11
180
 21
132.6794919243112
 72
    1
 10
180
 20
132.6794919243112
 11
175
 21
141.3397459621556
 72
    1
 10
175
 20
141.3397459621556
 11
170
 21
150
 72
    1
 10
170
 20
150
 11
161.3397459621556
 21
145
 97
    0
 75
    0
 76
    1
 98
    0
  0
HATCH
  5
99
100
AcDbEntity
  8
Relleno
  6
ByLayer
 62
  171
420
6908415
370
    5
100
AcDbHatch
 10
0
 20
0
 30
0
210
0
220
0
230
1
  2
SOLID
 70
    1
 71
    0
 91
    1
 92
    0
 93
  148
 72
    1
 10
50
 20
240
 11
50
 21
230
 72
    1
 10
50
 20
230
 11
50
 21
220
 72
    1
 10
50
 20
220
 11
50
 21
210
 72
    1
 10
50
 20
210
 11
53.53553390593274
 21
206.4644660940673
 72
    1
 10
53.53553390593274
 20
206.4644660940673
 11
57.07106781186548
 21
202.9289321881345
 72
    1
 10
57.07106781186548
 20
202.9289321881345
 11
60.60660171779821
 21
199.3933982822018
 72
    1
 10
60.60660171779821
 20
199.3933982822018
 11
60.60660171779821
 21
209.3933982822018
 72
    1
 10
60.60660171779821
 20
209.3933982822018
 11
57.07106781186548
 21
212.9289321881345
 72
    1
 10
57.07106781186548
 20
212.9289321881345
 11
53.53553390593274
 21
216.4644660940673
 72
    1
 10
53.53553390593274
 20
216.4644660940673
 11
53.53553390593274
 21
226.4644660940673
 72
    1
 10
53.53553390593274
 20
226.4644660940673
 11
53.53553390593274
 21
236.4644660940673
 72
    1
 10
53.53553390593274
 20
236.4644660940673
 11
50
 21
240
 72
    1
 10
80
 20
250
 11
80
 21
240
 72
    1
 10
80
 20
240
 11
83.53553390593274
 21
236.4644660940673
 72
    1
 10
83.53553390593274
 20
236.4644660940673
 11
87.07106781186548
 21
232.9289321881345
 72
    1
 10
87.07106781186548
 20
232.9289321881345
 11
90.60660171779821
 21
229.3933982822018
 72
    1
 10
90.60660171779821
 20
229.3933982822018
 11
94.14213562373095
 21
225.857864376269
 72
    1
 10
94.14213562373095
 20
225.857864376269
 11
94.14213562373095
 21
215.857864376269
 72
    1
 10
94.14213562373095
 20
215.857864376269
 11
94.14213562373095
 21
205.857864376269
 72
    1
 10
94.14213562373095
 20
205.857864376269
 11
90.60660171779821
 21
209.3933982822018
 72
    1
 10
90.60660171779821
 20
209.3933982822018
 11
90.60660171779821
 21
219.3933982822018
 72
    1
 10
90.60660171779821
 20
219.3933982822018
 11
87.07106781186548
 21
222.9289321881345
 72
    1
 10
87.07106781186548
 20
222.9289321881345
 11
87.07106781186548
 21
232.9289321881345
 72
    1
 10
87.07106781186548
 20
232.9289321881345
 11
87.07106781186548
 21
242.9289321881345
 72
    1
 10
87.07106781186548
 20
242.9289321881345
 11
83.53553390593274
 21
246.4644660940673
 72
    1
 10
83.53553390593274
 20
246.4644660940673
 11
80
 21
250
 72
    1
 10
73.53553390593274
 20
236.4644660940673
 11
77.07106781186548
 21
232.9289321881345
 72
    1
 10
77.07106781186548
 20
232.9289321881345
 11
77.07106781186548
 21
222.9289321881345
 72
    1
 10
77.07106781186548
 20
222.9289321881345
 11
73.53553390593274
 21
226.4644660940673
 72
    1
 10
73.53553390593274
 20
226.4644660940673
 11
73.53553390593274
 21
236.4644660940673
 72
    1
 10
70.60660171779821
 20
209.3933982822018
 11
74.14213562373095
 21
205.857864376269
 72
    1
 10
74.14213562373095
 20
205.857864376269
 11
74.14213562373095
 21
195.857864376269
 72
    1
 10
74.14213562373095
 20
195.857864376269
 11
70.60660171779821
 21
199.3933982822018
 72
    1
 10
70.60660171779821
 20
199.3933982822018
 11
70.60660171779821
 21
209.3933982822018
 72
    1
 10
70.60660171779821
 20
209.3933982822018
 11
67.07106781186548
 21
212.9289321881345
 72
    1
 10
67.07106781186548
 20
212.9289321881345
 11
63.53553390593274
 21
216.4644660940673
 72
    1
 10
63.53553390593274
 20
216.4644660940673
 11
63.53553390593274
 21
226.4644660940673
 72
    1
 10
63.53553390593274
 20
226.4644660940673
 11
67.07106781186548
 21
222.9289321881345
 72
    1
 10
67.07106781186548
 20
222.9289321881345
 11
70.60660171779821
 21
219.3933982822018
 72
    1
 10
70.60660171779821
 20
219.3933982822018
 11
70.60660171779821
 21
209.3933982822018
 72
    1
 10
130
 20
198.5589838486225
 11
130
 21
218.6589838486224
 72
    1
 10
130
 20
218.6589838486224
 11
138.6602540378444
 21
213.6589838486224
 72
    1
 10
138.6602540378444
 20
213.6589838486224
 11
138.6602540378444
 21
200.2589838486224
 72
    1
 10
138.6602540378444
 20
200.2589838486224
 11
155.9807621135332
 21
190.2589838486224
 72
    1
 10
155.9807621135332
 20
190.2589838486224
 11
155.9807621135332
 21
183.5589838486225
 72
    1
 10
155.9807621135332
 20
183.5589838486225
 11
130
 21
198.5589838486225
 72
    1
 10
160.9807621135332
 20
198.9192378864668
 11
143.6602540378444
 21
208.9192378864668
 72
    1
 10
143.6602540378444
 20
208.9192378864668
 11
143.6602540378444
 21
215.6192378864668
 72
    1
 10
143.6602540378444
 20
215.6192378864668
 11
160.9807621135332
 21
205.6192378864668
 72
    1
 10
160.9807621135332
 20
205.6192378864668
 11
160.9807621135332
 21
198.9192378864668
 72
    1
 10
160.9807621135332
 20
198.9192378864668
 11
160.9807621135332
 21
192.2192378864669
 72
    1
 10
160.9807621135332
 20
192.2192378864669
 11
169.6410161513776
 21
187.2192378864669
 72
    1
 10
169.6410161513776
 20
187.2192378864669
 11
169.6410161513776
 21
193.9192378864668
 72
    1
 10
169.6410161513776
 20
193.9192378864668
 11
160.9807621135332
 21
198.9192378864668
 72
    1
 10
170.9807621135332
 20
216.2397459621556
 11
179.6410161513776
 21
211.2397459621556
 72
    1
 10
179.6410161513776
 20
211.2397459621556
 11
179.6410161513776
 21
224.6397459621556
 72
    1
 10
179.6410161513776
 20
224.6397459621556
 11
162.3205080756888
 21
234.6397459621556
 72
    1
 10
162.3205080756888
 20
234.6397459621556
 11
162.3205080756888
 21
227.9397459621556
 72
    1
 10
162.3205080756888
 20
227.9397459621556
 11
170.9807621135332
 21
222.9397459621556
 72
    1
 10
170.9807621135332
 20
222.9397459621556
 11
170.9807621135332
 21
216.2397459621556
 72
    1
 10
162.3205080756888
 20
234.6397459621556
 11
162.3205080756888
 21
241.3397459621556
 72
    1
 10
162.3205080756888
 20
241.3397459621556
 11
145
 21
251.3397459621556
 72
    1
 10
145
 20
251.3397459621556
 11
145
 21
244.6397459621556
 72
    1
 10
145
 20
244.6397459621556
 11
162.3205080756888
 21
234.6397459621556
 72
    1
 10
148.6602540378444
 20
230.9794919243112
 11
148.6602540378444
 21
224.2794919243112
 72
    1
 10
148.6602540378444
 20
224.2794919243112
 11
157.3205080756888
 21
219.2794919243112
 72
    1
 10
157.3205080756888
 20
219.2794919243112
 11
157.3205080756888
 21
225.9794919243112
 72
    1
 10
157.3205080756888
 20
225.9794919243112
 11
148.6602540378444
 21
230.9794919243112
 72
    1
 10
41.7157287525381
 20
101.7157287525381
 11
48.78679656440357
 21
94.64466094067262
 72
    1
 10
48.78679656440357
 20
94.64466094067262
 11
55.85786437626905
 21
87.57359312880715
 72
    1
 10
55.85786437626905
 20
87.57359312880715
 11
62.92893218813452
 21
80.50252531694167
 72
    1
 10
62.92893218813452
 20
80.50252531694167
 11
62.92893218813452
 21
85.50252531694167
 72
    1
 10
62.92893218813452
 20
85.50252531694167
 11
55.85786437626905
 21
92.57359312880715
 72
    1
 10
55.85786437626905
 20
92.57359312880715
 11
48.78679656440357
 21
99.64466094067262
 72
    1
 10
48.78679656440357
 20
99.64466094067262
 11
48.78679656440357
 21
104.6446609406726
 72
    1
 10
48.78679656440357
 20
104.6446609406726
 11
48.78679656440357
 21
109.6446609406726
 72
    1
 10
48.78679656440357
 20
109.6446609406726
 11
41.7157287525381
 21
116.7157287525381
 72
    1
 10
41.7157287525381
 20
116.7157287525381
 11
41.7157287525381
 21
111.7157287525381
 72
    1
 10
41.7157287525381
 20
111.7157287525381
 11
41.7157287525381
 21
106.7157287525381
 72
    1
 10
41.7157287525381
 20
106.7157287525381
 11
41.7157287525381
 21
101.7157287525381
 72
    1
 10
70
 20
87.57359312880715
 11
77.07106781186548
 21
80.50252531694167
 72
    1
 10
77.07106781186548
 20
80.50252531694167
 11
77.07106781186548
 21
85.50252531694167
 72
    1
 10
77.07106781186548
 20
85.50252531694167
 11
70
 21
92.57359312880715
 72
    1
 10
70
 20
92.57359312880715
 11
70
 21
87.57359312880715
 72
    1
 10
55.85786437626905
 20
106.7157287525381
 11
62.92893218813452
 21
99.64466094067262
 72
    1
 10
62.92893218813452
 20
99.64466094067262
 11
70
 21
92.57359312880715
 72
    1
 10
70
 20
92.57359312880715
 11
70
 21
97.57359312880715
 72
    1
 10
70
 20
97.57359312880715
 11
62.92893218813452
 21
104.6446609406726
 72
    1
 10
62.92893218813452
 20
104.6446609406726
 11
55.85786437626905
 21
111.7157287525381
 72
    1
 10
55.85786437626905
 20
111.7157287525381
 11
55.85786437626905
 21
106.7157287525381
 72
    1
 10
84.14213562373095
 20
106.7157287525381
 11
91.21320343559643
 21
99.64466094067262
 72
    1
 10
91.21320343559643
 20
99.64466094067262
 11
91.21320343559643
 21
104.6446609406726
 72
    1
 10
91.21320343559643
 20
104.6446609406726
 11
91.21320343559643
 21
109.6446609406726
 72
    1
 10
91.21320343559643
 20
109.6446609406726
 11
84.14213562373095
 21
116.7157287525381
 72
    1
 10
84.14213562373095
 20
116.7157287525381
 11
77.07106781186548
 21
123.7867965644036
 72
    1
 10
77.07106781186548
 20
123.7867965644036
 11
70
 21
130.857864376269
 72
    1
 10
70
 20
130.857864376269
 11
62.92893218813452
 21
137.9289321881345
 72
    1
 10
62.92893218813452
 20
137.9289321881345
 11
62.92893218813452
 21
142.9289321881345
 72
    1
 10
62.92893218813452
 20
142.9289321881345
 11
70
 21
135.857864376269
 72
    1
 10
70
 20
135.857864376269
 11
77.07106781186548
 21
128.7867965644036
 72
    1
 10
77.07106781186548
 20
128.7867965644036
 11
77.07106781186548
 21
123.7867965644036
 72
    1
 10
77.07106781186548
 20
123.7867965644036
 11
77.07106781186548
 21
118.7867965644036
 72
    1
 10
77.07106781186548
 20
118.7867965644036
 11
84.14213562373095
 21
111.7157287525381
 72
    1
 10
84.14213562373095
 20
111.7157287525381
 11
84.14213562373095
 21
106.7157287525381
 72
    1
 10
62.92893218813452
 20
118.7867965644036
 11
70
 21
111.7157287525381
 72
    1
 10
70
 20
111.7157287525381
 11
70
 21
116.7157287525381
 72
    1
 10
70
 20
116.7157287525381
 11
62.92893218813452
 21
123.7867965644036
 72
    1
 10
62.92893218813452
 20
123.7867965644036
 11
62.92893218813452
 21
118.7867965644036
 72
    1
 10
135.3589838486224
 20
100
 11
140.3589838486224
 21
91.33974596215562
 72
    1
 10
140.3589838486224
 20
91.33974596215562
 11
145.3589838486224
 21
82.67949192431124
 72
    1
 10
145.3589838486224
 20
82.67949192431124
 11
150.3589838486224
 21
74.01923788646685
 72
    1
 10
150.3589838486224
 20
74.01923788646685
 11
150.3589838486224
 21
81.51923788646685
 72
    1
 10
150.3589838486224
 20
81.51923788646685
 11
145.3589838486224
 21
90.17949192431124
 72
    1
 10
145.3589838486224
 20
90.17949192431124
 11
140.3589838486224
 21
98.83974596215562
 72
    1
 10
140.3589838486224
 20
98.83974596215562
 11
140.3589838486224
 21
106.3397459621556
 72
    1
 10
140.3589838486224
 20
106.3397459621556
 11
140.3589838486224
 21
113.8397459621556
 72
    1
 10
140.3589838486224
 20
113.8397459621556
 11
135.3589838486224
 21
122.5
 72
    1
 10
135.3589838486224
 20
122.5
 11
135.3589838486224
 21
115
 72
    1
 10
135.3589838486224
 20
115
 11
135.3589838486224
 21
107.5
 72
    1
 10
135.3589838486224
 20
107.5
 11
135.3589838486224
 21
100
 72
    1
 10
159.0192378864668
 20
79.01923788646685
 11
164.0192378864668
 21
70.35898384862247
 72
    1
 10
164.0192378864668
 20
70.35898384862247
 11
164.0192378864668
 21
77.85898384862247
 72
    1
 10
164.0192378864668
 20
77.85898384862247
 11
159.0192378864668
 21
86.51923788646685
 72
    1
 10
159.0192378864668
 20
86.51923788646685
 11
159.0192378864668
 21
94.01923788646685
 72
    1
 10
159.0192378864668
 20
94.01923788646685
 11
154.0192378864668
 21
102.6794919243112
 72
    1
 10
154.0192378864668
 20
102.6794919243112
 11
149.0192378864668
 21
111.3397459621556
 72
    1
 10
149.0192378864668
 20
111.3397459621556
 11
149.0192378864668
 21
103.8397459621556
 72
    1
 10
149.0192378864668
 20
103.8397459621556
 11
154.0192378864668
 21
95.17949192431124
 72
    1
 10
154.0192378864668
 20
95.17949192431124
 11
159.0192378864668
 21
86.51923788646685
 72
    1
 10
159.0192378864668
 20
86.51923788646685
 11
159.0192378864668
 21
79.01923788646685
 72
    1
 10
176.3397459621556
 20
104.0192378864669
 11
176.3397459621556
 21
96.51923788646685
 72
    1
 10
176.3397459621556
 20
96.51923788646685
 11
181.3397459621556
 21
87.85898384862247
 72
    1
 10
181.3397459621556
 20
87.85898384862247
 11
181.3397459621556
 21
95.35898384862247
 72
    1
 10
181.3397459621556
 20
95.35898384862247
 11
181.3397459621556
 21
102.8589838486225
 72
    1
 10
181.3397459621556
 20
102.8589838486225
 11
176.3397459621556
 21
111.5192378864669
 72
    1
 10
176.3397459621556
 20
111.5192378864669
 11
171.3397459621556
 21
120.1794919243112
 72
    1
 10
171.3397459621556
 20
120.1794919243112
 11
171.3397459621556
 21
112.6794919243112
 72
    1
 10
171.3397459621556
 20
112.6794919243112
 11
176.3397459621556
 21
104.0192378864669
 72
    1
 10
157.6794919243112
 20
116.3397459621556
 11
162.6794919243112
 21
107.6794919243112
 72
    1
 10
162.6794919243112
 20
107.6794919243112
 11
162.6794919243112
 21
115.1794919243112
 72
    1
 10
162.6794919243112
 20
115.1794919243112
 11
157.6794919243112
 21
123.8397459621556
 72
    1
 10
157.6794919243112
 20
123.8397459621556
 11
157.6794919243112
 21
116.3397459621556
 72
    1
 10
161.3397459621556
 20
137.5
 11
166.3397459621556
 21
128.8397459621556
 72
    1
 10
166.3397459621556
 20
128.8397459621556
 11
171.3397459621556
 21
120.1794919243112
 72
    1
 10
171.3397459621556
 20
120.1794919243112
 11
171.3397459621556
 21
127.6794919243112
 72
    1
 10
171.3397459621556
 20
127.6794919243112
 11
166.3397459621556
 21
136.3397459621556
 72
    1
 10
166.3397459621556
 20
136.3397459621556
 11
161.3397459621556
 21
145
 72
    1
 10
161.3397459621556
 20
145
 11
161.3397459621556
 21
137.5
 97
    0
 75
    0
 76
    1
 98
    0
  0
HATCH
  5
9A
100
AcDbEntity
  8
Relleno
  6
ByLayer
 62
   11
420
16738665
370
    5
100
AcDbHatch
 10
0
 20
0
 30
0
210
0
220
0
230
1
  2
SOLID
 70
    1
 71
    0
 91
    1
 92
    0
 93
   38
 72
    1
 10
190
 20
85.35898384862247
 11
181.3397459621556
 21
80.35898384862247
 72
    1
 10
181.3397459621556
 20
80.35898384862247
 11
172.6794919243112
 21
75.35898384862247
 72
    1
 10
172.6794919243112
 20
75.35898384862247
 11
164.0192378864668
 21
70.35898384862247
 72
    1
 10
164.0192378864668
 20
70.35898384862247
 11
164.0192378864668
 21
77.85898384862247
 72
    1
 10
164.0192378864668
 20
77.85898384862247
 11
172.6794919243112
 21
82.85898384862247
 72
    1
 10
172.6794919243112
 20
82.85898384862247
 11
181.3397459621556
 21
87.85898384862247
 72
    1
 10
181.3397459621556
 20
87.85898384862247
 11
181.3397459621556
 21
95.35898384862247
 72
    1
 10
181.3397459621556
 20
95.35898384862247
 11
181.3397459621556
 21
102.8589838486225
 72
    1
 10
181.3397459621556
 20
102.8589838486225
 11
190
 21
107.8589838486225
 72
    1
 10
190
 20
107.8589838486225
 11
190
 21
100.3589838486225
 72
    1
 10
190
 20
100.3589838486225
 11
190
 21
92.85898384862247
 72
    1
 10
190
 20
92.85898384862247
 11
190
 21
85.35898384862247
 72
    1
 10
159.0192378864668
 20
79.01923788646685
 11
150.3589838486224
 21
74.01923788646685
 72
    1
 10
150.3589838486224
 20
74.01923788646685
 11
150.3589838486224
 21
81.51923788646685
 72
    1
 10
150.3589838486224
 20
81.51923788646685
 11
159.0192378864668
 21
86.51923788646685
 72
    1
 10
159.0192378864668
 20
86.51923788646685
 11
159.0192378864668
 21
94.01923788646685
 72
    1
 10
159.0192378864668
 20
94.01923788646685
 11
167.6794919243112
 21
99.01923788646685
 72
    1
 10
167.6794919243112
 20
99.01923788646685
 11
176.3397459621556
 21
104.0192378864669
 72
    1
 10
176.3397459621556
 20
104.0192378864669
 11
176.3397459621556
 21
96.51923788646685
 72
    1
 10
176.3397459621556
 20
96.51923788646685
 11
167.6794919243112
 21
91.51923788646685
 72
    1
 10
167.6794919243112
 20
91.51923788646685
 11
159.0192378864668
 21
86.51923788646685
 72
    1
 10
159.0192378864668
 20
86.51923788646685
 11
159.0192378864668
 21
79.01923788646685
 72
    1
 10
140.3589838486224
 20
106.3397459621556
 11
140.3589838486224
 21
98.83974596215562
 72
    1
 10
140.3589838486224
 20
98.83974596215562
 11
149.0192378864668
 21
103.8397459621556
 72
    1
 10
149.0192378864668
 20
103.8397459621556
 11
149.0192378864668
 21
111.3397459621556
 72
    1
 10
149.0192378864668
 20
111.3397459621556
 11
157.6794919243112
 21
116.3397459621556
 72
    1
 10
157.6794919243112
 20
116.3397459621556
 11
157.6794919243112
 21
123.8397459621556
 72
    1
 10
157.6794919243112
 20
123.8397459621556
 11
149.0192378864668
 21
118.8397459621556
 72
    1
 10
149.0192378864668
 20
118.8397459621556
 11
140.3589838486224
 21
113.8397459621556
 72
    1
 10
140.3589838486224
 20
113.8397459621556
 11
140.3589838486224
 21
106.3397459621556
 72
    1
 10
171.3397459621556
 20
112.6794919243112
 11
162.6794919243112
 21
107.6794919243112
 72
    1
 10
162.6794919243112
 20
107.6794919243112
 11
162.6794919243112
 21
115.1794919243112
 72
    1
 10
162.6794919243112
 20
115.1794919243112
 11
171.3397459621556
 21
120.1794919243112
 72
    1
 10
171.3397459621556
 20
120.1794919243112
 11
171.3397459621556
 21
112.6794919243112
 72
    1
 10
171.3397459621556
 20
127.6794919243112
 11
171.3397459621556
 21
120.1794919243112
 72
    1
 10
171.3397459621556
 20
120.1794919243112
 11
180
 21
125.1794919243112
 72
    1
 10
180
 20
125.1794919243112
 11
180
 21
132.6794919243112
 72
    1
 10
180
 20
132.6794919243112
 11
171.3397459621556
 21
127.6794919243112
 97
    0
 75
    0
 76
    1
 98
    0
  0
HATCH
  5
9B
100
AcDbEntity
  8
Relleno
  6
ByLayer
 62
   11
420
16738665
370
    5
100
AcDbHatch
 10
0
 20
0
 30
0
210
0
220
0
230
1
  2
SOLID
 70
    1
 71
    0
 91
    1
 92
    0
 93
   38
 72
    1
 10
91.21320343559643
 20
94.64466094067262
 11
84.14213562373095
 21
87.57359312880715
 72
    1
 10
84.14213562373095
 20
87.57359312880715
 11
77.07106781186548
 21
80.50252531694167
 72
    1
 10
77.07106781186548
 20
80.50252531694167
 11
77.07106781186548
 21
85.50252531694167
 72
    1
 10
77.07106781186548
 20
85.50252531694167
 11
84.14213562373095
 21
92.57359312880715
 72
    1
 10
84.14213562373095
 20
92.57359312880715
 11
91.21320343559643
 21
99.64466094067262
 72
    1
 10
91.21320343559643
 20
99.64466094067262
 11
91.21320343559643
 21
104.6446609406726
 72
    1
 10
91.21320343559643
 20
104.6446609406726
 11
91.21320343559643
 21
109.6446609406726
 72
    1
 10
91.21320343559643
 20
109.6446609406726
 11
98.2842712474619
 21
116.7157287525381
 72
    1
 10
98.2842712474619
 20
116.7157287525381
 11
98.2842712474619
 21
111.7157287525381
 72
    1
 10
98.2842712474619
 20
111.7157287525381
 11
98.2842712474619
 21
106.7157287525381
 72
    1
 10
98.2842712474619
 20
106.7157287525381
 11
98.2842712474619
 21
101.7157287525381
 72
    1
 10
98.2842712474619
 20
101.7157287525381
 11
91.21320343559643
 21
94.64466094067262
 72
    1
 10
70
 20
87.57359312880715
 11
62.92893218813452
 21
80.50252531694167
 72
    1
 10
62.92893218813452
 20
80.50252531694167
 11
62.92893218813452
 21
85.50252531694167
 72
    1
 10
62.92893218813452
 20
85.50252531694167
 11
70
 21
92.57359312880715
 72
    1
 10
70
 20
92.57359312880715
 11
70
 21
87.57359312880715
 72
    1
 10
84.14213562373095
 20
106.7157287525381
 11
77.07106781186548
 21
99.64466094067262
 72
    1
 10
77.07106781186548
 20
99.64466094067262
 11
70
 21
92.57359312880715
 72
    1
 10
70
 20
92.57359312880715
 11
70
 21
97.57359312880715
 72
    1
 10
70
 20
97.57359312880715
 11
77.07106781186548
 21
104.6446609406726
 72
    1
 10
77.07106781186548
 20
104.6446609406726
 11
84.14213562373095
 21
111.7157287525381
 72
    1
 10
84.14213562373095
 20
111.7157287525381
 11
84.14213562373095
 21
106.7157287525381
 72
    1
 10
48.78679656440357
 20
99.64466094067262
 11
55.85786437626905
 21
106.7157287525381
 72
    1
 10
55.85786437626905
 20
106.7157287525381
 11
55.85786437626905
 21
111.7157287525381
 72
    1
 10
55.85786437626905
 20
111.7157287525381
 11
62.92893218813452
 21
118.7867965644036
 72
    1
 10
62.92893218813452
 20
118.7867965644036
 11
62.92893218813452
 21
123.7867965644036
 72
    1
 10
62.92893218813452
 20
123.7867965644036
 11
55.85786437626905
 21
116.7157287525381
 72
    1
 10
55.85786437626905
 20
116.7157287525381
 11
48.78679656440357
 21
109.6446609406726
 72
    1
 10
48.78679656440357
 20
109.6446609406726
 11
48.78679656440357
 21
104.6446609406726
 72
    1
 10
48.78679656440357
 20
104.6446609406726
 11
48.78679656440357
 21
99.64466094067262
 72
    1
 10
84.14213562373095
 20
135.857864376269
 11
84.14213562373095
 21
130.857864376269
 72
    1
 10
84.14213562373095
 20
130.857864376269
 11
77.07106781186548
 21
123.7867965644036
 72
    1
 10
77.07106781186548
 20
123.7867965644036
 11
77.07106781186548
 21
128.7867965644036
 72
    1
 10
77.07106781186548
 20
128.7867965644036
 11
84.14213562373095
 21
135.857864376269
 72
    1
 10
77.07106781186548
 20
118.7867965644036
 11
77.07106781186548
 21
123.7867965644036
 72
    1
 10
77.07106781186548
 20
123.7867965644036
 11
70
 21
116.7157287525381
 72
    1
 10
70
 20
116.7157287525381
 11
70
 21
111.7157287525381
 72
    1
 10
70
 20
111.7157287525381
 11
77.07106781186548
 21
118.7867965644036
 97
    0
 75
    0
 76
    1
 98
    0
  0
HATCH
  5
9C
100
AcDbEntity
  8
Relleno
  6
ByLayer
 62
   11
420
16738665
370
    5
100
AcDbHatch
 10
0
 20
0
 30
0
210
0
220
0
230
1
  2
SOLID
 70
    1
 71
    0
 91
    1
 92
    0
 93
   28
 72
    1
 10
138.6602540378444
 20
213.6589838486224
 11
138.6602540378444
 21
200.2589838486224
 72
    1
 10
138.6602540378444
 20
200.2589838486224
 11
143.6602540378444
 21
208.9192378864668
 72
    1
 10
143.6602540378444
 20
208.9192378864668
 11
143.6602540378444
 21
215.6192378864668
 72
    1
 10
143.6602540378444
 20
215.6192378864668
 11
148.6602540378444
 21
224.2794919243112
 72
    1
 10
148.6602540378444
 20
224.2794919243112
 11
148.6602540378444
 21
230.9794919243112
 72
    1
 10
148.6602540378444
 20
230.9794919243112
 11
138.6602540378444
 21
213.6589838486224
 72
    1
 10
155.9807621135332
 20
190.2589838486224
 11
155.9807621135332
 21
183.5589838486225
 72
    1
 10
155.9807621135332
 20
183.5589838486225
 11
160.9807621135332
 21
192.2192378864669
 72
    1
 10
160.9807621135332
 20
192.2192378864669
 11
160.9807621135332
 21
198.9192378864668
 72
    1
 10
160.9807621135332
 20
198.9192378864668
 11
155.9807621135332
 21
190.2589838486224
 72
    1
 10
160.9807621135332
 20
205.6192378864668
 11
160.9807621135332
 21
198.9192378864668
 72
    1
 10
160.9807621135332
 20
198.9192378864668
 11
170.9807621135332
 21
216.2397459621556
 72
    1
 10
170.9807621135332
 20
216.2397459621556
 11
170.9807621135332
 21
222.9397459621556
 72
    1
 10
170.9807621135332
 20
222.9397459621556
 11
160.9807621135332
 21
205.6192378864668
 72
    1
 10
169.6410161513776
 20
193.9192378864668
 11
169.6410161513776
 21
187.2192378864669
 72
    1
 10
169.6410161513776
 20
187.2192378864669
 11
184.6410161513776
 21
213.2
 72
    1
 10
184.6410161513776
 20
213.2
 11
184.6410161513776
 21
233.3
 72
    1
 10
184.6410161513776
 20
233.3
 11
179.6410161513776
 21
224.6397459621556
 72
    1
 10
179.6410161513776
 20
224.6397459621556
 11
179.6410161513776
 21
211.2397459621556
 72
    1
 10
179.6410161513776
 20
211.2397459621556
 11
169.6410161513776
 21
193.9192378864668
 72
    1
 10
162.3205080756888
 20
227.9397459621556
 11
162.3205080756888
 21
234.6397459621556
 72
    1
 10
162.3205080756888
 20
234.6397459621556
 11
167.3205080756888
 21
243.3
 72
    1
 10
167.3205080756888
 20
243.3
 11
167.3205080756888
 21
250
 72
    1
 10
167.3205080756888
 20
250
 11
162.3205080756888
 21
241.3397459621556
 72
    1
 10
162.3205080756888
 20
241.3397459621556
 11
162.3205080756888
 21
234.6397459621556
 72
    1
 10
162.3205080756888
 20
234.6397459621556
 11
157.3205080756888
 21
225.9794919243112
 72
    1
 10
157.3205080756888
 20
225.9794919243112
 11
157.3205080756888
 21
219.2794919243112
 72
    1
 10
157.3205080756888
 20
219.2794919243112
 11
162.3205080756888
 21
227.9397459621556
 97
    0
 75
    0
 76
    1
 98
    0
  0
HATCH
  5
9D
100
AcDbEntity
  8
Relleno
  6
ByLayer
 62
   11
420
16738665
370
    5
100
AcDbHatch
 10
0
 20
0
 30
0
210
0
220
0
230
1
  2
SOLID
 70
    1
 71
    0
 91
    1
 92
    0
 93
   38
 72
    1
 10
74.14213562373095
 20
195.857864376269
 11
84.14213562373095
 21
195.857864376269
 72
    1
 10
84.14213562373095
 20
195.857864376269
 11
94.14213562373095
 21
195.857864376269
 72
    1
 10
94.14213562373095
 20
195.857864376269
 11
104.142135623731
 21
195.857864376269
 72
    1
 10
104.142135623731
 20
195.857864376269
 11
104.142135623731
 21
205.857864376269
 72
    1
 10
104.142135623731
 20
205.857864376269
 11
104.142135623731
 21
215.857864376269
 72
    1
 10
104.142135623731
 20
215.857864376269
 11
104.142135623731
 21
225.857864376269
 72
    1
 10
104.142135623731
 20
225.857864376269
 11
94.14213562373095
 21
225.857864376269
 72
    1
 10
94.14213562373095
 20
225.857864376269
 11
94.14213562373095
 21
215.857864376269
 72
    1
 10
94.14213562373095
 20
215.857864376269
 11
94.14213562373095
 21
205.857864376269
 72
    1
 10
94.14213562373095
 20
205.857864376269
 11
84.14213562373095
 21
205.857864376269
 72
    1
 10
84.14213562373095
 20
205.857864376269
 11
74.14213562373095
 21
205.857864376269
 72
    1
 10
74.14213562373095
 20
205.857864376269
 11
74.14213562373095
 21
195.857864376269
 72
    1
 10
97.07106781186548
 20
242.9289321881345
 11
97.07106781186548
 21
232.9289321881345
 72
    1
 10
97.07106781186548
 20
232.9289321881345
 11
87.07106781186548
 21
232.9289321881345
 72
    1
 10
87.07106781186548
 20
232.9289321881345
 11
77.07106781186548
 21
232.9289321881345
 72
    1
 10
77.07106781186548
 20
232.9289321881345
 11
77.07106781186548
 21
222.9289321881345
 72
    1
 10
77.07106781186548
 20
222.9289321881345
 11
87.07106781186548
 21
222.9289321881345
 72
    1
 10
87.07106781186548
 20
222.9289321881345
 11
87.07106781186548
 21
232.9289321881345
 72
    1
 10
87.07106781186548
 20
232.9289321881345
 11
87.07106781186548
 21
242.9289321881345
 72
    1
 10
87.07106781186548
 20
242.9289321881345
 11
97.07106781186548
 21
242.9289321881345
 72
    1
 10
53.53553390593274
 20
236.4644660940673
 11
63.53553390593274
 21
236.4644660940673
 72
    1
 10
63.53553390593274
 20
236.4644660940673
 11
73.53553390593274
 21
236.4644660940673
 72
    1
 10
73.53553390593274
 20
236.4644660940673
 11
73.53553390593274
 21
226.4644660940673
 72
    1
 10
73.53553390593274
 20
226.4644660940673
 11
63.53553390593274
 21
226.4644660940673
 72
    1
 10
63.53553390593274
 20
226.4644660940673
 11
63.53553390593274
 21
216.4644660940673
 72
    1
 10
63.53553390593274
 20
216.4644660940673
 11
53.53553390593274
 21
216.4644660940673
 72
    1
 10
53.53553390593274
 20
216.4644660940673
 11
53.53553390593274
 21
226.4644660940673
 72
    1
 10
53.53553390593274
 20
226.4644660940673
 11
53.53553390593274
 21
236.4644660940673
 72
    1
 10
60.60660171779821
 20
199.3933982822018
 11
70.60660171779821
 21
199.3933982822018
 72
    1
 10
70.60660171779821
 20
199.3933982822018
 11
70.60660171779821
 21
209.3933982822018
 72
    1
 10
70.60660171779821
 20
209.3933982822018
 11
60.60660171779821
 21
209.3933982822018
 72
    1
 10
60.60660171779821
 20
209.3933982822018
 11
60.60660171779821
 21
199.3933982822018
 72
    1
 10
70.60660171779821
 20
209.3933982822018
 11
80.60660171779821
 21
209.3933982822018
 72
    1
 10
80.60660171779821
 20
209.3933982822018
 11
90.60660171779821
 21
209.3933982822018
 72
    1
 10
90.60660171779821
 20
209.3933982822018
 11
90.60660171779821
 21
219.3933982822018
 72
    1
 10
90.60660171779821
 20
219.3933982822018
 11
80.60660171779821
 21
219.3933982822018
 72
    1
 10
80.60660171779821
 20
219.3933982822018
 11
70.60660171779821
 21
219.3933982822018
 72
    1
 10
70.60660171779821
 20
219.3933982822018
 11
70.60660171779821
 21
209.3933982822018
 97
    0
 75
    0
 76
    1
 98
    0
  0
LINE
  5
9E
100
AcDbEntity
  8
A4_Auxiliar
  6
CONTINUOUS
 62
    2
370
   -3
100
AcDbLine
 10
71
 20
60
 11
83.99999999999999
 21
65
  0
LINE
  5
9F
100
AcDbEntity
  8
A4_Auxiliar
  6
CONTINUOUS
 62
    2
370
   -3
100
AcDbLine
 10
71
 20
65
 11
83.99999999999999
 21
60
  0
LINE
  5
A0
100
AcDbEntity
  8
A4_Auxiliar
  6
CONTINUOUS
 62
    2
370
   -3
100
AcDbLine
 10
83.99999999999999
 20
60
 11
104
 21
65
  0
LINE
  5
A1
100
AcDbEntity
  8
A4_Auxiliar
  6
CONTINUOUS
 62
    2
370
   -3
100
AcDbLine
 10
104
 20
60
 11
83.99999999999999
 21
65
  0
LINE
  5
A2
100
AcDbEntity
  8
A4_Auxiliar
  6
CONTINUOUS
 62
    2
370
   -3
100
AcDbLine
 10
50.99999999999998
 20
30
 11
71
 21
50
  0
LINE
  5
A3
100
AcDbEntity
  8
A4_Auxiliar
  6
CONTINUOUS
 62
    2
370
   -3
100
AcDbLine
 10
70.99999999999997
 20
30
 11
50.99999999999999
 21
50
  0
LINE
  5
A4
100
AcDbEntity
  8
A4_Auxiliar
  6
CONTINUOUS
 62
    2
370
   -3
100
AcDbLine
 10
50.99999999999998
 20
10
 11
70.99999999999997
 21
20
  0
LINE
  5
A5
100
AcDbEntity
  8
A4_Auxiliar
  6
CONTINUOUS
 62
    2
370
   -3
100
AcDbLine
 10
70.99999999999997
 20
10
 11
50.99999999999998
 21
20
  0
LINE
  5
A6
100
AcDbEntity
  8
A4_Auxiliar
  6
CONTINUOUS
 62
    2
370
   -3
100
AcDbLine
 10
70.99999999999997
 20
10
 11
145
 21
50
  0
LINE
  5
A7
100
AcDbEntity
  8
A4_Auxiliar
  6
CONTINUOUS
 62
    2
370
   -3
100
AcDbLine
 10
71
 20
50
 11
145
 21
10
  0
LINE
  5
A8
100
AcDbEntity
  8
A4_Auxiliar
  6
CONTINUOUS
 62
    2
370
   -3
100
AcDbLine
 10
104
 20
70
 11
145
 21
50
  0
LINE
  5
A9
100
AcDbEntity
  8
A4_Auxiliar
  6
CONTINUOUS
 62
    2
370
   -3
100
AcDbLine
 10
145
 20
70
 11
104
 21
50
  0
LINE
  5
AA
100
AcDbEntity
  8
A4_Auxiliar
  6
CONTINUOUS
 62
    2
370
   -3
100
AcDbLine
 10
145
 20
10
 11
190
 21
20
  0
LINE
  5
AB
100
AcDbEntity
  8
A4_Auxiliar
  6
CONTINUOUS
 62
    2
370
   -3
100
AcDbLine
 10
145
 20
20
 11
190
 21
10
  0
MTEXT
  5
AC
100
AcDbEntity
  8
A4_Rotulación
  6
ByLayer
 62
  256
370
   35
100
AcDbMText
 10
124.5
 20
60
 30
0
 40
6
 41
8.666665394653769
 71
    5
 72
    1
  1
SR
  7
standard
210
0
220
0
230
1
 50
0
 73
    2
 44
1
  0
MTEXT
  5
AD
100
AcDbEntity
  8
A4_Rotulación
  6
ByLayer
 62
  256
370
   35
100
AcDbMText
 10
61
 20
15
 30
0
 40
2
 41
3.111111111111111
 71
    5
 72
    1
  1
A4
  7
standard
210
0
220
0
230
1
 50
0
 73
    2
 44
1
  0
MTEXT
  5
AE
100
AcDbEntity
  8
A4_Rotulación
  6
ByLayer
 62
  256
370
   35
100
AcDbMText
 10
93.99999999999991
 20
62.50000000000001
 30
0
 40
2
 41
5.555555555555648
 71
    5
 72
    1
  1
León
  7
standard
210
0
220
0
230
1
 50
0
 73
    2
 44
1
  0
CIRCLE
  5
AF
100
AcDbEntity
  8
Sistema Americano
  6
CONTINUOUS
 62
  256
370
   35
100
AcDbCircle
 10
55
 20
25
 40
3
  0
CIRCLE
  5
B0
100
AcDbEntity
  8
Sistema Americano
  6
CONTINUOUS
 62
  256
370
   35
100
AcDbCircle
 10
55
 20
25
 40
1.666666666666671
  0
LINE
  5
B1
100
AcDbEntity
  8
Sistema Americano
  6
CONTINUOUS
 62
  256
370
   35
100
AcDbLine
 10
62
 20
23.3333333333351
 11
62
 21
26.6666666666649
  0
LINE
  5
B2
100
AcDbEntity
  8
Sistema Americano
  6
CONTINUOUS
 62
  256
370
   35
100
AcDbLine
 10
62
 20
26.6666666666649
 11
69.00000000000011
 21
27.9999999999999
  0
LINE
  5
B3
100
AcDbEntity
  8
Sistema Americano
  6
CONTINUOUS
 62
  256
370
   35
100
AcDbLine
 10
69.00000000000011
 20
27.9999999999999
 11
69
 21
22
  0
LINE
  5
B4
100
AcDbEntity
  8
Sistema Americano
  6
CONTINUOUS
 62
  256
370
   35
100
AcDbLine
 10
69
 20
22
 11
62.00000000000001
 21
23.3333333333351
  0
LINE
  5
B5
100
AcDbEntity
  8
Sistema Americano
  6
DASHDOTTINY
 62
  256
370
   35
100
AcDbLine
 10
51
 20
25
 11
71
 21
25
  0
LINE
  5
B6
100
AcDbEntity
  8
Sistema Americano
  6
DASHDOTTINY
 62
  256
370
   35
100
AcDbLine
 10
55
 20
20
 11
55
 21
30
  0
CIRCLE
  5
B7
100
AcDbEntity
  8
Sistema Europeo
  6
CONTINUOUS
 62
  256
370
   35
100
AcDbCircle
 10
67
 20
25
 40
3
  0
CIRCLE
  5
B8
100
AcDbEntity
  8
Sistema Europeo
  6
CONTINUOUS
 62
  256
370
   35
100
AcDbCircle
 10
67
 20
25
 40
1.666666666666671
  0
LINE
  5
B9
100
AcDbEntity
  8
Sistema Europeo
  6
CONTINUOUS
 62
  256
370
   35
100
AcDbLine
 10
52.99999999999999
 20
27.9999999999999
 11
53
 21
22
  0
LINE
  5
BA
100
AcDbEntity
  8
Sistema Europeo
  6
CONTINUOUS
 62
  256
370
   35
100
AcDbLine
 10
60
 20
23.3333333333333
 11
60
 21
26.6666666666667
  0
LINE
  5
BB
100
AcDbEntity
  8
Sistema Europeo
  6
CONTINUOUS
 62
  256
370
   35
100
AcDbLine
 10
60
 20
26.6666666666667
 11
52.99999999999999
 21
27.9999999999999
  0
LINE
  5
BC
100
AcDbEntity
  8
Sistema Europeo
  6
CONTINUOUS
 62
  256
370
   35
100
AcDbLine
 10
53
 20
22
 11
60
 21
23.3333333333333
  0
LINE
  5
BD
100
AcDbEntity
  8
Sistema Europeo
  6
DASHDOTTINY
 62
  256
370
   35
100
AcDbLine
 10
51
 20
25
 11
71
 21
25
  0
LINE
  5
BE
100
AcDbEntity
  8
Sistema Europeo
  6
DASHDOTTINY
 62
  256
370
   35
100
AcDbLine
 10
67
 20
20
 11
67
 21
30
  0
MTEXT
  5
BF
100
AcDbEntity
  8
A4_Etiquetas
  6
CONTINUOUS
 62
    0
370
   -1
100
AcDbMText
 10
26.34728959777453
 20
68.601031862528
 30
0
 40
2
 41
14.66666769524134
 71
    1
 72
    1
  1
Tolerancias\PGenerales
  7
standard
210
0
220
0
230
1
 50
0
 73
    2
 44
1
  0
MTEXT
  5
C0
100
AcDbEntity
  8
A4_Etiquetas
  6
CONTINUOUS
 62
    0
370
   -1
100
AcDbMText
 10
52.24175587456355
 20
68.601031862528
 30
0
 40
2
 41
11.33333333333333
 71
    1
 72
    1
  1
Proyectó
  7
standard
210
0
220
0
230
1
 50
0
 73
    2
 44
1
  0
MTEXT
  5
C1
100
AcDbEntity
  8
A4_Etiquetas
  6
CONTINUOUS
 62
    0
370
   -1
100
AcDbMText
 10
52.24175587456355
 20
63.75447400323594
 30
0
 40
2
 41
7.555555555555866
 71
    1
 72
    1
  1
Dibujó
  7
standard
210
0
220
0
230
1
 50
0
 73
    2
 44
1
  0
MTEXT
  5
C2
100
AcDbEntity
  8
A4_Etiquetas
  6
CONTINUOUS
 62
    0
370
   -1
100
AcDbMText
 10
52.24175587456355
 20
58.76944306224982
 30
0
 40
2
 41
8.000001028574394
 71
    1
 72
    1
  1
Revisó
  7
standard
210
0
220
0
230
1
 50
0
 73
    2
 44
1
  0
MTEXT
  5
C3
100
AcDbEntity
  8
A4_Etiquetas
  6
CONTINUOUS
 62
    0
370
   -1
100
AcDbMText
 10
52.17251933371652
 20
53.85364866211073
 30
0
 40
2
 41
8.888888888888982
 71
    1
 72
    1
  1
Aprobó
  7
standard
210
0
220
0
230
1
 50
0
 73
    2
 44
1
  0
MTEXT
  5
C4
100
AcDbEntity
  8
A4_Etiquetas
  6
CONTINUOUS
 62
    0
370
   -1
100
AcDbMText
 10
52.17251933371652
 20
48.66090809858352
 30
0
 40
2
 41
7.77777880635236
 71
    1
 72
    1
  1
Escala
  7
standard
210
0
220
0
230
1
 50
0
 73
    2
 44
1
  0
MTEXT
  5
C5
100
AcDbEntity
  8
A4_Etiquetas
  6
CONTINUOUS
 62
    0
370
   -1
100
AcDbMText
 10
52.24175587456355
 20
18.75072245266679
 30
0
 40
2
 41
10.22222222222241
 71
    1
 72
    1
  1
Formato
  7
standard
210
0
220
0
230
1
 50
0
 73
    2
 44
1
  0
MTEXT
  5
C6
100
AcDbEntity
  8
A4_Etiquetas
  6
CONTINUOUS
 62
    0
370
   -1
100
AcDbMText
 10
72.25111617935508
 20
48.86861772112461
 30
0
 40
2
 41
16.66666666666726
 71
    1
 72
    1
  1
Denominación
  7
standard
210
0
220
0
230
1
 50
0
 73
    2
 44
1
  0
MTEXT
  5
C7
100
AcDbEntity
  8
A4_Etiquetas
  6
CONTINUOUS
 62
    0
370
   -1
100
AcDbMText
 10
105.2769461633881
 20
68.601031862528
 30
0
 40
2
 41
8.444444444444661
 71
    1
 72
    1
  1
Cliente
  7
standard
210
0
220
0
230
1
 50
0
 73
    2
 44
1
  0
MTEXT
  5
C8
100
AcDbEntity
  8
A4_Etiquetas
  6
CONTINUOUS
 62
    0
370
   -1
100
AcDbMText
 10
146.2649783448296
 20
28.85925741633309
 30
0
 40
2
 41
21.44444444444472
 71
    1
 72
    1
  1
Nº plano cliente
  7
standard
210
0
220
0
230
1
 50
0
 73
    2
 44
1
  0
MTEXT
  5
C9
100
AcDbEntity
  8
A4_Etiquetas
  6
CONTINUOUS
 62
    0
370
   -1
100
AcDbMText
 10
146.3342148856766
 20
18.75072245266679
 30
0
 40
2
 41
11.05555555555574
 71
    1
 72
    1
  1
Nº plano 
  7
standard
210
0
220
0
230
1
 50
0
 73
    2
 44
1
  0
MTEXT
  5
CA
100
AcDbEntity
  8
A4_Etiquetas
  6
CONTINUOUS
 62
    0
370
   -1
100
AcDbMText
 10
191.3379664362457
 20
18.68148591181981
 30
0
 40
2
 41
4.888888888889075
 71
    1
 72
    1
  1
Pag.
  7
standard
210
0
220
0
230
1
 50
0
 73
    2
 44
1
  0
LINE
  5
CB
100
AcDbEntity
  8
A4_Auxiliar
  6
ByLayer
 62
  256
370
   -1
100
AcDbLine
 10
112.5
 20
70
 11
24.99999999999999
 21
178.5
  0
LINE
  5
CC
100
AcDbEntity
  8
A4_Auxiliar
  6
ByLayer
 62
  256
370
   -1
100
AcDbLine
 10
112.5
 20
178.5
 11
24.99999999999999
 21
70
  0
LINE
  5
CD
100
AcDbEntity
  8
A4_Auxiliar
  6
ByLayer
 62
  256
370
   -1
100
AcDbLine
 10
112.5
 20
70
 11
200
 21
178.5
  0
LINE
  5
CE
100
AcDbEntity
  8
A4_Auxiliar
  6
ByLayer
 62
  256
370
   -1
100
AcDbLine
 10
112.5
 20
178.5
 11
200
 21
70
  0
LINE
  5
CF
100
AcDbEntity
  8
A4_Auxiliar
  6
ByLayer
 62
  256
370
   -1
100
AcDbLine
 10
112.5
 20
178.5
 11
200
 21
287
  0
LINE
  5
D0
100
AcDbEntity
  8
A4_Auxiliar
  6
ByLayer
 62
  256
370
   -1
100
AcDbLine
 10
112.5
 20
287
 11
200
 21
178.5
  0
LINE
  5
D1
100
AcDbEntity
  8
A4_Auxiliar
  6
ByLayer
 62
  256
370
   -1
100
AcDbLine
 10
24.99999999999999
 20
178.5
 11
112.5
 21
287
  0
LINE
  5
D2
100
AcDbEntity
  8
A4_Auxiliar
  6
ByLayer
 62
  256
370
   -1
100
AcDbLine
 10
112.5
 20
178.5
 11
25
 21
287
  0
LINE
  5
D3
100
AcDbEntity
  8
A4_Hoja
  6
CONTINUOUS
 62
  256
370
   70
100
AcDbLine
 10
0
 20
0
 11
0
 21
297
  0
LINE
  5
D4
100
AcDbEntity
  8
A4_Hoja
  6
CONTINUOUS
 62
  256
370
   70
100
AcDbLine
 10
210
 20
0
 11
210
 21
297
  0
LINE
  5
D5
100
AcDbEntity
  8
A4_Hoja
  6
CONTINUOUS
 62
  256
370
   70
100
AcDbLine
 10
0
 20
0
 11
210
 21
0
  0
LINE
  5
D6
100
AcDbEntity
  8
A4_Hoja
  6
CONTINUOUS
 62
  256
370
   70
100
AcDbLine
 10
0
 20
297
 11
210
 21
297
  0
LINE
  5
D7
100
AcDbEntity
  8
A4_Recuadro
  6
CONTINUOUS
 62
  256
370
   70
100
AcDbLine
 10
24.99999999999999
 20
10
 11
25
 21
287
  0
LINE
  5
D8
100
AcDbEntity
  8
A4_Recuadro
  6
CONTINUOUS
 62
  256
370
   70
100
AcDbLine
 10
25
 20
287
 11
200
 21
287
  0
LINE
  5
D9
100
AcDbEntity
  8
A4_Recuadro
  6
CONTINUOUS
 62
  256
370
   70
100
AcDbLine
 10
24.99999999999999
 20
10
 11
200
 21
10
  0
LINE
  5
DA
100
AcDbEntity
  8
A4_Recuadro
  6
CONTINUOUS
 62
  256
370
   70
100
AcDbLine
 10
24.99999999999999
 20
70
 11
200
 21
70
  0
LINE
  5
DB
100
AcDbEntity
  8
A4_Recuadro
  6
CONTINUOUS
 62
  256
370
   70
100
AcDbLine
 10
200
 20
10
 11
200
 21
287
  0
LINE
  5
DC
100
AcDbEntity
  8
A4_Divisiones
  6
ByLayer
 62
  256
370
   -1
100
AcDbLine
 10
145
 20
70
 11
145
 21
10
  0
LINE
  5
DD
100
AcDbEntity
  8
A4_Divisiones
  6
ByLayer
 62
  256
370
   -1
100
AcDbLine
 10
50.99999999999999
 20
70
 11
50.99999999999998
 21
10
  0
LINE
  5
DE
100
AcDbEntity
  8
A4_Divisiones
  6
ByLayer
 62
  256
370
   -1
100
AcDbLine
 10
71
 20
70
 11
70.99999999999997
 21
10
  0
LINE
  5
DF
100
AcDbEntity
  8
A4_Divisiones
  6
ByLayer
 62
  256
370
   -1
100
AcDbLine
 10
83.99999999999999
 20
70
 11
83.99999999999999
 21
50
  0
LINE
  5
E0
100
AcDbEntity
  8
A4_Divisiones
  6
ByLayer
 62
  256
370
   -1
100
AcDbLine
 10
104
 20
70
 11
104
 21
50
  0
LINE
  5
E1
100
AcDbEntity
  8
A4_Divisiones
  6
ByLayer
 62
  256
370
   -1
100
AcDbLine
 10
200
 20
60
 11
145
 21
60
  0
LINE
  5
E2
100
AcDbEntity
  8
A4_Divisiones
  6
ByLayer
 62
  256
370
   -1
100
AcDbLine
 10
200
 20
50
 11
145
 21
50
  0
LINE
  5
E3
100
AcDbEntity
  8
A4_Divisiones
  6
ByLayer
 62
  256
370
   -1
100
AcDbLine
 10
200
 20
30
 11
145
 21
30
  0
LINE
  5
E4
100
AcDbEntity
  8
A4_Divisiones
  6
ByLayer
 62
  256
370
   -1
100
AcDbLine
 10
200
 20
20
 11
145
 21
20
  0
LINE
  5
E5
100
AcDbEntity
  8
A4_Divisiones
  6
ByLayer
 62
  256
370
   -1
100
AcDbLine
 10
145
 20
50
 11
50.99999999999999
 21
50
  0
LINE
  5
E6
100
AcDbEntity
  8
A4_Divisiones
  6
ByLayer
 62
  256
370
   -1
100
AcDbLine
 10
50.99999999999998
 20
10
 11
50.99999999999998
 21
20
  0
LINE
  5
E7
100
AcDbEntity
  8
A4_Divisiones
  6
ByLayer
 62
  256
370
   -1
100
AcDbLine
 10
50.99999999999998
 20
20
 11
50.99999999999998
 21
30
  0
LINE
  5
E8
100
AcDbEntity
  8
A4_Divisiones
  6
ByLayer
 62
  256
370
   -1
100
AcDbLine
 10
50.99999999999999
 20
50
 11
50.99999999999999
 21
60
  0
LINE
  5
E9
100
AcDbEntity
  8
A4_Divisiones
  6
ByLayer
 62
  256
370
   -1
100
AcDbLine
 10
50.99999999999999
 20
60
 11
50.99999999999999
 21
70
  0
LINE
  5
EA
100
AcDbEntity
  8
A4_Divisiones
  6
ByLayer
 62
  256
370
   -1
100
AcDbLine
 10
50.99999999999999
 20
60
 11
50.99999999999999
 21
65
  0
LINE
  5
EB
100
AcDbEntity
  8
A4_Divisiones
  6
ByLayer
 62
  256
370
   -1
100
AcDbLine
 10
50.99999999999999
 20
50
 11
50.99999999999999
 21
55
  0
LINE
  5
EC
100
AcDbEntity
  8
A4_Divisiones
  6
ByLayer
 62
  256
370
   -1
100
AcDbLine
 10
50.99999999999999
 20
65
 11
104
 21
65
  0
LINE
  5
ED
100
AcDbEntity
  8
A4_Divisiones
  6
ByLayer
 62
  256
370
   -1
100
AcDbLine
 10
50.99999999999999
 20
60
 11
104
 21
60
  0
LINE
  5
EE
100
AcDbEntity
  8
A4_Divisiones
  6
ByLayer
 62
  256
370
   -1
100
AcDbLine
 10
50.99999999999999
 20
55
 11
104
 21
55
  0
LINE
  5
EF
100
AcDbEntity
  8
A4_Divisiones
  6
ByLayer
 62
  256
370
   -1
100
AcDbLine
 10
50.99999999999998
 20
30
 11
70.99999999999997
 21
30
  0
LINE
  5
F0
100
AcDbEntity
  8
A4_Divisiones
  6
ByLayer
 62
  256
370
   -1
100
AcDbLine
 10
50.99999999999998
 20
20
 11
70.99999999999997
 21
20
  0
LINE
  5
F1
100
AcDbEntity
  8
A4_Divisiones
  6
ByLayer
 62
  256
370
   -1
100
AcDbLine
 10
190
 20
10
 11
190
 21
20
  0
LINE
  5
F2
100
AcDbEntity
  8
A4_Divisiones
  6
ByLayer
 62
  256
370
   -1
100
AcDbLine
 10
112.5
 20
287
 11
112.5
 21
70
  0
LINE
  5
F3
100
AcDbEntity
  8
A4_Divisiones
  6
ByLayer
 62
  256
370
   -1
100
AcDbLine
 10
200
 20
178.5
 11
25
 21
178.5
  0
LINE
  5
F4
100
AcDbEntity
  8
Alzada
  6
ByLayer
 62
  256
370
   -1
100
AcDbLine
 10
88.75
 20
212.75
 11
78.75
 21
212.75
  0
LINE
  5
F5
100
AcDbEntity
  8
Alzada
  6
ByLayer
 62
  256
370
   -1
100
AcDbLine
 10
78.75
 20
212.75
 11
68.75
 21
212.75
  0
LINE
  5
F6
100
AcDbEntity
  8
Alzada
  6
ByLayer
 62
  256
370
   -1
100
AcDbLine
 10
68.75
 20
212.75
 11
58.75
 21
212.75
  0
LINE
  5
F7
100
AcDbEntity
  8
Alzada
  6
ByLayer
 62
  256
370
   -1
100
AcDbLine
 10
58.75
 20
212.75
 11
48.75
 21
212.75
  0
LINE
  5
F8
100
AcDbEntity
  8
Alzada
  6
ByLayer
 62
  256
370
   -1
100
AcDbLine
 10
88.75
 20
212.75
 11
88.75
 21
222.75
  0
LINE
  5
F9
100
AcDbEntity
  8
Alzada
  6
ByLayer
 62
  256
370
   -1
100
AcDbLine
 10
88.75
 20
222.75
 11
88.75
 21
232.75
  0
LINE
  5
FA
100
AcDbEntity
  8
Alzada
  6
ByLayer
 62
  256
370
   -1
100
AcDbLine
 10
88.75
 20
232.75
 11
88.75
 21
242.75
  0
LINE
  5
FB
100
AcDbEntity
  8
Alzada
  6
ByLayer
 62
  256
370
   -1
100
AcDbLine
 10
88.75
 20
242.75
 11
88.75
 21
252.75
  0
LINE
  5
FC
100
AcDbEntity
  8
Alzada
  6
ByLayer
 62
  256
370
   -1
100
AcDbLine
 10
48.75
 20
212.75
 11
48.75
 21
222.75
  0
LINE
  5
FD
100
AcDbEntity
  8
Alzada
  6
ByLayer
 62
  256
370
   -1
100
AcDbLine
 10
48.75
 20
222.75
 11
48.75
 21
232.75
  0
LINE
  5
FE
100
AcDbEntity
  8
Alzada
  6
ByLayer
 62
  256
370
   -1
100
AcDbLine
 10
48.75
 20
232.75
 11
48.75
 21
242.75
  0
LINE
  5
FF
100
AcDbEntity
  8
Alzada
  6
ByLayer
 62
  256
370
   -1
100
AcDbLine
 10
48.75
 20
242.75
 11
48.75
 21
252.75
  0
LINE
  5
100
100
AcDbEntity
  8
Alzada
  6
ByLayer
 62
  256
370
   -1
100
AcDbLine
 10
88.75
 20
252.75
 11
78.75
 21
252.75
  0
LINE
  5
101
100
AcDbEntity
  8
Alzada
  6
ByLayer
 62
  256
370
   -1
100
AcDbLine
 10
78.75
 20
252.75
 11
68.75
 21
252.75
  0
LINE
  5
102
100
AcDbEntity
  8
Alzada
  6
ByLayer
 62
  256
370
   -1
100
AcDbLine
 10
68.75
 20
252.75
 11
58.75
 21
252.75
  0
LINE
  5
103
100
AcDbEntity
  8
Alzada
  6
ByLayer
 62
  256
370
   -1
100
AcDbLine
 10
58.75
 20
252.75
 11
48.75
 21
252.75
  0
LINE
  5
104
100
AcDbEntity
  8
Perfil izquierdo/derecho
  6
ByLayer
 62
  256
370
   -1
100
AcDbLine
 10
136.25
 20
212.75
 11
136.25
 21
222.75
  0
LINE
  5
105
100
AcDbEntity
  8
Perfil izquierdo/derecho
  6
ByLayer
 62
  256
370
   -1
100
AcDbLine
 10
136.25
 20
222.75
 11
136.25
 21
232.75
  0
LINE
  5
106
100
AcDbEntity
  8
Perfil izquierdo/derecho
  6
ByLayer
 62
  256
370
   -1
100
AcDbLine
 10
136.25
 20
232.75
 11
136.25
 21
242.75
  0
LINE
  5
107
100
AcDbEntity
  8
Perfil izquierdo/derecho
  6
ByLayer
 62
  256
370
   -1
100
AcDbLine
 10
136.25
 20
242.75
 11
136.25
 21
252.75
  0
LINE
  5
108
100
AcDbEntity
  8
Perfil izquierdo/derecho
  6
ByLayer
 62
  256
370
   -1
100
AcDbLine
 10
136.25
 20
212.75
 11
146.25
 21
212.75
  0
LINE
  5
109
100
AcDbEntity
  8
Perfil izquierdo/derecho
  6
ByLayer
 62
  256
370
   -1
100
AcDbLine
 10
146.25
 20
212.75
 11
156.25
 21
212.75
  0
LINE
  5
10A
100
AcDbEntity
  8
Perfil izquierdo/derecho
  6
ByLayer
 62
  256
370
   -1
100
AcDbLine
 10
156.25
 20
212.75
 11
166.25
 21
212.75
  0
LINE
  5
10B
100
AcDbEntity
  8
Perfil izquierdo/derecho
  6
ByLayer
 62
  256
370
   -1
100
AcDbLine
 10
166.25
 20
212.75
 11
176.25
 21
212.75
  0
LINE
  5
10C
100
AcDbEntity
  8
Perfil izquierdo/derecho
  6
ByLayer
 62
  256
370
   -1
100
AcDbLine
 10
136.25
 20
252.75
 11
146.25
 21
252.75
  0
LINE
  5
10D
100
AcDbEntity
  8
Perfil izquierdo/derecho
  6
ByLayer
 62
  256
370
   -1
100
AcDbLine
 10
176.25
 20
212.75
 11
176.25
 21
222.75
  0
LINE
  5
10E
100
AcDbEntity
  8
Perfil izquierdo/derecho
  6
ByLayer
 62
  256
370
   -1
100
AcDbLine
 10
176.25
 20
222.75
 11
176.25
 21
232.75
  0
LINE
  5
10F
100
AcDbEntity
  8
Planta
  6
ByLayer
 62
  256
370
   -1
100
AcDbLine
 10
88.75
 20
144.25
 11
78.75
 21
144.25
  0
LINE
  5
110
100
AcDbEntity
  8
Planta
  6
ByLayer
 62
  256
370
   -1
100
AcDbLine
 10
78.75
 20
144.25
 11
68.75
 21
144.25
  0
LINE
  5
111
100
AcDbEntity
  8
Planta
  6
ByLayer
 62
  256
370
   -1
100
AcDbLine
 10
68.75
 20
144.25
 11
58.75
 21
144.25
  0
LINE
  5
112
100
AcDbEntity
  8
Planta
  6
ByLayer
 62
  256
370
   -1
100
AcDbLine
 10
58.75
 20
144.25
 11
48.75
 21
144.25
  0
LINE
  5
113
100
AcDbEntity
  8
Planta
  6
ByLayer
 62
  256
370
   -1
100
AcDbLine
 10
88.75
 20
144.25
 11
88.75
 21
134.25
  0
LINE
  5
114
100
AcDbEntity
  8
Planta
  6
ByLayer
 62
  256
370
   -1
100
AcDbLine
 10
48.75
 20
144.25
 11
48.75
 21
134.25
  0
LINE
  5
115
100
AcDbEntity
  8
Planta
  6
ByLayer
 62
  256
370
   -1
100
AcDbLine
 10
48.75
 20
134.25
 11
48.75
 21
124.25
  0
LINE
  5
116
100
AcDbEntity
  8
Planta
  6
ByLayer
 62
  256
370
   -1
100
AcDbLine
 10
48.75
 20
124.25
 11
48.75
 21
114.25
  0
LINE
  5
117
100
AcDbEntity
  8
Planta
  6
ByLayer
 62
  256
370
   -1
100
AcDbLine
 10
88.75
 20
134.25
 11
88.75
 21
124.25
  0
LINE
  5
118
100
AcDbEntity
  8
Planta
  6
ByLayer
 62
  256
370
   -1
100
AcDbLine
 10
88.75
 20
124.25
 11
88.75
 21
114.25
  0
LINE
  5
119
100
AcDbEntity
  8
Planta
  6
ByLayer
 62
  256
370
   -1
100
AcDbLine
 10
88.75
 20
114.25
 11
88.75
 21
104.25
  0
LINE
  5
11A
100
AcDbEntity
  8
Planta
  6
ByLayer
 62
  256
370
   -1
100
AcDbLine
 10
48.75
 20
114.25
 11
48.75
 21
104.25
  0
LINE
  5
11B
100
AcDbEntity
  8
Planta
  6
ByLayer
 62
  256
370
   -1
100
AcDbLine
 10
88.75
 20
104.25
 11
78.75
 21
104.25
  0
LINE
  5
11C
100
AcDbEntity
  8
Planta
  6
ByLayer
 62
  256
370
   -1
100
AcDbLine
 10
78.75
 20
104.25
 11
68.75
 21
104.25
  0
LINE
  5
11D
100
AcDbEntity
  8
Planta
  6
ByLayer
 62
  256
370
   -1
100
AcDbLine
 10
68.75
 20
104.25
 11
58.75
 21
104.25
  0
LINE
  5
11E
100
AcDbEntity
  8
Planta
  6
ByLayer
 62
  256
370
   -1
100
AcDbLine
 10
58.75
 20
104.25
 11
48.75
 21
104.25
  0
LINE
  5
11F
100
AcDbEntity
  8
Isometrica
  6
ByLayer
 62
  256
370
   -1
100
AcDbLine
 10
190.5255888325765
 20
100
 11
181.8653347947321
 21
95
  0
LINE
  5
120
100
AcDbEntity
  8
Isometrica
  6
ByLayer
 62
  256
370
   -1
100
AcDbLine
 10
190.5255888325765
 20
120
 11
190.5255888325765
 21
100
  0
LINE
  5
121
100
AcDbEntity
  8
Isometrica
  6
ByLayer
 62
  256
370
   -1
100
AcDbLine
 10
164.5448267190433
 20
155
 11
155.884572681199
 21
160
  0
LINE
  5
122
100
AcDbEntity
  8
Isometrica
  6
ByLayer
 62
  256
370
   -1
100
AcDbLine
 10
155.884572681199
 20
160
 11
121.2435565298214
 21
140
  0
LINE
  5
123
100
AcDbEntity
  8
Isometrica
  6
ByLayer
 62
  256
370
   -1
100
AcDbLine
 10
121.2435565298214
 20
140
 11
121.2435565298214
 21
120
  0
LINE
  5
124
100
AcDbEntity
  8
Isometrica
  6
ByLayer
 62
  256
370
   -1
100
AcDbLine
 10
121.2435565298214
 20
120
 11
121.2435565298214
 21
100
  0
LINE
  5
125
100
AcDbEntity
  8
Isometrica
  6
ByLayer
 62
  256
370
   -1
100
AcDbLine
 10
121.2435565298214
 20
100
 11
155.8845726811989
 21
80
  0
LINE
  5
126
100
AcDbEntity
  8
Isometrica
  6
ByLayer
 62
  256
370
   -1
100
AcDbLine
 10
155.8845726811989
 20
80
 11
181.8653347947321
 21
95
  0
LINE
  5
127
100
AcDbEntity
  8
Isometrica
  6
ByLayer
 62
  256
370
   -1
100
AcDbLine
 10
129.9038105676658
 20
135
 11
121.2435565298214
 21
140
  0
LINE
  5
128
100
AcDbEntity
  8
Perfil izquierdo/derecho
  6
ByLayer
 62
  256
370
   -1
100
AcDbLine
 10
146.25
 20
252.75
 11
156.25
 21
252.75
  0
LINE
  5
129
100
AcDbEntity
  8
Perfil izquierdo/derecho
  6
ByLayer
 62
  256
370
   -1
100
AcDbLine
 10
156.25
 20
252.75
 11
166.25
 21
252.75
  0
LINE
  5
12A
100
AcDbEntity
  8
Perfil izquierdo/derecho
  6
ByLayer
 62
  256
370
   -1
100
AcDbLine
 10
166.25
 20
252.75
 11
176.25
 21
252.75
  0
LINE
  5
12B
100
AcDbEntity
  8
Perfil izquierdo/derecho
  6
ByLayer
 62
  256
370
   -1
100
AcDbLine
 10
176.25
 20
232.75
 11
176.25
 21
242.75
  0
LINE
  5
12C
100
AcDbEntity
  8
Perfil izquierdo/derecho
  6
ByLayer
 62
  256
370
   -1
100
AcDbLine
 10
176.25
 20
242.75
 11
176.25
 21
252.75
  0
LINE
  5
12D
100
AcDbEntity
  8
Isometrica
  6
ByLayer
 62
  256
370
   -1
100
AcDbLine
 10
155.8845726811989
 20
80
 11
155.884572681199
 21
90
  0
LINE
  5
12E
100
AcDbEntity
  8
Isometrica
  6
ByLayer
 62
  256
370
   -1
100
AcDbLine
 10
155.884572681199
 20
90
 11
155.884572681199
 21
100
  0
LINE
  5
12F
100
AcDbEntity
  8
Isometrica
  6
ByLayer
 62
  256
370
   -1
100
AcDbLine
 10
155.884572681199
 20
100
 11
155.884572681199
 21
110
  0
LINE
  5
130
100
AcDbEntity
  8
Isometrica
  6
ByLayer
 62
  256
370
   -1
100
AcDbLine
 10
155.884572681199
 20
110
 11
155.884572681199
 21
120
  0
LINE
  5
131
100
AcDbEntity
  8
Isometrica
  6
ByLayer
 62
  256
370
   -1
100
AcDbLine
 10
155.884572681199
 20
120
 11
147.2243186433546
 21
125
  0
LINE
  5
132
100
AcDbEntity
  8
Isometrica
  6
ByLayer
 62
  256
370
   -1
100
AcDbLine
 10
147.2243186433546
 20
125
 11
138.5640646055102
 21
130
  0
LINE
  5
133
100
AcDbEntity
  8
Isometrica
  6
ByLayer
 62
  256
370
   -1
100
AcDbLine
 10
138.5640646055102
 20
130
 11
129.9038105676658
 21
135
  0
LINE
  5
134
100
AcDbEntity
  8
Isometrica
  6
ByLayer
 62
  256
370
   -1
100
AcDbLine
 10
164.5448267190433
 20
155
 11
173.2050807568877
 21
150
  0
LINE
  5
135
100
AcDbEntity
  8
Isometrica
  6
ByLayer
 62
  256
370
   -1
100
AcDbLine
 10
173.2050807568877
 20
150
 11
181.8653347947321
 21
145
  0
LINE
  5
136
100
AcDbEntity
  8
Isometrica
  6
ByLayer
 62
  256
370
   -1
100
AcDbLine
 10
181.8653347947321
 20
145
 11
190.5255888325765
 21
140
  0
LINE
  5
137
100
AcDbEntity
  8
Isometrica
  6
ByLayer
 62
  256
370
   -1
100
AcDbLine
 10
190.5255888325765
 20
140
 11
190.5255888325765
 21
130
  0
LINE
  5
138
100
AcDbEntity
  8
Isometrica
  6
ByLayer
 62
  256
370
   -1
100
AcDbLine
 10
190.5255888325765
 20
130
 11
190.5255888325765
 21
120
  0
LINE
  5
139
100
AcDbEntity
  8
Isometrica
  6
ByLayer
 62
  256
370
   -1
100
AcDbLine
 10
155.884572681199
 20
120
 11
164.5448267190433
 21
125
  0
LINE
  5
13A
100
AcDbEntity
  8
Isometrica
  6
ByLayer
 62
  256
370
   -1
100
AcDbLine
 10
164.5448267190433
 20
125
 11
173.2050807568877
 21
130
  0
LINE
  5
13B
100
AcDbEntity
  8
Isometrica
  6
ByLayer
 62
  256
370
   -1
100
AcDbLine
 10
173.2050807568877
 20
130
 11
181.8653347947321
 21
135
  0
LINE
  5
13C
100
AcDbEntity
  8
Isometrica
  6
ByLayer
 62
  256
370
   -1
100
AcDbLine
 10
181.8653347947321
 20
135
 11
190.5255888325765
 21
140
  0
LINE
  5
13D
100
AcDbEntity
  8
Isometrica
  6
ByLayer
 62
  256
370
   -1
100
AcDbLine
 10
190.5255888325765
 20
100
 11
181.8653347947321
 21
105
  0
LINE
  5
13E
100
AcDbEntity
  8
Isometrica
  6
ByLayer
 62
  256
370
   -1
100
AcDbLine
 10
181.8653347947321
 20
105
 11
173.2050807568877
 21
110
  0
LINE
  5
13F
100
AcDbEntity
  8
Isometrica
  6
ByLayer
 62
  256
370
   -1
100
AcDbLine
 10
173.2050807568877
 20
110
 11
164.5448267190433
 21
115
  0
LINE
  5
140
100
AcDbEntity
  8
Isometrica
  6
ByLayer
 62
  256
370
   -1
100
AcDbLine
 10
164.5448267190433
 20
115
 11
155.884572681199
 21
120
  0
LINE
  5
141
100
AcDbEntity
  8
Isometrica
  6
ByLayer
 62
  256
370
   -1
100
AcDbLine
 10
155.884572681199
 20
120
 11
155.884572681199
 21
130
  0
LINE
  5
142
100
AcDbEntity
  8
Isometrica
  6
ByLayer
 62
  256
370
   -1
100
AcDbLine
 10
155.884572681199
 20
130
 11
155.884572681199
 21
140
  0
LINE
  5
143
100
AcDbEntity
  8
Isometrica
  6
ByLayer
 62
  256
370
   -1
100
AcDbLine
 10
155.884572681199
 20
140
 11
155.884572681199
 21
150
  0
LINE
  5
144
100
AcDbEntity
  8
Isometrica
  6
ByLayer
 62
  256
370
   -1
100
AcDbLine
 10
155.884572681199
 20
150
 11
155.884572681199
 21
160
  0
LINE
  5
145
100
AcDbEntity
  8
Isometrica
  6
ByLayer
 62
  256
370
   -1
100
AcDbLine
 10
121.2435565298214
 20
100
 11
129.9038105676658
 21
105
  0
LINE
  5
146
100
AcDbEntity
  8
Isometrica
  6
ByLayer
 62
  256
370
   -1
100
AcDbLine
 10
129.9038105676658
 20
105
 11
138.5640646055102
 21
110
  0
LINE
  5
147
100
AcDbEntity
  8
Isometrica
  6
ByLayer
 62
  256
370
   -1
100
AcDbLine
 10
138.5640646055102
 20
110
 11
147.2243186433546
 21
115
  0
LINE
  5
148
100
AcDbEntity
  8
Isometrica
  6
ByLayer
 62
  256
370
   -1
100
AcDbLine
 10
147.2243186433546
 20
115
 11
155.884572681199
 21
120
  0
MTEXT
  5
149
100
AcDbEntity
  8
A4_Rotulación
  6
ByLayer
 62
  256
370
   -1
100
AcDbMText
 10
77.50000000000001
 20
62.5
 30
0
 40
1.5
 41
11.00000000000009
 71
    5
 72
    1
  1
17/05/2024
  7
standard
210
0
220
0
230
1
 50
0
 73
    2
 44
1
  0
MTEXT
  5
14A
100
AcDbEntity
  8
Militar
  6
ByLayer
 62
  256
370
   -1
100
AcDbMText
 10
155.884572681199
 20
280
 30
0
 40
6
 41
44.50000000000028
 71
    5
 72
    1
  1
Militar 120%%D
  7
standard
210
0
220
0
230
1
 50
0
 73
    2
 44
1
  0
MTEXT
  5
14B
100
AcDbEntity
  8
Militar
  6
ByLayer
 62
  256
370
   -1
100
AcDbMText
 10
69.28203230275507
 20
170
 30
0
 40
6
 41
44.50000000000102
 71
    5
 72
    1
  1
Militar 135%%D
  7
standard
210
0
220
0
230
1
 50
0
 73
    2
 44
1
  0
MTEXT
  5
14C
100
AcDbEntity
  8
Militar
  6
ByLayer
 62
  256
370
   -1
100
AcDbMText
 10
155.884572681199
 20
170
 30
0
 40
6
 41
44.50000000000065
 71
    5
 72
    1
  1
Militar 150%%D
  7
standard
210
0
220
0
230
1
 50
0
 73
    2
 44
1
  0
MTEXT
  5
14D
100
AcDbEntity
  8
Caballera Frontal
  6
ByLayer
 62
  256
370
   -1
100
AcDbMText
 10
69.28203230275508
 20
270
 30
0
 40
6
 41
69.16666666666872
 71
    5
 72
    1
  1
Caballera Frontal\P45%%D\P
  7
standard
210
0
220
0
230
1
 50
0
 73
    2
 44
1
  0
MTEXT
  5
14E
100
AcDbEntity
  8
A4_Rotulación
  6
ByLayer
 62
  256
370
   -1
100
AcDbMText
 10
108
 20
30.00000000000001
 30
0
 40
6
 41
58.83333333333398
 71
    5
 72
    1
  1
Práctico 5\PEjercicio 6 - e
  7
standard
210
0
220
0
230
1
 50
0
 73
    2
 44
1
  0
LINE
  5
14F
100
AcDbEntity
  8
Caballera Frontal
  6
ByLayer
 62
  256
370
   -1
100
AcDbLine
 10
50
 20
240
 11
50
 21
230
  0
LINE
  5
150
100
AcDbEntity
  8
Caballera Frontal
  6
ByLayer
 62
  256
370
   -1
100
AcDbLine
 10
50
 20
230
 11
50
 21
220
  0
LINE
  5
151
100
AcDbEntity
  8
Caballera Frontal
  6
ByLayer
 62
  256
370
   -1
100
AcDbLine
 10
50
 20
220
 11
50
 21
210
  0
LINE
  5
152
100
AcDbEntity
  8
Caballera Frontal
  6
ByLayer
 62
  256
370
   -1
100
AcDbLine
 10
50
 20
210
 11
53.53553390593274
 21
206.4644660940673
  0
LINE
  5
153
100
AcDbEntity
  8
Caballera Frontal
  6
ByLayer
 62
  256
370
   -1
100
AcDbLine
 10
53.53553390593274
 20
206.4644660940673
 11
57.07106781186548
 21
202.9289321881345
  0
LINE
  5
154
100
AcDbEntity
  8
Caballera Frontal
  6
ByLayer
 62
  256
370
   -1
100
AcDbLine
 10
57.07106781186548
 20
202.9289321881345
 11
60.60660171779821
 21
199.3933982822018
  0
LINE
  5
155
100
AcDbEntity
  8
Caballera Frontal
  6
ByLayer
 62
  256
370
   -1
100
AcDbLine
 10
74.14213562373095
 20
195.857864376269
 11
84.14213562373095
 21
195.857864376269
  0
LINE
  5
156
100
AcDbEntity
  8
Caballera Frontal
  6
ByLayer
 62
  256
370
   -1
100
AcDbLine
 10
84.14213562373095
 20
195.857864376269
 11
94.14213562373095
 21
195.857864376269
  0
LINE
  5
157
100
AcDbEntity
  8
Caballera Frontal
  6
ByLayer
 62
  256
370
   -1
100
AcDbLine
 10
94.14213562373095
 20
195.857864376269
 11
104.142135623731
 21
195.857864376269
  0
LINE
  5
158
100
AcDbEntity
  8
Caballera Frontal
  6
ByLayer
 62
  256
370
   -1
100
AcDbLine
 10
104.142135623731
 20
205.857864376269
 11
104.142135623731
 21
195.857864376269
  0
LINE
  5
159
100
AcDbEntity
  8
Caballera Frontal
  6
ByLayer
 62
  256
370
   -1
100
AcDbLine
 10
104.142135623731
 20
215.857864376269
 11
104.142135623731
 21
205.857864376269
  0
LINE
  5
15A
100
AcDbEntity
  8
Caballera Frontal
  6
ByLayer
 62
  256
370
   -1
100
AcDbLine
 10
104.142135623731
 20
225.857864376269
 11
104.142135623731
 21
215.857864376269
  0
LINE
  5
15B
100
AcDbEntity
  8
Caballera Frontal
  6
ByLayer
 62
  256
370
   -1
100
AcDbLine
 10
100.6066017177982
 20
229.3933982822018
 11
104.142135623731
 21
225.857864376269
  0
LINE
  5
15C
100
AcDbEntity
  8
Caballera Frontal
  6
ByLayer
 62
  256
370
   -1
100
AcDbLine
 10
97.07106781186548
 20
232.9289321881345
 11
100.6066017177982
 21
229.3933982822018
  0
LINE
  5
15D
100
AcDbEntity
  8
Caballera Frontal
  6
ByLayer
 62
  256
370
   -1
100
AcDbLine
 10
97.07106781186548
 20
242.9289321881345
 11
97.07106781186548
 21
232.9289321881345
  0
LINE
  5
15E
100
AcDbEntity
  8
Caballera Frontal
  6
ByLayer
 62
  256
370
   -1
100
AcDbLine
 10
93.53553390593274
 20
246.4644660940673
 11
97.07106781186548
 21
242.9289321881345
  0
LINE
  5
15F
100
AcDbEntity
  8
Caballera Frontal
  6
ByLayer
 62
  256
370
   -1
100
AcDbLine
 10
90
 20
250
 11
93.53553390593274
 21
246.4644660940673
  0
LINE
  5
160
100
AcDbEntity
  8
Caballera Frontal
  6
ByLayer
 62
  256
370
   -1
100
AcDbLine
 10
80
 20
250
 11
90
 21
250
  0
LINE
  5
161
100
AcDbEntity
  8
Caballera Frontal
  6
ByLayer
 62
  256
370
   -1
100
AcDbLine
 10
80
 20
250
 11
80
 21
240
  0
LINE
  5
162
100
AcDbEntity
  8
Caballera Frontal
  6
ByLayer
 62
  256
370
   -1
100
AcDbLine
 10
70
 20
240
 11
80
 21
240
  0
LINE
  5
163
100
AcDbEntity
  8
Caballera Frontal
  6
ByLayer
 62
  256
370
   -1
100
AcDbLine
 10
60
 20
240
 11
70
 21
240
  0
LINE
  5
164
100
AcDbEntity
  8
Caballera Frontal
  6
ByLayer
 62
  256
370
   -1
100
AcDbLine
 10
50
 20
240
 11
60
 21
240
  0
LINE
  5
165
100
AcDbEntity
  8
Caballera Frontal
  6
ByLayer
 62
  256
370
   -1
100
AcDbLine
 10
50
 20
240
 11
53.53553390593274
 21
236.4644660940673
  0
LINE
  5
166
100
AcDbEntity
  8
Caballera Frontal
  6
ByLayer
 62
  256
370
   -1
100
AcDbLine
 10
80
 20
240
 11
83.53553390593274
 21
236.4644660940673
  0
LINE
  5
167
100
AcDbEntity
  8
Caballera Frontal
  6
ByLayer
 62
  256
370
   -1
100
AcDbLine
 10
83.53553390593274
 20
236.4644660940673
 11
87.07106781186548
 21
232.9289321881345
  0
LINE
  5
168
100
AcDbEntity
  8
Caballera Frontal
  6
ByLayer
 62
  256
370
   -1
100
AcDbLine
 10
87.07106781186548
 20
232.9289321881345
 11
90.60660171779821
 21
229.3933982822018
  0
LINE
  5
169
100
AcDbEntity
  8
Caballera Frontal
  6
ByLayer
 62
  256
370
   -1
100
AcDbLine
 10
90.60660171779821
 20
229.3933982822018
 11
94.14213562373095
 21
225.857864376269
  0
LINE
  5
16A
100
AcDbEntity
  8
Caballera Frontal
  6
ByLayer
 62
  256
370
   -1
100
AcDbLine
 10
87.07106781186548
 20
232.9289321881345
 11
97.07106781186548
 21
232.9289321881345
  0
LINE
  5
16B
100
AcDbEntity
  8
Caballera Frontal
  6
ByLayer
 62
  256
370
   -1
100
AcDbLine
 10
94.14213562373095
 20
225.857864376269
 11
104.142135623731
 21
225.857864376269
  0
LINE
  5
16C
100
AcDbEntity
  8
Caballera Frontal
  6
ByLayer
 62
  256
370
   -1
100
AcDbLine
 10
53.53553390593274
 20
236.4644660940673
 11
63.53553390593274
 21
236.4644660940673
  0
LINE
  5
16D
100
AcDbEntity
  8
Caballera Frontal
  6
ByLayer
 62
  256
370
   -1
100
AcDbLine
 10
63.53553390593274
 20
236.4644660940673
 11
73.53553390593274
 21
236.4644660940673
  0
LINE
  5
16E
100
AcDbEntity
  8
Caballera Frontal
  6
ByLayer
 62
  256
370
   -1
100
AcDbLine
 10
77.07106781186548
 20
232.9289321881345
 11
87.07106781186548
 21
232.9289321881345
  0
LINE
  5
16F
100
AcDbEntity
  8
Caballera Frontal
  6
ByLayer
 62
  256
370
   -1
100
AcDbLine
 10
87.07106781186548
 20
242.9289321881345
 11
97.07106781186548
 21
242.9289321881345
  0
LINE
  5
170
100
AcDbEntity
  8
Caballera Frontal
  6
ByLayer
 62
  256
370
   -1
100
AcDbLine
 10
87.07106781186548
 20
242.9289321881345
 11
87.07106781186548
 21
232.9289321881345
  0
LINE
  5
171
100
AcDbEntity
  8
Caballera Frontal
  6
ByLayer
 62
  256
370
   -1
100
AcDbLine
 10
80
 20
250
 11
83.53553390593274
 21
246.4644660940673
  0
LINE
  5
172
100
AcDbEntity
  8
Caballera Frontal
  6
ByLayer
 62
  256
370
   -1
100
AcDbLine
 10
83.53553390593274
 20
246.4644660940673
 11
87.07106781186548
 21
242.9289321881345
  0
LINE
  5
173
100
AcDbEntity
  8
Caballera Frontal
  6
ByLayer
 62
  256
370
   -1
100
AcDbLine
 10
73.53553390593274
 20
236.4644660940673
 11
77.07106781186548
 21
232.9289321881345
  0
LINE
  5
174
100
AcDbEntity
  8
Caballera Frontal
  6
ByLayer
 62
  256
370
   -1
100
AcDbLine
 10
94.14213562373095
 20
225.857864376269
 11
94.14213562373095
 21
215.857864376269
  0
LINE
  5
175
100
AcDbEntity
  8
Caballera Frontal
  6
ByLayer
 62
  256
370
   -1
100
AcDbLine
 10
94.14213562373095
 20
215.857864376269
 11
94.14213562373095
 21
205.857864376269
  0
LINE
  5
176
100
AcDbEntity
  8
Caballera Frontal
  6
ByLayer
 62
  256
370
   -1
100
AcDbLine
 10
84.14213562373095
 20
205.857864376269
 11
94.14213562373095
 21
205.857864376269
  0
LINE
  5
177
100
AcDbEntity
  8
Caballera Frontal
  6
ByLayer
 62
  256
370
   -1
100
AcDbLine
 10
74.14213562373095
 20
205.857864376269
 11
84.14213562373095
 21
205.857864376269
  0
LINE
  5
178
100
AcDbEntity
  8
Caballera Frontal
  6
ByLayer
 62
  256
370
   -1
100
AcDbLine
 10
70.60660171779821
 20
209.3933982822018
 11
74.14213562373095
 21
205.857864376269
  0
LINE
  5
179
100
AcDbEntity
  8
Caballera Frontal
  6
ByLayer
 62
  256
370
   -1
100
AcDbLine
 10
70.60660171779821
 20
199.3933982822018
 11
74.14213562373095
 21
195.857864376269
  0
LINE
  5
17A
100
AcDbEntity
  8
Caballera Frontal
  6
ByLayer
 62
  256
370
   -1
100
AcDbLine
 10
60.60660171779821
 20
199.3933982822018
 11
70.60660171779821
 21
199.3933982822018
  0
LINE
  5
17B
100
AcDbEntity
  8
Caballera Frontal
  6
ByLayer
 62
  256
370
   -1
100
AcDbLine
 10
70.60660171779821
 20
209.3933982822018
 11
70.60660171779821
 21
199.3933982822018
  0
LINE
  5
17C
100
AcDbEntity
  8
Caballera Frontal
  6
ByLayer
 62
  256
370
   -1
100
AcDbLine
 10
60.60660171779821
 20
209.3933982822018
 11
70.60660171779821
 21
209.3933982822018
  0
LINE
  5
17D
100
AcDbEntity
  8
Caballera Frontal
  6
ByLayer
 62
  256
370
   -1
100
AcDbLine
 10
57.07106781186548
 20
212.9289321881345
 11
60.60660171779821
 21
209.3933982822018
  0
LINE
  5
17E
100
AcDbEntity
  8
Caballera Frontal
  6
ByLayer
 62
  256
370
   -1
100
AcDbLine
 10
53.53553390593274
 20
216.4644660940673
 11
57.07106781186548
 21
212.9289321881345
  0
LINE
  5
17F
100
AcDbEntity
  8
Caballera Frontal
  6
ByLayer
 62
  256
370
   -1
100
AcDbLine
 10
53.53553390593274
 20
226.4644660940673
 11
53.53553390593274
 21
216.4644660940673
  0
LINE
  5
180
100
AcDbEntity
  8
Caballera Frontal
  6
ByLayer
 62
  256
370
   -1
100
AcDbLine
 10
53.53553390593274
 20
236.4644660940673
 11
53.53553390593274
 21
226.4644660940673
  0
LINE
  5
181
100
AcDbEntity
  8
Caballera Frontal
  6
ByLayer
 62
  256
370
   -1
100
AcDbLine
 10
53.53553390593274
 20
216.4644660940673
 11
63.53553390593274
 21
216.4644660940673
  0
LINE
  5
182
100
AcDbEntity
  8
Caballera Frontal
  6
ByLayer
 62
  256
370
   -1
100
AcDbLine
 10
70.60660171779821
 20
209.3933982822018
 11
80.60660171779821
 21
209.3933982822018
  0
LINE
  5
183
100
AcDbEntity
  8
Caballera Frontal
  6
ByLayer
 62
  256
370
   -1
100
AcDbLine
 10
80.60660171779821
 20
209.3933982822018
 11
90.60660171779821
 21
209.3933982822018
  0
LINE
  5
184
100
AcDbEntity
  8
Caballera Frontal
  6
ByLayer
 62
  256
370
   -1
100
AcDbLine
 10
90.60660171779821
 20
219.3933982822018
 11
90.60660171779821
 21
209.3933982822018
  0
LINE
  5
185
100
AcDbEntity
  8
Caballera Frontal
  6
ByLayer
 62
  256
370
   -1
100
AcDbLine
 10
77.07106781186548
 20
232.9289321881345
 11
77.07106781186548
 21
222.9289321881345
  0
LINE
  5
186
100
AcDbEntity
  8
Caballera Frontal
  6
ByLayer
 62
  256
370
   -1
100
AcDbLine
 10
87.07106781186548
 20
232.9289321881345
 11
87.07106781186548
 21
222.9289321881345
  0
LINE
  5
187
100
AcDbEntity
  8
Caballera Frontal
  6
ByLayer
 62
  256
370
   -1
100
AcDbLine
 10
73.53553390593274
 20
236.4644660940673
 11
73.53553390593274
 21
226.4644660940673
  0
LINE
  5
188
100
AcDbEntity
  8
Caballera Frontal
  6
ByLayer
 62
  256
370
   -1
100
AcDbLine
 10
63.53553390593274
 20
226.4644660940673
 11
63.53553390593274
 21
216.4644660940673
  0
LINE
  5
189
100
AcDbEntity
  8
Caballera Frontal
  6
ByLayer
 62
  256
370
   -1
100
AcDbLine
 10
63.53553390593274
 20
226.4644660940673
 11
73.53553390593274
 21
226.4644660940673
  0
LINE
  5
18A
100
AcDbEntity
  8
Caballera Frontal
  6
ByLayer
 62
  256
370
   -1
100
AcDbLine
 10
77.07106781186548
 20
222.9289321881345
 11
87.07106781186548
 21
222.9289321881345
  0
LINE
  5
18B
100
AcDbEntity
  8
Caballera Frontal
  6
ByLayer
 62
  256
370
   -1
100
AcDbLine
 10
87.07106781186548
 20
222.9289321881345
 11
90.60660171779821
 21
219.3933982822018
  0
LINE
  5
18C
100
AcDbEntity
  8
Caballera Frontal
  6
ByLayer
 62
  256
370
   -1
100
AcDbLine
 10
73.53553390593274
 20
226.4644660940673
 11
77.07106781186548
 21
222.9289321881345
  0
LINE
  5
18D
100
AcDbEntity
  8
Caballera Frontal
  6
ByLayer
 62
  256
370
   -1
100
AcDbLine
 10
67.07106781186548
 20
212.9289321881345
 11
70.60660171779821
 21
209.3933982822018
  0
LINE
  5
18E
100
AcDbEntity
  8
Caballera Frontal
  6
ByLayer
 62
  256
370
   -1
100
AcDbLine
 10
63.53553390593274
 20
216.4644660940673
 11
67.07106781186548
 21
212.9289321881345
  0
LINE
  5
18F
100
AcDbEntity
  8
Caballera Frontal
  6
ByLayer
 62
  256
370
   -1
100
AcDbLine
 10
74.14213562373095
 20
205.857864376269
 11
74.14213562373095
 21
195.857864376269
  0
LINE
  5
190
100
AcDbEntity
  8
Caballera Frontal
  6
ByLayer
 62
  256
370
   -1
100
AcDbLine
 10
60.60660171779821
 20
209.3933982822018
 11
60.60660171779821
 21
199.3933982822018
  0
LINE
  5
191
100
AcDbEntity
  8
Caballera Frontal
  6
ByLayer
 62
  256
370
   -1
100
AcDbLine
 10
70.60660171779821
 20
219.3933982822018
 11
70.60660171779821
 21
209.3933982822018
  0
LINE
  5
192
100
AcDbEntity
  8
Caballera Frontal
  6
ByLayer
 62
  256
370
   -1
100
AcDbLine
 10
63.53553390593274
 20
226.4644660940673
 11
67.07106781186548
 21
222.9289321881345
  0
LINE
  5
193
100
AcDbEntity
  8
Caballera Frontal
  6
ByLayer
 62
  256
370
   -1
100
AcDbLine
 10
67.07106781186548
 20
222.9289321881345
 11
70.60660171779821
 21
219.3933982822018
  0
LINE
  5
194
100
AcDbEntity
  8
Caballera Frontal
  6
ByLayer
 62
  256
370
   -1
100
AcDbLine
 10
70.60660171779821
 20
219.3933982822018
 11
80.60660171779821
 21
219.3933982822018
  0
LINE
  5
195
100
AcDbEntity
  8
Caballera Frontal
  6
ByLayer
 62
  256
370
   -1
100
AcDbLine
 10
80.60660171779821
 20
219.3933982822018
 11
90.60660171779821
 21
219.3933982822018
  0
LINE
  5
196
100
AcDbEntity
  8
Caballera Frontal
  6
ByLayer
 62
  256
370
   -1
100
AcDbLine
 10
90.60660171779821
 20
209.3933982822018
 11
94.14213562373095
 21
205.857864376269
  0
LINE
  5
197
100
AcDbEntity
  8
Caballera Frontal
  6
ByLayer
 62
  256
370
   -1
100
AcDbLine
 10
40
 20
260
 11
43.53553390593274
 21
256.4644660940672
  0
LINE
  5
198
100
AcDbEntity
  8
Caballera Frontal
  6
ByLayer
 62
  256
370
   -1
100
AcDbLine
 10
40
 20
260
 11
50
 21
260
  0
LINE
  5
199
100
AcDbEntity
  8
Caballera Frontal
  6
ByLayer
 62
  256
370
   -1
100
AcDbLine
 10
40
 20
270
 11
40
 21
260
  0
MTEXT
  5
19A
100
AcDbEntity
  8
Caballera Frontal
  6
ByLayer
 62
  256
370
    5
100
AcDbMText
 10
53
 20
261
 30
0
 40
2
 41
1.333333333333333
 71
    5
 72
    1
  1
X
  7
standard
210
0
220
0
230
1
 50
0
 73
    2
 44
1
  0
MTEXT
  5
19B
100
AcDbEntity
  8
Caballera Frontal
  6
ByLayer
 62
  256
370
    5
100
AcDbMText
 10
42
 20
253
 30
0
 40
2
 41
1.333333333333333
 71
    5
 72
    1
  1
Y
  7
standard
210
0
220
0
230
1
 50
0
 73
    2
 44
1
  0
MTEXT
  5
19C
100
AcDbEntity
  8
Caballera Frontal
  6
ByLayer
 62
  256
370
    5
100
AcDbMText
 10
40
 20
272
 30
0
 40
2
 41
1.111111111111111
 71
    5
 72
    1
  1
Z
  7
standard
210
0
220
0
230
1
 50
0
 73
    2
 44
1
  0
DIMENSION
  5
19D
100
AcDbEntity
  8
Caballera Frontal
  6
ByLayer
 62
  256
370
    5
100
AcDbDimension
  2
*D1
 10
40
 20
270
 30
0
 11
0
 21
0
 31
0
 70
   34
 71
    5
 72
    0
  3
Standard
 53
0
210
0
220
0
230
1
100
AcDb2LineAngularDimension
 13
40
 23
260
 33
0
 14
50
 24
260
 34
0
 15
40
 25
260
 35
0
 16
44
 26
264
 36
0
  0
DIMENSION
  5
19E
100
AcDbEntity
  8
Caballera Frontal
  6
ByLayer
 62
  256
370
    5
100
AcDbDimension
  2
*D2
 10
50
 20
260
 30
0
 11
0
 21
0
 31
0
 70
   34
 71
    5
 72
    0
  3
Standard
 53
0
210
0
220
0
230
1
100
AcDb2LineAngularDimension
 13
40
 23
260
 33
0
 14
43.53553390593274
 24
256.4644660940672
 34
0
 15
40
 25
260
 35
0
 16
51
 26
256
 36
0
  0
LINE
  5
19F
100
AcDbEntity
  8
Militar
  6
ByLayer
 62
  256
370
   -1
100
AcDbLine
 10
130
 20
198.5589838486225
 11
130
 21
218.6589838486224
  0
LINE
  5
1A0
100
AcDbEntity
  8
Militar
  6
ByLayer
 62
  256
370
   -1
100
AcDbLine
 10
130
 20
218.6589838486224
 11
138.6602540378444
 21
213.6589838486224
  0
LINE
  5
1A1
100
AcDbEntity
  8
Militar
  6
ByLayer
 62
  256
370
   -1
100
AcDbLine
 10
138.6602540378444
 20
213.6589838486224
 11
138.6602540378444
 21
200.2589838486224
  0
LINE
  5
1A2
100
AcDbEntity
  8
Militar
  6
ByLayer
 62
  256
370
   -1
100
AcDbLine
 10
138.6602540378444
 20
200.2589838486224
 11
155.9807621135332
 21
190.2589838486224
  0
LINE
  5
1A3
100
AcDbEntity
  8
Militar
  6
ByLayer
 62
  256
370
   -1
100
AcDbLine
 10
155.9807621135332
 20
190.2589838486224
 11
155.9807621135332
 21
183.5589838486225
  0
LINE
  5
1A4
100
AcDbEntity
  8
Militar
  6
ByLayer
 62
  256
370
   -1
100
AcDbLine
 10
155.9807621135332
 20
183.5589838486225
 11
130
 21
198.5589838486225
  0
LINE
  5
1A5
100
AcDbEntity
  8
Militar
  6
ByLayer
 62
  256
370
   -1
100
AcDbLine
 10
155.9807621135332
 20
190.2589838486224
 11
160.9807621135332
 21
198.9192378864668
  0
LINE
  5
1A6
100
AcDbEntity
  8
Militar
  6
ByLayer
 62
  256
370
   -1
100
AcDbLine
 10
160.9807621135332
 20
198.9192378864668
 11
143.6602540378444
 21
208.9192378864668
  0
LINE
  5
1A7
100
AcDbEntity
  8
Militar
  6
ByLayer
 62
  256
370
   -1
100
AcDbLine
 10
143.6602540378444
 20
208.9192378864668
 11
138.6602540378444
 21
200.2589838486224
  0
LINE
  5
1A8
100
AcDbEntity
  8
Militar
  6
ByLayer
 62
  256
370
   -1
100
AcDbLine
 10
155.9807621135332
 20
183.5589838486225
 11
160.9807621135332
 21
192.2192378864669
  0
LINE
  5
1A9
100
AcDbEntity
  8
Militar
  6
ByLayer
 62
  256
370
   -1
100
AcDbLine
 10
160.9807621135332
 20
192.2192378864669
 11
160.9807621135332
 21
198.9192378864668
  0
LINE
  5
1AA
100
AcDbEntity
  8
Militar
  6
ByLayer
 62
  256
370
   -1
100
AcDbLine
 10
143.6602540378444
 20
208.9192378864668
 11
143.6602540378444
 21
215.6192378864668
  0
LINE
  5
1AB
100
AcDbEntity
  8
Militar
  6
ByLayer
 62
  256
370
   -1
100
AcDbLine
 10
143.6602540378444
 20
215.6192378864668
 11
160.9807621135332
 21
205.6192378864668
  0
LINE
  5
1AC
100
AcDbEntity
  8
Militar
  6
ByLayer
 62
  256
370
   -1
100
AcDbLine
 10
160.9807621135332
 20
205.6192378864668
 11
160.9807621135332
 21
198.9192378864668
  0
LINE
  5
1AD
100
AcDbEntity
  8
Militar
  6
ByLayer
 62
  256
370
   -1
100
AcDbLine
 10
160.9807621135332
 20
198.9192378864668
 11
169.6410161513776
 21
193.9192378864668
  0
LINE
  5
1AE
100
AcDbEntity
  8
Militar
  6
ByLayer
 62
  256
370
   -1
100
AcDbLine
 10
169.6410161513776
 20
193.9192378864668
 11
169.6410161513776
 21
187.2192378864669
  0
LINE
  5
1AF
100
AcDbEntity
  8
Militar
  6
ByLayer
 62
  256
370
   -1
100
AcDbLine
 10
169.6410161513776
 20
187.2192378864669
 11
160.9807621135332
 21
192.2192378864669
  0
LINE
  5
1B0
100
AcDbEntity
  8
Militar
  6
ByLayer
 62
  256
370
   -1
100
AcDbLine
 10
160.9807621135332
 20
198.9192378864668
 11
170.9807621135332
 21
216.2397459621556
  0
LINE
  5
1B1
100
AcDbEntity
  8
Militar
  6
ByLayer
 62
  256
370
   -1
100
AcDbLine
 10
170.9807621135332
 20
216.2397459621556
 11
179.6410161513776
 21
211.2397459621556
  0
LINE
  5
1B2
100
AcDbEntity
  8
Militar
  6
ByLayer
 62
  256
370
   -1
100
AcDbLine
 10
179.6410161513776
 20
211.2397459621556
 11
169.6410161513776
 21
193.9192378864668
  0
LINE
  5
1B3
100
AcDbEntity
  8
Militar
  6
ByLayer
 62
  256
370
   -1
100
AcDbLine
 10
170.9807621135332
 20
216.2397459621556
 11
170.9807621135332
 21
222.9397459621556
  0
LINE
  5
1B4
100
AcDbEntity
  8
Militar
  6
ByLayer
 62
  256
370
   -1
100
AcDbLine
 10
170.9807621135332
 20
222.9397459621556
 11
160.9807621135332
 21
205.6192378864668
  0
LINE
  5
1B5
100
AcDbEntity
  8
Militar
  6
ByLayer
 62
  256
370
   -1
100
AcDbLine
 10
169.6410161513776
 20
187.2192378864669
 11
184.6410161513776
 21
213.2
  0
LINE
  5
1B6
100
AcDbEntity
  8
Militar
  6
ByLayer
 62
  256
370
   -1
100
AcDbLine
 10
184.6410161513776
 20
213.2
 11
184.6410161513776
 21
233.3
  0
LINE
  5
1B7
100
AcDbEntity
  8
Militar
  6
ByLayer
 62
  256
370
   -1
100
AcDbLine
 10
184.6410161513776
 20
233.3
 11
179.6410161513776
 21
224.6397459621556
  0
LINE
  5
1B8
100
AcDbEntity
  8
Militar
  6
ByLayer
 62
  256
370
   -1
100
AcDbLine
 10
179.6410161513776
 20
224.6397459621556
 11
179.6410161513776
 21
211.2397459621556
  0
LINE
  5
1B9
100
AcDbEntity
  8
Militar
  6
ByLayer
 62
  256
370
   -1
100
AcDbLine
 10
170.9807621135332
 20
222.9397459621556
 11
162.3205080756888
 21
227.9397459621556
  0
LINE
  5
1BA
100
AcDbEntity
  8
Militar
  6
ByLayer
 62
  256
370
   -1
100
AcDbLine
 10
162.3205080756888
 20
227.9397459621556
 11
162.3205080756888
 21
234.6397459621556
  0
LINE
  5
1BB
100
AcDbEntity
  8
Militar
  6
ByLayer
 62
  256
370
   -1
100
AcDbLine
 10
162.3205080756888
 20
234.6397459621556
 11
179.6410161513776
 21
224.6397459621556
  0
LINE
  5
1BC
100
AcDbEntity
  8
Militar
  6
ByLayer
 62
  256
370
   -1
100
AcDbLine
 10
184.6410161513776
 20
233.3
 11
167.3205080756888
 21
243.3
  0
LINE
  5
1BD
100
AcDbEntity
  8
Militar
  6
ByLayer
 62
  256
370
   -1
100
AcDbLine
 10
167.3205080756888
 20
243.3
 11
162.3205080756888
 21
234.6397459621556
  0
LINE
  5
1BE
100
AcDbEntity
  8
Militar
  6
ByLayer
 62
  256
370
   -1
100
AcDbLine
 10
162.3205080756888
 20
234.6397459621556
 11
162.3205080756888
 21
241.3397459621556
  0
LINE
  5
1BF
100
AcDbEntity
  8
Militar
  6
ByLayer
 62
  256
370
   -1
100
AcDbLine
 10
162.3205080756888
 20
241.3397459621556
 11
167.3205080756888
 21
250
  0
LINE
  5
1C0
100
AcDbEntity
  8
Militar
  6
ByLayer
 62
  256
370
   -1
100
AcDbLine
 10
167.3205080756888
 20
250
 11
150
 21
260
  0
LINE
  5
1C1
100
AcDbEntity
  8
Militar
  6
ByLayer
 62
  256
370
   -1
100
AcDbLine
 10
150
 20
260
 11
145
 21
251.3397459621556
  0
LINE
  5
1C2
100
AcDbEntity
  8
Militar
  6
ByLayer
 62
  256
370
   -1
100
AcDbLine
 10
145
 20
251.3397459621556
 11
162.3205080756888
 21
241.3397459621556
  0
LINE
  5
1C3
100
AcDbEntity
  8
Militar
  6
ByLayer
 62
  256
370
   -1
100
AcDbLine
 10
162.3205080756888
 20
234.6397459621556
 11
145
 21
244.6397459621556
  0
LINE
  5
1C4
100
AcDbEntity
  8
Militar
  6
ByLayer
 62
  256
370
   -1
100
AcDbLine
 10
145
 20
244.6397459621556
 11
145
 21
251.3397459621556
  0
LINE
  5
1C5
100
AcDbEntity
  8
Militar
  6
ByLayer
 62
  256
370
   -1
100
AcDbLine
 10
167.3205080756888
 20
243.3
 11
167.3205080756888
 21
250
  0
LINE
  5
1C6
100
AcDbEntity
  8
Militar
  6
ByLayer
 62
  256
370
   -1
100
AcDbLine
 10
130
 20
218.6589838486224
 11
145
 21
244.6397459621556
  0
LINE
  5
1C7
100
AcDbEntity
  8
Militar
  6
ByLayer
 62
  256
370
   -1
100
AcDbLine
 10
138.6602540378444
 20
213.6589838486224
 11
148.6602540378444
 21
230.9794919243112
  0
LINE
  5
1C8
100
AcDbEntity
  8
Militar
  6
ByLayer
 62
  256
370
   -1
100
AcDbLine
 10
148.6602540378444
 20
230.9794919243112
 11
148.6602540378444
 21
224.2794919243112
  0
LINE
  5
1C9
100
AcDbEntity
  8
Militar
  6
ByLayer
 62
  256
370
   -1
100
AcDbLine
 10
148.6602540378444
 20
230.9794919243112
 11
157.3205080756888
 21
225.9794919243112
  0
LINE
  5
1CA
100
AcDbEntity
  8
Militar
  6
ByLayer
 62
  256
370
   -1
100
AcDbLine
 10
157.3205080756888
 20
225.9794919243112
 11
162.3205080756888
 21
234.6397459621556
  0
LINE
  5
1CB
100
AcDbEntity
  8
Militar
  6
ByLayer
 62
  256
370
   -1
100
AcDbLine
 10
143.6602540378444
 20
215.6192378864668
 11
148.6602540378444
 21
224.2794919243112
  0
LINE
  5
1CC
100
AcDbEntity
  8
Militar
  6
ByLayer
 62
  256
370
   -1
100
AcDbLine
 10
148.6602540378444
 20
224.2794919243112
 11
157.3205080756888
 21
219.2794919243112
  0
LINE
  5
1CD
100
AcDbEntity
  8
Militar
  6
ByLayer
 62
  256
370
   -1
100
AcDbLine
 10
157.3205080756888
 20
219.2794919243112
 11
162.3205080756888
 21
227.9397459621556
  0
LINE
  5
1CE
100
AcDbEntity
  8
Militar
  6
ByLayer
 62
  256
370
   -1
100
AcDbLine
 10
157.3205080756888
 20
219.2794919243112
 11
157.3205080756888
 21
225.9794919243112
  0
LINE
  5
1CF
100
AcDbEntity
  8
Militar
  6
ByLayer
 62
  256
370
   -1
100
AcDbLine
 10
138.6602540378444
 20
258.3
 11
130
 21
263.3
  0
LINE
  5
1D0
100
AcDbEntity
  8
Militar
  6
ByLayer
 62
  256
370
   -1
100
AcDbLine
 10
130
 20
263.3
 11
130
 21
270
  0
LINE
  5
1D1
100
AcDbEntity
  8
Militar
  6
ByLayer
 62
  256
370
   -1
100
AcDbLine
 10
125
 20
254.6397459621556
 11
130
 21
263.3
  0
DIMENSION
  5
1D2
100
AcDbEntity
  8
Militar
  6
ByLayer
 62
  256
370
    5
100
AcDbDimension
  2
*D3
 10
138.6602540378444
 20
258.3
 30
0
 11
0
 21
0
 31
0
 70
   34
 71
    5
 72
    0
  3
Standard
 53
0
210
0
220
0
230
1
100
AcDb2LineAngularDimension
 13
130
 23
263.3
 33
0
 14
125
 24
254.6397459621556
 34
0
 15
130
 25
263.3
 35
0
 16
132.5180084737941
 26
255.7276000049845
 36
0
  0
DIMENSION
  5
1D3
100
AcDbEntity
  8
Militar
  6
ByLayer
 62
  256
370
    5
100
AcDbDimension
  2
*D4
 10
130
 20
270
 30
0
 11
0
 21
0
 31
0
 70
   34
 71
    5
 72
    0
  3
Standard
 53
0
210
0
220
0
230
1
100
AcDb2LineAngularDimension
 13
130
 23
263.3
 33
0
 14
138.6602540378444
 24
258.3
 34
0
 15
130
 25
263.3
 35
0
 16
135.9028873620136
 26
266.0514806140541
 36
0
  0
LINE
  5
1D4
100
AcDbEntity
  8
Militar
  6
ByLayer
 62
  256
370
   -1
100
AcDbLine
 10
40
 20
155
 11
40
 21
160
  0
LINE
  5
1D5
100
AcDbEntity
  8
Militar
  6
ByLayer
 62
  256
370
   -1
100
AcDbLine
 10
40
 20
155
 11
47.07106781186548
 21
147.9289321881345
  0
LINE
  5
1D6
100
AcDbEntity
  8
Militar
  6
ByLayer
 62
  256
370
   -1
100
AcDbLine
 10
40
 20
155
 11
32.92893218813452
 21
147.9289321881345
  0
LINE
  5
1D7
100
AcDbEntity
  8
Militar
  6
ByLayer
 62
  256
370
   -1
100
AcDbLine
 10
98.2842712474619
 20
101.7157287525381
 11
91.21320343559643
 21
94.64466094067262
  0
LINE
  5
1D8
100
AcDbEntity
  8
Militar
  6
ByLayer
 62
  256
370
   -1
100
AcDbLine
 10
91.21320343559643
 20
94.64466094067262
 11
84.14213562373095
 21
87.57359312880715
  0
LINE
  5
1D9
100
AcDbEntity
  8
Militar
  6
ByLayer
 62
  256
370
   -1
100
AcDbLine
 10
84.14213562373095
 20
87.57359312880715
 11
77.07106781186548
 21
80.50252531694167
  0
LINE
  5
1DA
100
AcDbEntity
  8
Militar
  6
ByLayer
 62
  256
370
   -1
100
AcDbLine
 10
98.2842712474619
 20
101.7157287525381
 11
91.21320343559643
 21
94.64466094067262
  0
LINE
  5
1DB
100
AcDbEntity
  8
Militar
  6
ByLayer
 62
  256
370
   -1
100
AcDbLine
 10
41.7157287525381
 20
101.7157287525381
 11
48.78679656440357
 21
94.64466094067262
  0
LINE
  5
1DC
100
AcDbEntity
  8
Militar
  6
ByLayer
 62
  256
370
   -1
100
AcDbLine
 10
48.78679656440357
 20
94.64466094067262
 11
55.85786437626905
 21
87.57359312880715
  0
LINE
  5
1DD
100
AcDbEntity
  8
Militar
  6
ByLayer
 62
  256
370
   -1
100
AcDbLine
 10
55.85786437626905
 20
87.57359312880715
 11
62.92893218813452
 21
80.50252531694167
  0
LINE
  5
1DE
100
AcDbEntity
  8
Militar
  6
ByLayer
 62
  256
370
   -1
100
AcDbLine
 10
70
 20
87.57359312880715
 11
77.07106781186548
 21
80.50252531694167
  0
LINE
  5
1DF
100
AcDbEntity
  8
Militar
  6
ByLayer
 62
  256
370
   -1
100
AcDbLine
 10
70
 20
87.57359312880715
 11
62.92893218813452
 21
80.50252531694167
  0
LINE
  5
1E0
100
AcDbEntity
  8
Militar
  6
ByLayer
 62
  256
370
   -1
100
AcDbLine
 10
62.92893218813452
 20
85.50252531694167
 11
62.92893218813452
 21
80.50252531694167
  0
LINE
  5
1E1
100
AcDbEntity
  8
Militar
  6
ByLayer
 62
  256
370
   -1
100
AcDbLine
 10
70
 20
92.57359312880715
 11
70
 21
87.57359312880715
  0
LINE
  5
1E2
100
AcDbEntity
  8
Militar
  6
ByLayer
 62
  256
370
   -1
100
AcDbLine
 10
77.07106781186548
 20
85.50252531694167
 11
77.07106781186548
 21
80.50252531694167
  0
LINE
  5
1E3
100
AcDbEntity
  8
Militar
  6
ByLayer
 62
  256
370
   -1
100
AcDbLine
 10
48.78679656440357
 20
99.64466094067262
 11
55.85786437626905
 21
92.57359312880715
  0
LINE
  5
1E4
100
AcDbEntity
  8
Militar
  6
ByLayer
 62
  256
370
   -1
100
AcDbLine
 10
55.85786437626905
 20
92.57359312880715
 11
62.92893218813452
 21
85.50252531694167
  0
LINE
  5
1E5
100
AcDbEntity
  8
Militar
  6
ByLayer
 62
  256
370
   -1
100
AcDbLine
 10
55.85786437626905
 20
106.7157287525381
 11
62.92893218813452
 21
99.64466094067262
  0
LINE
  5
1E6
100
AcDbEntity
  8
Militar
  6
ByLayer
 62
  256
370
   -1
100
AcDbLine
 10
62.92893218813452
 20
99.64466094067262
 11
70
 21
92.57359312880715
  0
LINE
  5
1E7
100
AcDbEntity
  8
Militar
  6
ByLayer
 62
  256
370
   -1
100
AcDbLine
 10
91.21320343559643
 20
99.64466094067262
 11
84.14213562373095
 21
92.57359312880715
  0
LINE
  5
1E8
100
AcDbEntity
  8
Militar
  6
ByLayer
 62
  256
370
   -1
100
AcDbLine
 10
84.14213562373095
 20
92.57359312880715
 11
77.07106781186548
 21
85.50252531694167
  0
LINE
  5
1E9
100
AcDbEntity
  8
Militar
  6
ByLayer
 62
  256
370
   -1
100
AcDbLine
 10
84.14213562373095
 20
106.7157287525381
 11
77.07106781186548
 21
99.64466094067262
  0
LINE
  5
1EA
100
AcDbEntity
  8
Militar
  6
ByLayer
 62
  256
370
   -1
100
AcDbLine
 10
77.07106781186548
 20
99.64466094067262
 11
70
 21
92.57359312880715
  0
LINE
  5
1EB
100
AcDbEntity
  8
Militar
  6
ByLayer
 62
  256
370
   -1
100
AcDbLine
 10
62.92893218813452
 20
85.50252531694167
 11
70
 21
92.57359312880715
  0
LINE
  5
1EC
100
AcDbEntity
  8
Militar
  6
ByLayer
 62
  256
370
   -1
100
AcDbLine
 10
70
 20
92.57359312880715
 11
77.07106781186548
 21
85.50252531694167
  0
LINE
  5
1ED
100
AcDbEntity
  8
Militar
  6
ByLayer
 62
  256
370
   -1
100
AcDbLine
 10
48.78679656440357
 20
99.64466094067262
 11
55.85786437626905
 21
106.7157287525381
  0
LINE
  5
1EE
100
AcDbEntity
  8
Militar
  6
ByLayer
 62
  256
370
   -1
100
AcDbLine
 10
84.14213562373095
 20
106.7157287525381
 11
91.21320343559643
 21
99.64466094067262
  0
LINE
  5
1EF
100
AcDbEntity
  8
Militar
  6
ByLayer
 62
  256
370
   -1
100
AcDbLine
 10
98.2842712474619
 20
116.7157287525381
 11
98.2842712474619
 21
111.7157287525381
  0
LINE
  5
1F0
100
AcDbEntity
  8
Militar
  6
ByLayer
 62
  256
370
   -1
100
AcDbLine
 10
98.2842712474619
 20
111.7157287525381
 11
98.2842712474619
 21
106.7157287525381
  0
LINE
  5
1F1
100
AcDbEntity
  8
Militar
  6
ByLayer
 62
  256
370
   -1
100
AcDbLine
 10
98.2842712474619
 20
106.7157287525381
 11
98.2842712474619
 21
101.7157287525381
  0
LINE
  5
1F2
100
AcDbEntity
  8
Militar
  6
ByLayer
 62
  256
370
   -1
100
AcDbLine
 10
84.14213562373095
 20
130.857864376269
 11
91.21320343559643
 21
123.7867965644036
  0
LINE
  5
1F3
100
AcDbEntity
  8
Militar
  6
ByLayer
 62
  256
370
   -1
100
AcDbLine
 10
91.21320343559643
 20
123.7867965644036
 11
98.2842712474619
 21
116.7157287525381
  0
LINE
  5
1F4
100
AcDbEntity
  8
Militar
  6
ByLayer
 62
  256
370
   -1
100
AcDbLine
 10
70
 20
150
 11
77.07106781186548
 21
142.9289321881345
  0
LINE
  5
1F5
100
AcDbEntity
  8
Militar
  6
ByLayer
 62
  256
370
   -1
100
AcDbLine
 10
77.07106781186548
 20
142.9289321881345
 11
84.14213562373095
 21
135.857864376269
  0
LINE
  5
1F6
100
AcDbEntity
  8
Militar
  6
ByLayer
 62
  256
370
   -1
100
AcDbLine
 10
70
 20
150
 11
62.92893218813452
 21
142.9289321881345
  0
LINE
  5
1F7
100
AcDbEntity
  8
Militar
  6
ByLayer
 62
  256
370
   -1
100
AcDbLine
 10
41.7157287525381
 20
116.7157287525381
 11
41.7157287525381
 21
111.7157287525381
  0
LINE
  5
1F8
100
AcDbEntity
  8
Militar
  6
ByLayer
 62
  256
370
   -1
100
AcDbLine
 10
41.7157287525381
 20
111.7157287525381
 11
41.7157287525381
 21
106.7157287525381
  0
LINE
  5
1F9
100
AcDbEntity
  8
Militar
  6
ByLayer
 62
  256
370
   -1
100
AcDbLine
 10
41.7157287525381
 20
106.7157287525381
 11
41.7157287525381
 21
101.7157287525381
  0
LINE
  5
1FA
100
AcDbEntity
  8
Militar
  6
ByLayer
 62
  256
370
   -1
100
AcDbLine
 10
55.85786437626905
 20
130.857864376269
 11
48.78679656440357
 21
123.7867965644036
  0
LINE
  5
1FB
100
AcDbEntity
  8
Militar
  6
ByLayer
 62
  256
370
   -1
100
AcDbLine
 10
48.78679656440357
 20
123.7867965644036
 11
41.7157287525381
 21
116.7157287525381
  0
LINE
  5
1FC
100
AcDbEntity
  8
Militar
  6
ByLayer
 62
  256
370
   -1
100
AcDbLine
 10
84.14213562373095
 20
135.857864376269
 11
84.14213562373095
 21
130.857864376269
  0
LINE
  5
1FD
100
AcDbEntity
  8
Militar
  6
ByLayer
 62
  256
370
   -1
100
AcDbLine
 10
62.92893218813452
 20
137.9289321881345
 11
55.85786437626905
 21
130.857864376269
  0
LINE
  5
1FE
100
AcDbEntity
  8
Militar
  6
ByLayer
 62
  256
370
   -1
100
AcDbLine
 10
62.92893218813452
 20
142.9289321881345
 11
62.92893218813452
 21
137.9289321881345
  0
LINE
  5
1FF
100
AcDbEntity
  8
Militar
  6
ByLayer
 62
  256
370
   -1
100
AcDbLine
 10
84.14213562373095
 20
130.857864376269
 11
77.07106781186548
 21
123.7867965644036
  0
LINE
  5
200
100
AcDbEntity
  8
Militar
  6
ByLayer
 62
  256
370
   -1
100
AcDbLine
 10
62.92893218813452
 20
137.9289321881345
 11
70
 21
130.857864376269
  0
LINE
  5
201
100
AcDbEntity
  8
Militar
  6
ByLayer
 62
  256
370
   -1
100
AcDbLine
 10
70
 20
130.857864376269
 11
77.07106781186548
 21
123.7867965644036
  0
LINE
  5
202
100
AcDbEntity
  8
Militar
  6
ByLayer
 62
  256
370
   -1
100
AcDbLine
 10
62.92893218813452
 20
142.9289321881345
 11
70
 21
135.857864376269
  0
LINE
  5
203
100
AcDbEntity
  8
Militar
  6
ByLayer
 62
  256
370
   -1
100
AcDbLine
 10
70
 20
135.857864376269
 11
77.07106781186548
 21
128.7867965644036
  0
LINE
  5
204
100
AcDbEntity
  8
Militar
  6
ByLayer
 62
  256
370
   -1
100
AcDbLine
 10
77.07106781186548
 20
123.7867965644036
 11
77.07106781186548
 21
128.7867965644036
  0
LINE
  5
205
100
AcDbEntity
  8
Militar
  6
ByLayer
 62
  256
370
   -1
100
AcDbLine
 10
77.07106781186548
 20
128.7867965644036
 11
84.14213562373095
 21
135.857864376269
  0
LINE
  5
206
100
AcDbEntity
  8
Militar
  6
ByLayer
 62
  256
370
   -1
100
AcDbLine
 10
91.21320343559643
 20
109.6446609406726
 11
91.21320343559643
 21
104.6446609406726
  0
LINE
  5
207
100
AcDbEntity
  8
Militar
  6
ByLayer
 62
  256
370
   -1
100
AcDbLine
 10
91.21320343559643
 20
104.6446609406726
 11
91.21320343559643
 21
99.64466094067262
  0
LINE
  5
208
100
AcDbEntity
  8
Militar
  6
ByLayer
 62
  256
370
   -1
100
AcDbLine
 10
77.07106781186548
 20
123.7867965644036
 11
84.14213562373095
 21
116.7157287525381
  0
LINE
  5
209
100
AcDbEntity
  8
Militar
  6
ByLayer
 62
  256
370
   -1
100
AcDbLine
 10
84.14213562373095
 20
116.7157287525381
 11
91.21320343559643
 21
109.6446609406726
  0
LINE
  5
20A
100
AcDbEntity
  8
Militar
  6
ByLayer
 62
  256
370
   -1
100
AcDbLine
 10
98.2842712474619
 20
116.7157287525381
 11
91.21320343559643
 21
109.6446609406726
  0
LINE
  5
20B
100
AcDbEntity
  8
Militar
  6
ByLayer
 62
  256
370
   -1
100
AcDbLine
 10
84.14213562373095
 20
111.7157287525381
 11
84.14213562373095
 21
106.7157287525381
  0
LINE
  5
20C
100
AcDbEntity
  8
Militar
  6
ByLayer
 62
  256
370
   -1
100
AcDbLine
 10
77.07106781186548
 20
118.7867965644036
 11
84.14213562373095
 21
111.7157287525381
  0
LINE
  5
20D
100
AcDbEntity
  8
Militar
  6
ByLayer
 62
  256
370
   -1
100
AcDbLine
 10
77.07106781186548
 20
118.7867965644036
 11
77.07106781186548
 21
123.7867965644036
  0
LINE
  5
20E
100
AcDbEntity
  8
Militar
  6
ByLayer
 62
  256
370
   -1
100
AcDbLine
 10
77.07106781186548
 20
118.7867965644036
 11
70
 21
111.7157287525381
  0
LINE
  5
20F
100
AcDbEntity
  8
Militar
  6
ByLayer
 62
  256
370
   -1
100
AcDbLine
 10
62.92893218813452
 20
118.7867965644036
 11
70
 21
111.7157287525381
  0
LINE
  5
210
100
AcDbEntity
  8
Militar
  6
ByLayer
 62
  256
370
   -1
100
AcDbLine
 10
84.14213562373095
 20
111.7157287525381
 11
77.07106781186548
 21
104.6446609406726
  0
LINE
  5
211
100
AcDbEntity
  8
Militar
  6
ByLayer
 62
  256
370
   -1
100
AcDbLine
 10
77.07106781186548
 20
104.6446609406726
 11
70
 21
97.57359312880715
  0
LINE
  5
212
100
AcDbEntity
  8
Militar
  6
ByLayer
 62
  256
370
   -1
100
AcDbLine
 10
55.85786437626905
 20
111.7157287525381
 11
62.92893218813452
 21
104.6446609406726
  0
LINE
  5
213
100
AcDbEntity
  8
Militar
  6
ByLayer
 62
  256
370
   -1
100
AcDbLine
 10
62.92893218813452
 20
104.6446609406726
 11
70
 21
97.57359312880715
  0
LINE
  5
214
100
AcDbEntity
  8
Militar
  6
ByLayer
 62
  256
370
   -1
100
AcDbLine
 10
55.85786437626905
 20
111.7157287525381
 11
55.85786437626905
 21
106.7157287525381
  0
LINE
  5
215
100
AcDbEntity
  8
Militar
  6
ByLayer
 62
  256
370
   -1
100
AcDbLine
 10
55.85786437626905
 20
111.7157287525381
 11
62.92893218813452
 21
118.7867965644036
  0
LINE
  5
216
100
AcDbEntity
  8
Militar
  6
ByLayer
 62
  256
370
   -1
100
AcDbLine
 10
70
 20
97.57359312880715
 11
70
 21
92.57359312880715
  0
LINE
  5
217
100
AcDbEntity
  8
Militar
  6
ByLayer
 62
  256
370
   -1
100
AcDbLine
 10
48.78679656440357
 20
104.6446609406726
 11
48.78679656440357
 21
99.64466094067262
  0
LINE
  5
218
100
AcDbEntity
  8
Militar
  6
ByLayer
 62
  256
370
   -1
100
AcDbLine
 10
48.78679656440357
 20
109.6446609406726
 11
48.78679656440357
 21
104.6446609406726
  0
LINE
  5
219
100
AcDbEntity
  8
Militar
  6
ByLayer
 62
  256
370
   -1
100
AcDbLine
 10
41.7157287525381
 20
116.7157287525381
 11
48.78679656440357
 21
109.6446609406726
  0
LINE
  5
21A
100
AcDbEntity
  8
Militar
  6
ByLayer
 62
  256
370
   -1
100
AcDbLine
 10
62.92893218813452
 20
123.7867965644036
 11
55.85786437626905
 21
116.7157287525381
  0
LINE
  5
21B
100
AcDbEntity
  8
Militar
  6
ByLayer
 62
  256
370
   -1
100
AcDbLine
 10
55.85786437626905
 20
116.7157287525381
 11
48.78679656440357
 21
109.6446609406726
  0
LINE
  5
21C
100
AcDbEntity
  8
Militar
  6
ByLayer
 62
  256
370
   -1
100
AcDbLine
 10
77.07106781186548
 20
123.7867965644036
 11
70
 21
116.7157287525381
  0
LINE
  5
21D
100
AcDbEntity
  8
Militar
  6
ByLayer
 62
  256
370
   -1
100
AcDbLine
 10
62.92893218813452
 20
123.7867965644036
 11
70
 21
116.7157287525381
  0
LINE
  5
21E
100
AcDbEntity
  8
Militar
  6
ByLayer
 62
  256
370
   -1
100
AcDbLine
 10
70
 20
116.7157287525381
 11
70
 21
111.7157287525381
  0
LINE
  5
21F
100
AcDbEntity
  8
Militar
  6
ByLayer
 62
  256
370
   -1
100
AcDbLine
 10
62.92893218813452
 20
123.7867965644036
 11
62.92893218813452
 21
118.7867965644036
  0
DIMENSION
  5
220
100
AcDbEntity
  8
Militar
  6
ByLayer
 62
  256
370
    5
100
AcDbDimension
  2
*D5
 10
40
 20
160
 30
0
 11
0
 21
0
 31
0
 70
   34
 71
    5
 72
    0
  3
Standard
 53
0
210
0
220
0
230
1
100
AcDb2LineAngularDimension
 13
40
 23
155
 33
0
 14
47.07106781186548
 24
147.9289321881345
 34
0
 15
40
 25
155
 35
0
 16
44.24955518805762
 26
157.6226758769863
 36
0
  0
DIMENSION
  5
221
100
AcDbEntity
  8
Militar
  6
ByLayer
 62
  256
370
    5
100
AcDbDimension
  2
*D6
 10
47.07106781186548
 20
147.9289321881345
 30
0
 11
0
 21
0
 31
0
 70
   34
 71
    5
 72
    0
  3
Standard
 53
0
210
0
220
0
230
1
100
AcDb2LineAngularDimension
 13
40
 23
155
 33
0
 14
32.92893218813452
 24
147.9289321881345
 34
0
 15
40
 25
155
 35
0
 16
41.23849078176968
 26
147.6730717518609
 36
0
  0
LINE
  5
222
100
AcDbEntity
  8
Militar
  6
ByLayer
 62
  256
370
   -1
100
AcDbLine
 10
190
 20
85.35898384862247
 11
181.3397459621556
 21
80.35898384862247
  0
LINE
  5
223
100
AcDbEntity
  8
Militar
  6
ByLayer
 62
  256
370
   -1
100
AcDbLine
 10
181.3397459621556
 20
80.35898384862247
 11
172.6794919243112
 21
75.35898384862247
  0
LINE
  5
224
100
AcDbEntity
  8
Militar
  6
ByLayer
 62
  256
370
   -1
100
AcDbLine
 10
172.6794919243112
 20
75.35898384862247
 11
164.0192378864668
 21
70.35898384862247
  0
LINE
  5
225
100
AcDbEntity
  8
Militar
  6
ByLayer
 62
  256
370
   -1
100
AcDbLine
 10
135.3589838486224
 20
100
 11
140.3589838486224
 21
91.33974596215562
  0
LINE
  5
226
100
AcDbEntity
  8
Militar
  6
ByLayer
 62
  256
370
   -1
100
AcDbLine
 10
140.3589838486224
 20
91.33974596215562
 11
145.3589838486224
 21
82.67949192431124
  0
LINE
  5
227
100
AcDbEntity
  8
Militar
  6
ByLayer
 62
  256
370
   -1
100
AcDbLine
 10
145.3589838486224
 20
82.67949192431124
 11
150.3589838486224
 21
74.01923788646685
  0
LINE
  5
228
100
AcDbEntity
  8
Militar
  6
ByLayer
 62
  256
370
   -1
100
AcDbLine
 10
159.0192378864668
 20
79.01923788646685
 11
164.0192378864668
 21
70.35898384862247
  0
LINE
  5
229
100
AcDbEntity
  8
Militar
  6
ByLayer
 62
  256
370
   -1
100
AcDbLine
 10
159.0192378864668
 20
79.01923788646685
 11
150.3589838486224
 21
74.01923788646685
  0
LINE
  5
22A
100
AcDbEntity
  8
Militar
  6
ByLayer
 62
  256
370
   -1
100
AcDbLine
 10
190
 20
100.3589838486225
 11
190
 21
92.85898384862247
  0
LINE
  5
22B
100
AcDbEntity
  8
Militar
  6
ByLayer
 62
  256
370
   -1
100
AcDbLine
 10
190
 20
92.85898384862247
 11
190
 21
85.35898384862247
  0
LINE
  5
22C
100
AcDbEntity
  8
Militar
  6
ByLayer
 62
  256
370
   -1
100
AcDbLine
 10
135.3589838486224
 20
115
 11
135.3589838486224
 21
107.5
  0
LINE
  5
22D
100
AcDbEntity
  8
Militar
  6
ByLayer
 62
  256
370
   -1
100
AcDbLine
 10
135.3589838486224
 20
107.5
 11
135.3589838486224
 21
100
  0
LINE
  5
22E
100
AcDbEntity
  8
Militar
  6
ByLayer
 62
  256
370
   -1
100
AcDbLine
 10
159.0192378864668
 20
94.01923788646685
 11
159.0192378864668
 21
86.51923788646685
  0
LINE
  5
22F
100
AcDbEntity
  8
Militar
  6
ByLayer
 62
  256
370
   -1
100
AcDbLine
 10
159.0192378864668
 20
86.51923788646685
 11
159.0192378864668
 21
79.01923788646685
  0
LINE
  5
230
100
AcDbEntity
  8
Militar
  6
ByLayer
 62
  256
370
   -1
100
AcDbLine
 10
164.0192378864668
 20
77.85898384862247
 11
164.0192378864668
 21
70.35898384862247
  0
LINE
  5
231
100
AcDbEntity
  8
Militar
  6
ByLayer
 62
  256
370
   -1
100
AcDbLine
 10
150.3589838486224
 20
81.51923788646685
 11
150.3589838486224
 21
74.01923788646685
  0
LINE
  5
232
100
AcDbEntity
  8
Militar
  6
ByLayer
 62
  256
370
   -1
100
AcDbLine
 10
140.3589838486224
 20
98.83974596215562
 11
145.3589838486224
 21
90.17949192431124
  0
LINE
  5
233
100
AcDbEntity
  8
Militar
  6
ByLayer
 62
  256
370
   -1
100
AcDbLine
 10
145.3589838486224
 20
90.17949192431124
 11
150.3589838486224
 21
81.51923788646685
  0
LINE
  5
234
100
AcDbEntity
  8
Militar
  6
ByLayer
 62
  256
370
   -1
100
AcDbLine
 10
181.3397459621556
 20
87.85898384862247
 11
172.6794919243112
 21
82.85898384862247
  0
LINE
  5
235
100
AcDbEntity
  8
Militar
  6
ByLayer
 62
  256
370
   -1
100
AcDbLine
 10
172.6794919243112
 20
82.85898384862247
 11
164.0192378864668
 21
77.85898384862247
  0
LINE
  5
236
100
AcDbEntity
  8
Militar
  6
ByLayer
 62
  256
370
   -1
100
AcDbLine
 10
159.0192378864668
 20
86.51923788646685
 11
164.0192378864668
 21
77.85898384862247
  0
LINE
  5
237
100
AcDbEntity
  8
Militar
  6
ByLayer
 62
  256
370
   -1
100
AcDbLine
 10
159.0192378864668
 20
86.51923788646685
 11
150.3589838486224
 21
81.51923788646685
  0
LINE
  5
238
100
AcDbEntity
  8
Militar
  6
ByLayer
 62
  256
370
   -1
100
AcDbLine
 10
149.0192378864668
 20
103.8397459621556
 11
154.0192378864668
 21
95.17949192431124
  0
LINE
  5
239
100
AcDbEntity
  8
Militar
  6
ByLayer
 62
  256
370
   -1
100
AcDbLine
 10
154.0192378864668
 20
95.17949192431124
 11
159.0192378864668
 21
86.51923788646685
  0
LINE
  5
23A
100
AcDbEntity
  8
Militar
  6
ByLayer
 62
  256
370
   -1
100
AcDbLine
 10
176.3397459621556
 20
96.51923788646685
 11
167.6794919243112
 21
91.51923788646685
  0
LINE
  5
23B
100
AcDbEntity
  8
Militar
  6
ByLayer
 62
  256
370
   -1
100
AcDbLine
 10
167.6794919243112
 20
91.51923788646685
 11
159.0192378864668
 21
86.51923788646685
  0
LINE
  5
23C
100
AcDbEntity
  8
Militar
  6
ByLayer
 62
  256
370
   -1
100
AcDbLine
 10
176.3397459621556
 20
104.0192378864669
 11
167.6794919243112
 21
99.01923788646685
  0
LINE
  5
23D
100
AcDbEntity
  8
Militar
  6
ByLayer
 62
  256
370
   -1
100
AcDbLine
 10
167.6794919243112
 20
99.01923788646685
 11
159.0192378864668
 21
94.01923788646685
  0
LINE
  5
23E
100
AcDbEntity
  8
Militar
  6
ByLayer
 62
  256
370
   -1
100
AcDbLine
 10
149.0192378864668
 20
111.3397459621556
 11
154.0192378864668
 21
102.6794919243112
  0
LINE
  5
23F
100
AcDbEntity
  8
Militar
  6
ByLayer
 62
  256
370
   -1
100
AcDbLine
 10
154.0192378864668
 20
102.6794919243112
 11
159.0192378864668
 21
94.01923788646685
  0
LINE
  5
240
100
AcDbEntity
  8
Militar
  6
ByLayer
 62
  256
370
   -1
100
AcDbLine
 10
140.3589838486224
 20
106.3397459621556
 11
140.3589838486224
 21
98.83974596215562
  0
LINE
  5
241
100
AcDbEntity
  8
Militar
  6
ByLayer
 62
  256
370
   -1
100
AcDbLine
 10
149.0192378864668
 20
111.3397459621556
 11
149.0192378864668
 21
103.8397459621556
  0
LINE
  5
242
100
AcDbEntity
  8
Militar
  6
ByLayer
 62
  256
370
   -1
100
AcDbLine
 10
176.3397459621556
 20
104.0192378864669
 11
176.3397459621556
 21
96.51923788646685
  0
LINE
  5
243
100
AcDbEntity
  8
Militar
  6
ByLayer
 62
  256
370
   -1
100
AcDbLine
 10
181.3397459621556
 20
95.35898384862247
 11
181.3397459621556
 21
87.85898384862247
  0
LINE
  5
244
100
AcDbEntity
  8
Militar
  6
ByLayer
 62
  256
370
   -1
100
AcDbLine
 10
176.3397459621556
 20
96.51923788646685
 11
181.3397459621556
 21
87.85898384862247
  0
LINE
  5
245
100
AcDbEntity
  8
Militar
  6
ByLayer
 62
  256
370
   -1
100
AcDbLine
 10
149.0192378864668
 20
103.8397459621556
 11
140.3589838486224
 21
98.83974596215562
  0
LINE
  5
246
100
AcDbEntity
  8
Militar
  6
ByLayer
 62
  256
370
   -1
100
AcDbLine
 10
140.3589838486224
 20
113.8397459621556
 11
140.3589838486224
 21
106.3397459621556
  0
LINE
  5
247
100
AcDbEntity
  8
Militar
  6
ByLayer
 62
  256
370
   -1
100
AcDbLine
 10
135.3589838486224
 20
122.5
 11
135.3589838486224
 21
115
  0
LINE
  5
248
100
AcDbEntity
  8
Militar
  6
ByLayer
 62
  256
370
   -1
100
AcDbLine
 10
161.3397459621556
 20
137.5
 11
152.6794919243112
 21
132.5
  0
LINE
  5
249
100
AcDbEntity
  8
Militar
  6
ByLayer
 62
  256
370
   -1
100
AcDbLine
 10
152.6794919243112
 20
132.5
 11
144.0192378864668
 21
127.5
  0
LINE
  5
24A
100
AcDbEntity
  8
Militar
  6
ByLayer
 62
  256
370
   -1
100
AcDbLine
 10
144.0192378864668
 20
127.5
 11
135.3589838486224
 21
122.5
  0
LINE
  5
24B
100
AcDbEntity
  8
Militar
  6
ByLayer
 62
  256
370
   -1
100
AcDbLine
 10
190
 20
107.8589838486225
 11
190
 21
100.3589838486225
  0
LINE
  5
24C
100
AcDbEntity
  8
Militar
  6
ByLayer
 62
  256
370
   -1
100
AcDbLine
 10
180
 20
125.1794919243112
 11
185
 21
116.5192378864669
  0
LINE
  5
24D
100
AcDbEntity
  8
Militar
  6
ByLayer
 62
  256
370
   -1
100
AcDbLine
 10
185
 20
116.5192378864669
 11
190
 21
107.8589838486225
  0
LINE
  5
24E
100
AcDbEntity
  8
Militar
  6
ByLayer
 62
  256
370
   -1
100
AcDbLine
 10
157.6794919243112
 20
123.8397459621556
 11
149.0192378864668
 21
118.8397459621556
  0
LINE
  5
24F
100
AcDbEntity
  8
Militar
  6
ByLayer
 62
  256
370
   -1
100
AcDbLine
 10
149.0192378864668
 20
118.8397459621556
 11
140.3589838486224
 21
113.8397459621556
  0
LINE
  5
250
100
AcDbEntity
  8
Militar
  6
ByLayer
 62
  256
370
   -1
100
AcDbLine
 10
181.3397459621556
 20
102.8589838486225
 11
181.3397459621556
 21
95.35898384862247
  0
LINE
  5
251
100
AcDbEntity
  8
Militar
  6
ByLayer
 62
  256
370
   -1
100
AcDbLine
 10
171.3397459621556
 20
120.1794919243112
 11
176.3397459621556
 21
111.5192378864669
  0
LINE
  5
252
100
AcDbEntity
  8
Militar
  6
ByLayer
 62
  256
370
   -1
100
AcDbLine
 10
176.3397459621556
 20
111.5192378864669
 11
181.3397459621556
 21
102.8589838486225
  0
LINE
  5
253
100
AcDbEntity
  8
Militar
  6
ByLayer
 62
  256
370
   -1
100
AcDbLine
 10
157.6794919243112
 20
116.3397459621556
 11
149.0192378864668
 21
111.3397459621556
  0
LINE
  5
254
100
AcDbEntity
  8
Militar
  6
ByLayer
 62
  256
370
   -1
100
AcDbLine
 10
171.3397459621556
 20
112.6794919243112
 11
176.3397459621556
 21
104.0192378864669
  0
LINE
  5
255
100
AcDbEntity
  8
Militar
  6
ByLayer
 62
  256
370
   -1
100
AcDbLine
 10
157.6794919243112
 20
116.3397459621556
 11
162.6794919243112
 21
107.6794919243112
  0
LINE
  5
256
100
AcDbEntity
  8
Militar
  6
ByLayer
 62
  256
370
   -1
100
AcDbLine
 10
171.3397459621556
 20
112.6794919243112
 11
162.6794919243112
 21
107.6794919243112
  0
LINE
  5
257
100
AcDbEntity
  8
Militar
  6
ByLayer
 62
  256
370
   -1
100
AcDbLine
 10
157.6794919243112
 20
123.8397459621556
 11
162.6794919243112
 21
115.1794919243112
  0
LINE
  5
258
100
AcDbEntity
  8
Militar
  6
ByLayer
 62
  256
370
   -1
100
AcDbLine
 10
171.3397459621556
 20
120.1794919243112
 11
162.6794919243112
 21
115.1794919243112
  0
LINE
  5
259
100
AcDbEntity
  8
Militar
  6
ByLayer
 62
  256
370
   -1
100
AcDbLine
 10
157.6794919243112
 20
123.8397459621556
 11
157.6794919243112
 21
116.3397459621556
  0
LINE
  5
25A
100
AcDbEntity
  8
Militar
  6
ByLayer
 62
  256
370
   -1
100
AcDbLine
 10
162.6794919243112
 20
115.1794919243112
 11
162.6794919243112
 21
107.6794919243112
  0
LINE
  5
25B
100
AcDbEntity
  8
Militar
  6
ByLayer
 62
  256
370
   -1
100
AcDbLine
 10
171.3397459621556
 20
120.1794919243112
 11
171.3397459621556
 21
112.6794919243112
  0
LINE
  5
25C
100
AcDbEntity
  8
Militar
  6
ByLayer
 62
  256
370
   -1
100
AcDbLine
 10
161.3397459621556
 20
137.5
 11
166.3397459621556
 21
128.8397459621556
  0
LINE
  5
25D
100
AcDbEntity
  8
Militar
  6
ByLayer
 62
  256
370
   -1
100
AcDbLine
 10
166.3397459621556
 20
128.8397459621556
 11
171.3397459621556
 21
120.1794919243112
  0
LINE
  5
25E
100
AcDbEntity
  8
Militar
  6
ByLayer
 62
  256
370
   -1
100
AcDbLine
 10
171.3397459621556
 20
127.6794919243112
 11
171.3397459621556
 21
120.1794919243112
  0
LINE
  5
25F
100
AcDbEntity
  8
Militar
  6
ByLayer
 62
  256
370
   -1
100
AcDbLine
 10
180
 20
132.6794919243112
 11
180
 21
125.1794919243112
  0
LINE
  5
260
100
AcDbEntity
  8
Militar
  6
ByLayer
 62
  256
370
   -1
100
AcDbLine
 10
161.3397459621556
 20
145
 11
161.3397459621556
 21
137.5
  0
LINE
  5
261
100
AcDbEntity
  8
Militar
  6
ByLayer
 62
  256
370
   -1
100
AcDbLine
 10
161.3397459621556
 20
145
 11
166.3397459621556
 21
136.3397459621556
  0
LINE
  5
262
100
AcDbEntity
  8
Militar
  6
ByLayer
 62
  256
370
   -1
100
AcDbLine
 10
166.3397459621556
 20
136.3397459621556
 11
171.3397459621556
 21
127.6794919243112
  0
LINE
  5
263
100
AcDbEntity
  8
Militar
  6
ByLayer
 62
  256
370
   -1
100
AcDbLine
 10
170
 20
150
 11
175
 21
141.3397459621556
  0
LINE
  5
264
100
AcDbEntity
  8
Militar
  6
ByLayer
 62
  256
370
   -1
100
AcDbLine
 10
175
 20
141.3397459621556
 11
180
 21
132.6794919243112
  0
LINE
  5
265
100
AcDbEntity
  8
Militar
  6
ByLayer
 62
  256
370
   -1
100
AcDbLine
 10
180
 20
132.6794919243112
 11
171.3397459621556
 21
127.6794919243112
  0
LINE
  5
266
100
AcDbEntity
  8
Militar
  6
ByLayer
 62
  256
370
   -1
100
AcDbLine
 10
170
 20
150
 11
161.3397459621556
 21
145
  0
LINE
  5
267
100
AcDbEntity
  8
Militar
  6
ByLayer
 62
  256
370
   -1
100
AcDbLine
 10
180
 20
125.1794919243112
 11
171.3397459621556
 21
120.1794919243112
  0
LINE
  5
268
100
AcDbEntity
  8
Militar
  6
ByLayer
 62
  256
370
   -1
100
AcDbLine
 10
190
 20
107.8589838486225
 11
181.3397459621556
 21
102.8589838486225
  0
LINE
  5
269
100
AcDbEntity
  8
Militar
  6
ByLayer
 62
  256
370
   -1
100
AcDbLine
 10
135.3589838486224
 20
122.5
 11
140.3589838486224
 21
113.8397459621556
  0
LINE
  5
26A
100
AcDbEntity
  8
Militar
  6
ByLayer
 62
  256
370
   -1
100
AcDbLine
 10
130
 20
152.5
 11
135
 21
143.8397459621556
  0
LINE
  5
26B
100
AcDbEntity
  8
Militar
  6
ByLayer
 62
  256
370
   -1
100
AcDbLine
 10
130
 20
152.5
 11
121.3397459621556
 21
147.5
  0
LINE
  5
26C
100
AcDbEntity
  8
Militar
  6
ByLayer
 62
  256
370
   -1
100
AcDbLine
 10
130
 20
160
 11
130
 21
152.5
  0
DIMENSION
  5
26D
100
AcDbEntity
  8
Militar
  6
ByLayer
 62
  256
370
    5
100
AcDbDimension
  2
*D7
 10
130
 20
160
 30
0
 11
0
 21
0
 31
0
 70
   34
 71
    5
 72
    0
  3
Standard
 53
0
210
0
220
0
230
1
100
AcDb2LineAngularDimension
 13
130
 23
152.5
 33
0
 14
135
 24
143.8397459621556
 34
0
 15
130
 25
152.5
 35
0
 16
134.8433190641993
 26
156.0516857519665
 36
0
  0
DIMENSION
  5
26E
100
AcDbEntity
  8
Militar
  6
ByLayer
 62
  256
370
    5
100
AcDbDimension
  2
*D8
 10
135
 20
143.8397459621556
 30
0
 11
0
 21
0
 31
0
 70
   34
 71
    5
 72
    0
  3
Standard
 53
0
210
0
220
0
230
1
100
AcDb2LineAngularDimension
 13
130
 23
152.5
 33
0
 14
121.3397459621556
 24
147.5
 34
0
 15
130
 25
152.5
 35
0
 16
128.4284427203685
 26
144.7929231893247
 36
0
  0
MTEXT
  5
26F
100
AcDbEntity
  8
Militar
  6
ByLayer
 62
  256
370
    5
100
AcDbMText
 10
131.8322546579122
 20
273.61411344095
 30
0
 40
2
 41
1.111111111111111
 71
    5
 72
    1
  1
Z
  7
standard
210
0
220
0
230
1
 50
0
 73
    2
 44
1
  0
MTEXT
  5
270
100
AcDbEntity
  8
Militar
  6
ByLayer
 62
  256
370
    5
100
AcDbMText
 10
140.7345320330245
 20
259.4752023157716
 30
0
 40
2
 41
1.333333333333333
 71
    5
 72
    1
  1
X
  7
standard
210
0
220
0
230
1
 50
0
 73
    2
 44
1
  0
MTEXT
  5
271
100
AcDbEntity
  8
Militar
  6
ByLayer
 62
  256
370
    5
100
AcDbMText
 10
122.9299772828
 20
255.8095586907255
 30
0
 40
2
 41
1.333333333333333
 71
    5
 72
    1
  1
Y
  7
standard
210
0
220
0
230
1
 50
0
 73
    2
 44
1
  0
MTEXT
  5
272
100
AcDbEntity
  8
Militar
  6
ByLayer
 62
  256
370
    5
100
AcDbMText
 10
118.3479227514922
 20
147.9349034393653
 30
0
 40
2
 41
1.333333333333333
 71
    5
 72
    1
  1
Y
  7
standard
210
0
220
0
230
1
 50
0
 73
    2
 44
1
  0
MTEXT
  5
273
100
AcDbEntity
  8
Militar
  6
ByLayer
 62
  256
370
    5
100
AcDbMText
 10
137.7234676267365
 20
143.6146805955608
 30
0
 40
2
 41
1.333333333333333
 71
    5
 72
    1
  1
X
  7
standard
210
0
220
0
230
1
 50
0
 73
    2
 44
1
  0
MTEXT
  5
274
100
AcDbEntity
  8
Militar
  6
ByLayer
 62
  256
370
    5
100
AcDbMText
 10
130.1303486891408
 20
162.9902254708051
 30
0
 40
2
 41
1.111111111111111
 71
    5
 72
    1
  1
Z
  7
standard
210
0
220
0
230
1
 50
0
 73
    2
 44
1
  0
MTEXT
  5
275
100
AcDbEntity
  8
Militar
  6
ByLayer
 62
  256
370
    5
100
AcDbMText
 10
40.58391156301171
 20
162.8593096270534
 30
0
 40
2
 41
1.111111111111111
 71
    5
 72
    1
  1
Z
  7
standard
210
0
220
0
230
1
 50
0
 73
    2
 44
1
  0
MTEXT
  5
276
100
AcDbEntity
  8
Militar
  6
ByLayer
 62
  256
370
    5
100
AcDbMText
 10
49.35527309437231
 20
147.280324220607
 30
0
 40
2
 41
1.333333333333333
 71
    5
 72
    1
  1
X
  7
standard
210
0
220
0
230
1
 50
0
 73
    2
 44
1
  0
MTEXT
  5
277
100
AcDbEntity
  8
Militar
  6
ByLayer
 62
  256
370
    5
100
AcDbMText
 10
30.24155990663131
 20
147.280324220607
 30
0
 40
2
 41
1.333333333333333
 71
    5
 72
    1
  1
Y
  7
standard
210
0
220
0
230
1
 50
0
 73
    2
 44
1
  0
MTEXT
  5
278
100
AcDbEntity
  8
A4_Rotulación
  6
ByLayer
 62
  256
370
   -1
100
AcDbMText
 10
60.99999999999999
 20
40
 30
0
 40
6
 41
8
 71
    5
 72
    1
  1
8:1
  7
standard
210
0
220
0
230
1
 50
0
 73
    2
 44
1
  0
MTEXT
  5
279
100
AcDbEntity
  8
A4_Rotulación
  6
ByLayer
 62
  256
370
   -1
100
AcDbMText
 10
167.5
 20
15
 30
0
 40
6
 41
7.333333333334076
 71
    5
 72
    1
  1
36
  7
standard
210
0
220
0
230
1
 50
0
 73
    2
 44
1
  0
ENDSEC
  0
SECTION
  2
OBJECTS
  0
DICTIONARY
  5
C
330
0
100
AcDbDictionary
281
    1
  3
ACAD_GROUP
350
D
  0
DICTIONARY
  5
D
330
C
100
AcDbDictionary
281
    1
  0
PLOTSETTINGS
  5
27A
100
AcDbPlotSettings
  6
1x1
 40
0
 41
0
 42
0
 43
0
  0
ENDSEC
  0
EOF
