999
dxfrw 0.6.3
  0
SECTION
  2
HEADER
  9
$ACADVER
  1
AC1021
  9
$DWGCODEPAGE
  3
ANSI_1252
  9
$INSBASE
 10
0
 20
0
 30
0
  9
$EXTMIN
 10
0
 20
0
 30
0
  9
$EXTMAX
 10
210
 20
297
 30
0
  9
$LIMMIN
 10
0
 20
0
  9
$LIMMAX
 10
420
 20
297
  9
$ORTHOMODE
 70
    0
  9
$REGENMODE
 70
    1
  9
$FILLMODE
 70
    1
  9
$QTEXTMODE
 70
    0
  9
$MIRRTEXT
 70
    0
  9
$LTSCALE
 40
1
  9
$ATTMODE
 70
    0
  9
$TEXTSIZE
 40
2.5
  9
$TRACEWID
 40
15.68
  9
$TEXTSTYLE
  7
STANDARD
  9
$CLAYER
  8
A4_Rotulacion
  9
$CELTYPE
  6
BYLAYER
  9
$CECOLOR
 62
  256
  9
$CELTSCALE
 40
1
  9
$DISPSILH
 70
    0
  9
$DIMSCALE
 40
1
  9
$DIMASZ
 40
2.5
  9
$DIMEXO
 40
0.625
  9
$DIMDLI
 40
3.75
  9
$DIMRND
 40
0
  9
$DIMDLE
 40
0
  9
$DIMEXE
 40
1.25
  9
$DIMTP
 40
0
  9
$DIMTM
 40
0
  9
$DIMTXT
 40
2.5
  9
$DIMCEN
 40
2.5
  9
$DIMTSZ
 40
0
  9
$DIMTOL
 70
    0
  9
$DIMLIM
 70
    0
  9
$DIMTIH
 70
    0
  9
$DIMTOH
 70
    0
  9
$DIMSE1
 70
    0
  9
$DIMSE2
 70
    0
  9
$DIMTAD
 70
    1
  9
$DIMZIN
 70
    1
  9
$DIMBLK
  1

  9
$DIMASO
 70
    1
  9
$DIMSHO
 70
    1
  9
$DIMPOST
  1

  9
$DIMAPOST
  1

  9
$DIMALT
 70
    0
  9
$DIMALTD
 70
    3
  9
$DIMALTF
 40
0.03937
  9
$DIMLFAC
 40
1
  9
$DIMTOFL
 70
    1
  9
$DIMTVP
 40
0
  9
$DIMTIX
 70
    0
  9
$DIMSOXD
 70
    0
  9
$DIMSAH
 70
    0
  9
$DIMBLK1
  1

  9
$DIMBLK2
  1

  9
$DIMSTYLE
  2
STANDARD
  9
$DIMCLRD
 70
    0
  9
$DIMCLRE
 70
    0
  9
$DIMCLRT
 70
    0
  9
$DIMTFAC
 40
1
  9
$DIMGAP
 40
0.625
  9
$DIMJUST
 70
    0
  9
$DIMSD1
 70
    0
  9
$DIMSD2
 70
    0
  9
$DIMTOLJ
 70
    0
  9
$DIMTZIN
 70
    8
  9
$DIMALTZ
 70
    0
  9
$DIMALTTZ
 70
    0
  9
$DIMUPT
 70
    0
  9
$DIMDEC
 70
    4
  9
$DIMTDEC
 70
    2
  9
$DIMALTU
 70
    2
  9
$DIMALTTD
 70
    3
  9
$DIMTXSTY
  7
standard
  9
$DIMAUNIT
 70
    0
  9
$DIMADEC
 70
    2
  9
$DIMALTRND
 40
0
  9
$DIMAZIN
 70
    0
  9
$DIMDSEP
 70
    0
  9
$DIMATFIT
 70
    3
  9
$DIMFRAC
 70
    0
  9
$DIMLDRBLK
  1
STANDARD
  9
$DIMLUNIT
 70
    2
  9
$DIMLWD
 70
   -2
  9
$DIMLWE
 70
   -2
  9
$DIMTMOVE
 70
    0
  9
$DIMFXL
 40
1
  9
$DIMFXLON
 70
    0
  9
$DIMJOGANG
 40
0.7854
  9
$DIMTFILL
 70
    0
  9
$DIMTFILLCLR
 70
    0
  9
$DIMARCSYM
 70
    0
  9
$DIMLTYPE
  6

  9
$DIMLTEX1
  6

  9
$DIMLTEX2
  6

  9
$LUNITS
 70
    2
  9
$LUPREC
 70
    4
  9
$SKETCHINC
 40
1
  9
$FILLETRAD
 40
0
  9
$AUNITS
 70
    0
  9
$AUPREC
 70
    2
  9
$MENU
  1
.
  9
$ELEVATION
 40
0
  9
$PELEVATION
 40
0
  9
$THICKNESS
 40
0
  9
$LIMCHECK
 70
    0
  9
$CHAMFERA
 40
0
  9
$CHAMFERB
 40
0
  9
$CHAMFERC
 40
0
  9
$CHAMFERD
 40
0
  9
$SKPOLY
 70
    0
  9
$USRTIMER
 70
    1
  9
$ANGBASE
 50
0
  9
$ANGDIR
 70
    0
  9
$PDMODE
 70
   34
  9
$PDSIZE
 40
0
  9
$PLINEWID
 40
0
  9
$SPLFRAME
 70
    0
  9
$SPLINETYPE
 70
    2
  9
$SPLINESEGS
 70
    8
  9
$HANDSEED
  5
20000
  9
$SURFTAB1
 70
    6
  9
$SURFTAB2
 70
    6
  9
$SURFTYPE
 70
    6
  9
$SURFU
 70
    6
  9
$SURFV
 70
    6
  9
$UCSBASE
  2

  9
$UCSNAME
  2

  9
$UCSORG
 10
0
 20
0
 30
0
  9
$UCSXDIR
 10
1
 20
0
 30
0
  9
$UCSYDIR
 10
0
 20
1
 30
0
  9
$UCSORTHOREF
  2

  9
$UCSORTHOVIEW
 70
    0
  9
$UCSORGTOP
 10
0
 20
0
 30
0
  9
$UCSORGBOTTOM
 10
0
 20
0
 30
0
  9
$UCSORGLEFT
 10
0
 20
0
 30
0
  9
$UCSORGRIGHT
 10
0
 20
0
 30
0
  9
$UCSORGFRONT
 10
0
 20
0
 30
0
  9
$UCSORGBACK
 10
0
 20
0
 30
0
  9
$PUCSBASE
  2

  9
$PUCSNAME
  2

  9
$PUCSORG
 10
0
 20
0
 30
0
  9
$PUCSXDIR
 10
1
 20
0
 30
0
  9
$PUCSYDIR
 10
0
 20
1
 30
0
  9
$PUCSORTHOREF
  2

  9
$PUCSORTHOVIEW
 70
    0
  9
$PUCSORGTOP
 10
0
 20
0
 30
0
  9
$PUCSORGBOTTOM
 10
0
 20
0
 30
0
  9
$PUCSORGLEFT
 10
0
 20
0
 30
0
  9
$PUCSORGRIGHT
 10
0
 20
0
 30
0
  9
$PUCSORGFRONT
 10
0
 20
0
 30
0
  9
$PUCSORGBACK
 10
0
 20
0
 30
0
  9
$USERI1
 70
    0
  9
$USERI2
 70
    0
  9
$USERI3
 70
    0
  9
$USERI4
 70
    0
  9
$USERI5
 70
    0
  9
$USERR1
 40
0
  9
$USERR2
 40
0
  9
$USERR3
 40
0
  9
$USERR4
 40
0
  9
$USERR5
 40
0
  9
$WORLDVIEW
 70
    1
  9
$SHADEDGE
 70
    3
  9
$SHADEDIF
 70
   70
  9
$TILEMODE
 70
    1
  9
$MAXACTVP
 70
   64
  9
$PINSBASE
 10
0
 20
0
 30
0
  9
$PLIMCHECK
 70
    0
  9
$PEXTMIN
 10
0
 20
0
 30
0
  9
$PEXTMAX
 10
0
 20
0
 30
0
  9
$GRIDMODE
 70
    0
  9
$SNAPSTYLE
 70
    0
  9
$GRIDUNIT
 10
0
 20
0
  9
$PLIMMIN
 10
0
 20
0
  9
$PLIMMAX
 10
210
 20
297
  9
$UNITMODE
 70
    0
  9
$VISRETAIN
 70
    1
  9
$PLINEGEN
 70
    0
  9
$PSLTSCALE
 70
    1
  9
$TREEDEPTH
 70
 3020
  9
$CMLSTYLE
  2
Standard
  9
$CMLJUST
 70
    0
  9
$CMLSCALE
 40
20
  9
$PROXYGRAPHICS
 70
    1
  9
$MEASUREMENT
 70
    1
  9
$CELWEIGHT
370
   -1
  9
$ENDCAPS
280
    0
  9
$JOINSTYLE
280
    0
  9
$LWDISPLAY
290
    0
  9
$INSUNITS
 70
    0
  9
$HYPERLINKBASE
  1

  9
$STYLESHEET
  1

  9
$XEDIT
290
    1
  9
$CEPSNTYPE
380
    0
  9
$PSTYLEMODE
290
    1
  9
$EXTNAMES
290
    1
  9
$PSVPSCALE
 40
1
  9
$OLESTARTUP
290
    0
  9
$SORTENTS
280
  127
  9
$INDEXCTL
280
    0
  9
$HIDETEXT
280
    1
  9
$XCLIPFRAME
290
    0
  9
$HALOGAP
280
    0
  9
$OBSCOLOR
 70
  257
  9
$OBSLTYPE
280
    0
  9
$INTERSECTIONDISPLAY
280
    0
  9
$INTERSECTIONCOLOR
 70
  257
  9
$DIMASSOC
280
    1
  9
$PROJECTNAME
  1

  9
$CAMERADISPLAY
290
    0
  9
$LENSLENGTH
 40
50
  9
$CAMERAHEIGHT
 40
0
  9
$STEPSPERSEC
 40
2
  9
$STEPSIZE
 40
50
  9
$3DDWFPREC
 40
2
  9
$PSOLWIDTH
 40
5
  9
$PSOLHEIGHT
 40
80
  9
$LOFTANG1
 40
1.570796326794897
  9
$LOFTANG2
 40
1.570796326794897
  9
$LOFTMAG1
 40
0
  9
$LOFTMAG2
 40
0
  9
$LOFTPARAM
 70
    7
  9
$LOFTNORMALS
280
    1
  9
$LATITUDE
 40
1
  9
$LONGITUDE
 40
1
  9
$NORTHDIRECTION
 40
0
  9
$TIMEZONE
 70
-8000
  9
$LIGHTGLYPHDISPLAY
280
    1
  9
$TILEMODELIGHTSYNCH
280
    1
  9
$SOLIDHIST
280
    1
  9
$SHOWHIST
280
    1
  9
$DWFFRAME
280
    2
  9
$DGNFRAME
280
    0
  9
$REALWORLDSCALE
290
    1
  9
$INTERFERECOLOR
 62
    1
  9
$CSHADOW
280
    0
  9
$SHADOWPLANELOCATION
 40
0
  0
ENDSEC
  0
SECTION
  2
CLASSES
  0
ENDSEC
  0
SECTION
  2
TABLES
  0
TABLE
  2
VPORT
  5
8
330
0
100
AcDbSymbolTable
 70
    1
  0
VPORT
  5
31
330
2
100
AcDbSymbolTableRecord
100
AcDbViewportTableRecord
  2
*ACTIVE
 70
    0
 10
0
 20
0
 11
1
 21
1
 12
90.29250821429
 22
137.6115766902281
 13
0
 23
0
 14
10
 24
10
 15
10
 25
10
 16
0
 26
0
 36
1
 17
0
 27
0
 37
0
 40
88.03921923924533
 41
1.786106032906764
 42
50
 43
0
 44
0
 50
0
 51
0
 71
    0
 72
  100
 73
    1
 74
    3
 75
    0
 76
    0
 77
    0
 78
    0
281
    0
 65
    1
110
0
120
0
130
0
111
1
121
0
131
0
112
0
122
1
132
0
 79
    0
146
0
348
10020
 60
    7
 61
    5
292
1
282
    1
141
0
142
0
 63
  250
421
3358443
  0
ENDTAB
  0
TABLE
  2
LTYPE
  5
5
330
0
100
AcDbSymbolTable
 70
    4
  0
LTYPE
  5
14
330
5
100
AcDbSymbolTableRecord
100
AcDbLinetypeTableRecord
  2
ByBlock
 70
    0
  3

 72
   65
 73
    0
 40
0
  0
LTYPE
  5
15
330
5
100
AcDbSymbolTableRecord
100
AcDbLinetypeTableRecord
  2
ByLayer
 70
    0
  3

 72
   65
 73
    0
 40
0
  0
LTYPE
  5
16
330
5
100
AcDbSymbolTableRecord
100
AcDbLinetypeTableRecord
  2
Continuous
 70
    0
  3
Solid line
 72
   65
 73
    0
 40
0
  0
LTYPE
  5
32
330
5
100
AcDbSymbolTableRecord
100
AcDbLinetypeTableRecord
  2
DOT
 70
    0
  3
Dot . . . . . . . . . . . . . . . . . . . . . .
 72
   65
 73
    2
 40
6.35
 49
0
 74
    0
 49
-6.35
 74
    0
  0
LTYPE
  5
33
330
5
100
AcDbSymbolTableRecord
100
AcDbLinetypeTableRecord
  2
DOTTINY
 70
    0
  3
Dot (.15x) .....................................
 72
   65
 73
    2
 40
0.9525
 49
0
 74
    0
 49
-0.9525
 74
    0
  0
LTYPE
  5
34
330
5
100
AcDbSymbolTableRecord
100
AcDbLinetypeTableRecord
  2
DOT2
 70
    0
  3
Dot (.5x) .....................................
 72
   65
 73
    2
 40
3.175
 49
0
 74
    0
 49
-3.175
 74
    0
  0
LTYPE
  5
35
330
5
100
AcDbSymbolTableRecord
100
AcDbLinetypeTableRecord
  2
DOTX2
 70
    0
  3
Dot (2x) .  .  .  .  .  .  .  .  .  .  .  .  .
 72
   65
 73
    2
 40
12.7
 49
0
 74
    0
 49
-12.7
 74
    0
  0
LTYPE
  5
36
330
5
100
AcDbSymbolTableRecord
100
AcDbLinetypeTableRecord
  2
DASHED
 70
    0
  3
Dashed _ _ _ _ _ _ _ _ _ _ _ _ _ _ _ _ _
 72
   65
 73
    2
 40
19.05
 49
12.7
 74
    0
 49
-6.35
 74
    0
  0
LTYPE
  5
37
330
5
100
AcDbSymbolTableRecord
100
AcDbLinetypeTableRecord
  2
DASHEDTINY
 70
    0
  3
Dashed (.15x) _ _ _ _ _ _ _ _ _ _ _ _ _ _ _ _ _
 72
   65
 73
    2
 40
2.8575
 49
1.905
 74
    0
 49
-0.9525
 74
    0
  0
LTYPE
  5
38
330
5
100
AcDbSymbolTableRecord
100
AcDbLinetypeTableRecord
  2
DASHED2
 70
    0
  3
Dashed (.5x) _ _ _ _ _ _ _ _ _ _ _ _ _ _ _ _ _
 72
   65
 73
    2
 40
9.524999999999999
 49
6.35
 74
    0
 49
-3.175
 74
    0
  0
LTYPE
  5
39
330
5
100
AcDbSymbolTableRecord
100
AcDbLinetypeTableRecord
  2
DASHEDX2
 70
    0
  3
Dashed (2x) ____  ____  ____  ____  ____  ___
 72
   65
 73
    2
 40
38.09999999999999
 49
25.4
 74
    0
 49
-12.7
 74
    0
  0
LTYPE
  5
3A
330
5
100
AcDbSymbolTableRecord
100
AcDbLinetypeTableRecord
  2
DASHDOT
 70
    0
  3
Dash dot __ . __ . __ . __ . __ . __ . __ . __
 72
   65
 73
    4
 40
25.4
 49
12.7
 74
    0
 49
-6.35
 74
    0
 49
0
 74
    0
 49
-6.35
 74
    0
  0
LTYPE
  5
3B
330
5
100
AcDbSymbolTableRecord
100
AcDbLinetypeTableRecord
  2
DASHDOTTINY
 70
    0
  3
Dash dot (.15x) _._._._._._._._._._._._._._._.
 72
   65
 73
    4
 40
3.81
 49
1.905
 74
    0
 49
-0.9525
 74
    0
 49
0
 74
    0
 49
-0.9525
 74
    0
  0
LTYPE
  5
3C
330
5
100
AcDbSymbolTableRecord
100
AcDbLinetypeTableRecord
  2
DASHDOT2
 70
    0
  3
Dash dot (.5x) _._._._._._._._._._._._._._._.
 72
   65
 73
    4
 40
12.7
 49
6.35
 74
    0
 49
-3.175
 74
    0
 49
0
 74
    0
 49
-3.175
 74
    0
  0
LTYPE
  5
3D
330
5
100
AcDbSymbolTableRecord
100
AcDbLinetypeTableRecord
  2
DASHDOTX2
 70
    0
  3
Dash dot (2x) ____  .  ____  .  ____  .  ___
 72
   65
 73
    4
 40
50.8
 49
25.4
 74
    0
 49
-12.7
 74
    0
 49
0
 74
    0
 49
-12.7
 74
    0
  0
LTYPE
  5
3E
330
5
100
AcDbSymbolTableRecord
100
AcDbLinetypeTableRecord
  2
DIVIDE
 70
    0
  3
Divide ____ . . ____ . . ____ . . ____ . . ____
 72
   65
 73
    6
 40
31.75
 49
12.7
 74
    0
 49
-6.35
 74
    0
 49
0
 74
    0
 49
-6.35
 74
    0
 49
0
 74
    0
 49
-6.35
 74
    0
  0
LTYPE
  5
3F
330
5
100
AcDbSymbolTableRecord
100
AcDbLinetypeTableRecord
  2
DIVIDETINY
 70
    0
  3
Divide (.15x) __..__..__..__..__..__..__..__.._
 72
   65
 73
    6
 40
4.7625
 49
1.905
 74
    0
 49
-0.9525
 74
    0
 49
0
 74
    0
 49
-0.9525
 74
    0
 49
0
 74
    0
 49
-0.9525
 74
    0
  0
LTYPE
  5
40
330
5
100
AcDbSymbolTableRecord
100
AcDbLinetypeTableRecord
  2
DIVIDE2
 70
    0
  3
Divide (.5x) __..__..__..__..__..__..__..__.._
 72
   65
 73
    6
 40
15.875
 49
6.35
 74
    0
 49
-3.175
 74
    0
 49
0
 74
    0
 49
-3.175
 74
    0
 49
0
 74
    0
 49
-3.175
 74
    0
  0
LTYPE
  5
41
330
5
100
AcDbSymbolTableRecord
100
AcDbLinetypeTableRecord
  2
DIVIDEX2
 70
    0
  3
Divide (2x) ________  .  .  ________  .  .  _
 72
   65
 73
    6
 40
63.5
 49
25.4
 74
    0
 49
-12.7
 74
    0
 49
0
 74
    0
 49
-12.7
 74
    0
 49
0
 74
    0
 49
-12.7
 74
    0
  0
LTYPE
  5
42
330
5
100
AcDbSymbolTableRecord
100
AcDbLinetypeTableRecord
  2
BORDER
 70
    0
  3
Border __ __ . __ __ . __ __ . __ __ . __ __ .
 72
   65
 73
    6
 40
44.45
 49
12.7
 74
    0
 49
-6.35
 74
    0
 49
12.7
 74
    0
 49
-6.35
 74
    0
 49
0
 74
    0
 49
-6.35
 74
    0
  0
LTYPE
  5
43
330
5
100
AcDbSymbolTableRecord
100
AcDbLinetypeTableRecord
  2
BORDERTINY
 70
    0
  3
Border (.15x) __.__.__.__.__.__.__.__.__.__.__.
 72
   65
 73
    6
 40
6.6675
 49
1.905
 74
    0
 49
-0.9525
 74
    0
 49
1.905
 74
    0
 49
-0.9525
 74
    0
 49
0
 74
    0
 49
-0.9525
 74
    0
  0
LTYPE
  5
44
330
5
100
AcDbSymbolTableRecord
100
AcDbLinetypeTableRecord
  2
BORDER2
 70
    0
  3
Border (.5x) __.__.__.__.__.__.__.__.__.__.__.
 72
   65
 73
    6
 40
22.225
 49
6.35
 74
    0
 49
-3.175
 74
    0
 49
6.35
 74
    0
 49
-3.175
 74
    0
 49
0
 74
    0
 49
-3.175
 74
    0
  0
LTYPE
  5
45
330
5
100
AcDbSymbolTableRecord
100
AcDbLinetypeTableRecord
  2
BORDERX2
 70
    0
  3
Border (2x) ____  ____  .  ____  ____  .  ___
 72
   65
 73
    6
 40
88.89999999999999
 49
25.4
 74
    0
 49
-12.7
 74
    0
 49
25.4
 74
    0
 49
-12.7
 74
    0
 49
0
 74
    0
 49
-12.7
 74
    0
  0
LTYPE
  5
46
330
5
100
AcDbSymbolTableRecord
100
AcDbLinetypeTableRecord
  2
CENTER
 70
    0
  3
Center ____ _ ____ _ ____ _ ____ _ ____ _ ____
 72
   65
 73
    4
 40
50.8
 49
31.75
 74
    0
 49
-6.35
 74
    0
 49
6.35
 74
    0
 49
-6.35
 74
    0
  0
LTYPE
  5
47
330
5
100
AcDbSymbolTableRecord
100
AcDbLinetypeTableRecord
  2
CENTERTINY
 70
    0
  3
Center (.15x) ___ _ ___ _ ___ _ ___ _ ___ _ ___
 72
   65
 73
    4
 40
7.62
 49
4.7625
 74
    0
 49
-0.9525
 74
    0
 49
0.9525
 74
    0
 49
-0.9525
 74
    0
  0
LTYPE
  5
48
330
5
100
AcDbSymbolTableRecord
100
AcDbLinetypeTableRecord
  2
CENTER2
 70
    0
  3
Center (.5x) ___ _ ___ _ ___ _ ___ _ ___ _ ___
 72
   65
 73
    4
 40
28.575
 49
19.05
 74
    0
 49
-3.175
 74
    0
 49
3.175
 74
    0
 49
-3.175
 74
    0
  0
LTYPE
  5
49
330
5
100
AcDbSymbolTableRecord
100
AcDbLinetypeTableRecord
  2
CENTERX2
 70
    0
  3
Center (2x) ________  __  ________  __  _____
 72
   65
 73
    4
 40
101.6
 49
63.5
 74
    0
 49
-12.7
 74
    0
 49
12.7
 74
    0
 49
-12.7
 74
    0
  0
ENDTAB
  0
TABLE
  2
LAYER
  5
2
330
0
100
AcDbSymbolTable
 70
    1
  0
LAYER
  5
10
330
2
100
AcDbSymbolTableRecord
100
AcDbLayerTableRecord
  2
0
 70
    0
 62
    7
  6
CONTINUOUS
370
    0
390
F
  0
LAYER
  5
4A
330
2
100
AcDbSymbolTableRecord
100
AcDbLayerTableRecord
  2
A4_Auxiliares
 70
    1
 62
    2
  6
CONTINUOUS
370
    0
390
F
  0
LAYER
  5
4B
330
2
100
AcDbSymbolTableRecord
100
AcDbLayerTableRecord
  2
A4_Divisiones
 70
    0
 62
    9
  6
CONTINUOUS
370
   35
390
F
  0
LAYER
  5
4C
330
2
100
AcDbSymbolTableRecord
100
AcDbLayerTableRecord
  2
A4_Etiquetas
 70
    0
 62
    7
  6
CONTINUOUS
370
    0
390
F
  0
LAYER
  5
4D
330
2
100
AcDbSymbolTableRecord
100
AcDbLayerTableRecord
  2
A4_Hoja
 70
    0
 62
    8
  6
CONTINUOUS
370
   70
390
F
  0
LAYER
  5
4E
330
2
100
AcDbSymbolTableRecord
100
AcDbLayerTableRecord
  2
A4_Recuadro
 70
    0
 62
    9
  6
CONTINUOUS
370
   70
390
F
  0
LAYER
  5
4F
330
2
100
AcDbSymbolTableRecord
100
AcDbLayerTableRecord
  2
A4_Rotulacion
 70
    0
 62
    7
  6
CONTINUOUS
370
   35
390
F
  0
LAYER
  5
50
330
2
100
AcDbSymbolTableRecord
100
AcDbLayerTableRecord
  2
A4_Sistema_Americano
 70
    1
 62
    7
  6
CONTINUOUS
370
   35
390
F
  0
LAYER
  5
51
330
2
100
AcDbSymbolTableRecord
100
AcDbLayerTableRecord
  2
A4_Sistema_Europeo
 70
    1
 62
    7
  6
CONTINUOUS
370
   35
390
F
  0
LAYER
  5
52
330
2
100
AcDbSymbolTableRecord
100
AcDbLayerTableRecord
  2
Caballera
 70
    0
 62
  176
420
  128
  6
CONTINUOUS
370
   70
390
F
  0
LAYER
  5
53
330
2
100
AcDbSymbolTableRecord
100
AcDbLayerTableRecord
  2
Cotas
 70
    0
 62
    7
  6
CONTINUOUS
370
    5
390
F
  0
LAYER
  5
54
330
2
100
AcDbSymbolTableRecord
100
AcDbLayerTableRecord
  2
Isometrica
 70
    0
 62
    1
  6
CONTINUOUS
370
   90
390
F
  0
LAYER
  5
55
330
2
100
AcDbSymbolTableRecord
100
AcDbLayerTableRecord
  2
Relleno
 70
    0
 62
    7
  6
CONTINUOUS
370
    0
390
F
  0
ENDTAB
  0
TABLE
  2
STYLE
  5
3
330
0
100
AcDbSymbolTable
 70
    3
  0
STYLE
  5
56
330
2
100
AcDbSymbolTableRecord
100
AcDbTextStyleTableRecord
  2
standard
 70
    0
 40
0
 41
1
 50
0
 71
    0
 42
1
  3
standard
  4

  0
STYLE
  5
57
330
2
100
AcDbSymbolTableRecord
100
AcDbTextStyleTableRecord
  2
STANDARD
 70
    0
 40
0
 41
1
 50
0
 71
    0
 42
1
  3
STANDARD
  4

  0
ENDTAB
  0
TABLE
  2
VIEW
  5
6
330
0
100
AcDbSymbolTable
 70
    0
  0
ENDTAB
  0
TABLE
  2
UCS
  5
7
330
0
100
AcDbSymbolTable
 70
    0
  0
ENDTAB
  0
TABLE
  2
APPID
  5
9
330
0
100
AcDbSymbolTable
 70
    1
  0
APPID
  5
12
330
9
100
AcDbSymbolTableRecord
100
AcDbRegAppTableRecord
  2
ACAD
 70
    0
  0
APPID
  5
58
330
9
100
AcDbSymbolTableRecord
100
AcDbRegAppTableRecord
  2
LibreCad
 70
    0
  0
ENDTAB
  0
TABLE
  2
DIMSTYLE
  5
A
330
0
100
AcDbSymbolTable
 70
    1
100
AcDbDimStyleTable
 71
    1
  0
DIMSTYLE
105
59
330
A
100
AcDbSymbolTableRecord
100
AcDbDimStyleTableRecord
  2
Standard
 70
    0
 40
1
 41
2.5
 42
0.625
 43
0.38
 44
1.25
 45
0
 46
0
 47
0
 48
0
 49
1
140
2.5
141
0.09
142
0
143
25.4
144
1
145
0
146
1
147
0.625
148
0
 71
    0
 72
    0
 73
    0
 74
    1
 75
    0
 76
    0
 77
    0
 78
    1
 79
    0
170
    0
171
    2
172
    0
173
    0
174
    0
175
    0
176
    0
177
    0
178
    0
179
    2
271
    4
272
    4
273
    2
274
    2
275
    0
276
    0
277
    2
278
    0
279
    0
280
    0
281
    0
282
    0
283
    1
284
    0
285
    0
286
    0
288
    0
289
    3
340
standard
341

371
   -2
372
   -2
  0
ENDTAB
  0
TABLE
  2
BLOCK_RECORD
  5
1
330
0
100
AcDbSymbolTable
 70
    2
  0
BLOCK_RECORD
  5
1F
330
1
100
AcDbSymbolTableRecord
100
AcDbBlockTableRecord
  2
*Model_Space
 70
    0
280
    1
281
    0
  0
BLOCK_RECORD
  5
1E
330
1
100
AcDbSymbolTableRecord
100
AcDbBlockTableRecord
  2
*Paper_Space
 70
    0
280
    1
281
    0
  0
BLOCK_RECORD
  5
5A
330
1
100
AcDbSymbolTableRecord
100
AcDbBlockTableRecord
  2
*D3
 70
    0
280
    1
281
    0
  0
BLOCK_RECORD
  5
5D
330
1
100
AcDbSymbolTableRecord
100
AcDbBlockTableRecord
  2
*D2
 70
    0
280
    1
281
    0
  0
BLOCK_RECORD
  5
60
330
1
100
AcDbSymbolTableRecord
100
AcDbBlockTableRecord
  2
*D1
 70
    0
280
    1
281
    0
  0
ENDTAB
  0
ENDSEC
  0
SECTION
  2
BLOCKS
  0
BLOCK
  5
20
330
1F
100
AcDbEntity
  8
0
100
AcDbBlockBegin
  2
*Model_Space
 70
    0
 10
0
 20
0
 30
0
  3
*Model_Space
  1

  0
ENDBLK
  5
21
330
1F
100
AcDbEntity
  8
0
100
AcDbBlockEnd
  0
BLOCK
  5
1C
330
1B
100
AcDbEntity
  8
0
100
AcDbBlockBegin
  2
*Paper_Space
 70
    0
 10
0
 20
0
 30
0
  3
*Paper_Space
  1

  0
ENDBLK
  5
1D
330
1F
100
AcDbEntity
  8
0
100
AcDbBlockEnd
  0
BLOCK
  5
5B
330
5A
100
AcDbEntity
  8
0
100
AcDbBlockBegin
  2
*D3
 70
    1
 10
0
 20
0
  3
*D3
  1

  0
LINE
  5
63
100
AcDbEntity
  8
Cotas
  6
ByBlock
 62
    0
370
   -2
100
AcDbLine
 10
90.73461792143178
 20
231.831
 11
84.39131792143178
 21
231.831
  0
LINE
  5
64
100
AcDbEntity
  8
Cotas
  6
ByBlock
 62
    0
370
   -2
100
AcDbLine
 10
90.73461792143178
 20
256.338
 11
84.39131792143178
 21
256.338
  0
LINE
  5
65
100
AcDbEntity
  8
Cotas
  6
ByBlock
 62
    0
370
   -2
100
AcDbLine
 10
85.64131792143178
 20
231.831
 11
85.64131792143178
 21
256.338
  0
MTEXT
  5
66
100
AcDbEntity
  8
Cotas
  6
CONTINUOUS
 62
    0
370
   -2
100
AcDbMText
 10
84.10963042143177
 20
244.0845
 30
0
 40
2.5
 41
11.9444444444446
 71
    5
 72
    1
  1
24.5070
  7
standard
210
0
220
0
230
1
 50
90
 73
    2
 44
1
  0
SOLID
  5
67
100
AcDbEntity
  8
Cotas
  6
ByBlock
 62
    0
370
   -2
100
AcDbTrace
 10
85.64131792143178
 20
231.831
 30
0
 11
85.22503326365894
 21
234.331
 31
0
 12
86.05760257920461
 22
234.331
 32
0
 13
86.05760257920461
 23
234.331
 33
0
  0
SOLID
  5
68
100
AcDbEntity
  8
Cotas
  6
ByBlock
 62
    0
370
   -2
100
AcDbTrace
 10
85.64131792143178
 20
256.338
 30
0
 11
86.05760257920461
 21
253.838
 31
0
 12
85.22503326365894
 22
253.838
 32
0
 13
85.22503326365894
 23
253.838
 33
0
  0
ENDBLK
  5
5C
330
5A
100
AcDbEntity
  8
0
100
AcDbBlockEnd
  0
BLOCK
  5
5E
330
5D
100
AcDbEntity
  8
0
100
AcDbBlockBegin
  2
*D2
 70
    1
 10
0
 20
0
  3
*D2
  1

  0
LINE
  5
69
100
AcDbEntity
  8
Cotas
  6
ByBlock
 62
    0
370
   -2
100
AcDbLine
 10
112.8958024919771
 20
219.0362341226346
 11
116.0674524919771
 21
213.5427751788088
  0
LINE
  5
6A
100
AcDbEntity
  8
Cotas
  6
ByBlock
 62
    0
370
   -2
100
AcDbLine
 10
134.1194870625223
 20
231.2897341226347
 11
137.2911370625223
 21
225.7962751788089
  0
LINE
  5
6B
100
AcDbEntity
  8
Cotas
  6
ByBlock
 62
    0
370
   -2
100
AcDbLine
 10
115.4424524919771
 20
214.6253069335393
 11
136.6661370625223
 21
226.8788069335394
  0
MTEXT
  5
6C
100
AcDbEntity
  8
Cotas
  6
CONTINUOUS
 62
    0
370
   -2
100
AcDbMText
 10
125.2884510272496
 20
222.0785372191985
 30
0
 40
2.5
 41
11.9444444444446
 71
    5
 72
    1
  1
24.5070
  7
standard
210
0
220
0
230
1
 50
30.00000000000024
 73
    2
 44
1
  0
SOLID
  5
6D
100
AcDbEntity
  8
Cotas
  6
ByBlock
 62
    0
370
   -2
100
AcDbTrace
 10
115.4424524919771
 20
214.6253069335393
 30
0
 11
117.3993736725518
 21
216.2358200223763
 31
0
 12
117.8156583303246
 22
215.5147938447024
 32
0
 13
117.8156583303246
 23
215.5147938447024
 33
0
  0
SOLID
  5
6E
100
AcDbEntity
  8
Cotas
  6
ByBlock
 62
    0
370
   -2
100
AcDbTrace
 10
136.6661370625223
 20
226.8788069335394
 30
0
 11
134.7092158819476
 21
225.2682938447024
 31
0
 12
134.2929312241748
 22
225.9893200223764
 32
0
 13
134.2929312241748
 23
225.9893200223764
 33
0
  0
ENDBLK
  5
5F
330
5D
100
AcDbEntity
  8
0
100
AcDbBlockEnd
  0
BLOCK
  5
61
330
60
100
AcDbEntity
  8
0
100
AcDbBlockBegin
  2
*D1
 70
    1
 10
0
 20
0
  3
*D1
  1

  0
LINE
  5
6F
100
AcDbEntity
  8
Cotas
  6
ByBlock
 62
    0
370
   -2
100
AcDbLine
 10
91.04711792143178
 20
231.2897341226347
 11
87.87546792143176
 21
225.7962751788089
  0
LINE
  5
70
100
AcDbEntity
  8
Cotas
  6
ByBlock
 62
    0
370
   -2
100
AcDbLine
 10
112.2708024919771
 20
219.0362341226346
 11
109.0991524919771
 21
213.5427751788088
  0
LINE
  5
71
100
AcDbEntity
  8
Cotas
  6
ByBlock
 62
    0
370
   -2
100
AcDbLine
 10
88.50046792143176
 20
226.8788069335394
 11
109.7241524919771
 21
214.6253069335393
  0
MTEXT
  5
72
100
AcDbEntity
  8
Cotas
  6
CONTINUOUS
 62
    0
370
   -2
100
AcDbMText
 10
99.87815395670438
 20
222.0785372191985
 30
0
 40
2.5
 41
11.9444444444446
 71
    5
 72
    1
  1
24.5070
  7
standard
210
0
220
0
230
1
 50
329.9999999999999
 73
    2
 44
1
  0
SOLID
  5
73
100
AcDbEntity
  8
Cotas
  6
ByBlock
 62
    0
370
   -2
100
AcDbTrace
 10
88.50046792143176
 20
226.8788069335394
 30
0
 11
90.87367375977928
 21
225.9893200223764
 31
0
 12
90.45738910200643
 22
225.2682938447024
 32
0
 13
90.45738910200643
 23
225.2682938447024
 33
0
  0
SOLID
  5
74
100
AcDbEntity
  8
Cotas
  6
ByBlock
 62
    0
370
   -2
100
AcDbTrace
 10
109.7241524919771
 20
214.6253069335393
 30
0
 11
107.3509466536295
 21
215.5147938447024
 31
0
 12
107.7672313114024
 22
216.2358200223763
 32
0
 13
107.7672313114024
 23
216.2358200223763
 33
0
  0
ENDBLK
  5
62
330
60
100
AcDbEntity
  8
0
100
AcDbBlockEnd
  0
ENDSEC
  0
SECTION
  2
ENTITIES
  0
HATCH
  5
75
100
AcDbEntity
  8
Relleno
  6
ByLayer
 62
   21
420
16751515
370
   -1
100
AcDbHatch
 10
0
 20
0
 30
0
210
0
220
0
230
1
  2
SOLID
 70
    1
 71
    0
 91
    1
 92
    0
 93
    4
 72
    1
 10
112.583302491977
 20
219.5775
 11
112.583302491977
 21
223.662
 72
    1
 10
112.583302491977
 20
223.662
 11
133.8069870625223
 21
235.9155
 72
    1
 10
133.8069870625223
 20
235.9155
 11
133.8069870625223
 21
231.831
 72
    1
 10
133.8069870625223
 20
231.831
 11
112.5833024919771
 21
219.5774999999999
 97
    0
 75
    0
 76
    1
 98
    0
  0
HATCH
  5
76
100
AcDbEntity
  8
Relleno
  6
ByLayer
 62
   21
420
16751515
370
   -1
100
AcDbHatch
 10
0
 20
0
 30
0
210
0
220
0
230
1
  2
SOLID
 70
    1
 71
    0
 91
    1
 92
    0
 93
    4
 72
    1
 10
101.9714602067044
 20
229.78875
 11
101.9714602067044
 21
250.21125
 72
    1
 10
101.9714602067044
 20
250.21125
 11
109.0460217302195
 21
254.29575
 72
    1
 10
109.0460217302195
 20
254.29575
 11
109.0460217302195
 21
233.87325
 72
    1
 10
109.0460217302195
 20
233.87325
 11
101.9714602067044
 21
229.78875
 97
    0
 75
    0
 76
    1
 98
    0
  0
HATCH
  5
77
100
AcDbEntity
  8
Relleno
  6
ByLayer
 62
   21
420
16751515
370
   -1
100
AcDbHatch
 10
0
 20
0
 30
0
210
0
220
0
230
1
  2
SOLID
 70
    1
 71
    0
 91
    1
 92
    0
 93
    4
 72
    1
 10
126.7324255390072
 20
252.2535
 11
126.7324255390072
 21
244.0845
 72
    1
 10
126.7324255390072
 20
244.0845
 11
119.6578640154921
 21
240
 72
    1
 10
119.6578640154921
 20
240
 11
119.6578640154921
 21
248.169
 72
    1
 10
119.6578640154921
 20
248.169
 11
126.7324255390072
 21
252.2535
 97
    0
 75
    0
 76
    1
 98
    0
  0
HATCH
  5
78
100
AcDbEntity
  8
Relleno
  6
ByLayer
 62
   21
420
16751515
370
   -1
100
AcDbHatch
 10
0
 20
0
 30
0
210
0
220
0
230
1
  2
SOLID
 70
    1
 71
    0
 91
    1
 92
    0
 93
    7
 72
    1
 10
109.0460217302195
 20
254.29575
 11
105.5087409684619
 21
256.338
 72
    1
 10
105.5087409684619
 20
256.338
 11
119.6578640154921
 21
264.507
 72
    1
 10
119.6578640154921
 20
264.507
 11
119.6578640154921
 21
256.338
 72
    1
 10
119.6578640154921
 20
256.338
 11
112.583302491977
 21
252.2535
 72
    1
 10
112.583302491977
 20
252.2535
 11
112.583302491977
 21
240
 72
    1
 10
112.583302491977
 20
240
 11
109.0460217302195
 21
237.95775
 72
    1
 10
109.0460217302195
 20
237.95775
 11
109.0460217302195
 21
254.29575
 97
    0
 75
    0
 76
    1
 98
    0
  0
HATCH
  5
79
100
AcDbEntity
  8
Relleno
  6
ByLayer
 62
  254
420
16764365
370
   -1
100
AcDbHatch
 10
0
 20
0
 30
0
210
0
220
0
230
1
  2
SOLID
 70
    1
 71
    0
 91
    1
 92
    0
 93
   10
 72
    1
 10
101.9714602067044
 20
250.21125
 11
91.35961792143178
 21
256.338
 72
    1
 10
91.35961792143178
 20
256.338
 11
112.583302491977
 21
268.5915
 72
    1
 10
112.583302491977
 20
268.5915
 11
119.6578640154921
 21
264.507
 72
    1
 10
119.6578640154921
 20
264.507
 11
105.5087409684619
 21
256.338
 72
    1
 10
105.5087409684619
 20
256.338
 11
109.0460217302195
 21
254.29575
 72
    1
 10
109.0460217302195
 20
254.29575
 11
101.9714602067044
 21
250.21125
 72
    1
 10
119.6578640154921
 20
256.338
 11
126.7324255390072
 21
252.2535
 72
    1
 10
126.7324255390072
 20
252.2535
 11
119.6578640154921
 21
248.169
 72
    1
 10
119.6578640154921
 20
248.169
 11
112.583302491977
 21
252.2535
 72
    1
 10
112.583302491977
 20
252.2535
 11
119.6578640154921
 21
256.338
 97
    0
 75
    0
 76
    1
 98
    0
  0
HATCH
  5
7A
100
AcDbEntity
  8
Relleno
  6
ByLayer
 62
  254
420
16764365
370
   -1
100
AcDbHatch
 10
0
 20
0
 30
0
210
0
220
0
230
1
  2
SOLID
 70
    1
 71
    0
 91
    1
 92
    0
 93
    9
 72
    1
 10
112.583302491977
 20
223.662
 11
109.0460217302195
 21
225.70425
 72
    1
 10
109.0460217302195
 20
225.70425
 11
105.5087409684619
 21
227.7465
 72
    1
 10
105.5087409684619
 20
227.7465
 11
101.9714602067044
 21
229.78875
 72
    1
 10
101.9714602067044
 20
229.78875
 11
109.0460217302195
 21
233.87325
 72
    1
 10
109.0460217302195
 20
233.87325
 11
109.0460217302195
 21
237.95775
 72
    1
 10
109.0460217302195
 20
237.95775
 11
112.583302491977
 21
240
 72
    1
 10
112.583302491977
 20
240
 11
119.6578640154921
 21
235.9155
 72
    1
 10
119.6578640154921
 20
235.9155
 11
126.7324255390072
 21
231.831
 72
    1
 10
126.7324255390072
 20
231.831
 11
112.583302491977
 21
223.662
 97
    0
 75
    0
 76
    1
 98
    0
  0
HATCH
  5
7B
100
AcDbEntity
  8
Relleno
  6
ByLayer
 62
   11
420
16738665
370
   -1
100
AcDbHatch
 10
0
 20
0
 30
0
210
0
220
0
230
1
  2
SOLID
 70
    1
 71
    0
 91
    1
 92
    0
 93
   16
 72
    1
 10
91.35961792143178
 20
231.831
 11
98.43417944494685
 21
227.7465
 72
    1
 10
98.43417944494685
 20
227.7465
 11
105.5087409684619
 21
223.662
 72
    1
 10
105.5087409684619
 20
223.662
 11
112.583302491977
 21
219.5775
 72
    1
 10
112.583302491977
 20
219.5775
 11
112.583302491977
 21
223.662
 72
    1
 10
112.583302491977
 20
223.662
 11
109.0460217302195
 21
225.70425
 72
    1
 10
109.0460217302195
 20
225.70425
 11
105.5087409684619
 21
227.7465
 72
    1
 10
105.5087409684619
 20
227.7465
 11
101.9714602067044
 21
229.78875
 72
    1
 10
101.9714602067044
 20
229.78875
 11
101.9714602067044
 21
250.21125
 72
    1
 10
101.9714602067044
 20
250.21125
 11
91.35961792143178
 21
256.338
 72
    1
 10
91.35961792143178
 20
256.338
 11
91.35961792143178
 21
231.831
 72
    1
 10
119.6578640154921
 20
240
 11
126.7324255390072
 21
231.831
 72
    1
 10
126.7324255390072
 20
231.831
 11
119.6578640154921
 21
235.9155
 72
    1
 10
119.6578640154921
 20
235.9155
 11
112.583302491977
 21
240
 72
    1
 10
112.583302491977
 20
240
 11
112.583302491977
 21
252.2535
 72
    1
 10
112.583302491977
 20
252.2535
 11
119.6578640154921
 21
248.169
 72
    1
 10
119.6578640154921
 20
248.169
 11
119.6578640154921
 21
240
 97
    0
 75
    0
 76
    1
 98
    0
  0
HATCH
  5
7C
100
AcDbEntity
  8
Relleno
  6
ByLayer
 62
   20
420
16725815
370
   -1
100
AcDbHatch
 10
0
 20
0
 30
0
210
0
220
0
230
1
  2
SOLID
 70
    1
 71
    0
 91
    1
 92
    0
 93
    4
 72
    1
 10
126.7324255390072
 20
244.0845
 11
133.8069870625222
 21
235.9155
 72
    1
 10
133.8069870625222
 20
235.9155
 11
126.7324255390072
 21
231.831
 72
    1
 10
126.7324255390072
 20
231.831
 11
119.6578640154921
 21
240
 72
    1
 10
119.6578640154921
 20
240
 11
126.7324255390072
 21
244.0845
 97
    0
 75
    0
 76
    1
 98
    0
  0
LINE
  5
7D
100
AcDbEntity
  8
A4_Hoja
  6
ByLayer
 62
  256
370
   -1
100
AcDbLine
 10
0
 20
0
 11
210
 21
0
  0
LINE
  5
7E
100
AcDbEntity
  8
A4_Hoja
  6
ByLayer
 62
  256
370
   -1
100
AcDbLine
 10
0
 20
0
 11
0
 21
297
  0
LINE
  5
7F
100
AcDbEntity
  8
A4_Hoja
  6
ByLayer
 62
  256
370
   -1
100
AcDbLine
 10
210
 20
0
 11
210
 21
297
  0
LINE
  5
80
100
AcDbEntity
  8
A4_Hoja
  6
ByLayer
 62
  256
370
   -1
100
AcDbLine
 10
0
 20
297
 11
210
 21
297
  0
LINE
  5
81
100
AcDbEntity
  8
A4_Recuadro
  6
ByLayer
 62
  256
370
   -1
100
AcDbLine
 10
25
 20
10
 11
200
 21
10
  0
LINE
  5
82
100
AcDbEntity
  8
A4_Recuadro
  6
ByLayer
 62
  256
370
   -1
100
AcDbLine
 10
200
 20
287
 11
25
 21
287
  0
LINE
  5
83
100
AcDbEntity
  8
A4_Recuadro
  6
ByLayer
 62
  256
370
   -1
100
AcDbLine
 10
25
 20
287
 11
25
 21
70
  0
LINE
  5
84
100
AcDbEntity
  8
A4_Recuadro
  6
ByLayer
 62
  256
370
   -1
100
AcDbLine
 10
25
 20
70
 11
25
 21
10
  0
LINE
  5
85
100
AcDbEntity
  8
A4_Recuadro
  6
ByLayer
 62
  256
370
   -1
100
AcDbLine
 10
200
 20
10
 11
200
 21
70
  0
LINE
  5
86
100
AcDbEntity
  8
A4_Recuadro
  6
ByLayer
 62
  256
370
   -1
100
AcDbLine
 10
200
 20
70
 11
200
 21
287
  0
LINE
  5
87
100
AcDbEntity
  8
A4_Recuadro
  6
ByLayer
 62
  256
370
   -1
100
AcDbLine
 10
25
 20
70
 11
51
 21
70
  0
LINE
  5
88
100
AcDbEntity
  8
A4_Recuadro
  6
ByLayer
 62
  256
370
   -1
100
AcDbLine
 10
51
 20
70
 11
71
 21
70
  0
LINE
  5
89
100
AcDbEntity
  8
A4_Recuadro
  6
ByLayer
 62
  256
370
   -1
100
AcDbLine
 10
71
 20
70
 11
145
 21
70
  0
LINE
  5
8A
100
AcDbEntity
  8
A4_Recuadro
  6
ByLayer
 62
  256
370
   -1
100
AcDbLine
 10
145
 20
70
 11
200
 21
70
  0
LINE
  5
8B
100
AcDbEntity
  8
A4_Auxiliares
  6
ByLayer
 62
  256
370
   -1
100
AcDbLine
 10
51
 20
30
 11
71
 21
50
  0
LINE
  5
8C
100
AcDbEntity
  8
A4_Auxiliares
  6
ByLayer
 62
  256
370
   -1
100
AcDbLine
 10
84
 20
65
 11
71
 21
60
  0
LINE
  5
8D
100
AcDbEntity
  8
A4_Auxiliares
  6
ByLayer
 62
  256
370
   -1
100
AcDbLine
 10
71
 20
50
 11
145
 21
10.00000000000001
  0
LINE
  5
8E
100
AcDbEntity
  8
A4_Auxiliares
  6
ByLayer
 62
  256
370
   -1
100
AcDbLine
 10
145
 20
10.00000000000001
 11
190
 21
20
  0
LINE
  5
8F
100
AcDbEntity
  8
A4_Auxiliares
  6
ByLayer
 62
  256
370
   -1
100
AcDbLine
 10
190
 20
10
 11
145
 21
20
  0
LINE
  5
90
100
AcDbEntity
  8
A4_Auxiliares
  6
ByLayer
 62
  256
370
   -1
100
AcDbLine
 10
71
 20
30
 11
51
 21
50
  0
LINE
  5
91
100
AcDbEntity
  8
A4_Auxiliares
  6
ByLayer
 62
  256
370
   -1
100
AcDbLine
 10
71
 20
65
 11
84
 21
60
  0
LINE
  5
92
100
AcDbEntity
  8
A4_Auxiliares
  6
ByLayer
 62
  256
370
   -1
100
AcDbLine
 10
71
 20
10
 11
145
 21
50
  0
LINE
  5
93
100
AcDbEntity
  8
A4_Auxiliares
  6
ByLayer
 62
  256
370
   -1
100
AcDbLine
 10
104
 20
50
 11
145
 21
70
  0
LINE
  5
94
100
AcDbEntity
  8
A4_Auxiliares
  6
ByLayer
 62
  256
370
   -1
100
AcDbLine
 10
104
 20
70
 11
145
 21
50
  0
MTEXT
  5
95
100
AcDbEntity
  8
A4_Etiquetas
  6
ByLayer
 62
  256
370
   -1
100
AcDbMText
 10
72
 20
49
 30
0
 40
2
 41
16.66666666666726
 71
    1
 72
    1
  1
Denominación
  7
standard
210
0
220
0
230
1
 50
0
 73
    2
 44
1
  0
MTEXT
  5
96
100
AcDbEntity
  8
A4_Etiquetas
  6
ByLayer
 62
  256
370
   -1
100
AcDbMText
 10
146
 20
29
 30
0
 40
2
 41
21.44444444444472
 71
    1
 72
    1
  1
Nº plano cliente
  7
standard
210
0
220
0
230
1
 50
0
 73
    2
 44
1
  0
MTEXT
  5
97
100
AcDbEntity
  8
A4_Etiquetas
  6
ByLayer
 62
  256
370
   -1
100
AcDbMText
 10
146
 20
19
 30
0
 40
2
 41
11.05555555555574
 71
    1
 72
    1
  1
Nº plano
  7
standard
210
0
220
0
230
1
 50
0
 73
    2
 44
1
  0
MTEXT
  5
98
100
AcDbEntity
  8
A4_Etiquetas
  6
ByLayer
 62
  256
370
   -1
100
AcDbMText
 10
191
 20
19
 30
0
 40
2
 41
4.888888888889075
 71
    1
 72
    1
  1
Pag.
  7
standard
210
0
220
0
230
1
 50
0
 73
    2
 44
1
  0
LINE
  5
99
100
AcDbEntity
  8
A4_Auxiliares
  6
ByLayer
 62
  256
370
   -1
100
AcDbLine
 10
84
 20
60
 11
104
 21
65
  0
LINE
  5
9A
100
AcDbEntity
  8
A4_Auxiliares
  6
ByLayer
 62
  256
370
   -1
100
AcDbLine
 10
104
 20
60
 11
84
 21
65
  0
LINE
  5
9B
100
AcDbEntity
  8
A4_Divisiones
  6
ByLayer
 62
    9
370
   35
100
AcDbLine
 10
51
 20
70
 11
51
 21
9.999999999999993
  0
LINE
  5
9C
100
AcDbEntity
  8
A4_Divisiones
  6
ByLayer
 62
    9
370
   35
100
AcDbLine
 10
145
 20
10.00000000000001
 11
145
 21
70
  0
LINE
  5
9D
100
AcDbEntity
  8
A4_Divisiones
  6
ByLayer
 62
    9
370
   35
100
AcDbLine
 10
51
 20
65
 11
71
 21
65
  0
LINE
  5
9E
100
AcDbEntity
  8
A4_Divisiones
  6
ByLayer
 62
    9
370
   35
100
AcDbLine
 10
51
 20
60
 11
71
 21
60
  0
LINE
  5
9F
100
AcDbEntity
  8
A4_Divisiones
  6
ByLayer
 62
    9
370
   35
100
AcDbLine
 10
51
 20
55
 11
71
 21
55
  0
LINE
  5
A0
100
AcDbEntity
  8
A4_Divisiones
  6
ByLayer
 62
    9
370
   35
100
AcDbLine
 10
51
 20
50
 11
71
 21
50
  0
LINE
  5
A1
100
AcDbEntity
  8
A4_Divisiones
  6
ByLayer
 62
    9
370
   35
100
AcDbLine
 10
51
 20
30
 11
71
 21
30
  0
LINE
  5
A2
100
AcDbEntity
  8
A4_Divisiones
  6
ByLayer
 62
    9
370
   35
100
AcDbLine
 10
51
 20
20
 11
71
 21
20
  0
LINE
  5
A3
100
AcDbEntity
  8
A4_Divisiones
  6
ByLayer
 62
    9
370
   35
100
AcDbLine
 10
71
 20
70
 11
71
 21
50
  0
LINE
  5
A4
100
AcDbEntity
  8
A4_Divisiones
  6
ByLayer
 62
    9
370
   35
100
AcDbLine
 10
71
 20
50
 11
71
 21
9.999999999999993
  0
LINE
  5
A5
100
AcDbEntity
  8
A4_Divisiones
  6
ByLayer
 62
    9
370
   35
100
AcDbLine
 10
145
 20
60
 11
200
 21
60
  0
LINE
  5
A6
100
AcDbEntity
  8
A4_Divisiones
  6
ByLayer
 62
    9
370
   35
100
AcDbLine
 10
145
 20
50
 11
200
 21
50
  0
LINE
  5
A7
100
AcDbEntity
  8
A4_Divisiones
  6
ByLayer
 62
    9
370
   35
100
AcDbLine
 10
145
 20
30
 11
200
 21
30
  0
LINE
  5
A8
100
AcDbEntity
  8
A4_Divisiones
  6
ByLayer
 62
    9
370
   35
100
AcDbLine
 10
145
 20
20
 11
200
 21
20
  0
LINE
  5
A9
100
AcDbEntity
  8
A4_Divisiones
  6
ByLayer
 62
    9
370
   35
100
AcDbLine
 10
190
 20
10
 11
190
 21
20
  0
LINE
  5
AA
100
AcDbEntity
  8
A4_Divisiones
  6
ByLayer
 62
    9
370
   35
100
AcDbLine
 10
84
 20
70
 11
84
 21
50
  0
LINE
  5
AB
100
AcDbEntity
  8
A4_Divisiones
  6
ByLayer
 62
    9
370
   35
100
AcDbLine
 10
104
 20
70
 11
104
 21
50
  0
LINE
  5
AC
100
AcDbEntity
  8
A4_Divisiones
  6
ByLayer
 62
    9
370
   35
100
AcDbLine
 10
71
 20
50
 11
84
 21
50
  0
LINE
  5
AD
100
AcDbEntity
  8
A4_Divisiones
  6
ByLayer
 62
    9
370
   35
100
AcDbLine
 10
84
 20
50
 11
104
 21
50
  0
LINE
  5
AE
100
AcDbEntity
  8
A4_Divisiones
  6
ByLayer
 62
    9
370
   35
100
AcDbLine
 10
104
 20
50
 11
145
 21
50
  0
LINE
  5
AF
100
AcDbEntity
  8
A4_Divisiones
  6
ByLayer
 62
    9
370
   35
100
AcDbLine
 10
71
 20
55
 11
84
 21
55
  0
LINE
  5
B0
100
AcDbEntity
  8
A4_Divisiones
  6
ByLayer
 62
    9
370
   35
100
AcDbLine
 10
84
 20
55
 11
104
 21
55
  0
LINE
  5
B1
100
AcDbEntity
  8
A4_Divisiones
  6
ByLayer
 62
    9
370
   35
100
AcDbLine
 10
84
 20
60
 11
104
 21
60
  0
LINE
  5
B2
100
AcDbEntity
  8
A4_Divisiones
  6
ByLayer
 62
    9
370
   35
100
AcDbLine
 10
71
 20
60
 11
84
 21
60
  0
LINE
  5
B3
100
AcDbEntity
  8
A4_Divisiones
  6
ByLayer
 62
    9
370
   35
100
AcDbLine
 10
71
 20
65
 11
84
 21
65
  0
LINE
  5
B4
100
AcDbEntity
  8
A4_Divisiones
  6
ByLayer
 62
    9
370
   35
100
AcDbLine
 10
84
 20
65
 11
104
 21
65
  0
MTEXT
  5
B5
100
AcDbEntity
  8
A4_Etiquetas
  6
ByLayer
 62
  256
370
   -1
100
AcDbMText
 10
52
 20
69
 30
0
 40
2
 41
11.33333333333333
 71
    1
 72
    1
  1
Proyectó
  7
STANDARD
210
0
220
0
230
1
 50
0
 73
    2
 44
1
  0
MTEXT
  5
B6
100
AcDbEntity
  8
A4_Etiquetas
  6
ByLayer
 62
  256
370
   -1
100
AcDbMText
 10
52
 20
64
 30
0
 40
2
 41
7.555555555555866
 71
    1
 72
    1
  1
Dibujó
  7
standard
210
0
220
0
230
1
 50
0
 73
    2
 44
1
  0
MTEXT
  5
B7
100
AcDbEntity
  8
A4_Etiquetas
  6
ByLayer
 62
  256
370
   -1
100
AcDbMText
 10
52
 20
59
 30
0
 40
2
 41
8.000001028574394
 71
    1
 72
    1
  1
Revisó
  7
standard
210
0
220
0
230
1
 50
0
 73
    2
 44
1
  0
MTEXT
  5
B8
100
AcDbEntity
  8
A4_Etiquetas
  6
ByLayer
 62
  256
370
   -1
100
AcDbMText
 10
52
 20
54
 30
0
 40
2
 41
8.888888888888982
 71
    1
 72
    1
  1
Aprobó
  7
standard
210
0
220
0
230
1
 50
0
 73
    2
 44
1
  0
MTEXT
  5
B9
100
AcDbEntity
  8
A4_Etiquetas
  6
ByLayer
 62
  256
370
   -1
100
AcDbMText
 10
26
 20
69
 30
0
 40
2
 41
14.66666769524134
 71
    1
 72
    1
  1
Tolerancias\Pgenerales
  7
STANDARD
210
0
220
0
230
1
 50
0
 73
    2
 44
1
  0
MTEXT
  5
BA
100
AcDbEntity
  8
A4_Etiquetas
  6
ByLayer
 62
  256
370
   -1
100
AcDbMText
 10
105
 20
69
 30
0
 40
2
 41
8.444444444444661
 71
    1
 72
    1
  1
Cliente
  7
standard
210
0
220
0
230
1
 50
0
 73
    2
 44
1
  0
LINE
  5
BB
100
AcDbEntity
  8
A4_Auxiliares
  6
ByLayer
 62
  256
370
   -1
100
AcDbLine
 10
71
 20
20
 11
51
 21
10
  0
LINE
  5
BC
100
AcDbEntity
  8
A4_Auxiliares
  6
ByLayer
 62
  256
370
   -1
100
AcDbLine
 10
51
 20
20
 11
71
 21
10
  0
MTEXT
  5
BD
100
AcDbEntity
  8
A4_Etiquetas
  6
ByLayer
 62
  256
370
   -1
100
AcDbMText
 10
52
 20
19
 30
0
 40
2
 41
10.22222222222241
 71
    1
 72
    1
  1
Formato
  7
standard
210
0
220
0
230
1
 50
0
 73
    2
 44
1
  0
MTEXT
  5
BE
100
AcDbEntity
  8
A4_Rotulacion
  6
ByLayer
 62
  256
370
   -1
100
AcDbMText
 10
124.5
 20
60
 30
0
 40
6
 41
8.666665394653769
 71
    5
 72
    1
  1
SR
  7
standard
210
0
220
0
230
1
 50
0
 73
    2
 44
1
  0
MTEXT
  5
BF
100
AcDbEntity
  8
A4_Rotulacion
  6
ByLayer
 62
  256
370
   -1
100
AcDbMText
 10
61
 20
15
 30
0
 40
2
 41
3.111111111111111
 71
    2
 72
    1
  1
A4
  7
STANDARD
210
0
220
0
230
1
 50
0
 73
    2
 44
1
  0
MTEXT
  5
C0
100
AcDbEntity
  8
A4_Etiquetas
  6
ByLayer
 62
  256
370
   -1
100
AcDbMText
 10
52
 20
49
 30
0
 40
2
 41
7.77777880635236
 71
    1
 72
    1
  1
Escala
  7
STANDARD
210
0
220
0
230
1
 50
0
 73
    2
 44
1
  0
LINE
  5
C1
100
AcDbEntity
  8
A4_Divisiones
  6
ByLayer
 62
  256
370
   -1
100
AcDbLine
 10
200
 20
178.5
 11
25
 21
178.5
  0
LINE
  5
C2
100
AcDbEntity
  8
A4_Auxiliares
  6
ByLayer
 62
  256
370
   -1
100
AcDbLine
 10
25
 20
287
 11
112.5
 21
232.75
  0
LINE
  5
C3
100
AcDbEntity
  8
A4_Auxiliares
  6
ByLayer
 62
  256
370
   -1
100
AcDbLine
 10
112.5
 20
232.75
 11
200
 21
178.5
  0
LINE
  5
C4
100
AcDbEntity
  8
A4_Auxiliares
  6
ByLayer
 62
  256
370
   -1
100
AcDbLine
 10
200
 20
178.5
 11
112.5
 21
124.25
  0
LINE
  5
C5
100
AcDbEntity
  8
A4_Auxiliares
  6
ByLayer
 62
  256
370
   -1
100
AcDbLine
 10
112.5
 20
124.25
 11
25
 21
70
  0
LINE
  5
C6
100
AcDbEntity
  8
A4_Auxiliares
  6
ByLayer
 62
  256
370
   -1
100
AcDbLine
 10
200
 20
70
 11
112.5
 21
124.25
  0
LINE
  5
C7
100
AcDbEntity
  8
A4_Auxiliares
  6
ByLayer
 62
  256
370
   -1
100
AcDbLine
 10
112.5
 20
124.25
 11
25
 21
178.5
  0
LINE
  5
C8
100
AcDbEntity
  8
A4_Auxiliares
  6
ByLayer
 62
  256
370
   -1
100
AcDbLine
 10
25
 20
178.5
 11
112.5
 21
232.75
  0
LINE
  5
C9
100
AcDbEntity
  8
A4_Auxiliares
  6
ByLayer
 62
  256
370
   -1
100
AcDbLine
 10
112.5
 20
232.75
 11
200
 21
287
  0
LINE
  5
CA
100
AcDbEntity
  8
A4_Auxiliares
  6
ByLayer
 62
  256
370
   -1
100
AcDbLine
 10
112.5
 20
287
 11
200
 21
232.75
  0
LINE
  5
CB
100
AcDbEntity
  8
A4_Auxiliares
  6
ByLayer
 62
  256
370
   -1
100
AcDbLine
 10
200
 20
232.75
 11
112.5
 21
178.5
  0
LINE
  5
CC
100
AcDbEntity
  8
A4_Auxiliares
  6
ByLayer
 62
  256
370
   -1
100
AcDbLine
 10
112.5
 20
178.5
 11
25
 21
232.75
  0
LINE
  5
CD
100
AcDbEntity
  8
A4_Auxiliares
  6
ByLayer
 62
  256
370
   -1
100
AcDbLine
 10
25
 20
232.75
 11
112.5
 21
287
  0
LINE
  5
CE
100
AcDbEntity
  8
A4_Auxiliares
  6
ByLayer
 62
  256
370
   -1
100
AcDbLine
 10
112.5
 20
178.5
 11
200
 21
124.25
  0
LINE
  5
CF
100
AcDbEntity
  8
A4_Auxiliares
  6
ByLayer
 62
  256
370
   -1
100
AcDbLine
 10
200
 20
124.25
 11
112.5
 21
70
  0
LINE
  5
D0
100
AcDbEntity
  8
A4_Auxiliares
  6
ByLayer
 62
  256
370
   -1
100
AcDbLine
 10
112.5
 20
70
 11
25
 21
124.25
  0
LINE
  5
D1
100
AcDbEntity
  8
A4_Auxiliares
  6
ByLayer
 62
  256
370
   -1
100
AcDbLine
 10
25
 20
124.25
 11
112.5
 21
178.5
  0
MTEXT
  5
D2
100
AcDbEntity
  8
A4_Rotulacion
  6
ByLayer
 62
  256
370
   -1
100
AcDbMText
 10
167.5
 20
15
 30
0
 40
6
 41
1.333333333333333
 71
    5
 72
    1
  1
1
  7
standard
210
0
220
0
230
1
 50
0
 73
    2
 44
1
  0
LINE
  5
D3
100
AcDbEntity
  8
A4_Sistema_Americano
  6
ByLayer
 62
  256
370
   -1
100
AcDbLine
 10
68
 20
21
 11
68
 21
29
  0
CIRCLE
  5
D4
100
AcDbEntity
  8
A4_Sistema_Americano
  6
ByLayer
 62
  256
370
   -1
100
AcDbCircle
 10
57
 20
25
 40
3
  0
CIRCLE
  5
D5
100
AcDbEntity
  8
A4_Sistema_Americano
  6
ByLayer
 62
  256
370
   -1
100
AcDbCircle
 10
57
 20
25
 40
1.5
  0
LINE
  5
D6
100
AcDbEntity
  8
A4_Sistema_Americano
  6
ByLayer
 62
  256
370
   -1
100
AcDbLine
 10
68
 20
29
 11
61
 21
27
  0
LINE
  5
D7
100
AcDbEntity
  8
A4_Sistema_Americano
  6
ByLayer
 62
  256
370
   -1
100
AcDbLine
 10
61
 20
27
 11
61
 21
23
  0
LINE
  5
D8
100
AcDbEntity
  8
A4_Sistema_Americano
  6
ByLayer
 62
  256
370
   -1
100
AcDbLine
 10
61
 20
23
 11
68
 21
21
  0
LINE
  5
D9
100
AcDbEntity
  8
A4_Sistema_Americano
  6
DASHDOTTINY
 62
  256
370
   -1
100
AcDbLine
 10
53
 20
25
 11
69
 21
25
  0
LINE
  5
DA
100
AcDbEntity
  8
A4_Sistema_Americano
  6
DASHDOTTINY
 62
  256
370
   -1
100
AcDbLine
 10
57
 20
21
 11
57
 21
29
  0
LINE
  5
DB
100
AcDbEntity
  8
A4_Sistema_Europeo
  6
DASHDOTTINY
 62
  256
370
   -1
100
AcDbLine
 10
53
 20
25
 11
69
 21
25
  0
CIRCLE
  5
DC
100
AcDbEntity
  8
A4_Sistema_Europeo
  6
ByLayer
 62
  256
370
   -1
100
AcDbCircle
 10
65
 20
25
 40
3
  0
CIRCLE
  5
DD
100
AcDbEntity
  8
A4_Sistema_Europeo
  6
ByLayer
 62
  256
370
   -1
100
AcDbCircle
 10
65
 20
25
 40
1.5
  0
LINE
  5
DE
100
AcDbEntity
  8
A4_Sistema_Europeo
  6
DASHDOTTINY
 62
  256
370
   -1
100
AcDbLine
 10
65
 20
21
 11
65
 21
29
  0
LINE
  5
DF
100
AcDbEntity
  8
A4_Sistema_Europeo
  6
ByLayer
 62
  256
370
   -1
100
AcDbLine
 10
61
 20
21
 11
61
 21
29
  0
LINE
  5
E0
100
AcDbEntity
  8
A4_Sistema_Europeo
  6
ByLayer
 62
  256
370
   -1
100
AcDbLine
 10
61
 20
29
 11
54
 21
27
  0
LINE
  5
E1
100
AcDbEntity
  8
A4_Sistema_Europeo
  6
ByLayer
 62
  256
370
   -1
100
AcDbLine
 10
54
 20
27
 11
54
 21
23
  0
LINE
  5
E2
100
AcDbEntity
  8
A4_Sistema_Europeo
  6
ByLayer
 62
  256
370
   -1
100
AcDbLine
 10
54
 20
23
 11
61
 21
21
  0
MTEXT
  5
E3
100
AcDbEntity
  8
A4_Rotulacion
  6
ByLayer
 62
  256
370
   -1
100
AcDbMText
 10
108
 20
30
 30
0
 40
6
 41
34.50000000000055
 71
    5
 72
    1
  1
Parcial 2
  7
STANDARD
210
0
220
0
230
1
 50
0
 73
    2
 44
1
  0
MTEXT
  5
E4
100
AcDbEntity
  8
A4_Rotulacion
  6
ByLayer
 62
  256
370
   -1
100
AcDbMText
 10
77.5
 20
62.5
 30
0
 40
1.5
 41
11.33333333333352
 71
    5
 72
    1
  1
30/05/2024
  7
standard
210
0
220
0
230
1
 50
0
 73
    2
 44
1
  0
MTEXT
  5
E5
100
AcDbEntity
  8
A4_Rotulacion
  6
ByLayer
 62
  256
370
   -1
100
AcDbMText
 10
94
 20
62.5
 30
0
 40
2
 41
5.555555555555648
 71
    5
 72
    1
  1
León
  7
standard
210
0
220
0
230
1
 50
0
 73
    2
 44
1
  0
LINE
  5
E6
100
AcDbEntity
  8
Caballera
  6
ByLayer
 62
  256
370
   -1
100
AcDbLine
 10
107.7942286340599
 20
100.5
 11
117.7942286340599
 21
100.5
  0
LINE
  5
E7
100
AcDbEntity
  8
Caballera
  6
ByLayer
 62
  256
370
   -1
100
AcDbLine
 10
117.7942286340599
 20
100.5
 11
127.7942286340599
 21
100.5
  0
LINE
  5
E8
100
AcDbEntity
  8
Caballera
  6
ByLayer
 62
  256
370
   -1
100
AcDbLine
 10
127.7942286340599
 20
100.5
 11
137.7942286340599
 21
100.5
  0
LINE
  5
E9
100
AcDbEntity
  8
Caballera
  6
ByLayer
 62
  256
370
   -1
100
AcDbLine
 10
137.7942286340599
 20
100.5
 11
137.7942286340599
 21
105.5
  0
LINE
  5
EA
100
AcDbEntity
  8
Caballera
  6
ByLayer
 62
  256
370
   -1
100
AcDbLine
 10
107.7942286340599
 20
105.5
 11
107.7942286340599
 21
100.5
  0
LINE
  5
EB
100
AcDbEntity
  8
Caballera
  6
ByLayer
 62
  256
370
   -1
100
AcDbLine
 10
105.1961524227066
 20
102
 11
107.7942286340599
 21
100.5
  0
LINE
  5
EC
100
AcDbEntity
  8
Caballera
  6
ByLayer
 62
  256
370
   -1
100
AcDbLine
 10
102.5980762113533
 20
103.5
 11
105.1961524227066
 21
102
  0
LINE
  5
ED
100
AcDbEntity
  8
Caballera
  6
ByLayer
 62
  256
370
   -1
100
AcDbLine
 10
100
 20
105
 11
102.5980762113533
 21
103.5
  0
LINE
  5
EE
100
AcDbEntity
  8
Caballera
  6
ByLayer
 62
  256
370
   -1
100
AcDbLine
 10
97.40192378864668
 20
106.5
 11
100
 21
105
  0
LINE
  5
EF
100
AcDbEntity
  8
Caballera
  6
ByLayer
 62
  256
370
   -1
100
AcDbLine
 10
94.80384757729337
 20
108
 11
97.40192378864668
 21
106.5
  0
LINE
  5
F0
100
AcDbEntity
  8
Caballera
  6
ByLayer
 62
  256
370
   -1
100
AcDbLine
 10
92.20577136594005
 20
109.5
 11
94.80384757729337
 21
108
  0
LINE
  5
F1
100
AcDbEntity
  8
Caballera
  6
ByLayer
 62
  256
370
   -1
100
AcDbLine
 10
105.1961524227066
 20
107
 11
107.7942286340599
 21
105.5
  0
LINE
  5
F2
100
AcDbEntity
  8
Caballera
  6
ByLayer
 62
  256
370
   -1
100
AcDbLine
 10
102.5980762113533
 20
108.5
 11
105.1961524227066
 21
107
  0
LINE
  5
F3
100
AcDbEntity
  8
Caballera
  6
ByLayer
 62
  256
370
   -1
100
AcDbLine
 10
100
 20
110
 11
102.5980762113533
 21
108.5
  0
LINE
  5
F4
100
AcDbEntity
  8
Caballera
  6
ByLayer
 62
  256
370
   -1
100
AcDbLine
 10
100
 20
115
 11
100
 21
110
  0
LINE
  5
F5
100
AcDbEntity
  8
Caballera
  6
ByLayer
 62
  256
370
   -1
100
AcDbLine
 10
100
 20
120
 11
100
 21
115
  0
LINE
  5
F6
100
AcDbEntity
  8
Caballera
  6
ByLayer
 62
  256
370
   -1
100
AcDbLine
 10
100
 20
125
 11
100
 21
120
  0
LINE
  5
F7
100
AcDbEntity
  8
Caballera
  6
ByLayer
 62
  256
370
   -1
100
AcDbLine
 10
100
 20
130
 11
100
 21
125
  0
LINE
  5
F8
100
AcDbEntity
  8
Caballera
  6
ByLayer
 62
  256
370
   -1
100
AcDbLine
 10
100
 20
135
 11
100
 21
130
  0
LINE
  5
F9
100
AcDbEntity
  8
Caballera
  6
ByLayer
 62
  256
370
   -1
100
AcDbLine
 10
92.20577136594005
 20
114.5
 11
92.20577136594005
 21
109.5
  0
LINE
  5
FA
100
AcDbEntity
  8
Caballera
  6
ByLayer
 62
  256
370
   -1
100
AcDbLine
 10
92.20577136594005
 20
119.5
 11
92.20577136594005
 21
114.5
  0
LINE
  5
FB
100
AcDbEntity
  8
Caballera
  6
ByLayer
 62
  256
370
   -1
100
AcDbLine
 10
92.20577136594005
 20
124.5
 11
92.20577136594005
 21
119.5
  0
LINE
  5
FC
100
AcDbEntity
  8
Caballera
  6
ByLayer
 62
  256
370
   -1
100
AcDbLine
 10
92.20577136594005
 20
129.5
 11
92.20577136594005
 21
124.5
  0
LINE
  5
FD
100
AcDbEntity
  8
Caballera
  6
ByLayer
 62
  256
370
   -1
100
AcDbLine
 10
92.20577136594005
 20
134.5
 11
92.20577136594005
 21
129.5
  0
LINE
  5
FE
100
AcDbEntity
  8
Caballera
  6
ByLayer
 62
  256
370
   -1
100
AcDbLine
 10
92.20577136594005
 20
139.5
 11
92.20577136594005
 21
134.5
  0
LINE
  5
FF
100
AcDbEntity
  8
Caballera
  6
ByLayer
 62
  256
370
   -1
100
AcDbLine
 10
97.40192378864668
 20
136.5
 11
100
 21
135
  0
LINE
  5
100
100
AcDbEntity
  8
Caballera
  6
ByLayer
 62
  256
370
   -1
100
AcDbLine
 10
94.80384757729337
 20
138
 11
97.40192378864668
 21
136.5
  0
LINE
  5
101
100
AcDbEntity
  8
Caballera
  6
ByLayer
 62
  256
370
   -1
100
AcDbLine
 10
92.20577136594005
 20
139.5
 11
94.80384757729337
 21
138
  0
LINE
  5
102
100
AcDbEntity
  8
Caballera
  6
ByLayer
 62
  256
370
   -1
100
AcDbLine
 10
100
 20
135
 11
110
 21
135
  0
LINE
  5
103
100
AcDbEntity
  8
Caballera
  6
ByLayer
 62
  256
370
   -1
100
AcDbLine
 10
107.4019237886467
 20
136.5
 11
110
 21
135
  0
LINE
  5
104
100
AcDbEntity
  8
Caballera
  6
ByLayer
 62
  256
370
   -1
100
AcDbLine
 10
112.4019237886467
 20
136.5
 11
107.4019237886467
 21
136.5
  0
LINE
  5
105
100
AcDbEntity
  8
Caballera
  6
ByLayer
 62
  256
370
   -1
100
AcDbLine
 10
117.4019237886467
 20
136.5
 11
112.4019237886467
 21
136.5
  0
LINE
  5
106
100
AcDbEntity
  8
Caballera
  6
ByLayer
 62
  256
370
   -1
100
AcDbLine
 10
122.4019237886467
 20
136.5
 11
117.4019237886467
 21
136.5
  0
LINE
  5
107
100
AcDbEntity
  8
Caballera
  6
ByLayer
 62
  256
370
   -1
100
AcDbLine
 10
127.4019237886467
 20
136.5
 11
122.4019237886467
 21
136.5
  0
LINE
  5
108
100
AcDbEntity
  8
Caballera
  6
ByLayer
 62
  256
370
   -1
100
AcDbLine
 10
97.20577136594005
 20
139.5
 11
92.20577136594005
 21
139.5
  0
LINE
  5
109
100
AcDbEntity
  8
Caballera
  6
ByLayer
 62
  256
370
   -1
100
AcDbLine
 10
102.2057713659401
 20
139.5
 11
97.20577136594005
 21
139.5
  0
LINE
  5
10A
100
AcDbEntity
  8
Caballera
  6
ByLayer
 62
  256
370
   -1
100
AcDbLine
 10
107.2057713659401
 20
139.5
 11
102.2057713659401
 21
139.5
  0
LINE
  5
10B
100
AcDbEntity
  8
Caballera
  6
ByLayer
 62
  256
370
   -1
100
AcDbLine
 10
112.2057713659401
 20
139.5
 11
107.2057713659401
 21
139.5
  0
LINE
  5
10C
100
AcDbEntity
  8
Caballera
  6
ByLayer
 62
  256
370
   -1
100
AcDbLine
 10
117.2057713659401
 20
139.5
 11
112.2057713659401
 21
139.5
  0
LINE
  5
10D
100
AcDbEntity
  8
Caballera
  6
ByLayer
 62
  256
370
   -1
100
AcDbLine
 10
122.2057713659401
 20
139.5
 11
117.2057713659401
 21
139.5
  0
LINE
  5
10E
100
AcDbEntity
  8
Caballera
  6
ByLayer
 62
  256
370
   -1
100
AcDbLine
 10
124.8038475772934
 20
138
 11
127.4019237886467
 21
136.5
  0
LINE
  5
10F
100
AcDbEntity
  8
Caballera
  6
ByLayer
 62
  256
370
   -1
100
AcDbLine
 10
122.2057713659401
 20
139.5
 11
124.8038475772934
 21
138
  0
LINE
  5
110
100
AcDbEntity
  8
Caballera
  6
ByLayer
 62
  256
370
   -1
100
AcDbLine
 10
127.4019237886467
 20
136.5
 11
127.4019237886467
 21
131.5
  0
LINE
  5
111
100
AcDbEntity
  8
Caballera
  6
ByLayer
 62
  256
370
   -1
100
AcDbLine
 10
127.4019237886467
 20
131.5
 11
127.4019237886467
 21
126.5
  0
LINE
  5
112
100
AcDbEntity
  8
Caballera
  6
ByLayer
 62
  256
370
   -1
100
AcDbLine
 10
110
 20
135
 11
110
 21
130
  0
LINE
  5
113
100
AcDbEntity
  8
Caballera
  6
ByLayer
 62
  256
370
   -1
100
AcDbLine
 10
110
 20
130
 11
110
 21
125
  0
LINE
  5
114
100
AcDbEntity
  8
Caballera
  6
ByLayer
 62
  256
370
   -1
100
AcDbLine
 10
110
 20
125
 11
110
 21
120
  0
LINE
  5
115
100
AcDbEntity
  8
Caballera
  6
ByLayer
 62
  256
370
   -1
100
AcDbLine
 10
110
 20
120
 11
110
 21
115
  0
LINE
  5
116
100
AcDbEntity
  8
Caballera
  6
ByLayer
 62
  256
370
   -1
100
AcDbLine
 10
110
 20
115
 11
110
 21
110
  0
LINE
  5
117
100
AcDbEntity
  8
Caballera
  6
ByLayer
 62
  256
370
   -1
100
AcDbLine
 10
117.4019237886467
 20
126.5
 11
127.4019237886467
 21
126.5
  0
LINE
  5
118
100
AcDbEntity
  8
Caballera
  6
ByLayer
 62
  256
370
   -1
100
AcDbLine
 10
117.4019237886467
 20
126.5
 11
117.4019237886467
 21
121.5
  0
LINE
  5
119
100
AcDbEntity
  8
Caballera
  6
ByLayer
 62
  256
370
   -1
100
AcDbLine
 10
117.4019237886467
 20
121.5
 11
117.4019237886467
 21
116.5
  0
LINE
  5
11A
100
AcDbEntity
  8
Caballera
  6
ByLayer
 62
  256
370
   -1
100
AcDbLine
 10
117.4019237886467
 20
116.5
 11
117.4019237886467
 21
111.5
  0
LINE
  5
11B
100
AcDbEntity
  8
Caballera
  6
ByLayer
 62
  256
370
   -1
100
AcDbLine
 10
127.4019237886467
 20
126.5
 11
130
 21
125
  0
LINE
  5
11C
100
AcDbEntity
  8
Caballera
  6
ByLayer
 62
  256
370
   -1
100
AcDbLine
 10
130
 20
125
 11
132.5980762113533
 21
123.5
  0
LINE
  5
11D
100
AcDbEntity
  8
Caballera
  6
ByLayer
 62
  256
370
   -1
100
AcDbLine
 10
132.5980762113533
 20
123.5
 11
132.5980762113533
 21
118.5
  0
LINE
  5
11E
100
AcDbEntity
  8
Caballera
  6
ByLayer
 62
  256
370
   -1
100
AcDbLine
 10
132.5980762113533
 20
118.5
 11
132.5980762113533
 21
113.5
  0
LINE
  5
11F
100
AcDbEntity
  8
Caballera
  6
ByLayer
 62
  256
370
   -1
100
AcDbLine
 10
122.5980762113533
 20
123.5
 11
132.5980762113533
 21
123.5
  0
LINE
  5
120
100
AcDbEntity
  8
Caballera
  6
ByLayer
 62
  256
370
   -1
100
AcDbLine
 10
120
 20
125
 11
122.5980762113533
 21
123.5
  0
LINE
  5
121
100
AcDbEntity
  8
Caballera
  6
ByLayer
 62
  256
370
   -1
100
AcDbLine
 10
117.4019237886467
 20
126.5
 11
120
 21
125
  0
LINE
  5
122
100
AcDbEntity
  8
Caballera
  6
ByLayer
 62
  256
370
   -1
100
AcDbLine
 10
122.5980762113533
 20
123.5
 11
122.5980762113533
 21
118.5
  0
LINE
  5
123
100
AcDbEntity
  8
Caballera
  6
ByLayer
 62
  256
370
   -1
100
AcDbLine
 10
122.5980762113533
 20
118.5
 11
122.5980762113533
 21
113.5
  0
LINE
  5
124
100
AcDbEntity
  8
Caballera
  6
ByLayer
 62
  256
370
   -1
100
AcDbLine
 10
127.7942286340599
 20
105.5
 11
137.7942286340599
 21
105.5
  0
LINE
  5
125
100
AcDbEntity
  8
Caballera
  6
ByLayer
 62
  256
370
   -1
100
AcDbLine
 10
117.7942286340599
 20
105.5
 11
127.7942286340599
 21
105.5
  0
LINE
  5
126
100
AcDbEntity
  8
Caballera
  6
ByLayer
 62
  256
370
   -1
100
AcDbLine
 10
107.7942286340599
 20
105.5
 11
117.7942286340599
 21
105.5
  0
LINE
  5
127
100
AcDbEntity
  8
Caballera
  6
ByLayer
 62
  256
370
   -1
100
AcDbLine
 10
122.5980762113533
 20
113.5
 11
127.7942286340599
 21
105.5
  0
LINE
  5
128
100
AcDbEntity
  8
Caballera
  6
ByLayer
 62
  256
370
   -1
100
AcDbLine
 10
132.5980762113533
 20
113.5
 11
137.7942286340599
 21
105.5
  0
LINE
  5
129
100
AcDbEntity
  8
Caballera
  6
ByLayer
 62
  256
370
   -1
100
AcDbLine
 10
132.5980762113533
 20
113.5
 11
122.5980762113533
 21
113.5
  0
LINE
  5
12A
100
AcDbEntity
  8
Caballera
  6
ByLayer
 62
  256
370
   -1
100
AcDbLine
 10
127.7942286340599
 20
105.5
 11
117.4019237886467
 21
111.5
  0
LINE
  5
12B
100
AcDbEntity
  8
Caballera
  6
ByLayer
 62
  256
370
   -1
100
AcDbLine
 10
100
 20
110
 11
110
 21
110
  0
LINE
  5
12C
100
AcDbEntity
  8
Caballera
  6
ByLayer
 62
  256
370
   -1
100
AcDbLine
 10
117.4019237886467
 20
111.5
 11
112.4019237886467
 21
111.5
  0
LINE
  5
12D
100
AcDbEntity
  8
Caballera
  6
ByLayer
 62
  256
370
   -1
100
AcDbLine
 10
112.4019237886467
 20
111.5
 11
110
 21
111.5
  0
MTEXT
  5
12E
100
AcDbEntity
  8
A4_Rotulacion
  6
ByLayer
 62
  256
370
   -1
100
AcDbMText
 10
61
 20
40
 30
0
 40
6
 41
8
 71
    5
 72
    1
  1
1:8
  7
standard
210
0
220
0
230
1
 50
0
 73
    2
 44
1
  0
LINE
  5
12F
100
AcDbEntity
  8
Isometrica
  6
ByLayer
 62
  256
370
   -1
100
AcDbLine
 10
91.35961792143178
 20
231.831
 11
98.43417944494685
 21
227.7465
  0
LINE
  5
130
100
AcDbEntity
  8
Isometrica
  6
ByLayer
 62
  256
370
   -1
100
AcDbLine
 10
98.43417944494685
 20
227.7465
 11
105.5087409684619
 21
223.662
  0
LINE
  5
131
100
AcDbEntity
  8
Isometrica
  6
ByLayer
 62
  256
370
   -1
100
AcDbLine
 10
105.5087409684619
 20
223.662
 11
112.583302491977
 21
219.5775
  0
LINE
  5
132
100
AcDbEntity
  8
Isometrica
  6
ByLayer
 62
  256
370
   -1
100
AcDbLine
 10
112.583302491977
 20
219.5775
 11
112.583302491977
 21
223.662
  0
LINE
  5
133
100
AcDbEntity
  8
Isometrica
  6
ByLayer
 62
  256
370
   -1
100
AcDbLine
 10
112.583302491977
 20
223.662
 11
109.0460217302195
 21
225.70425
  0
LINE
  5
134
100
AcDbEntity
  8
Isometrica
  6
ByLayer
 62
  256
370
   -1
100
AcDbLine
 10
109.0460217302195
 20
225.70425
 11
105.5087409684619
 21
227.7465
  0
LINE
  5
135
100
AcDbEntity
  8
Isometrica
  6
ByLayer
 62
  256
370
   -1
100
AcDbLine
 10
105.5087409684619
 20
227.7465
 11
101.9714602067044
 21
229.78875
  0
LINE
  5
136
100
AcDbEntity
  8
Isometrica
  6
ByLayer
 62
  256
370
   -1
100
AcDbLine
 10
101.9714602067044
 20
229.78875
 11
101.9714602067044
 21
250.21125
  0
LINE
  5
137
100
AcDbEntity
  8
Isometrica
  6
ByLayer
 62
  256
370
   -1
100
AcDbLine
 10
101.9714602067044
 20
250.21125
 11
91.35961792143178
 21
256.338
  0
LINE
  5
138
100
AcDbEntity
  8
Isometrica
  6
ByLayer
 62
  256
370
   -1
100
AcDbLine
 10
91.35961792143178
 20
256.338
 11
91.35961792143178
 21
231.831
  0
LINE
  5
139
100
AcDbEntity
  8
Isometrica
  6
ByLayer
 62
  256
370
   -1
100
AcDbLine
 10
112.5833024919771
 20
219.5774999999999
 11
133.8069870625223
 21
231.831
  0
LINE
  5
13A
100
AcDbEntity
  8
Isometrica
  6
ByLayer
 62
  256
370
   -1
100
AcDbLine
 10
133.8069870625223
 20
231.831
 11
133.8069870625223
 21
235.9155
  0
LINE
  5
13B
100
AcDbEntity
  8
Isometrica
  6
ByLayer
 62
  256
370
   -1
100
AcDbLine
 10
133.8069870625223
 20
235.9155
 11
112.583302491977
 21
223.662
  0
LINE
  5
13C
100
AcDbEntity
  8
Isometrica
  6
ByLayer
 62
  256
370
   -1
100
AcDbLine
 10
101.9714602067044
 20
250.21125
 11
109.0460217302195
 21
254.29575
  0
LINE
  5
13D
100
AcDbEntity
  8
Isometrica
  6
ByLayer
 62
  256
370
   -1
100
AcDbLine
 10
109.0460217302195
 20
254.29575
 11
105.5087409684619
 21
256.338
  0
LINE
  5
13E
100
AcDbEntity
  8
Isometrica
  6
ByLayer
 62
  256
370
   -1
100
AcDbLine
 10
105.5087409684619
 20
256.338
 11
119.6578640154921
 21
264.507
  0
LINE
  5
13F
100
AcDbEntity
  8
Isometrica
  6
ByLayer
 62
  256
370
   -1
100
AcDbLine
 10
119.6578640154921
 20
264.507
 11
119.6578640154921
 21
256.338
  0
LINE
  5
140
100
AcDbEntity
  8
Isometrica
  6
ByLayer
 62
  256
370
   -1
100
AcDbLine
 10
119.6578640154921
 20
256.338
 11
126.7324255390072
 21
252.2535
  0
LINE
  5
141
100
AcDbEntity
  8
Isometrica
  6
ByLayer
 62
  256
370
   -1
100
AcDbLine
 10
126.7324255390072
 20
252.2535
 11
126.7324255390072
 21
244.0845
  0
LINE
  5
142
100
AcDbEntity
  8
Isometrica
  6
ByLayer
 62
  256
370
   -1
100
AcDbLine
 10
126.7324255390072
 20
244.0845
 11
133.8069870625222
 21
235.9155
  0
LINE
  5
143
100
AcDbEntity
  8
Isometrica
  6
ByLayer
 62
  256
370
   -1
100
AcDbLine
 10
126.7324255390072
 20
244.0845
 11
119.6578640154921
 21
240
  0
LINE
  5
144
100
AcDbEntity
  8
Isometrica
  6
ByLayer
 62
  256
370
   -1
100
AcDbLine
 10
119.6578640154921
 20
240
 11
126.7324255390072
 21
231.831
  0
LINE
  5
145
100
AcDbEntity
  8
Isometrica
  6
ByLayer
 62
  256
370
   -1
100
AcDbLine
 10
119.6578640154921
 20
240
 11
119.6578640154921
 21
248.169
  0
LINE
  5
146
100
AcDbEntity
  8
Isometrica
  6
ByLayer
 62
  256
370
   -1
100
AcDbLine
 10
119.6578640154921
 20
248.169
 11
126.7324255390072
 21
252.2535
  0
LINE
  5
147
100
AcDbEntity
  8
Isometrica
  6
ByLayer
 62
  256
370
   -1
100
AcDbLine
 10
101.9714602067044
 20
229.78875
 11
109.0460217302195
 21
233.87325
  0
LINE
  5
148
100
AcDbEntity
  8
Isometrica
  6
ByLayer
 62
  256
370
   -1
100
AcDbLine
 10
109.0460217302195
 20
233.87325
 11
109.0460217302195
 21
254.29575
  0
LINE
  5
149
100
AcDbEntity
  8
Isometrica
  6
ByLayer
 62
  256
370
   -1
100
AcDbLine
 10
119.6578640154921
 20
248.169
 11
112.583302491977
 21
252.2535
  0
LINE
  5
14A
100
AcDbEntity
  8
Isometrica
  6
ByLayer
 62
  256
370
   -1
100
AcDbLine
 10
112.583302491977
 20
252.2535
 11
119.6578640154921
 21
256.338
  0
LINE
  5
14B
100
AcDbEntity
  8
Isometrica
  6
ByLayer
 62
  256
370
   -1
100
AcDbLine
 10
126.7324255390072
 20
231.831
 11
119.6578640154921
 21
235.9155
  0
LINE
  5
14C
100
AcDbEntity
  8
Isometrica
  6
ByLayer
 62
  256
370
   -1
100
AcDbLine
 10
119.6578640154921
 20
235.9155
 11
112.583302491977
 21
240
  0
LINE
  5
14D
100
AcDbEntity
  8
Isometrica
  6
ByLayer
 62
  256
370
   -1
100
AcDbLine
 10
112.583302491977
 20
240
 11
112.583302491977
 21
252.2535
  0
LINE
  5
14E
100
AcDbEntity
  8
Isometrica
  6
ByLayer
 62
  256
370
   -1
100
AcDbLine
 10
91.35961792143178
 20
256.338
 11
112.583302491977
 21
268.5915
  0
LINE
  5
14F
100
AcDbEntity
  8
Isometrica
  6
ByLayer
 62
  256
370
   -1
100
AcDbLine
 10
112.583302491977
 20
268.5915
 11
119.6578640154921
 21
264.507
  0
LINE
  5
150
100
AcDbEntity
  8
Isometrica
  6
ByLayer
 62
  256
370
   -1
100
AcDbLine
 10
112.583302491977
 20
240
 11
109.0460217302195
 21
237.95775
  0
DIMENSION
  5
151
100
AcDbEntity
  8
Cotas
  6
ByLayer
 62
  256
370
   -1
100
AcDbDimension
  2
*D1
 10
109.7241524919771
 20
214.6253069335393
 30
0
 11
99.87815395670438
 21
222.0785372191985
 31
0
 70
   33
 71
    5
 72
    0
  3
Standard
 53
0
210
0
220
0
230
1
100
AcDbAlignedDimension
 13
91.35961792143178
 23
231.831
 33
0
 14
112.5833024919771
 24
219.5774999999999
 34
0
  0
DIMENSION
  5
152
100
AcDbEntity
  8
Cotas
  6
ByLayer
 62
  256
370
   -1
100
AcDbDimension
  2
*D2
 10
136.6661370625223
 20
226.8788069335394
 30
0
 11
125.2884510272496
 21
222.0785372191985
 31
0
 70
   33
 71
    5
 72
    0
  3
Standard
 53
0
210
0
220
0
230
1
100
AcDbAlignedDimension
 13
112.5833024919771
 23
219.5774999999999
 33
0
 14
133.8069870625223
 24
231.831
 34
0
  0
DIMENSION
  5
153
100
AcDbEntity
  8
Cotas
  6
ByLayer
 62
  256
370
   -1
100
AcDbDimension
  2
*D3
 10
85.64131792143178
 20
256.338
 30
0
 11
84.10963042143177
 21
244.0845
 31
0
 70
   33
 71
    5
 72
    0
  3
Standard
 53
0
210
0
220
0
230
1
100
AcDbAlignedDimension
 13
91.35961792143178
 23
231.831
 33
0
 14
91.35961792143178
 24
256.338
 34
0
  0
LINE
  5
154
100
AcDbEntity
  8
Isometrica
  6
ByLayer
 62
  256
370
   -1
100
AcDbLine
 10
109.0460217302195
 20
233.87325
 11
109.0460217302195
 21
237.95775
  0
LINE
  5
155
100
AcDbEntity
  8
Isometrica
  6
ByLayer
 62
  256
370
   -1
100
AcDbLine
 10
112.583302491977
 20
223.662
 11
126.7324255390072
 21
231.831
  0
LINE
  5
156
100
AcDbEntity
  8
Isometrica
  6
ByLayer
 62
  256
370
   -1
100
AcDbLine
 10
126.7324255390072
 20
231.831
 11
133.8069870625222
 21
235.9155
  0
ENDSEC
  0
SECTION
  2
OBJECTS
  0
DICTIONARY
  5
C
330
0
100
AcDbDictionary
281
    1
  3
ACAD_GROUP
350
D
  0
DICTIONARY
  5
D
330
C
100
AcDbDictionary
281
    1
  0
PLOTSETTINGS
  5
157
100
AcDbPlotSettings
  6
1x1
 40
0
 41
0
 42
0
 43
0
  0
ENDSEC
  0
EOF
